<svg width="48" height="48" viewBox="0 0 48 48" fill="none" xmlns="http://www.w3.org/2000/svg">
<circle cx="24" cy="24" r="24" fill="#EE4A65"/>
<path d="M19.5798 31.38C18.4332 31.38 17.4598 31.1933 16.6598 30.82C15.8598 30.4333 15.2065 29.9133 14.6998 29.26C14.1932 28.5933 13.8198 27.8333 13.5798 26.98C13.3532 26.1133 13.2398 25.2067 13.2398 24.26V23.14C13.2398 21.7933 13.4665 20.58 13.9198 19.5C14.3732 18.42 15.0665 17.5667 15.9998 16.94C16.9332 16.3 18.1265 15.98 19.5798 15.98C21.0198 15.98 22.2065 16.3 23.1398 16.94C24.0732 17.5667 24.7598 18.42 25.1998 19.5C25.6532 20.58 25.8798 21.7933 25.8798 23.14V24.26C25.8798 25.2067 25.7598 26.1133 25.5198 26.98C25.2932 27.8333 24.9265 28.5933 24.4198 29.26C23.9265 29.9133 23.2798 30.4333 22.4798 30.82C21.6798 31.1933 20.7132 31.38 19.5798 31.38ZM19.5798 28.78C20.7665 28.78 21.6398 28.3733 22.1998 27.56C22.7598 26.7333 23.0398 25.4533 23.0398 23.72C23.0398 21.88 22.7532 20.5667 22.1798 19.78C21.6065 18.98 20.7398 18.58 19.5798 18.58C18.4065 18.58 17.5265 18.98 16.9398 19.78C16.3665 20.5667 16.0798 21.8667 16.0798 23.68C16.0798 25.4267 16.3665 26.7133 16.9398 27.54C17.5132 28.3667 18.3932 28.78 19.5798 28.78ZM30.817 31V18.16L31.697 18.84H27.837V16.4H33.637V31H30.817Z" fill="white"/>
</svg>
