<svg width="48" height="48" viewBox="0 0 48 48" fill="none" xmlns="http://www.w3.org/2000/svg">
<circle cx="24" cy="24" r="24" fill="#EE4A65"/>
<path d="M17.5798 31.38C16.4332 31.38 15.4598 31.1933 14.6598 30.82C13.8598 30.4333 13.2065 29.9133 12.6998 29.26C12.1932 28.5933 11.8198 27.8333 11.5798 26.98C11.3532 26.1133 11.2398 25.2067 11.2398 24.26V23.14C11.2398 21.7933 11.4665 20.58 11.9198 19.5C12.3732 18.42 13.0665 17.5667 13.9998 16.94C14.9332 16.3 16.1265 15.98 17.5798 15.98C19.0198 15.98 20.2065 16.3 21.1398 16.94C22.0732 17.5667 22.7598 18.42 23.1998 19.5C23.6532 20.58 23.8798 21.7933 23.8798 23.14V24.26C23.8798 25.2067 23.7598 26.1133 23.5198 26.98C23.2932 27.8333 22.9265 28.5933 22.4198 29.26C21.9265 29.9133 21.2798 30.4333 20.4798 30.82C19.6798 31.1933 18.7132 31.38 17.5798 31.38ZM17.5798 28.78C18.7665 28.78 19.6398 28.3733 20.1998 27.56C20.7598 26.7333 21.0398 25.4533 21.0398 23.72C21.0398 21.88 20.7532 20.5667 20.1798 19.78C19.6065 18.98 18.7398 18.58 17.5798 18.58C16.4065 18.58 15.5265 18.98 14.9398 19.78C14.3665 20.5667 14.0798 21.8667 14.0798 23.68C14.0798 25.4267 14.3665 26.7133 14.9398 27.54C15.5132 28.3667 16.3932 28.78 17.5798 28.78ZM26.417 31V28.2C26.417 27.5867 26.5103 27.0533 26.697 26.6C26.897 26.1467 27.217 25.7467 27.657 25.4C28.1103 25.04 28.7037 24.7 29.437 24.38L31.917 23.28C32.5303 23 32.997 22.66 33.317 22.26C33.6503 21.8467 33.817 21.32 33.817 20.68C33.817 19.9733 33.6037 19.4133 33.177 19C32.7637 18.5733 32.1703 18.36 31.397 18.36C30.6237 18.36 30.0237 18.5733 29.597 19C29.1837 19.4267 28.977 20.02 28.977 20.78H26.237C26.237 19.8733 26.4303 19.06 26.817 18.34C27.2037 17.6067 27.777 17.0333 28.537 16.62C29.297 16.1933 30.2503 15.98 31.397 15.98C32.5437 15.98 33.497 16.1867 34.257 16.6C35.017 17.0133 35.5903 17.5667 35.977 18.26C36.3637 18.94 36.557 19.7 36.557 20.54V20.8C36.557 21.8933 36.2503 22.8067 35.637 23.54C35.0237 24.26 34.1237 24.8867 32.937 25.42L30.457 26.52C29.9903 26.72 29.6637 26.9333 29.477 27.16C29.2903 27.3733 29.197 27.6667 29.197 28.04V29.32L28.517 28.58H36.617V31H26.417Z" fill="white"/>
</svg>
