<svg width="48" height="48" viewBox="0 0 48 48" fill="none" xmlns="http://www.w3.org/2000/svg">
<circle cx="24" cy="24" r="24" fill="#EE4A65"/>
<path d="M17.5798 31.38C16.4332 31.38 15.4598 31.1933 14.6598 30.82C13.8598 30.4333 13.2065 29.9133 12.6998 29.26C12.1932 28.5933 11.8198 27.8333 11.5798 26.98C11.3532 26.1133 11.2398 25.2067 11.2398 24.26V23.14C11.2398 21.7933 11.4665 20.58 11.9198 19.5C12.3732 18.42 13.0665 17.5667 13.9998 16.94C14.9332 16.3 16.1265 15.98 17.5798 15.98C19.0198 15.98 20.2065 16.3 21.1398 16.94C22.0732 17.5667 22.7598 18.42 23.1998 19.5C23.6532 20.58 23.8798 21.7933 23.8798 23.14V24.26C23.8798 25.2067 23.7598 26.1133 23.5198 26.98C23.2932 27.8333 22.9265 28.5933 22.4198 29.26C21.9265 29.9133 21.2798 30.4333 20.4798 30.82C19.6798 31.1933 18.7132 31.38 17.5798 31.38ZM17.5798 28.78C18.7665 28.78 19.6398 28.3733 20.1998 27.56C20.7598 26.7333 21.0398 25.4533 21.0398 23.72C21.0398 21.88 20.7532 20.5667 20.1798 19.78C19.6065 18.98 18.7398 18.58 17.5798 18.58C16.4065 18.58 15.5265 18.98 14.9398 19.78C14.3665 20.5667 14.0798 21.8667 14.0798 23.68C14.0798 25.4267 14.3665 26.7133 14.9398 27.54C15.5132 28.3667 16.3932 28.78 17.5798 28.78ZM31.237 31.38C30.117 31.38 29.1503 31.1667 28.337 30.74C27.537 30.3133 26.9237 29.7467 26.497 29.04C26.0703 28.32 25.857 27.52 25.857 26.64H28.597C28.597 27.3467 28.8303 27.92 29.297 28.36C29.777 28.7867 30.4237 29 31.237 29C31.7837 29 32.2503 28.9 32.637 28.7C33.037 28.4867 33.3437 28.2 33.557 27.84C33.7703 27.4667 33.877 27.04 33.877 26.56C33.877 25.84 33.6437 25.2533 33.177 24.8C32.7103 24.3333 32.0703 24.1 31.257 24.1C30.857 24.1 30.5037 24.1533 30.197 24.26C29.9037 24.3667 29.6437 24.5067 29.417 24.68L28.117 22.44L32.917 19.16L32.737 18.82H26.457V16.4H35.997V19.32L31.057 22.6L29.517 22.32C29.7703 22.24 30.0437 22.18 30.337 22.14C30.6303 22.0867 30.9503 22.06 31.297 22.06C32.4037 22.06 33.3503 22.2533 34.137 22.64C34.937 23.0133 35.5503 23.5333 35.977 24.2C36.4037 24.8667 36.617 25.6333 36.617 26.5V26.76C36.617 27.6 36.4037 28.3733 35.977 29.08C35.5503 29.7733 34.937 30.3333 34.137 30.76C33.337 31.1733 32.3703 31.38 31.237 31.38Z" fill="white"/>
</svg>
