<svg width="57" height="56" viewBox="0 0 57 56" fill="none" xmlns="http://www.w3.org/2000/svg">
<circle cx="28.3936" cy="28" r="28" fill="#EE4A65"/>
<path d="M19.4896 37.456C18.1136 37.456 16.9456 37.232 15.9856 36.784C15.0256 36.32 14.2416 35.696 13.6336 34.912C13.0256 34.112 12.5776 33.2 12.2896 32.176C12.0176 31.136 11.8816 30.048 11.8816 28.912V27.568C11.8816 25.952 12.1536 24.496 12.6976 23.2C13.2416 21.904 14.0736 20.88 15.1936 20.128C16.3136 19.36 17.7456 18.976 19.4896 18.976C21.2176 18.976 22.6416 19.36 23.7616 20.128C24.8816 20.88 25.7056 21.904 26.2336 23.2C26.7776 24.496 27.0496 25.952 27.0496 27.568V28.912C27.0496 30.048 26.9056 31.136 26.6176 32.176C26.3456 33.2 25.9056 34.112 25.2976 34.912C24.7056 35.696 23.9296 36.32 22.9696 36.784C22.0096 37.232 20.8496 37.456 19.4896 37.456ZM19.4896 34.336C20.9136 34.336 21.9616 33.848 22.6336 32.872C23.3056 31.88 23.6416 30.344 23.6416 28.264C23.6416 26.056 23.2976 24.48 22.6096 23.536C21.9216 22.576 20.8816 22.096 19.4896 22.096C18.0816 22.096 17.0256 22.576 16.3216 23.536C15.6336 24.48 15.2896 26.04 15.2896 28.216C15.2896 30.312 15.6336 31.856 16.3216 32.848C17.0096 33.84 18.0656 34.336 19.4896 34.336ZM29.4462 33.376V29.68L36.3102 19L38.8782 20.752L32.8302 30.208L33.1182 30.688H43.8702V33.376H29.4462ZM38.6142 37V24.448H41.7582V37H38.6142Z" fill="white"/>
</svg>
