<svg width="20" height="20" viewBox="0 0 20 20" fill="none" xmlns="http://www.w3.org/2000/svg">
<path d="M8.33203 9.1665V6.6665L12.4987 9.99984L8.33203 13.3332V10.8332H0.832031V9.1665H8.33203ZM2.04703 12.4998H3.81703C4.39874 13.9324 5.46012 15.1183 6.81963 15.8548C8.17913 16.5912 9.75229 16.8324 11.27 16.5371C12.7877 16.2418 14.1556 15.4283 15.1398 14.2359C16.124 13.0434 16.6633 11.546 16.6654 9.99984C16.6662 8.45205 16.1285 6.9522 15.1444 5.75752C14.1604 4.56285 12.7913 3.7478 11.272 3.45218C9.75271 3.15656 8.1779 3.39879 6.81768 4.13732C5.45746 4.87585 4.39659 6.06465 3.81703 7.49984H2.04703C3.1087 4.119 6.26703 1.6665 9.9987 1.6665C14.6012 1.6665 18.332 5.39734 18.332 9.99984C18.332 14.6023 14.6012 18.3332 9.9987 18.3332C6.26703 18.3332 3.1087 15.8807 2.04703 12.4998Z" fill="#EE4A65"/>
</svg>
