<svg width="161" height="263" viewBox="0 0 161 263" fill="none" xmlns="http://www.w3.org/2000/svg">
<path opacity="0.32" fill-rule="evenodd" clip-rule="evenodd" d="M32.0623 133.614C103.505 133.592 161 132.654 161 131.5C161 130.364 105.272 129.437 35.3702 129.388C69.8428 94.8357 96.6096 67.1434 96.0446 66.5784C95.4708 66.0046 66.9175 93.6211 31.6146 128.87C31.5921 57.4585 30.6543 0 29.5009 0C28.347 0 27.409 57.4963 27.3871 128.94C-7.94829 93.6579 -36.5392 66.0042 -37.1134 66.5784C-37.6784 67.1434 -10.9116 94.8357 23.561 129.388C-46.3081 129.438 -102 130.364 -102 131.5C-102 132.654 -44.542 133.591 26.869 133.614C-9.18288 169.692 -37.6952 199.152 -37.1122 199.735C-36.538 200.309 -7.94686 172.655 27.3888 137.373C27.4382 207.273 28.3649 263 29.5009 263C30.6364 263 31.5629 207.31 31.6129 137.443C66.9161 172.692 95.4697 200.309 96.0435 199.735C96.6264 199.152 68.1141 169.692 32.0623 133.614Z" fill="#CBC4FA"/>
</svg>
