<svg width="173" height="204" viewBox="0 0 173 204" fill="none" xmlns="http://www.w3.org/2000/svg">
<path opacity="0.32" fill-rule="evenodd" clip-rule="evenodd" d="M103.988 103.64C159.403 103.623 204 102.895 204 102C204 101.119 160.774 100.4 106.554 100.362C133.293 73.5607 154.055 52.0808 153.617 51.6425C153.172 51.1974 131.023 72.619 103.64 99.9607C103.622 44.569 102.895 0 102 0C101.105 0 100.378 44.5975 100.361 100.014C72.9526 72.6467 50.776 51.1971 50.3306 51.6425C49.8924 52.0808 70.6544 73.5608 97.3936 100.362C43.1984 100.4 0 101.119 0 102C0 102.895 44.5683 103.622 99.9595 103.64C71.9953 131.624 49.8793 154.475 50.3315 154.928C50.7769 155.373 72.9537 133.923 100.362 106.556C100.4 160.775 101.119 204 102 204C102.881 204 103.6 160.803 103.638 106.609C131.022 133.951 153.171 155.373 153.616 154.928C154.068 154.475 131.952 131.624 103.988 103.64Z" fill="#CBC4FA"/>
</svg>
