<svg width="126" height="73" viewBox="0 0 126 73" fill="none" xmlns="http://www.w3.org/2000/svg">
<rect width="125.484" height="73" rx="2.38562" fill="#FBFBFB"/>
<g clip-path="url(#clip0_241_2145)">
<path fill-rule="evenodd" clip-rule="evenodd" d="M41.2996 45.8868L43.7105 23.9285H47.7374L46.7175 33.0668C47.3268 32.2454 47.9913 31.6024 48.711 31.1379C49.4307 30.6734 50.1924 30.4412 50.996 30.4412C51.5614 30.4412 52.0779 30.5512 52.546 30.7712C53.0139 30.9913 53.418 31.336 53.758 31.8053C54.098 32.2747 54.3629 32.8737 54.5527 33.6022C54.7427 34.3307 54.8376 35.1986 54.8376 36.2058C54.8376 37.5358 54.6544 38.7997 54.2878 39.9976C53.9213 41.1955 53.429 42.2491 52.8108 43.1586C52.1927 44.068 51.4796 44.7893 50.6716 45.3222C49.8636 45.8551 49.018 46.1217 48.1348 46.1217C47.4548 46.1217 46.8565 45.9773 46.34 45.6888C45.8233 45.4004 45.384 45.0215 45.0218 44.5521L44.9821 44.6988C44.7685 45.4084 44.17 45.8868 43.4959 45.8868H41.2996ZM49.3534 33.8882C49.0621 33.8882 48.7596 34.0105 48.4461 34.2549C48.1327 34.4994 47.8302 34.8343 47.5387 35.2597C47.2474 35.6851 46.9758 36.1838 46.7241 36.7559C46.4723 37.328 46.2627 37.9367 46.0948 38.5821L45.6974 42.1318C45.9536 42.3665 46.2406 42.5328 46.5585 42.6305C46.8765 42.7283 47.1811 42.7772 47.4724 42.7772C47.9495 42.7772 48.3887 42.6011 48.7906 42.2491C49.1923 41.8971 49.539 41.4351 49.8305 40.863C50.1218 40.291 50.3491 39.6382 50.5126 38.9048C50.6759 38.1714 50.7576 37.4233 50.7576 36.6606C50.7576 35.6924 50.6296 34.9884 50.3735 34.5483C50.1173 34.1083 49.7774 33.8882 49.3534 33.8882ZM67.1834 45.8868H65.641C64.5366 45.8868 63.6411 44.8931 63.6411 43.6672C63.6411 43.5657 63.6473 43.4644 63.6598 43.3639C63.0947 44.2245 62.4675 44.8993 61.7788 45.3883C61.0899 45.8772 60.3305 46.1217 59.5004 46.1217C59.0057 46.1217 58.5289 46.0117 58.0697 45.7916C57.6105 45.5715 57.2043 45.2391 56.8511 44.7941C56.4978 44.3491 56.2152 43.782 56.0033 43.0926C55.7913 42.4032 55.6853 41.5891 55.6853 40.6503C55.6853 39.2715 55.9127 37.9636 56.3675 36.7266C56.8224 35.4895 57.4583 34.4065 58.275 33.4775C59.0919 32.5485 60.0611 31.8102 61.1827 31.2626C62.3043 30.715 63.5361 30.4412 64.8784 30.4412C65.5319 30.4412 66.1943 30.4901 66.8654 30.5879C67.5366 30.6857 68.1988 30.8617 68.8525 31.1159L67.1834 45.8868ZM61.143 42.528C61.4432 42.528 61.7347 42.4032 62.0172 42.1539C62.2998 41.9044 62.5669 41.5647 62.8187 41.1344C63.0703 40.7041 63.3021 40.2005 63.514 39.6236C63.726 39.0466 63.9071 38.4305 64.0572 37.7754L64.5341 33.5655H64.2956C63.6244 33.5655 63.0129 33.7318 62.4609 34.0643C61.909 34.3968 61.4344 34.849 61.037 35.4211C60.6396 35.9932 60.3326 36.6581 60.1163 37.416C59.9 38.1738 59.7919 38.983 59.7919 39.8436C59.7919 40.3325 59.8271 40.7481 59.8978 41.0904C59.9683 41.4326 60.0634 41.7089 60.1825 41.9192C60.3018 42.1295 60.443 42.2835 60.6065 42.3813C60.7698 42.479 60.9487 42.528 61.143 42.528ZM69.7796 45.8868L71.4487 30.6759H72.3458C73.7735 30.6759 74.9308 31.9605 74.9308 33.5451C74.9308 33.6352 74.9269 33.7252 74.9193 33.8149C75.4492 32.7783 76.0232 31.9814 76.6414 31.424C77.2596 30.8666 77.8998 30.5879 78.5621 30.5879C78.933 30.5879 79.2995 30.6808 79.6616 30.8666L78.9198 35.0764C78.4694 34.8613 78.0411 34.7537 77.6348 34.7537C76.9548 34.7537 76.3523 35.0935 75.8268 35.7731C75.3014 36.4528 74.8753 37.5455 74.5484 39.0515L73.8066 45.8868H69.7796ZM81.0393 42.6012V42.3519C81.0393 42.2541 81.0458 42.1147 81.059 41.9338C81.0724 41.7529 81.0945 41.5133 81.1253 41.2151C81.1562 40.9168 81.1983 40.5232 81.2511 40.0343L81.9532 33.8149H80.8537C80.686 33.8149 80.5448 33.7538 80.4299 33.6316C80.3151 33.5093 80.2578 33.326 80.2578 33.0815C80.2578 33.0717 80.2665 32.9861 80.2841 32.8248C80.3019 32.6634 80.3196 32.4923 80.3372 32.3114C80.3548 32.1305 80.3724 31.9618 80.3902 31.8053C80.4079 31.6489 80.4166 31.5609 80.4166 31.5413L80.5142 30.7052L82.5362 30.6759L82.8975 27.9991C83.0324 26.9999 83.8056 26.2607 84.716 26.2607H86.8147L86.3114 30.7052H89.3846L89.3577 30.9481C89.1763 32.585 87.9237 33.8149 86.4378 33.8149H85.967L85.3046 39.7849C85.2605 40.1858 85.2273 40.5012 85.2053 40.731C85.1832 40.9608 85.1656 41.1368 85.1524 41.2591C85.1432 41.3422 85.1344 41.4253 85.1258 41.5084C85.1214 41.5524 85.1193 41.5793 85.1193 41.5891C85.1193 41.8727 85.1787 42.1099 85.298 42.3006C85.4172 42.4913 85.6048 42.5865 85.861 42.5865C86.0023 42.5865 86.1192 42.5695 86.212 42.5353C86.2738 42.5125 86.4924 42.417 86.8678 42.2491L88.2189 44.8014C87.6714 45.2416 87.0841 45.5715 86.457 45.7916C85.8301 46.0117 85.1987 46.1217 84.5628 46.1217C84.0329 46.1217 83.5561 46.0409 83.1321 45.8795C82.7084 45.7182 82.3441 45.4835 82.0394 45.1755C81.7347 44.8675 81.4963 44.4984 81.324 44.068C81.1518 43.6378 81.0569 43.1489 81.0393 42.6012ZM101.518 34.4163C101.518 35.1106 101.395 35.7462 101.147 36.3232C100.9 36.9001 100.47 37.4111 99.856 37.856C99.2422 38.301 98.4166 38.6799 97.3789 38.9928C96.3411 39.3057 95.0365 39.5502 93.4644 39.7262C93.4821 40.7628 93.6876 41.5206 94.0805 41.9999C94.4735 42.479 95.0541 42.7185 95.8225 42.7185C96.1844 42.7185 96.498 42.6843 96.763 42.6159C97.0279 42.5474 97.2596 42.4594 97.4583 42.3519C98.6491 41.7073 100.073 41.9261 101.061 42.906L101.227 43.0707C100.741 43.5986 100.267 44.0559 99.8029 44.4421C99.3393 44.8283 98.8624 45.1461 98.3724 45.3956C97.8822 45.6449 97.3612 45.8283 96.8093 45.9456C96.2573 46.0629 95.6546 46.1217 95.0011 46.1217C94.1886 46.1217 93.4424 45.9677 92.7624 45.6596C92.0824 45.3516 91.4974 44.9164 91.0073 44.3541C90.5171 43.7918 90.1375 43.1147 89.868 42.3225C89.5986 41.5304 89.464 40.6503 89.464 39.6822C89.464 38.8706 89.5458 38.0785 89.709 37.306C89.8725 36.5334 90.1065 35.8074 90.4111 35.1277C90.7158 34.4481 91.089 33.8223 91.5306 33.2502C91.972 32.6781 92.4688 32.1867 93.0207 31.776C93.5727 31.3653 94.1776 31.045 94.8355 30.8152C95.4934 30.5854 96.1934 30.4705 96.9351 30.4705C97.668 30.4705 98.3194 30.5879 98.889 30.8226C99.4586 31.0573 99.9377 31.3629 100.326 31.7393C100.715 32.1158 101.011 32.5388 101.214 33.0082C101.417 33.4775 101.518 33.9469 101.518 34.4163ZM96.6967 33.5362C96.0167 33.5362 95.4206 33.8369 94.9083 34.4383C94.3962 35.0397 94.012 35.8636 93.7559 36.9099C94.6126 36.7632 95.3057 36.6092 95.8356 36.4479C96.3655 36.2865 96.7761 36.1105 97.0676 35.9198C97.3589 35.7291 97.5555 35.5238 97.657 35.3037C97.7587 35.0837 97.8094 34.8466 97.8094 34.5923C97.8094 34.3381 97.7211 34.0985 97.5445 33.8736C97.3678 33.6487 97.0852 33.5362 96.6967 33.5362ZM102.207 45.8868L103.876 30.6759H104.519C106.081 30.6759 107.347 32.0813 107.347 33.8149C107.877 32.7783 108.451 31.9814 109.069 31.424C109.687 30.8666 110.327 30.5879 110.99 30.5879C111.361 30.5879 111.727 30.6808 112.089 30.8666L111.347 35.0764C110.897 34.8613 110.469 34.7537 110.062 34.7537C109.382 34.7537 108.78 35.0935 108.254 35.7731C107.729 36.4528 107.303 37.5455 106.976 39.0515L106.234 45.8868H102.207Z" fill="black"/>
<path d="M30.8753 34.7821C34.0873 32.0811 40.6949 22.4273 30.3705 24.128C25.8737 24.8283 20.2992 28.9208 18.9685 34.0228C18.2742 32.6585 17.5082 31.3391 16.6742 30.0712C15.4352 28.3206 12.9797 30.0303 14.3563 31.831C18.2566 36.983 20.9639 43.1854 20.9639 49.4378C21.2851 46.3366 21.8134 42.1759 20.6204 38.4745C21.057 38.8021 21.0886 38.8267 21.3925 39.2261C23.5032 42.7276 26.7455 45.6363 30.3705 47.0369C33.6744 48.3875 38.0794 47.5871 36.2899 42.185C35.3263 39.2339 33.0778 36.6329 30.8753 34.7821Z" fill="#F5A623"/>
</g>
<defs>
<clipPath id="clip0_241_2145">
<rect width="98.2876" height="25.6402" fill="white" transform="translate(13.8369 23.8562)"/>
</clipPath>
</defs>
</svg>
