<svg width="126" height="73" viewBox="0 0 126 73" fill="none" xmlns="http://www.w3.org/2000/svg">
<rect width="125.484" height="73" rx="2.38562" fill="#FBFBFB"/>
<g clip-path="url(#clip0_241_2103)">
<path d="M90.3091 34.9612C92.2616 36.3006 92.8782 38.1551 92.1589 40.2157C91.4395 42.1218 89.3842 43.1521 86.5068 42.946L85.7874 39.4945C86.7123 38.9794 88.4079 39.34 87.8941 37.6915C87.6886 37.1248 86.4554 36.9188 85.325 36.4036L84.5542 42.9975H80.5978L82.242 27.6977C84.7598 27.6977 87.1747 27.5431 89.5383 27.6977C90.9257 27.8007 92.0047 28.6764 92.3644 30.1188C92.7241 31.6128 92.5699 33.0552 91.3367 34.1885L90.3091 34.9612ZM85.4791 33.1582C86.5582 32.8491 87.3803 32.6431 88.151 32.334C88.2538 32.2825 88.3052 31.3552 88.151 31.3037C87.483 30.5825 86.8151 30.4794 85.8902 30.4794L85.4791 33.1582ZM29.9345 35.8885L28.7527 46.552H24.899L26.4405 32.3855C28.8555 32.3855 31.2705 32.2825 33.6341 32.437C35.2783 32.5915 36.2546 33.8279 36.717 35.3733C37.7447 39.2369 34.97 42.8945 31.0649 42.6369L30.4484 39.5975C32.7606 38.8248 33.4799 38.1551 33.1203 36.9188C32.8633 35.8885 32.0926 35.6309 29.9345 35.8885ZM19.4011 31.1491C18.6817 31.1491 18.1165 31.0461 17.7055 31.2522C17.243 31.5613 16.7292 32.1279 16.6778 32.6431C16.5751 32.9006 17.3458 33.4158 17.8596 33.6218C18.2193 33.7764 18.7331 33.6734 19.1442 33.6734C22.8437 33.7249 25.0018 36.9188 23.7686 40.3703C22.8437 42.843 20.5315 44.3369 17.6541 44.2854L16.7806 40.3703C17.3972 40.3188 18.0138 40.4218 18.4248 40.1642C18.9387 39.8551 19.2469 39.2885 19.658 38.8248C19.1442 38.5157 18.7331 38.1036 18.2193 37.846C17.911 37.6915 17.4486 37.7945 17.0375 37.7945C13.8518 37.64 11.9506 35.5794 12.1048 32.5915C12.2589 29.7067 15.0336 26.9249 17.7569 27.0795C18.0651 27.131 18.579 27.4916 18.6304 27.8007C18.99 28.831 19.1442 29.9128 19.4011 31.1491ZM104.285 41.2975C102.384 43.2551 99.1983 43.8218 96.7319 42.7399C95.7992 42.3321 95.0189 41.6393 94.5022 40.7605C93.9855 39.8817 93.7588 38.8617 93.8545 37.846C94.0086 33.7249 97.8109 30.9946 101.767 32.1279C104.182 32.8491 105.724 35.7339 104.902 38.0521C104.799 38.3612 104.182 38.6188 103.771 38.6188L97.9651 38.6703L97.8109 39.2369C98.4789 39.4945 99.3524 40.0612 99.8149 39.8036C101.922 38.8248 102.898 40.5248 104.285 41.2975ZM101.048 36.0945L101.254 35.5794C100.74 35.3733 100.226 34.9097 99.7121 34.9612C99.1983 35.0127 98.6844 35.4764 98.1706 35.7855L98.4275 36.1976H100.02L101.048 36.0945ZM49.6141 37.0218C49.6141 40.3703 46.7366 43.2551 43.3968 43.3066C40.5707 43.3066 38.3099 41.0915 38.2585 38.2582C38.2071 34.9097 41.2901 31.8188 44.63 31.9219C47.5074 31.9734 49.6141 34.137 49.6141 37.0218ZM43.6023 39.4945C44.9382 39.4945 46.0687 38.3612 46.0173 37.2794C45.8631 36.1976 45.1952 35.5279 44.1161 35.5279C43.0371 35.5279 42.0094 36.6097 42.0094 37.6915C42.0608 38.8248 42.6774 39.3915 43.6023 39.4945ZM69.5505 32.437L69.9102 32.2309C73.1987 31.9734 73.1987 31.9734 73.9694 35.2188C74.0208 35.6824 74.1749 36.0945 74.3805 36.9188C74.9971 35.5794 75.5109 34.6521 75.8192 33.6218C76.1789 32.437 76.7955 31.9734 78.0286 32.1794C78.6452 32.2825 79.3646 32.1794 80.2895 32.1794L79.6729 33.7764C78.08 37.4854 76.3844 41.0915 74.9457 44.852C74.3805 46.346 73.5584 46.9126 72.0683 46.6551H70.5268C70.5782 46.346 70.5268 46.0884 70.6295 45.9339C72.1196 43.7187 71.6572 41.4006 71.0406 39.0309C70.4754 36.8158 70.013 34.6521 69.5505 32.437ZM59.2226 32.2825L61.4321 32.1794C61.4834 29.3976 63.8984 29.9128 65.5941 29.0885V32.0249C66.4676 32.1794 67.6494 32.0764 68.0604 32.5915C68.6256 33.3643 68.6256 34.5491 68.8825 35.7339H65.1316C64.8747 37.6915 64.5664 39.546 64.515 41.4521C64.4123 42.7399 64.0526 43.1521 62.8194 43.049C62.1 42.946 61.4321 43.049 60.4558 43.049L61.1238 36.0945C59.2226 35.4249 59.8906 33.6734 59.2226 32.2825ZM111.838 32.1279C114.048 32.3855 114.048 32.3855 114.459 35.7339H111.376L110.554 42.8945H106.752L107.163 38.0006C107.214 37.1248 107.882 36.1461 106.392 35.4249C105.827 35.1673 105.878 33.5188 105.57 32.3855C106.084 32.334 106.546 32.334 106.957 32.2309C107.265 32.1794 107.779 31.9219 107.779 31.8188C107.985 30.9946 107.985 30.5825 108.396 30.2734C108.961 29.8613 109.886 29.8098 110.605 29.5522L111.838 29.1916V32.1279ZM58.6574 35.5279L58.2977 35.6824C55.1634 35.3218 54.9065 36.4551 54.7523 39.2885L54.2899 42.946L52.9025 42.9975H50.4362C50.6931 40.5763 50.8472 38.2066 51.3611 36.043C51.9263 33.5188 54.8037 31.7673 57.3215 32.2309C57.6297 32.2825 57.9894 32.6431 58.0922 32.9522L58.6574 35.5279ZM15.7015 42.3278C15.7529 43.6157 14.6225 44.749 13.3379 44.749C12.1048 44.749 11.0257 43.6672 10.9744 42.4309C10.923 41.1945 11.8992 40.1127 13.1838 40.0612C14.5197 39.9581 15.6502 41.04 15.7015 42.3278ZM25.2073 28.9855C25.2587 30.3249 24.1797 31.4582 22.8951 31.4582C21.6619 31.4582 20.6343 30.4279 20.5829 29.1401C20.5315 27.8007 21.5592 26.7189 22.8951 26.7189C24.1797 26.7189 25.1559 27.6977 25.2073 28.9855Z" fill="#011B33"/>
<path d="M85.4781 33.1584L85.8892 30.4796C86.7113 30.7372 87.482 30.9432 88.15 31.3038C88.3042 31.3554 88.2528 32.2826 88.15 32.3341C87.3793 32.6432 86.6085 32.8493 85.4781 33.1584ZM101.047 36.0947L100.019 36.1977H98.3752L98.1696 35.7856C98.6835 35.4765 99.1973 35.0129 99.7111 34.9614C100.174 34.9099 100.687 35.3735 101.201 35.5796L101.047 36.0947ZM43.6013 39.4947C42.6764 39.3917 42.0598 38.825 42.0084 37.6917C41.9571 36.6099 42.9847 35.5281 44.1151 35.5281C45.1942 35.5281 45.8621 36.1462 46.0163 37.228C46.0677 38.3614 44.9372 39.4947 43.6013 39.4947Z" fill="white"/>
</g>
<defs>
<clipPath id="clip0_241_2103">
<rect width="103.536" height="20.0392" fill="white" transform="translate(10.9734 26.7189)"/>
</clipPath>
</defs>
</svg>
