<svg width="126" height="73" viewBox="0 0 126 73" fill="none" xmlns="http://www.w3.org/2000/svg">
<rect width="125.484" height="73" rx="2.38562" fill="#FBFBFB"/>
<g clip-path="url(#clip0_241_2124)">
<path d="M32.7883 42.1483C32.7852 42.1291 32.7874 42.1094 32.7948 42.0915C32.8022 42.0735 32.8144 42.058 32.8301 42.0465C32.8458 42.0351 32.8643 42.0282 32.8837 42.0267C32.903 42.0251 32.9224 42.029 32.9397 42.0378C33.5411 42.3437 34.1727 42.586 34.8244 42.7606C34.842 42.7654 34.8605 42.7655 34.8782 42.761C34.8958 42.7565 34.912 42.7475 34.9251 42.7349C35.2083 42.463 35.4737 42.173 35.7195 41.8669C35.7311 41.8525 35.7386 41.8352 35.7415 41.817C35.7443 41.7987 35.7423 41.78 35.7357 41.7627C35.4915 41.1292 35.1815 40.5231 34.8107 39.9544C34.8 39.9382 34.7941 39.9193 34.7935 39.8999C34.793 39.8805 34.7978 39.8613 34.8075 39.8444C34.8171 39.8276 34.8313 39.8138 34.8484 39.8045C34.8654 39.7952 34.8847 39.7908 34.9041 39.7919C35.5932 39.8282 36.2841 39.7905 36.9651 39.6793C36.983 39.6764 36.9998 39.669 37.0139 39.6577C37.0281 39.6465 37.0391 39.6318 37.046 39.6151C37.1892 39.2648 37.31 38.9058 37.4078 38.5402C37.4126 38.5223 37.4126 38.5035 37.4079 38.4856C37.4031 38.4677 37.3938 38.4514 37.3807 38.4383C36.8911 37.945 36.3498 37.5058 35.7662 37.1284C35.7499 37.1179 35.7368 37.103 35.7284 37.0855C35.72 37.068 35.7166 37.0485 35.7186 37.0292C35.7206 37.0098 35.728 36.9915 35.7398 36.976C35.7517 36.9606 35.7675 36.9488 35.7857 36.9419C36.4452 36.6887 37.0749 36.3641 37.6638 35.9738C37.6788 35.9638 37.6911 35.9502 37.6994 35.9341C37.7077 35.9181 37.7117 35.9002 37.7112 35.8821C37.6991 35.5192 37.6653 35.1572 37.6101 34.7982C37.6073 34.78 37.5998 34.7628 37.5883 34.7483C37.5767 34.7339 37.5617 34.7227 37.5445 34.7159C36.8825 34.4549 36.1937 34.2677 35.4906 34.1576C35.4714 34.1546 35.4535 34.1463 35.4387 34.1337C35.4239 34.1211 35.4129 34.1047 35.4068 34.0862C35.4008 34.0678 35.4 34.048 35.4045 34.0291C35.4091 34.0102 35.4187 33.9929 35.4324 33.9792C35.9445 33.4676 36.3976 32.9002 36.7833 32.2876C36.7928 32.2723 36.7983 32.2548 36.7993 32.2368C36.8002 32.2188 36.7965 32.2008 36.7885 32.1846C36.6244 31.8513 36.4399 31.5283 36.2362 31.2176L36.2315 31.2263C35.4878 31.251 34.7495 31.3614 34.0311 31.5552L34.0016 31.5634C33.9828 31.5686 33.9631 31.5685 33.9444 31.563C33.9258 31.5576 33.909 31.5471 33.896 31.5327C33.883 31.5183 33.8742 31.5006 33.8707 31.4815C33.8671 31.4624 33.869 31.4427 33.876 31.4246C33.8795 31.4151 33.8833 31.4055 33.8869 31.3962C34.148 30.7096 34.3302 29.9955 34.43 29.2678C34.4491 29.2598 34.4684 29.2523 34.4875 29.2447C34.174 28.9801 33.843 28.737 33.4967 28.517L33.4944 28.5184C33.4952 28.5383 33.4902 28.5581 33.48 28.5752C33.4698 28.5923 33.4548 28.6062 33.4369 28.615C32.797 28.9329 32.1942 29.3206 31.6396 29.7711L31.6158 29.7904C31.6008 29.8026 31.5827 29.8105 31.5636 29.8131C31.5444 29.8157 31.5249 29.8129 31.5071 29.8051C31.4894 29.7973 31.4743 29.7847 31.4633 29.7688C31.4523 29.7528 31.4459 29.7342 31.4449 29.7148L31.4432 29.6841C31.4038 28.973 31.2861 28.2683 31.0924 27.583C31.0873 27.5652 31.0871 27.5463 31.0918 27.5284C31.0965 27.5104 31.106 27.4941 31.1191 27.481C31.1267 27.4732 31.1347 27.4656 31.142 27.4578C30.7365 27.3417 30.3233 27.2543 29.9055 27.196L29.9015 27.2033C29.9151 27.2218 29.9222 27.2444 29.9215 27.2674C29.9208 27.2904 29.9124 27.3125 29.8977 27.3301C29.4438 27.8795 29.052 28.4774 28.7292 29.1127L28.7153 29.14C28.7066 29.1572 28.6932 29.1717 28.6768 29.1818C28.6603 29.192 28.6414 29.1974 28.622 29.1974C28.6027 29.1974 28.5838 29.1921 28.5673 29.182C28.5508 29.172 28.5374 29.1575 28.5286 29.1403L28.5147 29.113C28.1887 28.4775 27.7935 27.8799 27.3362 27.3312C27.3243 27.3171 27.3164 27.3002 27.3133 27.2821C27.3101 27.264 27.3118 27.2454 27.3181 27.2282C27.3214 27.2195 27.3249 27.2108 27.3278 27.2021C26.9145 27.2618 26.5058 27.35 26.1046 27.4663L26.1041 27.4718C26.1226 27.4837 26.1368 27.5013 26.1445 27.5219C26.1523 27.5424 26.1532 27.565 26.1472 27.5861C25.955 28.2741 25.8396 28.9813 25.803 29.6947L25.8012 29.7252C25.8003 29.7446 25.7941 29.7633 25.7831 29.7793C25.7722 29.7953 25.7571 29.808 25.7394 29.8159C25.7218 29.8238 25.7023 29.8267 25.6831 29.8241C25.6639 29.8216 25.6457 29.8139 25.6307 29.8017L25.6069 29.7824C25.0523 29.3354 24.45 28.9509 23.8111 28.636C23.7946 28.6279 23.7805 28.6157 23.7703 28.6004C23.7601 28.5851 23.7541 28.5675 23.7529 28.5491C23.7524 28.5437 23.7521 28.5383 23.7519 28.5328C23.4048 28.7549 23.0733 29.0004 22.7595 29.2674C22.7779 29.2749 22.7963 29.2819 22.8146 29.2893C22.9171 30.0166 23.1019 30.7299 23.3656 31.4154L23.3767 31.4441C23.3838 31.4622 23.3857 31.4818 23.3823 31.5009C23.3788 31.52 23.3701 31.5377 23.3571 31.5522C23.3441 31.5666 23.3274 31.5771 23.3088 31.5825C23.2902 31.588 23.2704 31.5882 23.2517 31.583L23.2222 31.5752C22.5143 31.3871 21.7874 31.2799 21.0554 31.2557L21.0367 31.2202C20.8181 31.5538 20.6217 31.9014 20.4488 32.2609C20.4561 32.2609 20.4634 32.2602 20.4707 32.26C20.8601 32.8829 21.319 33.4595 21.8387 33.9787L21.8604 34.0004C21.8742 34.014 21.8839 34.0312 21.8884 34.0501C21.893 34.0689 21.8923 34.0886 21.8863 34.107C21.8803 34.1255 21.8693 34.1419 21.8546 34.1545C21.8398 34.167 21.8219 34.1753 21.8027 34.1782L21.7725 34.1831C21.0714 34.2956 20.3847 34.4849 19.7249 34.7475C19.7077 34.7544 19.6926 34.7656 19.6811 34.7801C19.6696 34.7946 19.6622 34.8119 19.6594 34.8302C19.6055 35.1908 19.5731 35.5543 19.5625 35.9188C19.562 35.9368 19.5662 35.9547 19.5745 35.9707C19.5829 35.9868 19.5952 36.0004 19.6103 36.0103C20.1994 36.3971 20.829 36.7183 21.4879 36.9685C21.5061 36.9753 21.522 36.9871 21.5339 37.0024C21.5459 37.0178 21.5533 37.0362 21.5554 37.0555C21.5574 37.0749 21.5541 37.0944 21.5458 37.112C21.5374 37.1295 21.5243 37.1444 21.508 37.155C20.9272 37.5339 20.3887 37.9741 19.9019 38.468C19.8889 38.4811 19.8796 38.4975 19.8749 38.5154C19.8703 38.5333 19.8703 38.5521 19.8752 38.5699C19.9745 38.9364 20.0969 39.2962 20.2416 39.6472C20.2486 39.664 20.2597 39.6787 20.274 39.6899C20.2882 39.7011 20.3051 39.7085 20.3231 39.7113C21.0031 39.8194 21.6929 39.8544 22.3804 39.8155C22.3998 39.8144 22.4191 39.8187 22.4361 39.8279C22.4532 39.8371 22.4674 39.8508 22.4772 39.8676C22.4869 39.8844 22.4918 39.9035 22.4914 39.9229C22.4909 39.9423 22.4851 39.9612 22.4745 39.9775C22.1064 40.5465 21.7991 41.1525 21.5575 41.7856C21.551 41.8029 21.549 41.8217 21.552 41.84C21.5549 41.8582 21.5626 41.8754 21.5742 41.8898C21.8217 42.1961 22.0887 42.486 22.3736 42.7577C22.3868 42.7702 22.403 42.7792 22.4206 42.7836C22.4383 42.7881 22.4568 42.788 22.4743 42.7832C23.1243 42.606 23.7539 42.3615 24.3531 42.0538C24.3704 42.0449 24.3898 42.041 24.4092 42.0425C24.4285 42.044 24.4471 42.0508 24.4628 42.0622C24.4785 42.0736 24.4908 42.0891 24.4983 42.107C24.5057 42.1249 24.5081 42.1445 24.5051 42.1637C24.4017 42.8232 24.3668 43.4917 24.4009 44.1584C24.4026 44.1959 24.4243 44.2296 24.4575 44.2468C24.814 44.432 25.1824 44.5932 25.5603 44.7294C25.5776 44.7356 25.5961 44.7373 25.6142 44.7342C25.6322 44.7311 25.6492 44.7233 25.6633 44.7117C26.1781 44.2895 26.6479 43.8154 27.0654 43.2969C27.0776 43.2819 27.0937 43.2705 27.112 43.264C27.1302 43.2575 27.1499 43.2561 27.1689 43.2601C27.1879 43.2641 27.2054 43.2733 27.2195 43.2866C27.2336 43.2999 27.2437 43.3168 27.2488 43.3355C27.4212 43.9755 27.6588 44.5962 27.9579 45.1877C27.9662 45.2041 27.9785 45.218 27.9938 45.2281C28.0091 45.2383 28.0268 45.2442 28.0451 45.2454C28.4494 45.2718 28.8551 45.2712 29.2594 45.2436C29.2777 45.2424 29.2954 45.2364 29.3107 45.2262C29.326 45.216 29.3383 45.202 29.3466 45.1856C29.6435 44.5928 29.8788 43.9711 30.0488 43.3303C30.0537 43.3115 30.0638 43.2945 30.0778 43.2811C30.0919 43.2677 30.1094 43.2584 30.1284 43.2544C30.1473 43.2503 30.1671 43.2515 30.1854 43.258C30.2037 43.2644 30.2199 43.2758 30.2322 43.2909C30.6519 43.8082 31.124 44.2809 31.6408 44.7013C31.655 44.7128 31.672 44.7205 31.69 44.7235C31.7081 44.7266 31.7266 44.7249 31.7438 44.7186C32.1208 44.5814 32.4881 44.4192 32.8435 44.233C32.8598 44.2245 32.8736 44.2118 32.8835 44.1962C32.8934 44.1807 32.899 44.1629 32.8999 44.1445C32.9317 43.477 32.8942 42.808 32.7883 42.1483ZM36.065 38.5933C36.0811 38.6068 36.0928 38.6248 36.0986 38.645C36.1044 38.6652 36.1041 38.6866 36.0976 38.7066C36.0912 38.7266 36.0789 38.7442 36.0624 38.7572C36.0458 38.7701 36.0258 38.7778 36.0049 38.7794C35.8076 38.7928 35.6099 38.7996 35.4121 38.7998C34.8795 38.7999 34.348 38.7513 33.8242 38.6545C33.8022 38.6504 33.7822 38.6394 33.7669 38.623C33.4767 38.3127 33.166 38.0222 32.8369 37.7535C32.8206 37.7402 32.8087 37.7223 32.8028 37.7021C32.7969 37.682 32.7972 37.6605 32.8037 37.6405C32.8102 37.6205 32.8226 37.603 32.8392 37.5901C32.8559 37.5773 32.876 37.5698 32.897 37.5687C33.3211 37.5434 33.743 37.4899 34.1599 37.4084C34.1819 37.4041 34.2046 37.407 34.2247 37.4165C34.885 37.7303 35.5033 38.1257 36.0651 38.5933H36.065ZM35.3345 35.1501C35.6801 35.2043 36.0222 35.2791 36.3592 35.3743C36.3794 35.3801 36.3975 35.3917 36.411 35.4078C36.4246 35.4239 36.433 35.4437 36.4352 35.4646C36.4374 35.4855 36.4333 35.5066 36.4235 35.5252C36.4136 35.5438 36.3984 35.559 36.3798 35.5688C35.734 35.9106 35.0479 36.1702 34.3376 36.3415C34.3159 36.3466 34.293 36.3447 34.2725 36.3359C33.8809 36.1703 33.4786 36.031 33.0684 35.9191C33.0482 35.9136 33.0302 35.902 33.0166 35.8861C33.0031 35.8701 32.9947 35.8504 32.9925 35.8296C32.9903 35.8088 32.9944 35.7877 33.0043 35.7693C33.0142 35.7509 33.0295 35.7358 33.0481 35.7262C33.4254 35.5308 33.7891 35.3105 34.137 35.0666C34.1553 35.0537 34.1773 35.047 34.1997 35.0475C34.5798 35.0569 34.9589 35.0912 35.3345 35.1501ZM35.406 32.4894C34.956 33.0623 34.4356 33.5763 33.8572 34.0193C33.8394 34.0328 33.8178 34.0403 33.7954 34.0407C33.3656 34.049 32.9369 34.0863 32.5121 34.1525C32.4914 34.1557 32.4702 34.1526 32.4513 34.1436C32.4323 34.1345 32.4166 34.12 32.406 34.1018C32.3955 34.0837 32.3907 34.0628 32.3923 34.0419C32.3938 34.021 32.4016 34.001 32.4147 33.9846C32.6754 33.6575 32.9142 33.3135 33.1297 32.955C33.1411 32.936 33.1583 32.921 33.1787 32.9123C33.8605 32.6249 34.5762 32.4259 35.3084 32.3201C35.4019 32.3066 35.4647 32.4149 35.406 32.4894ZM31.3862 31.409C31.3888 31.3869 31.3984 31.3662 31.4136 31.35C31.9129 30.8188 32.4767 30.3523 33.0919 29.9613C33.1096 29.95 33.1304 29.9444 33.1514 29.945C33.1725 29.9457 33.1928 29.9527 33.2099 29.965C33.2269 29.9773 33.2399 29.9945 33.2471 30.0142C33.2544 30.034 33.2555 30.0555 33.2504 30.0759C33.0718 30.7826 32.8055 31.4642 32.4576 32.1047C32.4469 32.1243 32.4303 32.1399 32.4102 32.1494C32.0296 32.3288 31.6614 32.5333 31.3079 32.7614C31.2903 32.7728 31.2696 32.7787 31.2486 32.7781C31.2276 32.7776 31.2072 32.7708 31.1902 32.7585C31.1731 32.7462 31.1602 32.729 31.1531 32.7092C31.146 32.6894 31.1451 32.668 31.1504 32.6476C31.2562 32.2404 31.335 31.8266 31.3862 31.409ZM24.9765 30.565C25.2813 30.8105 25.5693 31.0762 25.8386 31.3604C25.8539 31.3766 25.8636 31.3973 25.8664 31.4194C25.9191 31.8369 25.9994 32.2504 26.1067 32.6572C26.1121 32.6775 26.1113 32.699 26.1043 32.7189C26.0973 32.7387 26.0844 32.7559 26.0674 32.7683C26.0504 32.7807 26.03 32.7877 26.009 32.7883C25.9879 32.7888 25.9672 32.7831 25.9495 32.7716C25.5973 32.5463 25.2307 32.3444 24.8519 32.1673C24.8318 32.1579 24.8152 32.1423 24.8045 32.1228C24.4533 31.484 24.1839 30.8035 24.0028 30.0974C23.9976 30.077 23.9987 30.0555 24.0058 30.0357C24.0129 30.0158 24.0259 29.9986 24.0429 29.9862C24.0599 29.9738 24.0803 29.9668 24.1014 29.966C24.1224 29.9653 24.1432 29.9709 24.1611 29.9821C24.4438 30.1606 24.716 30.3552 24.9765 30.565ZM21.8849 32.5153C21.8718 32.4988 21.864 32.4787 21.8625 32.4576C21.861 32.4366 21.8658 32.4156 21.8763 32.3973C21.8868 32.3791 21.9026 32.3644 21.9215 32.3552C21.9405 32.3459 21.9618 32.3426 21.9827 32.3456C22.7017 32.4505 23.4047 32.6443 24.0758 32.9233C24.0963 32.9318 24.1135 32.9468 24.1249 32.9658C24.3429 33.3257 24.5844 33.6708 24.8479 33.9988C24.8611 34.0152 24.8691 34.0351 24.8707 34.0561C24.8724 34.0771 24.8677 34.098 24.8572 34.1163C24.8467 34.1345 24.831 34.1491 24.812 34.1582C24.7931 34.1673 24.7718 34.1705 24.751 34.1673C24.3376 34.1046 23.9205 34.0693 23.5025 34.0613C23.4802 34.0609 23.4587 34.0534 23.441 34.04C22.8603 33.5991 22.3375 33.0869 21.8849 32.5153ZM20.9214 35.4049C21.6326 35.2013 22.367 35.0895 23.1067 35.0721C23.1289 35.0716 23.1507 35.0782 23.1689 35.0909C23.5123 35.3294 23.871 35.5451 24.2427 35.7366C24.2614 35.7462 24.2768 35.7612 24.2868 35.7797C24.2968 35.7982 24.301 35.8192 24.2988 35.8401C24.2966 35.8611 24.2882 35.8808 24.2746 35.8968C24.261 35.9129 24.2428 35.9244 24.2225 35.9299C23.808 36.0436 23.4017 36.1853 23.0063 36.3538C22.9858 36.3626 22.9629 36.3646 22.9412 36.3596C22.232 36.1928 21.5466 35.9374 20.9012 35.5994C20.8827 35.5895 20.8676 35.5743 20.8577 35.5558C20.8479 35.5373 20.8437 35.5162 20.8459 35.4954C20.8481 35.4745 20.8564 35.4547 20.8698 35.4386C20.8833 35.4225 20.9012 35.4108 20.9214 35.4049ZM22.3246 38.8118C21.9776 38.8313 21.6299 38.8299 21.2829 38.808C21.262 38.8065 21.242 38.7989 21.2254 38.786C21.2089 38.7731 21.1965 38.7555 21.19 38.7356C21.1835 38.7156 21.183 38.6942 21.1887 38.674C21.1944 38.6538 21.206 38.6358 21.222 38.6222C21.7819 38.1521 22.399 37.7547 23.0586 37.4393C23.0788 37.4296 23.1015 37.4267 23.1235 37.431C23.5381 37.51 23.9572 37.5616 24.3787 37.585C24.3996 37.5861 24.4198 37.5936 24.4364 37.6064C24.4531 37.6192 24.4655 37.6367 24.4721 37.6566C24.4786 37.6766 24.4789 37.6981 24.4731 37.7182C24.4672 37.7384 24.4553 37.7563 24.4391 37.7696C24.1111 38.0395 23.8016 38.3311 23.5126 38.6423C23.4974 38.6587 23.4774 38.6698 23.4554 38.6739C23.0818 38.7445 22.704 38.7905 22.3245 38.8118H22.3246ZM23.8939 41.1599C23.5827 41.3197 23.2622 41.4606 22.9341 41.5819C22.9143 41.5891 22.8929 41.5903 22.8725 41.5852C22.8521 41.5802 22.8337 41.5691 22.8196 41.5536C22.8055 41.538 22.7964 41.5186 22.7934 41.4978C22.7904 41.477 22.7936 41.4558 22.8028 41.4369C23.1233 40.7802 23.5252 40.1663 23.9988 39.6099C24.0134 39.5928 24.033 39.5809 24.0548 39.5758C24.4685 39.479 24.8753 39.3546 25.2724 39.2035C25.292 39.196 25.3135 39.1946 25.3339 39.1995C25.3543 39.2044 25.3728 39.2154 25.3869 39.231C25.4009 39.2465 25.41 39.266 25.4128 39.2868C25.4156 39.3077 25.4121 39.3288 25.4026 39.3476C25.2127 39.7277 25.0485 40.12 24.911 40.522C24.9037 40.5431 24.8899 40.5614 24.8716 40.5741C24.5588 40.7904 24.2322 40.986 23.8939 41.1597V41.1599ZM26.2825 42.6669C26.0645 42.9376 25.8307 43.1951 25.5821 43.438C25.567 43.4526 25.5479 43.4625 25.5271 43.4662C25.5064 43.4699 25.4851 43.4673 25.4658 43.4588C25.4466 43.4503 25.4304 43.4362 25.4192 43.4184C25.408 43.4006 25.4024 43.3798 25.4032 43.3588C25.429 42.6284 25.5469 41.9043 25.7542 41.2035C25.7606 41.1821 25.7737 41.1634 25.7915 41.15C26.1278 40.8947 26.4467 40.6173 26.7462 40.3197C26.7611 40.3048 26.7801 40.2948 26.8007 40.291C26.8213 40.2872 26.8427 40.2897 26.8619 40.2981C26.8811 40.3066 26.8973 40.3207 26.9083 40.3386C26.9194 40.3564 26.9248 40.3772 26.9239 40.3982C26.9048 40.8226 26.9141 41.2479 26.9518 41.6712C26.9539 41.6934 26.9488 41.7158 26.9372 41.7349C26.7395 42.0595 26.5208 42.3708 26.2825 42.6669ZM26.8504 30.9793C26.8358 30.9625 26.8269 30.9415 26.825 30.9193C26.7648 30.1928 26.7957 29.4616 26.9171 28.7428C26.9206 28.722 26.9303 28.7028 26.9449 28.6876C26.9595 28.6724 26.9783 28.6619 26.9989 28.6575C27.0195 28.6531 27.0409 28.655 27.0605 28.6629C27.08 28.6708 27.0967 28.6843 27.1085 28.7018C27.5136 29.3077 27.8415 29.9618 28.0845 30.649C28.0919 30.67 28.0924 30.6928 28.0859 30.7141C27.9644 31.1169 27.8697 31.5273 27.8025 31.9425C27.7992 31.9633 27.7896 31.9826 27.7752 31.9978C27.7607 32.0131 27.742 32.0236 27.7214 32.028C27.7009 32.0324 27.6795 32.0305 27.66 32.0226C27.6406 32.0146 27.624 32.0009 27.6125 31.9833C27.3809 31.6323 27.1263 31.2969 26.8504 30.9795V30.9793ZM29.0772 43.0729C28.9876 43.4111 28.8777 43.7437 28.7481 44.0687C28.7403 44.0883 28.7268 44.1051 28.7094 44.1169C28.692 44.1288 28.6714 44.1351 28.6504 44.1351C28.6293 44.1352 28.6087 44.1289 28.5912 44.1171C28.5738 44.1054 28.5602 44.0886 28.5524 44.0691C28.2792 43.3912 28.0923 42.6817 27.9959 41.9572C27.993 41.9351 27.9973 41.9125 28.0081 41.893C28.2132 41.5209 28.3932 41.1355 28.5468 40.7394C28.5544 40.7199 28.5677 40.7031 28.585 40.6912C28.6023 40.6793 28.6228 40.6729 28.6438 40.6729C28.6648 40.6729 28.6853 40.6792 28.7026 40.691C28.72 40.7028 28.7333 40.7195 28.741 40.7391C28.8962 41.1346 29.0777 41.5193 29.2842 41.8905C29.2951 41.9101 29.2994 41.9326 29.2966 41.9548C29.2479 42.3319 29.1746 42.7054 29.0772 43.0729ZM29.452 31.9399C29.3836 31.5274 29.2881 31.1198 29.1661 30.7199C29.1597 30.6986 29.1601 30.6759 29.1674 30.6549C29.4059 29.9684 29.7296 29.3146 30.1311 28.7087C30.1427 28.6912 30.1594 28.6776 30.1789 28.6696C30.1983 28.6616 30.2198 28.6596 30.2404 28.6639C30.261 28.6682 30.2798 28.6786 30.2945 28.6937C30.3091 28.7088 30.319 28.728 30.3226 28.7487C30.4459 29.4649 30.4789 30.1938 30.4204 30.9182C30.4187 30.9404 30.4099 30.9614 30.3954 30.9783C30.1226 31.2952 29.8709 31.6297 29.642 31.9797C29.6305 31.9973 29.614 32.0109 29.5946 32.019C29.5752 32.027 29.5539 32.029 29.5334 32.0246C29.5128 32.0203 29.4941 32.0099 29.4796 31.9948C29.4651 31.9796 29.4555 31.9604 29.452 31.9398V31.9399ZM30.34 41.6568C30.3754 41.236 30.3831 40.8132 30.3626 40.3914C30.3616 40.3705 30.3669 40.3497 30.3779 40.3319C30.3889 40.314 30.405 40.2999 30.4241 40.2914C30.4433 40.2828 30.4645 40.2802 30.4851 40.2839C30.5058 40.2877 30.5248 40.2975 30.5397 40.3122C30.8423 40.6105 31.1645 40.8881 31.5041 41.1434C31.522 41.1568 31.5352 41.1755 31.5416 41.1969C31.75 41.8949 31.8702 42.6162 31.8994 43.344C31.9001 43.365 31.8946 43.3857 31.8835 43.4035C31.8723 43.4213 31.8562 43.4354 31.837 43.444C31.8178 43.4526 31.7966 43.4552 31.7759 43.4517C31.7552 43.4481 31.736 43.4384 31.7209 43.4239C31.1957 42.9158 30.7368 42.3433 30.3551 41.7202C30.3435 41.7012 30.3383 41.679 30.3402 41.6568H30.34ZM32.0097 39.1908C32.4074 39.3401 32.8147 39.4629 33.2289 39.5579C33.2507 39.563 33.2703 39.5748 33.2848 39.5918C33.7605 40.1465 34.1646 40.7588 34.4877 41.4143C34.4969 41.4332 34.5003 41.4544 34.4974 41.4752C34.4946 41.496 34.4855 41.5155 34.4715 41.5312C34.4574 41.5468 34.4391 41.5579 34.4187 41.563C34.3983 41.5681 34.3768 41.567 34.3571 41.5599C33.6706 41.309 33.0184 40.9729 32.4157 40.5595C32.3973 40.5468 32.3834 40.5286 32.3761 40.5074C32.2372 40.1061 32.0716 39.7145 31.8803 39.3353C31.8709 39.3166 31.8673 39.2954 31.8701 39.2747C31.8728 39.2539 31.8818 39.2344 31.8958 39.2188C31.9098 39.2032 31.9281 39.1922 31.9485 39.1872C31.9688 39.1822 31.9902 39.1834 32.0099 39.1908H32.0097Z" fill="#182CD1"/>
<path d="M46.2146 42.7094V34.8621C46.2146 34.3797 46.3083 33.9585 46.4956 33.5981C46.6829 33.2378 46.9368 32.9569 47.2574 32.7555C47.578 32.554 47.9396 32.4533 48.3425 32.4533C48.9384 32.4533 49.4191 32.6435 49.7852 33.0236C50.1511 33.4038 50.3342 33.9146 50.3342 34.5556V42.7096H53.8493V34.7258C53.8493 34.045 54.0336 33.496 54.4025 33.0789C54.7713 32.6621 55.2849 32.4535 55.9429 32.4535C56.5218 32.4535 57.0041 32.635 57.39 32.9981C57.7757 33.3611 57.9687 33.9059 57.9687 34.6324V42.7094H61.5859V33.9174C61.5859 32.4988 61.2044 31.4022 60.4413 30.6276C59.678 29.8531 58.6865 29.4659 57.4666 29.4659C56.5076 29.4659 55.6777 29.6915 54.977 30.1426C54.2762 30.5936 53.7925 31.1936 53.5258 31.9427H53.3896C53.1796 31.1824 52.7599 30.5794 52.13 30.1341C51.5002 29.6886 50.7369 29.4659 49.8404 29.4659C48.9554 29.4659 48.195 29.6872 47.5594 30.1297C46.9239 30.5724 46.4699 31.1766 46.1976 31.9429H46.0444V29.6361H42.5889V42.7094H46.2146ZM70.3524 42.9647C71.6746 42.9647 72.8165 42.6825 73.7783 42.1179C74.7399 41.5534 75.4819 40.7646 76.0039 39.7517C76.526 38.7389 76.787 37.5629 76.787 36.2239C76.787 34.8734 76.526 33.6918 76.0039 32.6789C75.4819 31.666 74.7399 30.8774 73.7783 30.3128C72.8165 29.7483 71.6746 29.4659 70.3524 29.4659C69.0304 29.4659 67.8885 29.7482 66.9267 30.3128C65.9649 30.8774 65.223 31.666 64.7009 32.6789C64.1791 33.6918 63.918 34.8734 63.918 36.2239C63.918 37.5629 64.1791 38.7389 64.7009 39.7517C65.223 40.7646 65.9649 41.5533 66.9267 42.1179C67.8885 42.6823 69.0304 42.9647 70.3524 42.9647ZM70.3695 40.156C69.7623 40.156 69.2531 39.9845 68.8417 39.6411C68.4304 39.2978 68.1211 38.8283 67.9141 38.2326C67.7069 37.6367 67.6034 36.9587 67.6034 36.1984C67.6034 35.438 67.7069 34.7598 67.9141 34.1642C68.1211 33.5685 68.4304 33.0974 68.8417 32.7513C69.2531 32.4052 69.7623 32.232 70.3695 32.232C70.9709 32.232 71.4732 32.4052 71.8759 32.7513C72.2788 33.0974 72.5838 33.5683 72.791 34.1642C72.998 34.7598 73.1017 35.438 73.1017 36.1984C73.1017 36.9587 72.998 37.6367 72.791 38.2324C72.5838 38.8281 72.2788 39.2978 71.8759 39.6411C71.4732 39.9845 70.9709 40.156 70.3695 40.156ZM82.7788 42.7094V35.1515C82.7845 34.5896 82.891 34.1087 83.098 33.7088C83.3052 33.3088 83.5945 33.0037 83.9662 32.7939C84.3378 32.5837 84.7677 32.479 85.2557 32.479C85.982 32.479 86.5522 32.7044 86.9664 33.1556C87.3806 33.6067 87.5848 34.2322 87.5793 35.0323V42.7094H91.205V34.3854C91.205 33.3698 91.0176 32.4945 90.6432 31.7596C90.2688 31.025 89.7439 30.4588 89.0687 30.0616C88.3934 29.6645 87.6018 29.4659 86.694 29.4659C85.7237 29.4659 84.8981 29.6886 84.2173 30.1341C83.5363 30.5795 83.0513 31.1824 82.7617 31.9427H82.6086V29.6363H79.153V42.7094H82.7788ZM99.9648 42.9647C101.287 42.9647 102.429 42.6825 103.39 42.1179C104.352 41.5534 105.094 40.7646 105.616 39.7517C106.138 38.7389 106.399 37.5629 106.399 36.2239C106.399 34.8734 106.138 33.6918 105.616 32.6789C105.094 31.666 104.352 30.8774 103.39 30.3128C102.429 29.7483 101.287 29.4659 99.9648 29.4659C98.6426 29.4659 97.5007 29.7482 96.5389 30.3128C95.5771 30.8774 94.8352 31.666 94.3133 32.6789C93.7912 33.6918 93.5302 34.8734 93.5302 36.2239C93.5302 37.5629 93.7912 38.7389 94.3133 39.7517C94.8352 40.7646 95.5771 41.5533 96.5389 42.1179C97.5007 42.6823 98.6426 42.9647 99.9648 42.9647ZM99.9816 40.156C99.3746 40.156 98.8652 39.9845 98.454 39.6411C98.0426 39.2978 97.7332 38.8283 97.5262 38.2326C97.319 37.6367 97.2155 36.9587 97.2155 36.1984C97.2155 35.438 97.319 34.7598 97.5262 34.1642C97.7332 33.5685 98.0426 33.0974 98.454 32.7513C98.8652 32.4052 99.3746 32.232 99.9816 32.232C100.583 32.232 101.085 32.4052 101.488 32.7513C101.891 33.0974 102.196 33.5683 102.403 34.1642C102.61 34.7598 102.714 35.438 102.714 36.1984C102.714 36.9587 102.61 37.6367 102.403 38.2324C102.196 38.8281 101.891 39.2978 101.488 39.6411C101.085 39.9845 100.583 40.156 99.9816 40.156Z" fill="#0E1337"/>
</g>
<defs>
<clipPath id="clip0_241_2124">
<rect width="86.8366" height="18.2357" fill="white" transform="translate(19.5625 27.196)"/>
</clipPath>
</defs>
</svg>
