<svg width="126" height="73" viewBox="0 0 126 73" fill="none" xmlns="http://www.w3.org/2000/svg">
<rect width="125.484" height="73" rx="2.38562" fill="#FBFBFB"/>
<g clip-path="url(#clip0_241_2094)">
<path fill-rule="evenodd" clip-rule="evenodd" d="M84.447 27.8572C84.447 27.261 83.9173 26.7312 83.2546 26.7312H81.5965C80.9339 26.7312 80.4033 27.261 80.4033 27.8572L80.4705 45.6253C80.4692 45.7735 80.4974 45.9206 80.5535 46.0578C80.6096 46.195 80.6925 46.3196 80.7974 46.4245C80.9022 46.5293 81.0268 46.6122 81.164 46.6683C81.3013 46.7244 81.4483 46.7526 81.5965 46.7513H83.2546C83.9173 46.7513 84.447 46.2215 84.447 45.6253V27.8572Z" fill="#005695"/>
<path fill-rule="evenodd" clip-rule="evenodd" d="M86.5684 28.3877V29.1808C86.5684 29.5778 86.834 29.8435 87.231 29.8435H98.8988C99.1599 29.8367 99.4084 29.73 99.593 29.5453C99.7777 29.3606 99.8844 29.1121 99.8912 28.8511V27.4594C99.8912 26.9288 99.427 26.399 98.8988 26.467C98.8988 26.467 87.6287 27.593 87.231 27.6594C86.8333 27.6594 86.5684 27.9907 86.5684 28.3884V28.3877Z" fill="#005695"/>
<path fill-rule="evenodd" clip-rule="evenodd" d="M77.0879 46.7513C74.1709 46.7513 72.3808 44.5641 72.3808 42.1114V35.0171H71.5189C71.1211 35.0171 70.7227 34.6194 70.7227 34.2216V33.0277C70.7262 32.8179 70.8113 32.6177 70.96 32.4697C71.1086 32.3216 71.3091 32.2372 71.5189 32.2345H72.3808V27.8572C72.3794 27.7088 72.4077 27.5617 72.4638 27.4244C72.52 27.2871 72.6029 27.1624 72.7078 27.0575C72.8127 26.9526 72.9375 26.8696 73.0748 26.8135C73.2121 26.7573 73.3592 26.7291 73.5075 26.7304H75.1649C75.7611 26.7304 76.2252 27.2602 76.2252 27.8572V32.2345H78.8109C78.9161 32.2304 79.021 32.2481 79.119 32.2866C79.2171 32.325 79.3061 32.3833 79.3805 32.4578C79.4549 32.5323 79.5132 32.6214 79.5515 32.7194C79.5898 32.8175 79.6074 32.9225 79.6033 33.0277V34.2193C79.6005 34.4294 79.5158 34.6302 79.3672 34.7788C79.2186 34.9273 79.0179 35.012 78.8078 35.0148H76.2252V41.58C76.2252 42.8389 77.0214 43.7679 78.4131 43.7679H78.6788C78.793 43.7642 78.9067 43.784 79.013 43.826C79.1192 43.868 79.2157 43.9313 79.2965 44.0121C79.3773 44.0929 79.4406 44.1894 79.4826 44.2956C79.5246 44.4019 79.5444 44.5156 79.5407 44.6298V45.8894C79.5367 46.1168 79.4447 46.3337 79.2839 46.4945C79.1231 46.6553 78.9061 46.7474 78.6788 46.7513H77.0879Z" fill="#005695"/>
<path fill-rule="evenodd" clip-rule="evenodd" d="M57.199 39.2577C57.199 35.4797 54.9454 31.7001 49.8406 31.7001C45.1335 31.7001 42.5479 35.4117 42.5479 39.2577C42.5479 43.3679 45.332 47.0146 49.9063 47.0146C53.0224 47.0146 56.0722 45.4237 56.6684 42.706C56.7349 42.3747 56.47 41.8441 56.005 41.8441H53.7515C53.5637 41.8422 53.3787 41.8902 53.2156 41.9833C53.0525 42.0764 52.917 42.2112 52.8232 42.3739C52.1598 43.3037 51.2323 43.7686 49.907 43.7686C47.9184 43.7686 46.5923 42.2418 46.4595 40.5204H55.9379C56.8005 40.5204 57.1982 40.0562 57.1982 39.26L57.199 39.2577ZM46.5252 37.6699C46.658 36.0125 48.1161 34.7529 49.8406 34.7529C51.6308 34.7529 53.0889 36.0125 53.2881 37.6699H46.5252Z" fill="#005695"/>
<path fill-rule="evenodd" clip-rule="evenodd" d="M100.292 39.2577C100.292 35.4797 98.0382 31.7001 92.9326 31.7001C88.2255 31.7001 85.6406 35.4117 85.6406 39.2577C85.6406 43.3679 88.4255 47.0146 92.9998 47.0146C96.1152 47.0146 99.1642 45.4237 99.7612 42.706C99.8284 42.3747 99.562 41.8441 99.0986 41.8441H96.845C96.6571 41.8421 96.472 41.8901 96.3087 41.9832C96.1455 42.0763 96.0099 42.2111 95.916 42.3739C95.2533 43.3037 94.325 43.7686 92.9326 43.7686C91.0104 43.7686 89.6843 42.2418 89.5515 40.5204H99.0322C99.894 40.5204 100.292 40.0562 100.292 39.26V39.2577ZM89.6187 37.6699C89.7508 36.0125 91.2073 34.7537 92.9326 34.7537C94.7228 34.7537 96.1816 36.0133 96.3145 37.6706L89.6187 37.6699Z" fill="#005695"/>
<path fill-rule="evenodd" clip-rule="evenodd" d="M69.1988 26.9289H38.5698C38.4044 26.9289 38.2406 26.9615 38.0879 27.0248C37.9351 27.0881 37.7963 27.1809 37.6794 27.2979C37.5625 27.4149 37.4697 27.5537 37.4065 27.7066C37.3433 27.8594 37.3108 28.0231 37.3109 28.1885L37.3766 40.2548C37.3766 40.2548 30.8113 28.3214 30.4816 27.7244C30.2788 27.3788 29.9886 27.0927 29.6402 26.8949C29.2918 26.6971 28.8974 26.5946 28.4967 26.5976H25.9775C25.8117 26.5971 25.6475 26.6293 25.4942 26.6925C25.341 26.7556 25.2017 26.8484 25.0844 26.9655C24.967 27.0826 24.874 27.2217 24.8106 27.3749C24.7472 27.528 24.7146 27.6922 24.7148 27.858V45.4925C24.7148 46.2215 25.2492 46.7521 25.9745 46.7521H27.5654C28.2944 46.7521 28.825 46.2215 28.825 45.4925L28.7609 33.1621C28.7609 33.1621 35.3902 45.1612 35.7223 45.6253C36.0536 46.2879 36.7147 46.7521 37.6445 46.7521H39.9645C40.6935 46.7521 41.2241 46.2215 41.2241 45.4925V29.9138H69.1988C69.4261 29.9097 69.643 29.8176 69.8037 29.6568C69.9645 29.4961 70.0566 29.2792 70.0607 29.0519V27.7916C70.057 27.5642 69.9651 27.3472 69.8045 27.1862C69.6438 27.0253 69.427 26.933 69.1996 26.9289H69.1988Z" fill="#005695"/>
<path fill-rule="evenodd" clip-rule="evenodd" d="M64.2263 34.6194C65.5523 34.6194 66.5471 35.0835 66.9448 35.9447C67.0776 36.3432 67.4089 36.4096 67.8731 36.4096H69.7297C69.9953 36.4096 70.3923 36.1439 70.3923 35.7469C70.3923 33.6255 67.8067 31.7009 64.2271 31.7009C60.5185 31.7002 58.0619 33.4919 58.0619 36.2806C58.0619 38.4685 59.7856 39.7288 61.8407 40.3266C62.8331 40.5258 64.492 40.9228 65.2874 41.1884C66.0829 41.3877 66.8784 41.6526 66.8784 42.3816C66.8784 43.5748 65.6852 43.9084 64.2927 43.9084C63.0331 43.9084 61.7735 43.3741 61.4422 42.4503C61.2437 41.916 60.8452 41.8541 60.3154 41.8541H58.4573C58.126 41.8541 57.7283 42.1847 57.7283 42.5824V42.8481C57.7283 44.9031 60.5131 47.0246 64.3576 47.0246C67.0097 47.0246 70.7885 45.8979 70.7885 42.3167C70.7885 40.1953 69.3961 38.7379 67.0761 38.1417C66.2134 37.9425 64.0927 37.3455 63.6286 37.2783C62.7659 37.0134 61.9712 36.7485 61.9712 36.0859C61.9712 34.9591 62.9637 34.627 64.2248 34.627L64.2263 34.6194Z" fill="#005695"/>
</g>
<defs>
<clipPath id="clip0_241_2094">
<rect width="76.3399" height="20.9935" fill="white" transform="translate(24.333 26.2418)"/>
</clipPath>
</defs>
</svg>
