<svg width="126" height="73" viewBox="0 0 126 73" fill="none" xmlns="http://www.w3.org/2000/svg">
<rect width="125.484" height="73" rx="2.38562" fill="#FBFBFB"/>
<g clip-path="url(#clip0_241_2149)">
<path d="M90.1464 32.8097C90.9266 32.8067 91.6847 33.068 92.2973 33.5511L92.3304 33.5774L92.3607 33.6009C92.542 33.7496 92.7081 33.9161 92.8564 34.0979L101.319 42.5636V38.7794L95.6592 33.1107L94.3805 31.8323C93.5951 31.048 92.6134 30.4891 91.538 30.2142C88.1403 29.3459 84.6667 31.4678 83.9613 34.9083C83.6661 36.3477 83.8819 37.845 84.5715 39.1425C85.2614 40.44 86.3819 41.4564 87.7402 42.017C89.0985 42.5775 90.6096 42.6471 92.0136 42.2136C93.4176 41.7802 94.6266 40.8709 95.4326 39.6423L95.5707 39.4117L95.6202 39.3275L95.9751 38.7546L94.0162 36.7941L94.0064 36.8066L93.1023 38.1871C92.7772 38.702 92.3235 39.1231 91.7859 39.4089C91.2484 39.6948 90.6457 39.8357 90.0373 39.8175C89.4288 39.7993 88.8356 39.6228 88.3162 39.3053C87.7966 38.988 87.3689 38.5406 87.0753 38.0072C86.7815 37.474 86.6318 36.8734 86.641 36.2647C86.6503 35.656 86.8181 35.0603 87.1276 34.5362C87.4376 34.0122 87.8787 33.578 88.4075 33.2763C88.9364 32.9748 89.5348 32.8164 90.1437 32.8167L90.1464 32.8097Z" fill="#004882"/>
<path d="M99.0241 34.7675L99.0284 34.7619L102.104 29.8967H98.9332L97.0857 32.8194L97.0774 32.8319L99.0241 34.7675Z" fill="#C20C38"/>
<path d="M24.0918 32.8763C24.5224 31.9714 25.1989 31.2059 26.0439 30.6673C26.8716 30.1513 27.8299 29.8835 28.8051 29.8956C29.5977 29.8794 30.3817 30.0617 31.0858 30.4257C31.707 30.7454 32.2314 31.2254 32.6045 31.816V30.0736H36.3777V42.3872H34.3413C33.8799 42.3857 33.438 42.2013 33.1124 41.8744C32.7868 41.5475 32.6042 41.1048 32.6045 40.6435C32.2212 41.231 31.6929 41.7098 31.0707 42.0337C30.3655 42.399 29.5798 42.5813 28.7858 42.5639C27.817 42.573 26.8664 42.3006 26.0495 41.7797C25.2038 41.2334 24.5277 40.4616 24.0973 39.5514C23.6187 38.5878 23.3794 37.4732 23.3794 36.2076C23.3794 34.9421 23.6169 33.8316 24.0918 32.8763ZM31.8148 34.0014C31.5684 33.744 31.2725 33.5389 30.945 33.3984C30.6174 33.258 30.2649 33.185 29.9085 33.184C29.5521 33.183 29.1992 33.2539 28.8708 33.3924C28.5424 33.531 28.2454 33.7344 27.9975 33.9904C27.4793 34.5279 27.2202 35.267 27.2202 36.2076C27.2202 37.1483 27.4811 37.8952 28.003 38.4483C28.2475 38.7092 28.5427 38.9173 28.8705 39.0599C29.1983 39.2025 29.5518 39.2766 29.9093 39.2776C30.2668 39.2786 30.6207 39.2066 30.9493 39.0659C31.278 38.9252 31.5744 38.7188 31.8203 38.4593C32.3422 37.9154 32.6036 37.1722 32.6045 36.2297C32.6054 35.2872 32.3422 34.5445 31.8148 34.0014ZM41.2265 24.3334V42.3874H37.4533V26.0564L41.2265 24.3334ZM47.6049 30.4257C48.3056 30.0604 49.0874 29.8785 49.8773 29.8969C50.8526 29.8849 51.8109 30.1527 52.6385 30.6687C53.4836 31.2076 54.1605 31.973 54.5921 32.8776C55.0698 33.833 55.3086 34.9435 55.3086 36.209C55.3086 37.4746 55.0698 38.5891 54.5921 39.5528C54.1608 40.4628 53.4842 41.2344 52.6385 41.781C51.8136 42.3046 50.8543 42.5771 49.8773 42.5652C49.091 42.5812 48.3133 42.3988 47.6159 42.0351C46.9978 41.7151 46.4703 41.2446 46.0821 40.6669V48.2602H42.3075V30.0736H46.0821V31.816C46.463 31.2304 46.9872 30.7519 47.6049 30.4257ZM50.6905 33.9904C50.4422 33.7289 50.142 33.5221 49.8092 33.3833C49.4764 33.2445 49.1182 33.1766 48.7577 33.1841C48.3999 33.1786 48.0449 33.2485 47.7159 33.3894C47.387 33.5302 47.0913 33.7387 46.8483 34.0014C46.3265 34.5454 46.0655 35.2881 46.0655 36.2297C46.0655 37.1713 46.3265 37.9145 46.8483 38.4593C47.0959 38.7182 47.3935 38.924 47.7231 39.0643C48.0527 39.2046 48.4074 39.2764 48.7656 39.2754C49.1238 39.2743 49.478 39.2005 49.8068 39.0583C50.1356 38.9162 50.432 38.7086 50.6781 38.4483C51.2073 37.8961 51.4719 37.1492 51.4719 36.2076C51.4719 35.2661 51.2115 34.527 50.6905 33.9904ZM67.3555 31.3426C68.2108 32.2768 68.6381 33.5603 68.6381 35.1931V42.3874H64.8832V35.7012C64.8832 34.8728 64.67 34.2327 64.2439 33.7807C63.8178 33.3289 63.2438 33.0987 62.5222 33.0905C61.8015 33.0905 61.2277 33.3206 60.8006 33.7807C60.3735 34.2409 60.1604 34.8811 60.1614 35.7012V42.3874H56.3869V26.0564L60.1614 24.3334V31.7278C60.5658 31.1662 61.1077 30.7178 61.7353 30.4259C62.4308 30.0953 63.1933 29.9295 63.9634 29.9413C65.3718 29.9413 66.5026 30.4084 67.3555 31.3426ZM70.4325 32.8764C70.8641 31.9718 71.5409 31.2064 72.3859 30.6675C73.2137 30.1515 74.1721 29.8837 75.1474 29.8957C75.9408 29.8783 76.7259 30.0601 77.4309 30.4245C78.0522 30.7439 78.5766 31.2239 78.9495 31.8147V30.0738H82.7198V42.3873H80.6834C80.2209 42.3873 79.7774 42.2036 79.4504 41.8766C79.1234 41.5496 78.9397 41.1061 78.9397 40.6436C78.5568 41.2315 78.0285 41.7104 77.4061 42.0339C76.7026 42.3987 75.9188 42.581 75.1266 42.564C74.1577 42.5734 73.2071 42.3009 72.3902 41.7799C71.5429 41.2339 70.8649 40.4621 70.4325 39.5516C69.9549 38.5879 69.7161 37.4733 69.7161 36.2078C69.7161 34.9422 69.9549 33.8318 70.4325 32.8764ZM78.1638 34.0016C77.9174 33.744 77.6216 33.5389 77.294 33.3986C76.9665 33.2581 76.614 33.1851 76.2577 33.1841C75.9012 33.1831 75.5482 33.254 75.2198 33.3925C74.8914 33.5311 74.5943 33.7345 74.3464 33.9906C73.8239 34.5281 73.5623 35.2671 73.5623 36.2078C73.5623 37.1484 73.8239 37.8953 74.3464 38.4485C74.5909 38.7092 74.8861 38.9173 75.2139 39.06C75.5418 39.2026 75.8954 39.2767 76.2529 39.2778C76.6104 39.2787 76.9643 39.2067 77.2929 39.066C77.6215 38.9253 77.9179 38.7189 78.1638 38.4595C78.6855 37.9156 78.9468 37.1724 78.9468 36.2299C78.9468 35.2874 78.6855 34.5446 78.1638 34.0016Z" fill="#004882"/>
</g>
<defs>
<clipPath id="clip0_241_2149">
<rect width="78.7255" height="23.9599" fill="white" transform="translate(23.3792 24.3334)"/>
</clipPath>
</defs>
</svg>
