<svg width="126" height="73" viewBox="0 0 126 73" fill="none" xmlns="http://www.w3.org/2000/svg">
<rect width="125.484" height="73" rx="2.38562" fill="#FBFBFB"/>
<g clip-path="url(#clip0_241_2135)">
<path d="M51.0927 29.2554C49.8772 29.2554 48.8861 29.6107 48.1567 30.34C47.4274 31.0694 47.0721 32.0231 47.0721 33.2386V34.2298H45.3142V36.5861H47.0721V43.898H49.7837V36.5861H52.0278V34.2298H49.7837V33.1638C49.7837 32.2475 50.4569 31.6304 51.4106 31.6304C51.6164 31.6304 51.822 31.6491 52.0465 31.6678V29.3115C51.7659 29.2741 51.448 29.2554 51.0927 29.2554Z" fill="black"/>
<path d="M55.6336 29.3676H52.9033V43.898H55.6336V29.3676Z" fill="black"/>
<path d="M58.943 29.4236C57.5779 29.3488 56.7363 31.2937 57.7836 32.2287C58.4007 32.8459 59.4853 32.8459 60.1024 32.2287C60.4204 31.9108 60.5887 31.5181 60.5887 31.0693C60.5887 30.1529 59.8593 29.4236 58.943 29.4236ZM60.3082 34.2297H57.5779V43.898H60.3082V34.2297Z" fill="black"/>
<path d="M66.384 34.0427C65.0188 34.0427 63.8968 34.5103 63.0179 35.4266C62.1577 36.3429 61.7275 37.5585 61.7275 39.0732C61.7275 40.588 62.1577 41.8035 63.0179 42.7198C63.8968 43.6362 65.0188 44.1037 66.384 44.1037C67.5996 44.1037 68.4972 43.7671 69.1143 43.0752V48.6667H71.826V34.2298H69.2638V35.2396C68.6655 34.4354 67.7118 34.0427 66.384 34.0427ZM66.8328 36.3803C68.198 36.3803 69.1143 37.3341 69.1143 38.8488V39.2976C69.1143 40.8124 68.198 41.7661 66.8328 41.7661C65.4303 41.7661 64.4952 40.775 64.4952 39.0732C64.4952 37.3715 65.4303 36.3803 66.8328 36.3803Z" fill="black"/>
<path d="M79.2165 34.0427C77.9073 34.0427 76.9535 34.4354 76.3552 35.2396V34.2298H73.7744V48.6667H76.505V43.0752C77.1219 43.7671 78.0385 44.1037 79.2165 44.1037C80.6002 44.1037 81.7223 43.6362 82.5826 42.7198C83.4615 41.8035 83.8914 40.588 83.8914 39.0732C83.8914 37.5585 83.4615 36.3429 82.5826 35.4266C81.7223 34.5103 80.6002 34.0427 79.2165 34.0427ZM78.7861 36.3803C80.1889 36.3803 81.124 37.3715 81.124 39.0732C81.124 40.775 80.1889 41.7661 78.7861 41.7661C77.4211 41.7661 76.505 40.8124 76.505 39.2976V38.8488C76.505 37.3341 77.4211 36.3803 78.7861 36.3803Z" fill="black"/>
<path d="M89.0733 34.0427C87.8952 34.0427 86.9229 34.398 86.1561 35.1087C85.408 35.8006 85.0339 36.6047 85.0339 37.5024L87.7645 37.6146C87.7645 36.9226 88.2321 36.3429 89.111 36.3429C89.9526 36.3429 90.3639 36.8478 90.3639 37.839V38.213L88.6434 38.3065C86.0626 38.4187 84.7725 39.3911 84.7725 41.2425C84.7725 43.0939 85.9877 44.1037 87.9888 44.1037C88.9988 44.1037 89.8214 43.7671 90.4574 43.1126V43.898H93.094V37.9325C93.094 35.3892 91.6917 34.0427 89.0733 34.0427ZM90.3639 40.4197C90.3639 41.4108 89.653 41.9905 88.6248 41.9905C87.8766 41.9905 87.5026 41.6913 87.5026 41.1116C87.5026 40.4758 87.9701 40.1392 88.9053 40.1018L90.3639 40.0083V40.4197Z" fill="black"/>
<path d="M104.049 34.2297H101.019L98.8121 39.9895L96.5868 34.2297H93.5762L97.3536 43.0377L94.8849 48.6667H97.8584L104.049 34.2297Z" fill="black"/>
<path fill-rule="evenodd" clip-rule="evenodd" d="M21.4707 26.7029C21.4707 25.4039 22.4597 24.5818 23.6798 24.8669L36.9514 27.9675C38.1714 28.2526 39.1605 29.1801 39.1605 30.0414V43.1334C39.1605 43.9937 38.1715 44.9222 36.9514 45.2072L23.6798 48.3078C22.4598 48.5929 21.4707 47.7724 21.4707 46.4718V26.7029ZM25.2298 31.5058C25.2298 30.4569 26.0913 29.7305 27.152 29.883L32.9205 30.7123C33.9822 30.8649 34.8428 31.6647 34.8428 32.4992C34.8428 33.3334 33.9812 33.9555 32.9205 33.8887L27.152 33.5259C26.0904 33.4591 25.2298 32.5549 25.2298 31.5058ZM25.1275 36.5874C25.1275 35.5017 26.0193 34.6576 27.1172 34.702L33.0882 34.9434C34.1872 34.9879 35.078 35.7237 35.078 36.5874C35.078 37.4509 34.1862 38.1869 33.0882 38.2314L27.1172 38.4728C26.0183 38.5172 25.1275 37.6734 25.1275 36.5874ZM27.441 43.6762C28.6623 43.4896 29.6522 42.4495 29.6522 41.3528C29.6522 40.2562 28.6623 39.4295 27.441 39.5063C26.2198 39.5831 25.2298 40.6233 25.2298 41.8297C25.2298 43.036 26.2198 43.8628 27.441 43.6762Z" fill="url(#paint0_linear_241_2135)"/>
</g>
<defs>
<linearGradient id="paint0_linear_241_2135" x1="5.84636" y1="11.7717" x2="5.28112" y2="77.7803" gradientUnits="userSpaceOnUse">
<stop stop-color="#1400FF"/>
<stop offset="1" stop-color="#FC199B"/>
</linearGradient>
<clipPath id="clip0_241_2135">
<rect width="83.0196" height="23.8562" fill="white" transform="translate(21.4707 24.8104)"/>
</clipPath>
</defs>
</svg>
