<svg width="126" height="73" viewBox="0 0 126 73" fill="none" xmlns="http://www.w3.org/2000/svg">
<rect width="125.484" height="73" rx="2.38562" fill="#FBFBFB"/>
<g clip-path="url(#clip0_241_2132)">
<path fill-rule="evenodd" clip-rule="evenodd" d="M87.9888 43.7506C87.688 43.6547 87.4257 43.5437 87.2037 43.4172L86.1567 46.2234C86.6247 46.4326 87.1102 46.6005 87.6075 46.7249C88.1149 46.8514 88.67 46.9146 89.2729 46.9146C90.2243 46.9146 91.0532 46.7156 91.7593 46.3193C92.4657 45.923 93.0247 45.2396 93.4361 44.2731L99.2417 30.524H94.9599L92.6284 37.3019L90.2739 30.524H85.7528L90.6778 41.6315L90.012 43.1323C89.8837 43.4176 89.7285 43.6145 89.5467 43.7255C89.3649 43.8369 89.1238 43.8922 88.8213 43.8922C88.5687 43.8922 88.2909 43.8462 87.9888 43.7506ZM81.3331 36.9343C81.5706 36.9113 81.8099 36.8901 82.047 36.8751V39.0398C81.8404 39.1983 81.6124 39.3265 81.3697 39.4207C81.1225 39.5163 80.8509 39.5623 80.5483 39.5623C80.1369 39.5623 79.8154 39.457 79.5854 39.2425C79.3558 39.0283 79.2391 38.7546 79.2391 38.4215C79.2391 38.1039 79.3425 37.815 79.5491 37.5527C79.7561 37.2922 80.1043 37.1201 80.5961 37.0414C80.8401 36.9948 81.0859 36.9591 81.3331 36.9343ZM82.3093 41.228L82.6424 42.1331H86.1394V34.8058C86.1394 33.2515 85.6878 32.105 84.7823 31.368C83.8791 30.629 82.6654 30.2614 81.1437 30.2614C80.0489 30.2614 79.109 30.4206 78.3243 30.7382C77.5458 31.0503 76.8261 31.4924 76.1958 32.0457L78.0505 34.1149C78.4105 33.8272 78.8061 33.5871 79.2276 33.4006C79.6377 33.2257 80.0795 33.1372 80.5253 33.1405C80.9371 33.1405 81.295 33.2515 81.5953 33.4736C81.8961 33.6956 82.047 34.0438 82.047 34.5206V34.8058C81.6458 34.8244 81.2451 34.8518 80.8451 34.8881C80.3718 34.9326 79.9 34.9925 79.4306 35.0678C78.8936 35.1414 78.3669 35.2771 77.8611 35.472C77.3689 35.6613 76.9363 35.9082 76.5633 36.2086C76.1947 36.5051 75.8949 36.8782 75.6845 37.3019C75.4703 37.7306 75.3629 38.2321 75.3629 38.8023C75.3629 39.3575 75.4567 39.8494 75.6482 40.2762C75.8323 40.6973 76.1037 41.0745 76.4444 41.3828C76.7854 41.6929 77.1871 41.9265 77.6466 42.0853C78.1058 42.2419 78.6056 42.3224 79.1453 42.3224C79.8592 42.3224 80.4851 42.2154 81.0251 42.0008C81.563 41.7885 81.9917 41.5302 82.3093 41.2276V41.228ZM56.8611 27.5911L62.0062 42.1327H65.1703L66.9772 36.0418L68.8093 42.1327H71.9963L76.1135 30.5237H71.8543L70.1412 36.685L68.3573 30.5233H65.6449L63.861 36.6853L60.8867 27.5914H56.8611V27.5911ZM49.4918 30.5233V33.4254H51.1338V38.5167C51.1338 39.1024 51.1934 39.6327 51.312 40.1095C51.4306 40.5859 51.6336 40.9898 51.9192 41.3228C52.2042 41.6559 52.5811 41.9146 53.0482 42.0964C53.517 42.2782 54.0916 42.3702 54.7728 42.3702C55.5827 42.3702 56.2926 42.2743 56.9035 42.0849C57.5139 41.8934 58.0805 41.6178 58.6029 41.2521L57.5329 38.7294C57.3142 38.8961 57.0788 39.0398 56.8305 39.1581C56.5757 39.2837 56.2954 39.3492 56.0113 39.3496C55.7088 39.3496 55.5155 39.2385 55.4274 39.0165C55.3412 38.7944 55.2974 38.4844 55.2974 38.0881V33.4258H58.0899L57.0623 30.5237H55.2974V27.5972H51.1342V30.5237H49.4918V30.5233ZM45.1277 33.4369C45.4529 33.7926 45.6386 34.2813 45.6864 34.9011H42.0708C42.134 34.2981 42.3446 33.8138 42.7006 33.4484C43.0585 33.0848 43.4739 32.9008 43.9503 32.9008C44.4098 32.9008 44.8022 33.0805 45.1277 33.4369ZM42.7254 38.7427C42.3043 38.3543 42.0787 37.8107 42.046 37.1118H49.5877C49.5723 34.7807 49.0534 33.056 48.0294 31.9379C47.0072 30.8205 45.6311 30.2614 43.9025 30.2614C43.0625 30.2614 42.2813 30.3954 41.5599 30.6653C40.838 30.9351 40.2161 31.3314 39.6915 31.8556C39.1669 32.3784 38.7555 33.0158 38.4551 33.77C38.1526 34.5241 38.0031 35.3832 38.0031 36.3519C38.0031 37.3511 38.1601 38.226 38.4778 38.9802C38.7957 39.7322 39.2244 40.3599 39.7641 40.8579C40.3019 41.3595 40.9318 41.7364 41.6554 41.989C42.3769 42.2419 43.1483 42.3699 43.9733 42.3699C44.6549 42.3699 45.2693 42.3145 45.8165 42.2035C46.3641 42.0925 46.8484 41.9337 47.2677 41.7271C47.6657 41.5357 48.0412 41.3007 48.3873 41.0264C48.7128 40.7641 49.0017 40.4749 49.2564 40.1573L46.7104 38.1588C46.3907 38.5551 46.0464 38.8501 45.6749 39.0391C45.3016 39.231 44.8539 39.3248 44.3311 39.3248C43.6808 39.3248 43.1447 39.1315 42.7251 38.7427H42.7254ZM30.4499 39.2906C30.2832 39.2655 30.1111 39.2314 29.9368 39.1814V33.5673C30.1283 33.5041 30.3177 33.4524 30.5092 33.4143C30.7126 33.373 30.9197 33.353 31.1272 33.3546C31.7933 33.3546 32.3449 33.5921 32.781 34.0668C33.2158 34.5436 33.4339 35.2805 33.4339 36.2797C33.4339 37.3112 33.2118 38.0769 32.7678 38.5767C32.3237 39.0761 31.7455 39.3248 31.0316 39.3248C30.8096 39.3248 30.6163 39.3133 30.4495 39.2906H30.4499ZM30.9493 30.344C30.607 30.3964 30.2686 30.4726 29.9368 30.5718V26.2649H25.7754V41.4418C26.4875 41.712 27.2647 41.9376 28.1051 42.1198C28.9473 42.3034 29.8908 42.3954 30.936 42.3954C31.8871 42.3954 32.7638 42.2671 33.5661 42.0145C34.3659 41.7598 35.0608 41.3749 35.6465 40.8583C36.2343 40.3452 36.6899 39.6905 37.0154 38.8965C37.3406 38.1039 37.5033 37.1679 37.5033 36.0903C37.5033 35.2805 37.3848 34.5206 37.1455 33.8066C36.9083 33.0927 36.5634 32.4743 36.1118 31.9501C35.6601 31.4273 35.0993 31.0141 34.4331 30.7134C33.767 30.413 33.0146 30.2618 32.1745 30.2618C31.7132 30.2618 31.305 30.2883 30.9493 30.344Z" fill="black"/>
</g>
<defs>
<clipPath id="clip0_241_2132">
<rect width="73.4771" height="20.6958" fill="white" transform="translate(25.7646 26.2418)"/>
</clipPath>
</defs>
</svg>
