<svg width="126" height="73" viewBox="0 0 126 73" fill="none" xmlns="http://www.w3.org/2000/svg">
<rect width="125.484" height="73" rx="2.38562" fill="#FBFBFB"/>
<g clip-path="url(#clip0_241_2107)">
<path d="M25.2876 36.2903C25.3918 35.9806 25.4904 35.6681 25.6021 35.3613C25.8542 34.6662 26.3468 34.186 26.9901 33.8461C27.9389 33.3448 28.995 33.0806 30.0682 33.0762C31.3515 33.0454 32.6314 33.2229 33.8578 33.6018V36.1965C33.6134 36.1227 33.3898 36.0336 33.1577 35.9882C32.6079 35.8645 32.0519 35.7697 31.4922 35.7041C30.9528 35.6678 30.4115 35.6678 29.8721 35.7041C29.6684 35.7136 29.4249 35.7647 29.2809 35.8935C29.1169 36.0396 29.0152 36.2429 28.9967 36.4617C28.991 36.7534 29.2459 36.9295 29.5092 37.0034C30.0862 37.1653 30.6812 37.2676 31.2506 37.4484C31.985 37.6683 32.7052 37.9333 33.4069 38.242C34.1705 38.5943 34.5561 39.2837 34.7332 40.083C34.9241 40.9225 34.8315 41.8016 34.4699 42.583C34.1411 43.3198 33.5641 43.781 32.8593 44.1181C31.8058 44.6257 30.6802 44.7716 29.5301 44.71C28.9219 44.6778 28.3155 44.5935 27.6694 44.5291L27.569 41.7828C27.9347 41.8472 28.2786 41.9164 28.6253 41.9722C29.28 42.0669 29.9327 42.1616 30.5921 41.9609C30.9057 41.8662 31.1056 41.6531 31.1322 41.3785C31.1587 41.1038 30.9095 40.8879 30.6679 40.7885C30.3218 40.6626 29.9672 40.5613 29.6068 40.4855C29.0535 40.3453 28.4908 40.2373 27.9451 40.0726C27.5394 39.9495 27.1454 39.7911 26.7675 39.5991C25.9944 39.207 25.5671 38.5451 25.3899 37.7051C25.3634 37.5801 25.317 37.4589 25.28 37.3358C25.2851 36.9828 25.2876 36.6343 25.2876 36.2903Z" fill="#010101"/>
<path d="M50.7655 23.8562C50.8419 23.924 50.9248 23.9842 51.0128 24.0361C51.7707 24.3913 52.5286 24.7341 53.2866 25.093C53.6589 25.2701 54.0445 25.4358 54.3808 25.6706C55.0667 26.1489 55.8019 26.558 56.3704 27.1981C56.7171 27.5893 56.7351 27.8942 56.3704 28.273C55.7925 28.851 55.1335 29.3416 54.414 29.7295C53.5026 30.2418 52.5656 30.7105 51.6295 31.1765C51.3339 31.3242 51.0024 31.399 50.6897 31.5145C50.253 31.6755 50.0701 31.5354 49.856 31.041C49.6608 30.5903 49.5945 30.0836 49.477 29.5997C49.4211 29.3696 49.3681 29.1385 49.3321 28.9046C49.3316 28.7926 49.3383 28.6806 49.352 28.5694C49.3406 27.9141 49.2951 27.2578 49.3217 26.6044C49.3378 26.1991 49.4467 25.7956 49.5405 25.397C49.6258 25.0362 49.6779 24.6706 49.8655 24.3288C50.0171 24.0522 50.18 23.8931 50.4993 23.9102C50.5549 23.902 50.6085 23.8837 50.6575 23.8562H50.7655Z" fill="#329EFA"/>
<path d="M41.1937 44.6068V49.1439H37.2392V36.0753H35.8645V33.3073C35.9337 33.3016 35.9952 33.2921 36.054 33.2921H39.3699C39.4332 33.2819 39.498 33.2949 39.5525 33.3287C39.6069 33.3624 39.6474 33.4147 39.6664 33.4758C39.8701 33.9323 40.1051 34.3755 40.3514 34.8698C40.4784 34.7136 40.5665 34.5545 40.6982 34.4531C41.1093 34.1359 41.5139 33.7978 41.9648 33.5478C42.5739 33.2234 43.2559 33.0604 43.9459 33.0743C44.9946 33.0809 46.0159 33.2732 46.8932 33.9597C47.3868 34.3452 47.7128 34.8414 47.9828 35.3679C48.1986 35.7939 48.3445 36.2518 48.4148 36.724C48.536 37.5545 48.6488 38.3993 48.6289 39.2355C48.591 40.833 48.104 42.28 46.8828 43.4022C46.2727 43.961 45.5385 44.2782 44.7512 44.4913C44.0313 44.6749 43.287 44.7442 42.5456 44.6968C42.1051 44.6788 41.6655 44.6381 41.1937 44.6068ZM41.1937 42.1569C41.7356 42.1569 42.2415 42.1834 42.7446 42.1512C43.5499 42.1001 44.1552 41.7317 44.4035 40.9202C44.5239 40.5652 44.6049 40.1981 44.6451 39.8254C44.7133 38.9371 44.7341 38.047 44.4556 37.1738C44.0766 35.9986 43.0913 35.8481 42.2936 36.0715C41.6522 36.2486 41.2211 36.8831 41.2079 37.5867C41.1937 38.3282 41.1993 39.0697 41.1974 39.8122C41.1956 40.5546 41.1965 41.3188 41.1965 42.1569H41.1937ZM58.8419 36.0706H57.4644V33.2874H60.3748C61.2142 33.2874 61.2123 33.2874 61.5117 34.0658C61.6065 34.3187 61.7239 34.5649 61.867 34.9001C61.9513 34.8027 62.0304 34.701 62.1038 34.5952C62.3596 34.1728 62.7841 33.9512 63.1763 33.6955C63.6983 33.3556 64.2961 33.2362 64.8996 33.1397C65.5833 33.0284 66.282 33.048 66.9583 33.1974C68.387 33.5137 69.3003 34.3651 69.5931 35.8196C69.6498 36.1384 69.6755 36.4619 69.6698 36.7856C69.6774 39.3109 69.6796 41.8362 69.6764 44.3615C69.6764 44.4136 69.6689 44.4657 69.6632 44.5263H65.7419V44.2356V37.5583C65.7419 36.9286 65.4084 36.3405 64.9574 36.1767C64.2942 35.9371 63.5856 36.0621 63.2227 36.5157C62.9192 36.9076 62.7605 37.3924 62.7737 37.8879C62.768 39.9959 62.7737 42.1039 62.7737 44.2119V44.5225H58.8419V36.0706ZM83.0206 40.0764C83.0849 40.4812 83.2516 40.8629 83.5048 41.1853C83.7549 41.4977 84.0892 41.732 84.4683 41.8605C84.7355 41.9628 85.0424 41.9637 85.3314 42.0073C85.4773 42.0291 85.6412 42.0954 85.7672 42.0528C86.0865 41.9439 86.4067 42.0878 86.7231 41.9959C87.265 41.8387 87.8259 41.7365 88.3564 41.5508C88.7922 41.3984 89.1977 41.1569 89.6639 40.9315C89.6515 41.1522 89.6373 41.3349 89.6335 41.5177C89.6335 41.6474 89.6468 41.7781 89.6459 41.9088C89.6459 41.995 89.626 42.0802 89.6222 42.1664C89.6127 42.3558 89.6222 42.5452 89.5975 42.7346C89.572 42.9524 89.5606 43.1844 89.4715 43.3776C89.4109 43.5073 89.2385 43.6039 89.0926 43.675C88.4032 44.0282 87.6768 44.3042 86.9268 44.4979C86.0741 44.7062 85.2129 44.7384 84.3451 44.6958C83.2423 44.6428 82.1983 44.3899 81.25 43.7914C80.5309 43.3378 80.0278 42.7014 79.6242 41.9751C79.2585 41.3122 79.1022 40.5953 79.0084 39.8548C78.9032 38.9157 78.9609 37.9655 79.1789 37.046C79.363 36.2606 79.7342 35.5312 80.2609 34.92C80.7289 34.3518 81.3125 33.9531 81.9662 33.6179C82.6199 33.2826 83.2926 33.1624 83.9851 33.062C84.4588 32.9919 84.9628 33.0431 85.446 33.1046C85.9904 33.1747 86.5288 33.2854 87.0566 33.4361C87.3484 33.5184 87.6108 33.7097 87.8799 33.8632C88.3655 34.1381 88.798 34.4976 89.157 34.9247C89.518 35.3643 89.7797 35.8766 89.9244 36.4267C90.093 37.0909 90.1717 37.7747 90.1584 38.4599C90.1719 38.9278 90.0123 39.3843 89.7103 39.7421C89.6348 39.8474 89.529 39.9273 89.4071 39.9713C89.1271 40.0342 88.8414 40.0681 88.5544 40.0726C86.7629 40.0811 84.9704 40.0726 83.1789 40.0726L83.0206 40.0764ZM82.9183 38.1445H86.0808C86.2504 38.1445 86.2892 38.0498 86.2996 37.904C86.3403 37.418 86.2486 36.9301 86.0343 36.492C85.5104 35.438 84.0656 35.2789 83.428 36.2079C83.0349 36.7856 82.9486 37.4475 82.9183 38.1445Z" fill="#010101"/>
<path d="M91.1836 33.2514L92.9732 33.2381L93.0178 33.1964V30.5657L96.9969 29.6783V33.1955L97.0442 33.239H99.5264V35.9522H97.0092C97.0026 36.0402 96.9921 36.1084 96.9921 36.1766C96.9921 37.7411 96.9675 39.3064 97.0026 40.8709C97.0177 41.5641 97.3285 41.8747 97.9841 41.8917C98.5686 41.9069 99.1049 41.6957 99.6439 41.5129C99.7642 41.4713 99.8533 41.35 99.966 41.2781C100.132 41.172 100.203 41.2582 100.197 41.423C100.178 41.9268 100.152 42.4306 100.127 42.9382C100.106 43.1436 100.096 43.35 100.096 43.5565C100.104 43.626 100.091 43.6963 100.057 43.7575C100.023 43.8186 99.97 43.8673 99.9064 43.8965C99.3183 44.2464 98.6629 44.4681 97.9831 44.5471C97.3484 44.6266 96.7183 44.7706 96.0703 44.6967C95.3903 44.6335 94.7358 44.406 94.1632 44.0338C93.7189 43.7403 93.5426 43.2857 93.2774 42.8918C93.1239 42.6626 93.1277 42.3236 93.0879 42.0234C93.0481 41.7232 93.0415 41.4277 93.0206 41.1294V36.0185L92.9761 35.974H91.176V33.3053L91.1836 33.2514Z" fill="black"/>
<path d="M72.44 31.3442C72.2145 31.3385 71.989 31.3318 71.7635 31.329C71.538 31.3262 71.3325 31.329 71.1003 31.329V28.5969H76.4153C76.421 28.721 76.4314 28.8365 76.4314 28.952V41.3851C76.4172 42.2014 76.7829 42.2933 77.4877 42.0736C77.6151 42.026 77.7386 41.9687 77.8572 41.9022V43.7839C77.8579 43.8675 77.8329 43.9494 77.7856 44.0185C77.7384 44.0875 77.6711 44.1405 77.5929 44.1702C76.7554 44.5841 75.8762 44.7195 74.9553 44.7091C74.3206 44.7015 73.7322 44.5576 73.2547 44.1494C73.0136 43.9362 72.8327 43.6636 72.7299 43.3587C72.5821 42.906 72.5271 42.4211 72.4457 41.9476C72.4267 41.8312 72.4873 41.7052 72.4873 41.5831V31.7031C72.4873 31.6036 72.4826 31.5042 72.4798 31.4048L72.44 31.3442Z" fill="#020202"/>
<path d="M56.5091 41.9523C56.5184 41.9771 56.5226 42.0035 56.5215 42.0299C56.4873 42.6672 56.4542 43.3046 56.4068 43.9409C56.4068 44.0006 56.3121 44.0688 56.2429 44.1067C55.3571 44.6105 54.3917 44.7696 53.3931 44.6881C52.9614 44.6642 52.5372 44.5648 52.1397 44.3946C51.7153 44.1966 51.4405 43.7866 51.2624 43.3472C51.0436 42.8074 51.0824 42.2288 51.0805 41.6625C51.0739 39.8717 51.0805 38.0809 51.0805 36.2902V35.9758H49.6982V33.2532H55.0094V41.2013C55.0136 41.3828 55.0304 41.5638 55.0596 41.743C55.0994 42.0271 55.2586 42.1947 55.5409 42.1634C55.8672 42.1107 56.1905 42.0402 56.5091 41.9523Z" fill="black"/>
<path d="M93.0186 40.5801V41.1227C92.7969 40.9428 92.7969 40.671 93.0186 40.5801Z" fill="#FDFDFD"/>
<path d="M91.1832 33.2513L91.169 33.3053L91.1084 33.2693L91.1832 33.2513ZM93.0165 33.1954L92.9719 33.2371L93.0165 33.1954Z" fill="#ECECEC"/>
<path d="M92.9736 35.974L93.0182 36.0185L92.9736 35.974Z" fill="#FDFDFD"/>
<path d="M97.0483 33.239L97.001 33.1954L97.0483 33.239Z" fill="#DFDFDF"/>
<path d="M41.1963 42.1569V39.8197C41.1963 39.0697 41.1963 38.3358 41.2067 37.5943C41.22 36.8907 41.651 36.2562 42.2924 36.0791C43.0902 35.8585 44.0717 36.0062 44.4544 37.1814C44.7386 38.0498 44.7159 38.94 44.6439 39.833C44.6037 40.2057 44.5227 40.5728 44.4023 40.9277C44.1541 41.7355 43.5496 42.1039 42.7434 42.1588C42.2451 42.1834 41.7382 42.1569 41.1963 42.1569ZM82.9181 38.1445C82.9475 37.4437 83.0337 36.7818 83.4278 36.207C84.0654 35.2761 85.5121 35.4352 86.0341 36.4911C86.2484 36.9292 86.3401 37.4171 86.2994 37.903C86.289 38.0479 86.2511 38.1445 86.0806 38.1436H83.1256L82.9181 38.1445Z" fill="#FDFDFD"/>
</g>
<defs>
<clipPath id="clip0_241_2107">
<rect width="74.9085" height="25.2876" fill="white" transform="translate(25.2871 23.8562)"/>
</clipPath>
</defs>
</svg>
