<svg width="126" height="73" viewBox="0 0 126 73" fill="none" xmlns="http://www.w3.org/2000/svg">
<rect width="125.484" height="73" rx="2.38562" fill="#FBFBFB"/>
<g clip-path="url(#clip0_241_2128)">
<path fill-rule="evenodd" clip-rule="evenodd" d="M95.6963 50.995C95.8047 50.995 95.8955 51.027 95.9737 51.0958C96.0094 51.1255 96.0382 51.1627 96.058 51.2047C96.0779 51.2467 96.0884 51.2925 96.0887 51.339C96.0887 51.4342 96.0463 51.5134 95.9737 51.5822C95.8974 51.6499 95.7982 51.6859 95.6963 51.6829C95.5942 51.6859 95.4949 51.6499 95.4184 51.5822C95.3822 51.5529 95.3532 51.5158 95.3333 51.4737C95.3135 51.4316 95.3035 51.3855 95.3039 51.339C95.3039 51.2438 95.3402 51.159 95.4184 51.0958C95.4949 51.0281 95.5942 50.9921 95.6963 50.995ZM100.373 49.2065L100.023 49.3969C99.7153 49.0425 99.2992 48.8681 98.7682 48.8681C98.3455 48.8681 97.9895 48.9842 97.7116 49.2225C97.4342 49.4602 97.2895 49.7464 97.2895 50.0848C97.2895 50.3072 97.3555 50.5135 97.4826 50.7094C97.6149 50.9067 97.7985 51.064 98.0137 51.1645C98.2502 51.2729 98.508 51.3271 98.7682 51.323C99.2811 51.323 99.6971 51.1486 100.023 50.7942L100.373 50.995C100.211 51.2174 99.9871 51.3814 99.7092 51.503C99.4258 51.6246 99.1061 51.6829 98.75 51.6829C98.2008 51.6829 97.7479 51.5344 97.3858 51.2278C97.0237 50.9208 96.8426 50.5559 96.8426 50.1162C96.8426 49.8256 96.9274 49.5505 97.0963 49.3017C97.2679 49.0447 97.5084 48.8412 97.7903 48.7145C98.0858 48.5715 98.4182 48.5027 98.7863 48.5027C99.0153 48.5027 99.2387 48.5291 99.45 48.5929C99.6434 48.6404 99.8271 48.7208 99.9932 48.8307C100.144 48.9293 100.273 49.0571 100.373 49.2065ZM102.872 48.5027C103.403 48.5027 103.849 48.6667 104.199 49.0057C104.52 49.3177 104.676 49.677 104.676 50.1008C104.676 50.5245 104.513 50.8943 104.176 51.2124C103.837 51.5239 103.403 51.6829 102.872 51.6829C102.341 51.6829 101.906 51.5245 101.568 51.2119C101.23 50.8943 101.061 50.524 101.061 50.1002C101.061 49.6825 101.218 49.3177 101.538 49.0106C101.888 48.6722 102.335 48.5027 102.872 48.5027ZM102.872 48.8835C102.498 48.8835 102.184 49.0002 101.918 49.2434C101.647 49.4817 101.514 49.7728 101.514 50.1112C101.514 50.3281 101.58 50.5295 101.701 50.7199C101.82 50.9092 101.989 51.0614 102.19 51.159C102.402 51.262 102.636 51.3145 102.872 51.3126C103.119 51.3126 103.342 51.2598 103.548 51.159C103.75 51.0617 103.922 50.9096 104.042 50.7199C104.161 50.539 104.224 50.3274 104.223 50.1112C104.223 49.7728 104.091 49.4817 103.82 49.2434C103.554 49.0002 103.24 48.8835 102.872 48.8835ZM105.497 48.577H105.944V49.1009C106.101 48.9049 106.257 48.7619 106.42 48.6771C106.64 48.5622 106.884 48.5023 107.132 48.5027C107.301 48.5027 107.458 48.5291 107.609 48.5874C107.746 48.6366 107.872 48.714 107.977 48.8147C108.088 48.9335 108.172 49.0741 108.225 49.2274C108.362 49.0039 108.553 48.8184 108.78 48.6881C108.999 48.5642 109.247 48.5002 109.498 48.5027C109.74 48.5027 109.951 48.5555 110.132 48.6617C110.311 48.7619 110.454 48.9154 110.542 49.1009C110.633 49.2913 110.675 49.5769 110.675 49.9577V51.6087H110.222V49.9522C110.222 49.6297 110.192 49.4074 110.138 49.2863C110.085 49.1583 109.989 49.053 109.866 48.9891C109.74 48.9154 109.588 48.8785 109.407 48.8785C109.197 48.8785 108.997 48.9314 108.822 49.0475C108.648 49.1501 108.51 49.3059 108.43 49.4921C108.345 49.6776 108.303 49.9896 108.303 50.4238V51.6087H107.863V50.0584C107.863 49.6936 107.832 49.4448 107.785 49.3122C107.73 49.18 107.635 49.0688 107.513 48.9946C107.372 48.9136 107.211 48.8734 107.048 48.8785C106.843 48.8785 106.65 48.9314 106.469 49.0425C106.295 49.1452 106.156 49.2983 106.07 49.4817C105.986 49.6616 105.944 49.9472 105.944 50.3231V51.6087H105.497V48.5764V48.577ZM80.9511 30.9019C84.2794 30.9019 87.0695 33.189 87.8037 36.2543C87.8559 36.3994 87.8829 36.5524 87.8835 36.7066C87.8835 37.4369 87.2776 38.034 86.5374 38.034C85.7906 38.034 85.2827 37.4309 85.1853 36.7066C84.9283 34.7035 82.5905 33.4966 80.9511 33.4966C78.5099 33.4966 76.5398 35.4453 76.5398 37.8469C76.5398 40.249 78.5099 42.1977 80.9511 42.1977C85.1484 42.1977 84.4875 38.3543 86.3415 38.3543C87.0877 38.3543 87.6936 38.9514 87.6936 39.6816C87.6763 39.8982 87.6225 40.1103 87.5346 40.309C86.5247 42.928 83.9553 44.7924 80.9511 44.7924C77.0598 44.7924 73.9087 41.6848 73.9087 37.8474C73.9087 34.6308 73.5719 28.0837 73.5719 24.7956C73.5719 24.4516 73.8537 24.1737 74.196 24.1737H74.459C74.8019 24.1737 74.8019 24.4516 74.8267 24.7956L75.3467 33.6414C75.4208 33.5442 75.4983 33.4497 75.5789 33.358L75.2179 23.2987C75.2058 22.9366 75.5178 22.6411 75.8849 22.6411C76.2459 22.6411 76.5337 22.9366 76.5458 23.2987L76.9129 32.1572C76.9679 32.1209 77.029 32.0785 77.0901 32.0361V22.1282C77.0901 21.7661 77.39 21.4706 77.7571 21.4706C78.1241 21.4706 78.4241 21.7661 78.4241 22.1282V31.3664C79.2306 31.0571 80.0873 30.8996 80.9511 30.9019ZM102.827 30.6812C103.249 30.6812 103.991 30.6873 104.504 30.6873V26.2143C104.505 25.7994 104.671 25.4021 104.965 25.1092C105.259 24.8162 105.657 24.6514 106.071 24.6509C106.487 24.6504 106.885 24.8148 107.179 25.1078C107.473 25.4009 107.638 25.7987 107.639 26.2138H107.645V30.6873C108.255 30.6873 108.785 30.6691 109.309 30.6691C110.214 30.7297 110.715 31.3427 110.673 32.1781C110.63 33.008 110.118 33.4829 109.412 33.5374L107.645 33.5429V43.3495H107.633C107.603 43.7426 107.425 44.1096 107.135 44.3772C106.846 44.6448 106.466 44.7931 106.071 44.7924C105.677 44.7922 105.297 44.6437 105.006 44.3765C104.716 44.1093 104.537 43.7427 104.504 43.3495V33.5434L102.64 33.5374C102.146 33.5374 101.488 33.0201 101.464 32.1902C101.44 31.3609 102.079 30.6988 102.827 30.6812ZM23.0039 30.6757H23.2037C23.2697 30.6812 23.3358 30.6812 23.4024 30.6873C23.4684 30.6873 23.535 30.6928 23.6016 30.6994C23.6676 30.7049 23.7336 30.7049 23.7942 30.7175L23.9934 30.7352C24.0539 30.7473 24.12 30.7533 24.186 30.7654C24.2465 30.7715 24.3126 30.7836 24.3731 30.7957L24.5663 30.8315C24.6928 30.8557 24.8139 30.8859 24.9405 30.9157L25.121 30.9701C25.187 30.9817 25.2476 31.0059 25.3081 31.0241L25.4892 31.078C25.5497 31.1022 25.6097 31.1204 25.6636 31.144C25.7241 31.1622 25.7847 31.1864 25.8447 31.2101C26.0197 31.2761 26.1886 31.3548 26.3631 31.433C26.532 31.5172 26.6949 31.6074 26.8578 31.6971C27.2893 31.9429 27.6952 32.231 28.0696 32.5573L28.2088 32.6772C28.2567 32.7196 28.2991 32.7614 28.3475 32.8038C28.4796 32.9304 28.6061 33.0679 28.7327 33.2C28.8175 33.2969 28.8962 33.3871 28.9749 33.4829C29.0945 33.6252 29.209 33.7716 29.3183 33.922C29.3546 33.976 29.3843 34.0244 29.4206 34.0783C29.4569 34.1262 29.4927 34.1807 29.523 34.2286V34.2346C29.6259 34.3909 29.7222 34.5472 29.8124 34.7095V34.7156C29.8366 34.7695 29.8669 34.824 29.8972 34.8779C29.9275 34.9319 29.9511 34.9863 29.9814 35.0463C30.0056 35.1003 30.0359 35.1602 30.0601 35.2147C30.0837 35.2753 30.114 35.3286 30.1382 35.3892C30.1867 35.5031 30.2285 35.6176 30.2769 35.7375C30.2951 35.7981 30.3193 35.858 30.3374 35.918C30.3556 35.9786 30.3793 36.0325 30.398 36.0985L30.4519 36.279C30.4701 36.339 30.4822 36.399 30.5003 36.459C30.5179 36.525 30.53 36.5856 30.5482 36.6461L30.5845 36.8382C30.5966 36.8981 30.6087 36.9581 30.6209 37.0242C30.633 37.0902 30.6451 37.1507 30.6566 37.2168C30.6627 37.2773 30.6748 37.3434 30.6808 37.4094C30.6869 37.4694 30.699 37.5354 30.705 37.602L30.7232 37.7941C30.7287 37.8601 30.7287 37.9261 30.7353 37.9922C30.7353 38.0582 30.7408 38.1243 30.7408 38.1903V38.389C30.7408 40.0184 30.6808 40.4334 30.6385 42.0986H30.633V42.2192C30.6209 42.7601 30.6087 43.0969 30.6027 43.6379C30.3853 44.3835 29.6859 44.6422 29.0591 44.6422C28.8007 44.6424 28.5465 44.5774 28.3198 44.4533C28.0932 44.3293 27.9015 44.1501 27.7625 43.9323C27.7111 43.8191 27.6842 43.6962 27.6838 43.5718C27.6717 43.1629 27.6657 42.748 27.6535 42.3391L27.648 38.4732V38.389C27.648 37.5173 26.707 35.1724 25.3142 34.3788C25.2839 34.3546 25.2481 34.337 25.2173 34.3183C25.1876 34.3007 25.1513 34.2885 25.121 34.2704C25.0847 34.2528 25.0489 34.2346 25.0186 34.2165C24.9823 34.2043 24.9526 34.1867 24.9157 34.1746C24.88 34.1565 24.8497 34.1383 24.8134 34.1262C24.777 34.1141 24.7413 34.0965 24.705 34.0844C24.6747 34.0723 24.6389 34.0541 24.6026 34.042L24.4942 34.0062L24.3852 33.9699C24.3489 33.9578 24.3131 33.9463 24.2768 33.9402C24.2405 33.9281 24.2047 33.916 24.1684 33.9099C24.126 33.8978 24.0897 33.8918 24.0539 33.8797C24.0176 33.8742 23.9813 33.8621 23.9389 33.856C23.9031 33.8499 23.8668 33.8439 23.8244 33.8378C23.7871 33.8263 23.7488 33.8182 23.71 33.8136C23.6737 33.8081 23.6379 33.8081 23.5955 33.8015C23.5592 33.796 23.5168 33.7894 23.481 33.7894C23.4387 33.7839 23.4024 33.7779 23.36 33.7779C23.3242 33.7718 23.2818 33.7718 23.2455 33.7718C23.2037 33.7657 23.1674 33.7657 23.125 33.7657H22.884C22.8476 33.7657 22.8053 33.7657 22.7689 33.7713C22.7271 33.7713 22.6908 33.7713 22.6484 33.7779C22.6066 33.7779 22.5703 33.7834 22.534 33.79C22.4921 33.79 22.4558 33.7955 22.4134 33.8015C22.3771 33.8076 22.3353 33.8076 22.299 33.8136C22.2626 33.8197 22.2203 33.8257 22.1845 33.8378L22.0695 33.856C22.0337 33.8681 21.9974 33.8736 21.955 33.8797C21.9187 33.8918 21.8829 33.8978 21.8466 33.9099C21.8103 33.9154 21.7745 33.9281 21.7382 33.9402C21.6958 33.9523 21.6595 33.9578 21.6237 33.9699L21.5148 34.0062C21.479 34.0183 21.4427 34.0304 21.4124 34.042C21.3761 34.0541 21.3403 34.0723 21.304 34.0844C21.2677 34.0965 21.2314 34.1141 21.2016 34.1262C21.1653 34.1383 21.129 34.1565 21.0987 34.1746H21.0932C21.063 34.1867 21.0266 34.2043 20.9964 34.2165C20.96 34.2346 20.9243 34.2528 20.894 34.2704C20.8577 34.2885 20.828 34.3007 20.7911 34.3188C20.7614 34.337 20.7306 34.3551 20.6948 34.3794C19.9971 34.7773 19.4154 35.3504 19.0072 36.042C18.5989 36.7336 18.3782 37.5198 18.367 38.3229V38.4071L18.373 43.6203C18.373 44.2333 17.6312 44.7319 16.8839 44.7143C16.2807 44.7022 15.4305 44.3236 15.4184 43.5718C15.376 41.414 15.2676 40.4934 15.2676 38.389V38.1908C15.2736 38.1248 15.2736 38.0588 15.2797 37.9927C15.2797 37.9267 15.2852 37.8601 15.2918 37.7941L15.31 37.6015C15.3155 37.5354 15.3221 37.4694 15.3281 37.4088C15.3397 37.3428 15.3457 37.2768 15.3578 37.2168C15.3639 37.1507 15.376 37.0902 15.3881 37.0242C15.412 36.8975 15.4382 36.7713 15.4668 36.6456C15.4789 36.585 15.4965 36.5256 15.5086 36.459L15.5631 36.279L15.6176 36.0985L15.6715 35.918C15.6957 35.8575 15.7139 35.7981 15.7375 35.7375C15.7799 35.6176 15.8284 35.5031 15.8768 35.3892C15.901 35.3286 15.9247 35.2747 15.9489 35.2147C15.9791 35.1602 16.0034 35.1003 16.0336 35.0463C16.0573 34.9858 16.0875 34.9319 16.1118 34.8779L16.202 34.7156V34.7101C16.2928 34.5472 16.3836 34.3909 16.4854 34.2346V34.2291C16.5217 34.1807 16.552 34.1262 16.5883 34.0783C16.6247 34.0244 16.6604 33.976 16.6967 33.922C16.8052 33.7718 16.9136 33.6276 17.0346 33.4829C17.1128 33.3866 17.1975 33.2969 17.2757 33.2006C17.4023 33.0685 17.5349 32.9364 17.6675 32.8038C17.7099 32.7614 17.7583 32.7196 17.8001 32.6772C17.8486 32.6354 17.897 32.5991 17.9388 32.5573C18.3155 32.2337 18.7214 31.9458 19.1512 31.6971C19.3141 31.6074 19.483 31.5172 19.6519 31.433C19.8203 31.3548 19.9953 31.2767 20.1703 31.2106C20.2243 31.1864 20.2848 31.1622 20.3448 31.1446C20.4053 31.1204 20.4659 31.1022 20.5264 31.0786L20.7069 31.0235C20.7674 31.0059 20.828 30.9817 20.888 30.9701C20.9485 30.952 21.0085 30.9338 21.0751 30.9157C21.1956 30.8859 21.3222 30.8551 21.4487 30.8315L21.6358 30.7957C21.7019 30.7836 21.7624 30.7715 21.8284 30.7654C21.889 30.7533 21.955 30.7473 22.0211 30.7352L22.2142 30.7175C22.2808 30.7054 22.3474 30.7054 22.4074 30.6994C22.4734 30.6933 22.54 30.6873 22.6066 30.6873C22.6726 30.6818 22.7387 30.6818 22.8053 30.6752H23.0045L23.0039 30.6757ZM38.5867 30.5547C42.4884 30.5547 45.6483 33.7058 45.6483 37.5893C45.6483 39.8264 45.5036 42.1471 45.5036 44.4314H44.0981C43.772 44.4311 43.4561 44.3176 43.2043 44.1104C42.9525 43.9031 42.7804 43.615 42.7174 43.295C41.5167 44.1665 40.0703 44.634 38.5867 44.6301C34.691 44.6301 31.5316 41.4795 31.5316 37.5893C31.5316 33.7058 34.691 30.5552 38.5867 30.5552V30.5547ZM38.5867 33.369C40.9266 33.369 42.8197 35.2626 42.8197 37.5899C42.8197 39.9221 40.9266 41.8103 38.5867 41.8103C36.2467 41.8103 34.3536 39.9227 34.3536 37.5893C34.3536 35.2626 36.2467 33.3684 38.5867 33.3684V33.369ZM49.7003 34.3007L49.7124 43.1272C49.71 43.5226 49.5515 43.9011 49.2715 44.1804C48.9916 44.4596 48.6127 44.6171 48.2172 44.6185H46.7215V32.7009C46.7215 32.3823 46.8662 31.991 47.0715 31.6663C47.1072 31.6971 47.1375 31.7213 47.1678 31.745C47.9822 32.2799 49.1395 32.653 49.7003 34.3001V34.3007ZM50.7982 37.4331C50.7982 33.6579 53.8673 30.6036 57.6546 30.6036V30.6273C57.7025 30.6212 57.4014 30.6152 57.8054 30.6152C58.2093 30.6152 59.1801 31.2282 59.1801 31.9855C59.1801 32.7438 58.2214 33.3508 57.8054 33.3508C57.3888 33.3508 57.6606 33.3448 57.588 33.3387C55.6223 33.369 53.9944 35.6115 53.6202 36.94C53.5593 37.1569 53.5347 37.3825 53.5476 37.6075L53.5657 43.4634C53.5657 44.2212 52.945 44.6664 52.1844 44.6664H50.8037C50.8037 42.4536 50.7982 39.6459 50.7982 37.4331ZM65.6083 30.6036C69.504 30.6036 72.6639 33.7536 72.6639 37.6378C72.6639 39.8743 72.5252 42.1889 72.5252 44.4799H71.1197C70.7939 44.4785 70.4785 44.3646 70.227 44.1576C69.9754 43.9505 69.803 43.6629 69.739 43.3435C68.5365 44.2113 67.0912 44.6783 65.6083 44.678C61.7066 44.678 58.5466 41.5219 58.5466 37.6378C58.5466 33.7536 61.7066 30.6031 65.6083 30.6031V30.6036ZM65.6083 33.4168C67.9416 33.4168 69.8413 35.3044 69.8413 37.6378C69.8413 39.9706 67.9422 41.8587 65.6083 41.8587C63.2684 41.8587 61.3753 39.9706 61.3753 37.6378C61.3753 35.3044 63.2684 33.4168 65.6083 33.4168ZM96.2119 30.7533C100.053 30.7533 103.165 33.856 103.165 37.6856C103.165 37.9261 103.153 38.1606 103.129 38.3956H92.0934C92.262 39.3649 92.7678 40.2434 93.5214 40.8759C94.2751 41.5084 95.2281 41.8542 96.2119 41.8521C96.8347 41.8537 97.4498 41.7158 98.0123 41.4484C98.5747 41.1811 99.0701 40.7912 99.4621 40.3074C100.722 39.7901 101.971 41.1009 101.272 42.4415C100.622 43.1306 99.8372 43.6792 98.9671 44.0535C98.0969 44.4279 97.1592 44.62 96.2119 44.618C92.3707 44.618 89.2592 41.5159 89.2592 37.6856C89.2592 33.8554 92.3707 30.7533 96.2119 30.7533ZM99.9629 35.8338C99.6152 35.1366 99.08 34.55 98.4174 34.1401C97.7549 33.7301 96.9911 33.513 96.2119 33.5132C95.4334 33.5124 94.6702 33.7293 94.0085 34.1394C93.3467 34.5494 92.8128 35.1363 92.467 35.8338H99.9629Z" fill="#013BE5"/>
<path fill-rule="evenodd" clip-rule="evenodd" d="M49.7203 34.1917L49.6922 31.7274C49.6867 31.2382 49.5272 30.7077 49.2988 30.2718C49.0137 29.7177 48.5636 29.3462 48.033 29.0045C47.5036 28.6682 46.8708 28.5207 46.54 27.8312L46.5632 30.0005C46.5742 30.749 46.9621 31.3972 47.3154 31.6449C48.0903 32.1754 49.1959 32.5408 49.7203 34.1917Z" fill="#F58634"/>
</g>
<defs>
<clipPath id="clip0_241_2128">
<rect width="95.4248" height="30.2124" fill="white" transform="translate(15.2676 21.4706)"/>
</clipPath>
</defs>
</svg>
