<svg width="126" height="73" viewBox="0 0 126 73" fill="none" xmlns="http://www.w3.org/2000/svg">
<rect width="125.484" height="73" rx="2.38562" fill="#FBFBFB"/>
<g clip-path="url(#clip0_241_2120)">
<path d="M30.9107 26.8976C30.7584 26.8976 30.6223 26.9944 30.5732 27.138L27.6856 35.5666C27.5733 35.8947 27.1035 35.8847 27.0055 35.5519L24.5286 27.1527C24.4839 27.0015 24.3444 26.8976 24.1859 26.8976H21.3506C21.1079 26.8976 20.9361 27.1333 21.0108 27.3627L25.3587 40.7118C25.4063 40.8583 25.5434 40.9579 25.698 40.9579H28.6314C28.7846 40.9579 28.9207 40.8602 28.9697 40.7156L31.9735 31.8399C32.0825 31.5185 32.538 31.5166 32.6494 31.8371L35.7312 40.7185C35.7811 40.8617 35.9163 40.9579 36.0686 40.9579H38.9158C39.071 40.9579 39.2085 40.8579 39.2556 40.7104L43.5484 27.3618C43.6221 27.1323 43.4502 26.8976 43.2084 26.8976H40.5464C40.3874 26.8976 40.2474 27.0024 40.2032 27.1546L37.7806 35.54C37.684 35.8743 37.2124 35.8857 37.0996 35.5566L34.2157 27.138C34.1667 26.9944 34.0306 26.8976 33.8783 26.8976H30.9107ZM43.8536 37.1462C43.8536 39.3689 45.6794 41.3901 48.6355 41.3901C50.2385 41.3901 51.4008 40.8245 52.1827 40.1185C52.4488 39.8781 53.0029 40.0555 53.0406 40.4111C53.0523 40.5282 53.0658 40.6263 53.0775 40.7064C53.1008 40.8577 53.2318 40.9573 53.3851 40.9573H55.8225C56.0648 40.9573 56.0866 40.7429 56.0842 40.5286C56.0795 40.1209 56.0842 39.5079 56.0842 38.7052V31.7184C56.0842 28.9177 54.4321 26.4636 50.0849 26.4636C46.7575 26.4636 44.5975 28.4455 44.1882 30.7407C44.1563 30.9185 44.2767 31.0845 44.4532 31.1243L46.8226 31.6587C47.0316 31.7056 47.2329 31.5591 47.28 31.3509C47.5556 30.1282 48.5146 29.2065 50.1138 29.2065C51.9687 29.2065 52.7801 30.1595 52.7801 31.3429C52.7801 31.8336 52.5483 32.238 51.7369 32.3537L48.1139 32.9018C45.7084 33.2484 43.8536 34.6343 43.8536 37.1462ZM49.2733 38.763C47.9402 38.763 47.2158 37.8968 47.2158 36.9442C47.2158 35.7893 48.0563 35.2118 49.0996 35.0382L52.3703 34.5508C52.5864 34.5191 52.7801 34.6855 52.7801 34.9026V35.125C52.7801 37.8678 51.1571 38.763 49.2733 38.763ZM61.713 40.9571C61.9101 40.9571 62.0698 40.7978 62.0698 40.6015V22.7804C62.0698 22.5841 61.9101 22.4248 61.713 22.4248H59.0647C58.8676 22.4248 58.7077 22.5841 58.7077 22.7804V40.6015C58.7077 40.7978 58.8676 40.9571 59.0647 40.9571H61.713ZM67.956 40.9571C68.1531 40.9571 68.313 40.7978 68.313 40.6015V22.7804C68.313 22.5841 68.1531 22.4248 67.956 22.4248H65.3077C65.1106 22.4248 64.9507 22.5841 64.9507 22.7804V40.6015C64.9507 40.7978 65.1106 40.9571 65.3077 40.9571H67.956ZM73.6371 33.2214C73.4361 33.275 73.2303 33.1469 73.2165 32.9405C73.1228 31.5351 73.9139 29.9197 75.7859 29.42C77.8575 28.8671 79.2505 29.7994 79.8301 31.1885C79.9081 31.3743 79.7935 31.5781 79.598 31.6303L73.6371 33.2214ZM81.6232 34.9955C81.4282 34.9867 81.2642 35.1355 81.2377 35.3281C81.0585 36.6423 80.2961 37.7809 78.4944 38.2618C76.5965 38.7684 74.6939 37.8719 73.9445 36.0624C73.867 35.8754 73.9814 35.6702 74.1772 35.6179L83.571 33.1105C83.7017 33.0756 83.7856 32.9688 83.767 32.8349C83.7392 32.6381 83.6806 32.3322 83.591 31.9993C82.4359 27.7049 79.2294 25.6014 75.0302 26.7222C71.5867 27.6414 69.1604 31.3377 70.3155 35.6326C71.5533 40.2338 75.5489 42.0368 79.2443 41.0505C82.3697 40.2162 84.0045 37.9019 84.2257 35.4637C84.2434 35.269 84.0904 35.1051 83.8948 35.096L81.6232 34.9955ZM89.8877 22.9514C89.8877 22.7547 89.7284 22.5958 89.5309 22.5958H87.2021C87.0044 22.5958 86.8451 22.7547 86.8451 22.9514V24.7033C86.8451 25.9446 86.1782 26.8976 84.6713 26.8976H84.3035C84.1064 26.8976 83.9465 27.0564 83.9465 27.2532V29.5157C83.9465 29.712 84.1064 29.8713 84.3035 29.8713H86.1983C86.3952 29.8713 86.5551 30.0302 86.5551 30.2269V36.9449C86.5551 39.572 88.1782 41.131 90.7864 41.131C91.7141 41.131 92.3053 40.9968 92.6236 40.8944C92.7598 40.8512 92.844 40.7213 92.844 40.5791V38.4754C92.844 38.2511 92.6374 38.0795 92.4137 38.107C92.1942 38.1335 91.9277 38.1572 91.685 38.1572C90.4384 38.1572 89.8877 37.6376 89.8877 36.3963V30.2269C89.8877 30.0302 90.0477 29.8713 90.2447 29.8713H92.4585C92.6555 29.8713 92.8154 29.712 92.8154 29.5157V27.2532C92.8154 27.0564 92.6555 26.8976 92.4585 26.8976H90.2447C90.0477 26.8976 89.8877 26.7383 89.8877 26.542V22.9514ZM94.101 37.0651C93.9325 37.1121 93.8211 37.2738 93.8554 37.4445C94.1805 39.0451 95.7945 41.3901 99.6339 41.3901C103.228 41.3901 104.967 39.0228 104.967 36.8864C104.967 34.8073 103.576 33.1906 100.91 32.6131L98.7649 32.1802C97.8953 32.0071 97.3446 31.4586 97.3446 30.708C97.3446 29.8418 98.1851 29.0912 99.3732 29.0912C100.97 29.0912 101.651 30.0248 101.892 30.8014C101.956 31.0077 102.167 31.1456 102.375 31.0869L104.515 30.4776C104.69 30.4278 104.801 30.2557 104.757 30.0803C104.396 28.6579 103.036 26.4636 99.3732 26.4636C96.4461 26.4636 94.1852 28.5427 94.1852 30.9963C94.1852 32.9307 95.4899 34.5475 97.9819 35.0961L100.069 35.5584C101.199 35.7893 101.721 36.3667 101.721 37.1173C101.721 37.9835 100.996 38.7341 99.6054 38.7341C98.0095 38.7341 97.0767 37.846 96.8063 36.7574C96.7531 36.5422 96.5383 36.3924 96.3237 36.4516L94.101 37.0651Z" fill="#00C9B6"/>
<path d="M79.9285 49.9594C79.9285 50.4154 80.2944 50.7801 80.7518 50.7801C81.2097 50.7801 81.5857 50.4154 81.5857 49.9594C81.5857 49.5038 81.2097 49.1292 80.7518 49.1292C80.2944 49.1292 79.9285 49.5038 79.9285 49.9594ZM82.1735 49.3816C82.1735 50.1616 82.8142 50.8704 83.8512 50.8704C84.3699 50.8704 84.7573 50.7016 85.0296 50.4806C85.1468 50.3858 85.389 50.5405 85.4194 50.6879C85.4329 50.7509 85.4709 50.7187 85.5351 50.7187H86.2347C86.3851 50.7187 86.5008 50.5812 86.487 50.4323C86.4747 50.3009 86.4642 50.1302 86.4642 49.9283V47.4775C86.4642 46.4951 85.8844 45.634 84.3595 45.634C83.24 45.634 82.4971 46.2737 82.3115 47.0366C82.2829 47.1537 82.3643 47.2647 82.4818 47.2913L83.0911 47.4286C83.2301 47.4601 83.3634 47.3608 83.4104 47.2268C83.5399 46.8598 83.8631 46.596 84.3696 46.596C85.0206 46.596 85.3052 46.9304 85.3052 47.3457C85.3052 47.5179 85.2239 47.6595 84.9393 47.7004L83.6679 47.8928C82.8241 48.0142 82.1735 48.5001 82.1735 49.3816ZM84.0749 49.9486C83.6071 49.9486 83.3529 49.6448 83.3529 49.3104C83.3529 48.9056 83.6479 48.7031 84.0141 48.642L85.0839 48.4826C85.2005 48.4652 85.3052 48.5551 85.3052 48.6728C85.3052 49.6348 84.7355 49.9486 84.0749 49.9486ZM89.583 44.3895C89.6245 44.3895 89.6629 44.3908 89.6987 44.3928C89.8566 44.4008 90.01 44.2837 90.01 44.1259V43.5838C90.01 43.4942 89.9581 43.4132 89.8704 43.3914C89.7525 43.3621 89.5821 43.3364 89.3897 43.3364C88.3727 43.3364 87.6611 44.0049 87.6611 45.1087V45.5502C87.6611 45.6814 87.5546 45.7872 87.4232 45.7872H87.0347C86.9033 45.7872 86.7968 45.8933 86.7968 46.0242V46.5733C86.7968 46.7042 86.9033 46.8104 87.0347 46.8104H87.4232C87.5546 46.8104 87.6611 46.9165 87.6611 47.0474V50.4828C87.6611 50.6137 87.7677 50.72 87.8991 50.72H88.6125C88.7444 50.72 88.8506 50.6137 88.8506 50.4828V47.0474C88.8506 46.9165 88.9571 46.8104 89.0885 46.8104H89.7614C89.8934 46.8104 89.9995 46.7042 89.9995 46.5733V46.0242C89.9995 45.8933 89.8934 45.7872 89.7614 45.7872H89.0885C88.9571 45.7872 88.8506 45.6814 88.8506 45.5502V45.139C88.8506 44.5317 89.2675 44.3895 89.583 44.3895ZM93.3234 45.9508C93.3234 45.838 93.243 45.7392 93.1301 45.7307C93.092 45.7279 93.0511 45.726 93.0079 45.726C92.6066 45.726 92.2439 45.8454 91.9703 46.0631C91.8546 46.1551 91.5743 46.0701 91.5743 45.9227C91.5743 45.8478 91.5133 45.7866 91.4381 45.7866H90.6637C90.5319 45.7866 90.4258 45.8928 90.4258 46.0237V50.4825C90.4258 50.6133 90.5319 50.7195 90.6637 50.7195H91.3672C91.4986 50.7195 91.6051 50.6133 91.6051 50.4825V48.3696C91.6051 47.448 92.0216 46.9213 92.9369 46.9213C92.9731 46.9213 93.0097 46.9223 93.0474 46.9241C93.193 46.9308 93.3234 46.8208 93.3234 46.6752V45.9508ZM94.7383 50.7197C94.8696 50.7197 94.9764 50.6135 94.9764 50.4827V46.0238C94.9764 45.893 94.8696 45.7868 94.7383 45.7868H94.0448C93.9135 45.7868 93.8069 45.893 93.8069 46.0238V50.4827C93.8069 50.6135 93.9135 50.7197 94.0448 50.7197H94.7383ZM93.6242 44.0552C93.6242 44.4806 93.9696 44.8148 94.3867 44.8148C94.8135 44.8148 95.1591 44.4806 95.1591 44.0552C95.1591 43.6296 94.8135 43.2853 94.3867 43.2853C93.9696 43.2853 93.6242 43.6296 93.6242 44.0552ZM98.1443 46.718C98.756 46.718 99.0919 47.039 99.2566 47.3926C99.3156 47.5201 99.4589 47.5974 99.5912 47.5497L100.199 47.3283C100.314 47.2864 100.38 47.1641 100.337 47.0498C100.068 46.3278 99.3512 45.634 98.1342 45.634C96.7107 45.634 95.6026 46.728 95.6026 48.2469C95.6026 49.7462 96.7107 50.8704 98.1648 50.8704C99.3479 50.8704 100.069 50.1758 100.366 49.4712C100.415 49.355 100.349 49.2266 100.23 49.1835L99.6425 48.971C99.5136 48.9245 99.3733 48.9966 99.3104 49.118C99.1385 49.4489 98.7867 49.7969 98.1648 49.7969C97.4223 49.7969 96.782 49.2398 96.782 48.2469C96.782 47.2546 97.4223 46.718 98.1443 46.718ZM100.646 49.3816C100.646 50.1616 101.287 50.8704 102.324 50.8704C102.843 50.8704 103.23 50.7016 103.503 50.4806C103.62 50.3858 103.862 50.5405 103.892 50.6879C103.905 50.7509 103.943 50.7187 104.008 50.7187H104.708C104.858 50.7187 104.974 50.5812 104.96 50.4323C104.947 50.3009 104.937 50.1302 104.937 49.9283V47.4775C104.937 46.4951 104.357 45.634 102.832 45.634C101.712 45.634 100.97 46.2737 100.784 47.0366C100.756 47.1537 100.837 47.2647 100.955 47.2913L101.563 47.4286C101.703 47.4601 101.836 47.3608 101.883 47.2268C102.012 46.8598 102.336 46.596 102.842 46.596C103.493 46.596 103.778 46.9304 103.778 47.3457C103.778 47.5179 103.697 47.6595 103.412 47.7004L102.141 47.8928C101.297 48.0142 100.646 48.5001 100.646 49.3816ZM102.548 49.9486C102.08 49.9486 101.826 49.6448 101.826 49.3104C101.826 48.9056 102.12 48.7031 102.487 48.642L103.557 48.4826C103.673 48.4652 103.778 48.5551 103.778 48.6728C103.778 49.6348 103.208 49.9486 102.548 49.9486Z" fill="#5C2799"/>
</g>
<defs>
<clipPath id="clip0_241_2120">
<rect width="83.9739" height="28.6275" fill="white" transform="translate(20.9932 22.4248)"/>
</clipPath>
</defs>
</svg>
