<svg width="212" height="155" viewBox="0 0 212 155" fill="none" xmlns="http://www.w3.org/2000/svg">
<g opacity="0.4">
<path d="M114.873 3.90216L114.99 8.13385C115.285 18.8081 123.868 27.392 134.543 27.6867L138.774 27.8036L134.543 27.9204C123.868 28.2152 115.285 36.799 114.99 47.4733L114.873 51.705L114.756 47.4733C114.461 36.799 105.878 28.2152 95.2032 27.9204L90.9716 27.8036L95.2032 27.6867C105.878 27.392 114.461 18.8081 114.756 8.13385L114.873 3.90216Z" fill="#4CC3F8"/>
<path d="M81.2164 100.971L81.3213 104.771C81.586 114.356 89.2939 122.064 98.879 122.329L102.679 122.434L98.879 122.539C89.294 122.804 81.586 130.511 81.3213 140.097L81.2164 143.896L81.1115 140.097C80.8468 130.511 73.1389 122.804 63.5538 122.539L59.7539 122.434L63.5538 122.329C73.1389 122.064 80.8468 114.356 81.1115 104.771L81.2164 100.971Z" fill="#4CC3F8"/>
<path d="M194.861 45.24C199.136 57.0907 193.467 71.5474 180.229 85.4496C167.038 99.3033 146.543 112.353 121.859 121.258C97.1758 130.163 73.0701 133.204 54.0723 130.963C35.0081 128.714 21.4148 121.207 17.1394 109.356C12.864 97.5055 18.5334 83.0487 31.7709 69.1466C44.9623 55.2929 65.4571 42.2432 90.1406 33.3381C114.824 24.433 138.93 21.3923 157.928 23.6332C176.992 25.8819 190.585 33.3892 194.861 45.24Z" stroke="#4CC3F8" stroke-width="2"/>
</g>
</svg>
