<svg width="390" height="284" viewBox="0 0 390 284" fill="none" xmlns="http://www.w3.org/2000/svg">
<g opacity="0.4">
<path d="M211.026 7.16864L211.68 30.8693C211.975 41.5436 220.559 50.1274 231.233 50.4222L254.934 51.0766L231.233 51.731C220.559 52.0258 211.975 60.6096 211.68 71.2839L211.026 94.9846L210.372 71.2839C210.077 60.6096 201.493 52.0258 190.819 51.731L167.118 51.0766L190.819 50.4222C201.493 50.1274 210.077 41.5436 210.372 30.8693L211.026 7.16864Z" fill="#4CC3F8"/>
<path d="M149.197 185.489L149.785 206.771C150.05 216.356 157.758 224.064 167.343 224.329L188.625 224.916L167.343 225.504C157.758 225.769 150.05 233.477 149.785 243.062L149.197 264.344L148.61 243.062C148.345 233.477 140.637 225.769 131.052 225.504L109.77 224.916L131.052 224.329C140.637 224.064 148.345 216.356 148.61 206.771L149.197 185.489Z" fill="#4CC3F8"/>
<path d="M358.755 82.8237C366.774 105.053 356.081 131.941 331.695 157.552C307.355 183.114 269.586 207.15 224.145 223.544C178.705 239.937 134.289 245.551 99.2351 241.416C64.1146 237.273 38.718 223.405 30.6984 201.176C22.6788 178.947 33.3719 152.059 57.7583 126.448C82.0986 100.886 119.868 76.8497 165.308 60.4562C210.749 44.0627 255.164 38.4491 290.218 42.5839C325.339 46.7265 350.735 60.5945 358.755 82.8237Z" stroke="#4CC3F8" stroke-width="2"/>
</g>
</svg>
