<svg width="92" height="104" viewBox="0 0 92 104" fill="none" xmlns="http://www.w3.org/2000/svg">
<g filter="url(#filter0_d_241_3316)">
<path d="M37.7039 28.9511C39.1741 28.3421 40.8259 28.3421 42.2961 28.9511L51.846 32.9068C53.3162 33.5158 54.4842 34.6838 55.0932 36.154L59.0489 45.7039C59.6579 47.1741 59.6579 48.8259 59.0489 50.2961L55.0932 59.846C54.4842 61.3162 53.3162 62.4842 51.846 63.0932L42.2961 67.0489C40.8259 67.6579 39.1741 67.6579 37.7039 67.0489L28.154 63.0932C26.6838 62.4842 25.5158 61.3162 24.9068 59.846L20.9511 50.2961C20.3421 48.8259 20.3421 47.1741 20.9511 45.7039L24.9068 36.154C25.5158 34.6838 26.6838 33.5158 28.154 32.9068L37.7039 28.9511Z" fill="url(#paint0_linear_241_3316)"/>
</g>
<path d="M42.1427 40.8572C42.6443 40.8571 43.1371 40.9891 43.5716 41.2399C44.006 41.4908 44.3667 41.8515 44.6175 42.286C44.8683 42.7204 45.0003 43.2132 45.0002 43.7149C45.0001 44.2165 44.8679 44.7093 44.617 45.1436L47.857 45.1429V46.5715H46.4284V53.7143C46.4284 53.9038 46.3532 54.0854 46.2192 54.2194C46.0852 54.3534 45.9036 54.4286 45.7141 54.4286H34.2856C34.0961 54.4286 33.9144 54.3534 33.7805 54.2194C33.6465 54.0854 33.5713 53.9038 33.5713 53.7143V46.5715H32.1427V45.1429L35.3827 45.1436C35.0283 44.53 34.9146 43.8065 35.0637 43.1137C35.2128 42.421 35.6139 41.8083 36.1894 41.3947C36.7648 40.9811 37.4734 40.7961 38.1775 40.8757C38.8817 40.9552 39.5312 41.2935 39.9998 41.825C40.2674 41.5203 40.597 41.2763 40.9666 41.1094C41.3362 40.9425 41.7372 40.8565 42.1427 40.8572ZM40.7141 46.5715H39.2856V53.7143H40.7141V46.5715ZM37.857 42.2858C37.4863 42.2841 37.1295 42.4266 36.8619 42.6832C36.5943 42.9397 36.4369 43.2903 36.423 43.6607C36.4091 44.0312 36.5398 44.3925 36.7873 44.6684C37.0349 44.9443 37.3801 45.1132 37.7498 45.1393L37.857 45.1429H39.2856V43.7143C39.2856 43.3729 39.1633 43.0428 38.941 42.7838C38.7186 42.5248 38.4109 42.3539 38.0734 42.3022L37.9634 42.2893L37.857 42.2858ZM42.1427 42.2858C41.7823 42.2856 41.4352 42.4218 41.1709 42.6668C40.9066 42.9119 40.7447 43.2478 40.7177 43.6072L40.7141 43.7143V45.1429H42.1427C42.5031 45.143 42.8502 45.0069 43.1145 44.7618C43.3788 44.5168 43.5407 44.1809 43.5677 43.8215L43.5713 43.7143C43.5713 43.3354 43.4208 42.9721 43.1529 42.7042C42.8849 42.4363 42.5216 42.2858 42.1427 42.2858Z" fill="white"/>
<defs>
<filter id="filter0_d_241_3316" x="-11.5057" y="0.494385" width="103.011" height="103.011" filterUnits="userSpaceOnUse" color-interpolation-filters="sRGB">
<feFlood flood-opacity="0" result="BackgroundImageFix"/>
<feColorMatrix in="SourceAlpha" type="matrix" values="0 0 0 0 0 0 0 0 0 0 0 0 0 0 0 0 0 0 127 0" result="hardAlpha"/>
<feOffset dy="4"/>
<feGaussianBlur stdDeviation="16"/>
<feComposite in2="hardAlpha" operator="out"/>
<feColorMatrix type="matrix" values="0 0 0 0 0.239216 0 0 0 0 0.494118 0 0 0 0 0.878431 0 0 0 0.16 0"/>
<feBlend mode="normal" in2="BackgroundImageFix" result="effect1_dropShadow_241_3316"/>
<feBlend mode="normal" in="SourceGraphic" in2="effect1_dropShadow_241_3316" result="shape"/>
</filter>
<linearGradient id="paint0_linear_241_3316" x1="31.875" y1="43" x2="61" y2="83.5" gradientUnits="userSpaceOnUse">
<stop stop-color="#5957D5"/>
<stop offset="0.883872" stop-color="#1AABEC"/>
<stop offset="1" stop-color="white"/>
</linearGradient>
</defs>
</svg>
