<svg width="48" height="79" viewBox="0 0 48 79" fill="none" xmlns="http://www.w3.org/2000/svg">
<path d="M46.5916 71.0508C46.7726 70.8423 46.7502 70.5265 46.5417 70.3455L43.1432 67.3959C42.9346 67.2149 42.6188 67.2372 42.4378 67.4458C42.2568 67.6543 42.2792 67.9701 42.4877 68.1511L45.5086 70.773L42.8867 73.7939C42.7057 74.0024 42.7281 74.3182 42.9366 74.4992C43.1452 74.6802 43.461 74.6579 43.642 74.4493L46.5916 71.0508ZM15.5924 60.5035L15.2647 60.8811L15.5924 60.5035ZM1.1726 31.6232L1.67137 31.5881L1.1726 31.6232ZM11.7789 1.3278C11.96 1.11928 11.9377 0.803487 11.7292 0.622447C11.5207 0.441407 11.2049 0.463682 11.0238 0.672199L11.7789 1.3278ZM9.68949 2.28736C9.51889 2.5045 9.55661 2.81882 9.77375 2.98943C9.99089 3.16003 10.3052 3.1223 10.4758 2.90516L9.68949 2.28736ZM8.10943 6.2419C8.25793 6.00909 8.18958 5.69997 7.95676 5.55148C7.72394 5.40298 7.41483 5.47133 7.26633 5.70415L8.10943 6.2419ZM5.1898 9.342C5.06484 9.58826 5.16316 9.88918 5.40941 10.0141C5.65566 10.1391 5.95659 10.0408 6.08155 9.79453L5.1898 9.342ZM4.4116 13.5288C4.51183 13.2715 4.38449 12.9817 4.12718 12.8814C3.86987 12.7812 3.58003 12.9085 3.4798 13.1658L4.4116 13.5288ZM2.15267 17.1388C2.07813 17.4047 2.23325 17.6807 2.49914 17.7552C2.76503 17.8298 3.04101 17.6747 3.11555 17.4088L2.15267 17.1388ZM2.20589 21.397C2.25401 21.1251 2.07259 20.8656 1.80067 20.8175C1.52876 20.7694 1.26931 20.9508 1.22119 21.2227L2.20589 21.397ZM0.694536 25.3783C0.673307 25.6536 0.879295 25.894 1.15462 25.9153C1.42994 25.9365 1.67035 25.7305 1.69158 25.4552L0.694536 25.3783ZM1.57771 29.5443C1.57184 29.2682 1.34327 29.0491 1.06719 29.055C0.79111 29.0609 0.572062 29.2894 0.577932 29.5655L1.57771 29.5443ZM0.872198 33.7436C0.905081 34.0178 1.154 34.2134 1.42818 34.1805C1.70236 34.1476 1.89797 33.8987 1.86508 33.6245L0.872198 33.7436ZM2.55085 37.6566C2.49124 37.3869 2.22433 37.2167 1.9547 37.2763C1.68507 37.3359 1.51481 37.6028 1.57442 37.8724L2.55085 37.6566ZM2.67818 41.9125C2.76394 42.1749 3.04626 42.3182 3.30874 42.2324C3.57123 42.1467 3.71449 41.8644 3.62872 41.6019L2.67818 41.9125ZM5.08825 45.4225C4.97717 45.1697 4.68217 45.0548 4.42935 45.1659C4.17654 45.277 4.06164 45.572 4.17272 45.8248L5.08825 45.4225ZM6.04354 49.5718C6.17887 49.8125 6.4837 49.8979 6.72442 49.7626C6.96513 49.6273 7.05056 49.3224 6.91523 49.0817L6.04354 49.5718ZM9.09207 52.5442C8.9338 52.3179 8.62206 52.2628 8.39577 52.421C8.16949 52.5793 8.11435 52.8911 8.27263 53.1173L9.09207 52.5442ZM10.8387 56.4273C11.0184 56.6369 11.334 56.6612 11.5437 56.4815C11.7534 56.3018 11.7776 55.9862 11.5979 55.7765L10.8387 56.4273ZM14.4088 58.7474C14.2094 58.5564 13.8929 58.5632 13.7019 58.7626C13.5108 58.962 13.5176 59.2785 13.717 59.4695L14.4088 58.7474ZM16.8798 62.2151C17.0969 62.3857 17.4113 62.3479 17.5818 62.1307C17.7524 61.9136 17.7146 61.5993 17.4975 61.4287L16.8798 62.2151ZM20.8341 63.7943C20.6013 63.6458 20.2922 63.7142 20.1437 63.9471C19.9953 64.1799 20.0637 64.489 20.2965 64.6375L20.8341 63.7943ZM23.9344 66.713C24.1806 66.8379 24.4815 66.7395 24.6064 66.4932C24.7313 66.247 24.633 65.946 24.3867 65.8211L23.9344 66.713ZM28.1209 67.4899C27.8635 67.3898 27.5737 67.5172 27.4736 67.7745C27.3734 68.0319 27.5008 68.3217 27.7582 68.4218L28.1209 67.4899ZM31.731 69.7477C31.997 69.8221 32.2729 69.6669 32.3473 69.401C32.4218 69.1351 32.2666 68.8592 32.0007 68.7847L31.731 69.7477ZM35.9887 69.693C35.7168 69.645 35.4574 69.8265 35.4093 70.0984C35.3613 70.3703 35.5428 70.6297 35.8147 70.6777L35.9887 69.693ZM39.97 71.203C40.2453 71.2242 40.4856 71.0181 40.5068 70.7428C40.5279 70.4674 40.3218 70.2271 40.0465 70.206L39.97 71.203ZM44.1351 70.3186C43.859 70.3245 43.6401 70.5532 43.646 70.8292C43.652 71.1053 43.8806 71.3243 44.1567 71.3183L44.1351 70.3186ZM11.0238 0.672199C10.5648 1.20084 10.12 1.73942 9.68949 2.28736L10.4758 2.90516C10.8962 2.37006 11.3307 1.84408 11.7789 1.3278L11.0238 0.672199ZM7.26633 5.70415C6.51325 6.88483 5.82054 8.09905 5.1898 9.342L6.08155 9.79453C6.69751 8.58069 7.374 7.39492 8.10943 6.2419L7.26633 5.70415ZM3.4798 13.1658C2.9727 14.4677 2.52978 15.7936 2.15267 17.1388L3.11555 17.4088C3.48383 16.0951 3.91638 14.8002 4.4116 13.5288L3.4798 13.1658ZM1.22119 21.2227C0.978281 22.5953 0.802193 23.9821 0.694536 25.3783L1.69158 25.4552C1.79671 24.0917 1.96867 22.7374 2.20589 21.397L1.22119 21.2227ZM0.577932 29.5655C0.592745 30.2622 0.624651 30.96 0.673839 31.6584L1.67137 31.5881C1.62333 30.9061 1.59217 30.2246 1.57771 29.5443L0.577932 29.5655ZM0.673839 31.6584C0.723019 32.3566 0.789229 33.0519 0.872198 33.7436L1.86508 33.6245C1.78406 32.949 1.7194 32.27 1.67137 31.5881L0.673839 31.6584ZM1.57442 37.8724C1.87667 39.2396 2.24535 40.5878 2.67818 41.9125L3.62872 41.6019C3.20604 40.3082 2.84601 38.9917 2.55085 37.6566L1.57442 37.8724ZM4.17272 45.8248C4.73463 47.1036 5.35901 48.3542 6.04354 49.5718L6.91523 49.0817C6.24674 47.8926 5.63699 46.6714 5.08825 45.4225L4.17272 45.8248ZM8.27263 53.1173C9.07139 54.2593 9.92749 55.3642 10.8387 56.4273L11.5979 55.7765C10.7081 54.7383 9.87211 53.6594 9.09207 52.5442L8.27263 53.1173ZM13.717 59.4695C14.2201 59.9515 14.7361 60.4222 15.2647 60.8811L15.9202 60.1259C15.404 59.6778 14.9001 59.2181 14.4088 58.7474L13.717 59.4695ZM15.2647 60.8811C15.7933 61.3399 16.3318 61.7847 16.8798 62.2151L17.4975 61.4287C16.9624 61.0084 16.4365 60.5741 15.9202 60.1259L15.2647 60.8811ZM20.2965 64.6375C21.4772 65.3902 22.6914 66.0826 23.9344 66.713L24.3867 65.8211C23.1728 65.2055 21.9871 64.5294 20.8341 63.7943L20.2965 64.6375ZM27.7582 68.4218C29.0599 68.9285 30.3859 69.371 31.731 69.7477L32.0007 68.7847C30.687 68.4168 29.3922 67.9847 28.1209 67.4899L27.7582 68.4218ZM35.8147 70.6777C37.1871 70.9202 38.5738 71.0958 39.97 71.203L40.0465 70.206C38.6831 70.1013 37.3289 69.9298 35.9887 69.693L35.8147 70.6777ZM44.1567 71.3183C44.8532 71.3033 45.551 71.2712 46.2492 71.2218L46.1787 70.2243C45.4968 70.2726 44.8154 70.3039 44.1351 70.3186L44.1567 71.3183ZM46.9692 71.3786C47.3312 70.9615 47.2865 70.3299 46.8694 69.9679L40.0724 64.0687C39.6553 63.7067 39.0237 63.7513 38.6617 64.1684C38.2997 64.5855 38.3444 65.2171 38.7615 65.5791L44.8033 70.8229L39.5595 76.8646C39.1975 77.2817 39.2422 77.9133 39.6593 78.2753C40.0764 78.6373 40.708 78.5927 41.07 78.1756L46.9692 71.3786ZM15.5924 60.5035L14.9369 61.2586L15.5924 60.5035ZM1.1726 31.6232L2.17013 31.553L1.1726 31.6232ZM12.1565 1.6556C12.5186 1.23857 12.474 0.606974 12.057 0.244894C11.6399 -0.117185 11.0083 -0.0726363 10.6463 0.344397L12.1565 1.6556ZM9.29632 1.97846C8.95512 2.41273 9.03057 3.04139 9.46485 3.38259C9.89913 3.7238 10.5278 3.64834 10.869 3.21407L9.29632 1.97846ZM8.53098 6.51078C8.82798 6.04515 8.69127 5.42692 8.22564 5.12993C7.76001 4.83293 7.14178 4.96964 6.84478 5.43527L8.53098 6.51078ZM4.74392 9.11574C4.494 9.60825 4.69065 10.2101 5.18315 10.46C5.67565 10.7099 6.2775 10.5133 6.52743 10.0208L4.74392 9.11574ZM4.8775 13.7103C5.07796 13.1957 4.82329 12.616 4.30867 12.4155C3.79405 12.2151 3.21436 12.4697 3.0139 12.9844L4.8775 13.7103ZM1.67123 17.0039C1.52215 17.5356 1.83239 18.0876 2.36417 18.2367C2.89596 18.3858 3.4479 18.0755 3.59698 17.5437L1.67123 17.0039ZM2.69824 21.4841C2.79448 20.9403 2.43164 20.4214 1.88781 20.3252C1.34398 20.2289 0.825088 20.5918 0.728842 21.1356L2.69824 21.4841ZM0.196016 25.3399C0.153559 25.8905 0.56553 26.3713 1.11618 26.4138C1.66683 26.4562 2.14764 26.0443 2.1901 25.4936L0.196016 25.3399ZM2.07759 29.5336C2.06585 28.9815 1.60872 28.5434 1.05656 28.5551C0.5044 28.5669 0.0663032 29.024 0.0780441 29.5761L2.07759 29.5336ZM0.375755 33.8032C0.441524 34.3515 0.939369 34.7427 1.48772 34.677C2.03608 34.6112 2.42729 34.1133 2.36152 33.565L0.375755 33.8032ZM3.03906 37.5486C2.91984 37.0094 2.38603 36.6689 1.84677 36.7881C1.3075 36.9073 0.966993 37.4411 1.08621 37.9804L3.03906 37.5486ZM2.2029 42.0677C2.37443 42.5927 2.93906 42.8792 3.46403 42.7077C3.989 42.5362 4.27553 41.9716 4.10399 41.4466L2.2029 42.0677ZM5.54601 45.2214C5.32384 44.7157 4.73385 44.486 4.22822 44.7081C3.72259 44.9303 3.4928 45.5203 3.71496 46.0259L5.54601 45.2214ZM5.6077 49.8168C5.87835 50.2982 6.48802 50.4691 6.96945 50.1984C7.45087 49.9278 7.62173 49.3181 7.35107 48.8367L5.6077 49.8168ZM9.5018 52.2576C9.18525 51.805 8.56176 51.6948 8.10919 52.0113C7.65663 52.3279 7.54636 52.9514 7.8629 53.4039L9.5018 52.2576ZM10.459 56.7526C10.8184 57.172 11.4497 57.2206 11.8691 56.8612C12.2884 56.5017 12.337 55.8704 11.9776 55.4511L10.459 56.7526ZM14.7547 58.3864C14.3559 58.0043 13.7229 58.0179 13.3408 58.4167C12.9587 58.8155 12.9723 59.4485 13.3711 59.8306L14.7547 58.3864ZM16.5709 62.6083C17.0052 62.9494 17.6339 62.8739 17.975 62.4396C18.3162 62.0053 18.2407 61.3766 17.8063 61.0355L16.5709 62.6083ZM21.1029 63.3727C20.6372 63.0757 20.019 63.2126 19.7221 63.6782C19.4252 64.1439 19.562 64.7621 20.0277 65.0591L21.1029 63.3727ZM23.7082 67.1589C24.2008 67.4087 24.8026 67.2119 25.0524 66.7194C25.3022 66.2268 25.1054 65.625 24.6128 65.3752L23.7082 67.1589ZM28.3022 67.024C27.7876 66.8237 27.2079 67.0785 27.0076 67.5932C26.8073 68.1078 27.0621 68.6875 27.5768 68.8878L28.3022 67.024ZM31.5962 70.2291C32.1281 70.3781 32.6799 70.0676 32.8288 69.5358C32.9777 69.004 32.6673 68.4521 32.1355 68.3032L31.5962 70.2291ZM36.0757 69.2006C35.5318 69.1045 35.013 69.4675 34.917 70.0114C34.8209 70.5553 35.1839 71.0741 35.7278 71.1701L36.0757 69.2006ZM39.9317 71.7016C40.4823 71.7438 40.963 71.3317 41.0053 70.7811C41.0476 70.2304 40.6355 69.7497 40.0848 69.7074L39.9317 71.7016ZM44.1243 69.8187C43.5722 69.8306 43.1342 70.2879 43.1461 70.84C43.158 71.3922 43.6153 71.8301 44.1674 71.8182L44.1243 69.8187ZM10.6463 0.344397C10.1819 0.879223 9.73187 1.4241 9.29632 1.97846L10.869 3.21407C11.2844 2.68537 11.7136 2.1657 12.1565 1.6556L10.6463 0.344397ZM6.84478 5.43527C6.08288 6.62978 5.38205 7.85823 4.74392 9.11574L6.52743 10.0208C7.136 8.82151 7.80437 7.64996 8.53098 6.51078L6.84478 5.43527ZM3.0139 12.9844C2.50086 14.3014 2.05276 15.6429 1.67123 17.0039L3.59698 17.5437C3.96085 16.2458 4.38822 14.9664 4.8775 13.7103L3.0139 12.9844ZM0.728842 21.1356C0.483085 22.5242 0.304934 23.9273 0.196016 25.3399L2.1901 25.4936C2.29397 24.1465 2.46386 22.8084 2.69824 21.4841L0.728842 21.1356ZM0.0780441 29.5761C0.0930332 30.281 0.125311 30.987 0.175074 31.6935L2.17013 31.553C2.12267 30.8791 2.09189 30.2058 2.07759 29.5336L0.0780441 29.5761ZM0.175074 31.6935C0.22483 32.3999 0.291815 33.1033 0.375755 33.8032L2.36152 33.565C2.28147 32.8976 2.21759 32.2267 2.17013 31.553L0.175074 31.6935ZM1.08621 37.9804C1.39201 39.3636 1.765 40.7275 2.2029 42.0677L4.10399 41.4466C3.68639 40.1685 3.33068 38.8677 3.03906 37.5486L1.08621 37.9804ZM3.71496 46.0259C4.28346 47.3197 4.91514 48.5849 5.6077 49.8168L7.35107 48.8367C6.6906 47.6619 6.08817 46.4553 5.54601 45.2214L3.71496 46.0259ZM7.8629 53.4039C8.67103 54.5593 9.53716 55.6771 10.459 56.7526L11.9776 55.4511C11.0985 54.4254 10.2725 53.3594 9.5018 52.2576L7.8629 53.4039ZM13.3711 59.8306C13.8801 60.3182 14.4021 60.7944 14.9369 61.2586L16.248 59.7483C15.738 59.3056 15.2401 58.8514 14.7547 58.3864L13.3711 59.8306ZM14.9369 61.2586C15.4717 61.7229 16.0166 62.1728 16.5709 62.6083L17.8063 61.0355C17.2777 60.6202 16.758 60.1911 16.248 59.7483L14.9369 61.2586ZM20.0277 65.0591C21.2222 65.8206 22.4507 66.5211 23.7082 67.1589L24.6128 65.3752C23.4136 64.767 22.242 64.099 21.1029 63.3727L20.0277 65.0591ZM27.5768 68.8878C28.8938 69.4004 30.2353 69.848 31.5962 70.2291L32.1355 68.3032C30.8376 67.9398 29.5583 67.5128 28.3022 67.024L27.5768 68.8878ZM35.7278 71.1701C37.1162 71.4154 38.5192 71.5931 39.9317 71.7016L40.0848 69.7074C38.7378 69.604 37.3998 69.4345 36.0757 69.2006L35.7278 71.1701ZM44.1674 71.8182C44.8722 71.803 45.5781 71.7706 46.2845 71.7206L46.1434 69.7256C45.4697 69.7732 44.7964 69.8042 44.1243 69.8187L44.1674 71.8182Z" fill="#EE4A65"/>
</svg>
