<svg width="205" height="144" viewBox="0 0 205 144" fill="none" xmlns="http://www.w3.org/2000/svg">
<path d="M203.664 116.794C203.7 116.52 203.507 116.269 203.234 116.233L198.772 115.646C198.498 115.61 198.247 115.803 198.211 116.077C198.175 116.351 198.368 116.602 198.642 116.638L202.607 117.159L202.086 121.125C202.05 121.399 202.243 121.65 202.517 121.686C202.79 121.722 203.042 121.529 203.077 121.256L203.664 116.794ZM110.566 141.558L110.501 142.053L110.566 141.558ZM27.5444 93.6212L27.1477 93.9255L27.5444 93.6212ZM3.23107 1.06526C3.26712 0.791484 3.0744 0.540322 2.80062 0.504278C2.52684 0.468233 2.27567 0.660956 2.23963 0.934736L3.23107 1.06526ZM1.98757 2.97816C1.95601 3.25249 2.15281 3.50047 2.42714 3.53204C2.70147 3.5636 2.94945 3.3668 2.98102 3.09247L1.98757 2.97816ZM2.5807 7.15529C2.60328 6.88007 2.39848 6.63865 2.12326 6.61607C1.84805 6.59349 1.60663 6.79829 1.58405 7.07351L2.5807 7.15529ZM1.31457 11.1812C1.301 11.457 1.51359 11.6916 1.7894 11.7052C2.06521 11.7187 2.29979 11.5062 2.31336 11.2303L1.31457 11.1812ZM2.1795 15.3114C2.18404 15.0353 1.96389 14.8078 1.68778 14.8033C1.41168 14.7987 1.18417 15.0189 1.17964 15.295L2.1795 15.3114ZM1.17939 19.4104C1.18389 19.6865 1.41137 19.9067 1.68747 19.9022C1.96358 19.8977 2.18376 19.6702 2.17925 19.3941L1.17939 19.4104ZM2.31264 23.4755C2.29911 23.1997 2.06454 22.9871 1.78873 23.0006C1.51292 23.0142 1.30031 23.2487 1.31384 23.5245L2.31264 23.4755ZM1.58284 27.6317C1.6054 27.9069 1.84679 28.1118 2.12201 28.0892C2.39723 28.0666 2.60205 27.8253 2.5795 27.55L1.58284 27.6317ZM2.9795 31.6133C2.94796 31.339 2.69999 31.1422 2.42566 31.1737C2.15132 31.2052 1.9545 31.4532 1.98605 31.7275L2.9795 31.6133ZM2.5231 35.8085C2.56361 36.0817 2.81788 36.2703 3.09103 36.2298C3.36419 36.1893 3.55279 35.935 3.51229 35.6618L2.5231 35.8085ZM4.17719 39.6906C4.12777 39.4189 3.86747 39.2387 3.59578 39.2881C3.3241 39.3375 3.14391 39.5978 3.19333 39.8695L4.17719 39.6906ZM3.99599 43.9063C4.05426 44.1762 4.32032 44.3478 4.59024 44.2895C4.86017 44.2312 5.03174 43.9652 4.97347 43.6953L3.99599 43.9063ZM5.90033 47.672C5.83326 47.4041 5.56173 47.2413 5.29386 47.3084C5.02599 47.3754 4.8632 47.647 4.93027 47.9148L5.90033 47.672ZM5.99513 51.8906C6.07092 52.1562 6.34763 52.31 6.61316 52.2342C6.8787 52.1584 7.03252 51.8817 6.95672 51.6162L5.99513 51.8906ZM8.14156 55.5238C8.05712 55.2608 7.77553 55.1162 7.51262 55.2006C7.2497 55.285 7.10502 55.5666 7.18945 55.8295L8.14156 55.5238ZM8.5119 59.7271C8.6049 59.9871 8.89106 60.1225 9.15108 60.0295C9.41109 59.9365 9.54649 59.6504 9.4535 59.3904L8.5119 59.7271ZM10.8913 63.2121C10.7898 62.9552 10.4994 62.8293 10.2425 62.9307C9.9857 63.0322 9.85973 63.3226 9.96118 63.5795L10.8913 63.2121ZM11.5358 67.3825C11.6456 67.6359 11.94 67.7523 12.1934 67.6425C12.4468 67.5327 12.5631 67.2383 12.4533 66.9849L11.5358 67.3825ZM14.1379 70.7041C14.0198 70.4545 13.7218 70.3478 13.4721 70.4658C13.2225 70.5838 13.1158 70.8819 13.2338 71.1316L14.1379 70.7041ZM15.0538 74.8233C15.1799 75.069 15.4813 75.1658 15.7269 75.0397C15.9726 74.9136 16.0695 74.6122 15.9433 74.3665L15.0538 74.8233ZM17.8679 77.9681C17.7338 77.7267 17.4294 77.6398 17.188 77.7739C16.9466 77.908 16.8596 78.2124 16.9937 78.4538L17.8679 77.9681ZM19.0511 82.0181C19.193 82.255 19.5001 82.3319 19.737 82.19C19.9739 82.048 20.0508 81.7409 19.9089 81.5041L19.0511 82.0181ZM22.0648 84.9718C21.9152 84.7397 21.6057 84.6728 21.3736 84.8224C21.1415 84.972 21.0747 85.2815 21.2243 85.5136L22.0648 84.9718ZM23.5111 88.9365C23.6682 89.1636 23.9797 89.2203 24.2068 89.0632C24.4338 88.906 24.4905 88.5946 24.3334 88.3675L23.5111 88.9365ZM26.7111 91.6861C26.5466 91.4643 26.2335 91.4178 26.0116 91.5823C25.7898 91.7468 25.7433 92.0599 25.9078 92.2817L26.7111 91.6861ZM28.414 95.5485C28.5856 95.7648 28.9001 95.801 29.1164 95.6294C29.3327 95.4578 29.369 95.1432 29.1973 94.9269L28.414 95.5485ZM31.7864 98.0825C31.6077 97.8719 31.2922 97.846 31.0816 98.0246C30.871 98.2032 30.8451 98.5188 31.0237 98.7294L31.7864 98.0825ZM33.7371 101.824C33.9225 102.029 34.2387 102.044 34.4433 101.859C34.648 101.674 34.6635 101.357 34.4781 101.153L33.7371 101.824ZM37.2685 104.133C37.0765 103.934 36.76 103.929 36.5615 104.121C36.3631 104.313 36.3578 104.63 36.5499 104.828L37.2685 104.133ZM39.4591 107.738C39.6575 107.93 39.9741 107.925 40.1661 107.726C40.3582 107.528 40.353 107.212 40.1546 107.019L39.4591 107.738ZM43.1343 109.811C42.9297 109.625 42.6135 109.641 42.428 109.845C42.2426 110.05 42.2581 110.366 42.4627 110.552L43.1343 109.811ZM45.5565 113.265C45.767 113.444 46.0826 113.418 46.2612 113.207C46.4399 112.997 46.414 112.681 46.2035 112.503L45.5565 113.265ZM49.3589 115.093C49.1426 114.921 48.8281 114.957 48.6565 115.173C48.4848 115.39 48.5209 115.704 48.7372 115.876L49.3589 115.093ZM52.0021 118.381C52.2239 118.546 52.5371 118.499 52.7016 118.278C52.8661 118.056 52.8196 117.743 52.5978 117.578L52.0021 118.381ZM55.9162 119.956C55.6891 119.799 55.3777 119.856 55.2205 120.083C55.0633 120.31 55.12 120.621 55.3471 120.778L55.9162 119.956ZM58.7686 123.065C59.0006 123.214 59.3101 123.148 59.4597 122.916C59.6094 122.683 59.5425 122.374 59.3105 122.224L58.7686 123.065ZM62.7773 124.38C62.5405 124.238 62.2334 124.315 62.0914 124.552C61.9494 124.789 62.0263 125.096 62.2632 125.238L62.7773 124.38ZM65.827 127.296C66.0683 127.43 66.3727 127.343 66.5069 127.102C66.641 126.86 66.5541 126.556 66.3127 126.422L65.827 127.296ZM69.9131 128.346C69.6675 128.22 69.3661 128.317 69.2399 128.563C69.1137 128.808 69.2106 129.11 69.4562 129.236L69.9131 128.346ZM73.1468 131.056C73.3965 131.174 73.6945 131.068 73.8126 130.818C73.9307 130.568 73.8241 130.27 73.5744 130.152L73.1468 131.056ZM77.2929 131.837C77.0396 131.727 76.7452 131.844 76.6353 132.097C76.5255 132.35 76.6418 132.645 76.8952 132.755L77.2929 131.837ZM80.6973 134.33C80.9541 134.431 81.2446 134.305 81.3461 134.049C81.4475 133.792 81.3216 133.501 81.0648 133.4L80.6973 134.33ZM84.8853 134.838C84.6253 134.745 84.3391 134.88 84.2461 135.14C84.1531 135.4 84.2884 135.686 84.5484 135.779L84.8853 134.838ZM88.4453 137.102C88.7082 137.187 88.9898 137.042 89.0743 136.779C89.1587 136.516 89.0141 136.235 88.7512 136.15L88.4453 137.102ZM92.6582 137.335C92.3927 137.259 92.116 137.413 92.0402 137.679C91.9643 137.944 92.1181 138.221 92.3837 138.297L92.6582 137.335ZM96.3583 139.362C96.6261 139.429 96.8977 139.266 96.9647 138.998C97.0318 138.73 96.869 138.459 96.6012 138.391L96.3583 139.362ZM100.577 139.318C100.307 139.26 100.041 139.431 99.9829 139.701C99.9246 139.971 100.096 140.237 100.366 140.296L100.577 139.318ZM104.403 141.098C104.675 141.148 104.935 140.967 104.984 140.696C105.034 140.424 104.853 140.164 104.582 140.114L104.403 141.098ZM108.609 140.779C108.336 140.738 108.082 140.927 108.041 141.2C108.001 141.473 108.189 141.728 108.462 141.768L108.609 140.779ZM112.544 142.305C112.819 142.337 113.067 142.14 113.098 141.866C113.13 141.591 112.933 141.343 112.659 141.312L112.544 142.305ZM116.721 141.712C116.446 141.689 116.204 141.894 116.182 142.169C116.159 142.444 116.364 142.686 116.639 142.708L116.721 141.712ZM120.747 142.977C121.022 142.991 121.257 142.778 121.27 142.502C121.284 142.226 121.071 141.992 120.795 141.978L120.747 142.977ZM124.876 142.112C124.6 142.107 124.372 142.327 124.368 142.603C124.363 142.88 124.584 143.107 124.86 143.111L124.876 142.112ZM128.975 143.111C129.251 143.107 129.471 142.879 129.466 142.603C129.462 142.327 129.234 142.107 128.958 142.111L128.975 143.111ZM133.039 141.977C132.763 141.991 132.551 142.225 132.564 142.501C132.578 142.777 132.812 142.989 133.088 142.976L133.039 141.977ZM137.195 142.706C137.47 142.683 137.675 142.442 137.652 142.167C137.63 141.892 137.388 141.687 137.113 141.709L137.195 142.706ZM141.176 141.309C140.901 141.34 140.705 141.588 140.736 141.863C140.768 142.137 141.016 142.334 141.29 142.302L141.176 141.309ZM145.37 141.764C145.644 141.723 145.832 141.469 145.792 141.196C145.751 140.923 145.497 140.734 145.224 140.775L145.37 141.764ZM149.252 140.109C148.98 140.159 148.8 140.419 148.849 140.691C148.899 140.962 149.159 141.142 149.431 141.093L149.252 140.109ZM153.467 140.289C153.737 140.231 153.908 139.965 153.85 139.695C153.792 139.425 153.525 139.253 153.256 139.312L153.467 140.289ZM157.232 138.384C156.964 138.451 156.801 138.723 156.868 138.991C156.935 139.258 157.207 139.421 157.475 139.354L157.232 138.384ZM161.45 138.288C161.715 138.212 161.869 137.935 161.793 137.67C161.717 137.404 161.44 137.251 161.175 137.327L161.45 138.288ZM165.082 136.141C164.819 136.225 164.674 136.507 164.759 136.77C164.843 137.033 165.125 137.177 165.388 137.093L165.082 136.141ZM169.284 135.769C169.544 135.676 169.68 135.39 169.587 135.13C169.494 134.87 169.207 134.735 168.947 134.828L169.284 135.769ZM172.768 133.389C172.511 133.491 172.385 133.781 172.487 134.038C172.588 134.295 172.879 134.42 173.136 134.319L172.768 133.389ZM176.938 132.743C177.191 132.633 177.308 132.339 177.198 132.086C177.088 131.832 176.793 131.716 176.54 131.826L176.938 132.743ZM180.258 130.14C180.009 130.259 179.902 130.557 180.02 130.806C180.138 131.056 180.436 131.162 180.686 131.044L180.258 130.14ZM184.377 129.223C184.622 129.097 184.719 128.796 184.593 128.55C184.467 128.305 184.165 128.208 183.92 128.334L184.377 129.223ZM187.52 126.409C187.279 126.543 187.192 126.847 187.326 127.089C187.46 127.33 187.765 127.417 188.006 127.283L187.52 126.409ZM191.569 125.224C191.806 125.082 191.883 124.775 191.741 124.538C191.599 124.302 191.292 124.225 191.055 124.367L191.569 125.224ZM194.522 122.21C194.29 122.36 194.223 122.669 194.372 122.901C194.522 123.133 194.832 123.2 195.064 123.05L194.522 122.21ZM198.485 120.763C198.712 120.606 198.769 120.294 198.612 120.067C198.455 119.84 198.143 119.784 197.916 119.941L198.485 120.763ZM201.234 117.562C201.012 117.727 200.966 118.04 201.13 118.262C201.295 118.484 201.608 118.53 201.83 118.366L201.234 117.562ZM2.23963 0.934736C2.14997 1.61574 2.06596 2.2969 1.98757 2.97816L2.98102 3.09247C3.05878 2.41662 3.14213 1.74086 3.23107 1.06526L2.23963 0.934736ZM1.58405 7.07351C1.47167 8.44306 1.38189 9.81247 1.31457 11.1812L2.31336 11.2303C2.38015 9.87248 2.46922 8.51395 2.5807 7.15529L1.58405 7.07351ZM1.17964 15.295C1.15708 16.6682 1.15705 18.0402 1.17939 19.4104L2.17925 19.3941C2.15709 18.0348 2.15713 16.6737 2.1795 15.3114L1.17964 15.295ZM1.31384 23.5245C1.38115 24.896 1.47087 26.2653 1.58284 27.6317L2.5795 27.55C2.46841 26.1945 2.37941 24.8361 2.31264 23.4755L1.31384 23.5245ZM1.98605 31.7275C2.14288 33.0914 2.32195 34.4519 2.5231 35.8085L3.51229 35.6618C3.31273 34.316 3.13509 32.9663 2.9795 31.6133L1.98605 31.7275ZM3.19333 39.8695C3.43892 41.2197 3.70652 42.5655 3.99599 43.9063L4.97347 43.6953C4.6863 42.3651 4.42083 41.0301 4.17719 39.6906L3.19333 39.8695ZM4.93027 47.9148C5.26353 49.2458 5.61853 50.5713 5.99513 51.8906L6.95672 51.6162C6.58312 50.3073 6.23094 48.9924 5.90033 47.672L4.93027 47.9148ZM7.18945 55.8295C7.60889 57.1355 8.04975 58.4349 8.5119 59.7271L9.4535 59.3904C8.99502 58.1084 8.55766 56.8194 8.14156 55.5238L7.18945 55.8295ZM9.96118 63.5795C10.465 64.855 10.9899 66.1229 11.5358 67.3825L12.4533 66.9849C11.9118 65.7353 11.3911 64.4775 10.8913 63.2121L9.96118 63.5795ZM13.2338 71.1316C13.8198 72.371 14.4265 73.6018 15.0538 74.8233L15.9433 74.3665C15.3211 73.1547 14.7192 71.9337 14.1379 70.7041L13.2338 71.1316ZM16.9937 78.4538C17.6593 79.6518 18.3452 80.8401 19.0511 82.0181L19.9089 81.5041C19.2086 80.3354 18.5282 79.1566 17.8679 77.9681L16.9937 78.4538ZM21.2243 85.5136C21.9668 86.6654 22.7291 87.8066 23.5111 88.9365L24.3334 88.3675C23.5577 87.2465 22.8014 86.1144 22.0648 84.9718L21.2243 85.5136ZM25.9078 92.2817C26.3163 92.8326 26.7296 93.3805 27.1477 93.9255L27.9411 93.3168C27.5263 92.7762 27.1163 92.2326 26.7111 91.6861L25.9078 92.2817ZM27.1477 93.9255C27.5657 94.4704 27.9878 95.0114 28.414 95.5485L29.1973 94.9269C28.7745 94.3941 28.3558 93.8574 27.9411 93.3168L27.1477 93.9255ZM31.0237 98.7294C31.9125 99.7771 32.8171 100.809 33.7371 101.824L34.4781 101.153C33.5654 100.145 32.668 99.1219 31.7864 98.0825L31.0237 98.7294ZM36.5499 104.828C37.5047 105.815 38.4746 106.785 39.4591 107.738L40.1546 107.019C39.1779 106.074 38.2157 105.112 37.2685 104.133L36.5499 104.828ZM42.4627 110.552C43.4799 111.474 44.5113 112.378 45.5565 113.265L46.2035 112.503C45.1666 111.623 44.1434 110.725 43.1343 109.811L42.4627 110.552ZM48.7372 115.876C49.8123 116.729 50.9008 117.564 52.0021 118.381L52.5978 117.578C51.5053 116.768 50.4255 115.939 49.3589 115.093L48.7372 115.876ZM55.3471 120.778C56.4753 121.559 57.616 122.322 58.7686 123.065L59.3105 122.224C58.167 121.487 57.0355 120.731 55.9162 119.956L55.3471 120.778ZM62.2632 125.238C63.4398 125.943 64.6279 126.629 65.827 127.296L66.3127 126.422C65.1232 125.761 63.9446 125.08 62.7773 124.38L62.2632 125.238ZM69.4562 129.236C70.6761 129.863 71.9065 130.469 73.1468 131.056L73.5744 130.152C72.3439 129.57 71.1233 128.968 69.9131 128.346L69.4562 129.236ZM76.8952 132.755C78.1532 133.3 79.4207 133.825 80.6973 134.33L81.0648 133.4C79.7984 132.899 78.541 132.378 77.2929 131.837L76.8952 132.755ZM84.5484 135.779C85.8391 136.241 87.1382 136.682 88.4453 137.102L88.7512 136.15C87.4545 135.733 86.1657 135.296 84.8853 134.838L84.5484 135.779ZM92.3837 138.297C93.7012 138.673 95.0263 139.028 96.3583 139.362L96.6012 138.391C95.2798 138.061 93.9653 137.708 92.6582 137.335L92.3837 138.297ZM100.366 140.296C101.705 140.585 103.051 140.852 104.403 141.098L104.582 140.114C103.241 139.871 101.906 139.605 100.577 139.318L100.366 140.296ZM108.462 141.768C109.141 141.869 109.82 141.964 110.501 142.053L110.632 141.062C109.956 140.973 109.282 140.879 108.609 140.779L108.462 141.768ZM110.501 142.053C111.182 142.143 111.863 142.227 112.544 142.305L112.659 141.312C111.983 141.234 111.307 141.151 110.632 141.062L110.501 142.053ZM116.639 142.708C118.009 142.82 119.378 142.91 120.747 142.977L120.795 141.978C119.438 141.912 118.079 141.823 116.721 141.712L116.639 142.708ZM124.86 143.111C126.233 143.134 127.605 143.134 128.975 143.111L128.958 142.111C127.599 142.134 126.238 142.134 124.876 142.112L124.86 143.111ZM133.088 142.976C134.46 142.908 135.829 142.818 137.195 142.706L137.113 141.709C135.758 141.821 134.399 141.91 133.039 141.977L133.088 142.976ZM141.29 142.302C142.654 142.145 144.014 141.965 145.37 141.764L145.224 140.775C143.878 140.975 142.528 141.153 141.176 141.309L141.29 142.302ZM149.431 141.093C150.781 140.847 152.126 140.579 153.467 140.289L153.256 139.312C151.926 139.599 150.591 139.865 149.252 140.109L149.431 141.093ZM157.475 139.354C158.805 139.02 160.131 138.665 161.45 138.288L161.175 137.327C159.866 137.701 158.552 138.053 157.232 138.384L157.475 139.354ZM165.388 137.093C166.693 136.673 167.992 136.232 169.284 135.769L168.947 134.828C167.666 135.287 166.377 135.724 165.082 136.141L165.388 137.093ZM173.136 134.319C174.411 133.815 175.679 133.29 176.938 132.743L176.54 131.826C175.291 132.368 174.033 132.889 172.768 133.389L173.136 134.319ZM180.686 131.044C181.925 130.458 183.155 129.851 184.377 129.223L183.92 128.334C182.708 128.957 181.487 129.559 180.258 130.14L180.686 131.044ZM188.006 127.283C189.204 126.617 190.392 125.931 191.569 125.224L191.055 124.367C189.887 125.067 188.708 125.748 187.52 126.409L188.006 127.283ZM195.064 123.05C196.215 122.308 197.356 121.545 198.485 120.763L197.916 119.941C196.796 120.717 195.664 121.473 194.522 122.21L195.064 123.05ZM201.83 118.366C202.38 117.957 202.928 117.544 203.473 117.125L202.864 116.332C202.323 116.747 201.78 117.157 201.234 117.562L201.83 118.366ZM204.16 116.859C204.232 116.312 203.846 115.809 203.299 115.737L194.375 114.564C193.828 114.492 193.326 114.878 193.254 115.425C193.182 115.973 193.567 116.475 194.115 116.547L202.047 117.59L201.004 125.522C200.932 126.069 201.317 126.571 201.865 126.643C202.412 126.715 202.915 126.33 202.987 125.782L204.16 116.859ZM110.566 141.558L110.436 142.549L110.566 141.558ZM27.5444 93.6212L26.7509 94.2299L27.5444 93.6212ZM3.7268 1.13053C3.79888 0.582968 3.41344 0.080644 2.86588 0.00855538C2.31832 -0.0635332 1.816 0.321912 1.74391 0.869472L3.7268 1.13053ZM1.49085 2.92101C1.42772 3.46967 1.82132 3.96563 2.36999 4.02876C2.91865 4.09189 3.41461 3.69828 3.47774 3.14962L1.49085 2.92101ZM3.07903 7.19618C3.12419 6.64574 2.71459 6.16291 2.16415 6.11775C1.61372 6.07258 1.13089 6.48219 1.08572 7.03262L3.07903 7.19618ZM0.815169 11.1567C0.788036 11.7083 1.21321 12.1774 1.76483 12.2046C2.31645 12.2317 2.78562 11.8065 2.81275 11.2549L0.815169 11.1567ZM2.67943 15.3196C2.6885 14.7674 2.2482 14.3124 1.69599 14.3033C1.14378 14.2943 0.688775 14.7346 0.679704 15.2868L2.67943 15.3196ZM0.679453 19.4186C0.688457 19.9708 1.14341 20.4112 1.69562 20.4021C2.24783 20.3931 2.68819 19.9382 2.67919 19.386L0.679453 19.4186ZM2.81204 23.451C2.78497 22.8994 2.31584 22.4742 1.76422 22.5012C1.2126 22.5283 0.787372 22.9974 0.814443 23.549L2.81204 23.451ZM1.08451 27.6725C1.12962 28.223 1.61241 28.6326 2.16285 28.5875C2.71329 28.5424 3.12294 28.0596 3.07783 27.5092L1.08451 27.6725ZM3.47623 31.5562C3.41314 31.0075 2.91721 30.6139 2.36854 30.677C1.81987 30.7401 1.42623 31.236 1.48932 31.7847L3.47623 31.5562ZM2.02851 35.8818C2.10952 36.4282 2.61806 36.8054 3.16437 36.7244C3.71068 36.6433 4.08789 36.1348 4.00688 35.5885L2.02851 35.8818ZM4.66912 39.6011C4.57028 39.0577 4.04968 38.6973 3.50631 38.7962C2.96294 38.895 2.60257 39.4156 2.7014 39.959L4.66912 39.6011ZM3.50725 44.0118C3.6238 44.5517 4.15591 44.8948 4.69576 44.7783C5.23561 44.6617 5.57876 44.1296 5.46221 43.5897L3.50725 44.0118ZM6.38536 47.5505C6.25121 47.0148 5.70816 46.6892 5.17242 46.8233C4.63667 46.9575 4.3111 47.5005 4.44525 48.0363L6.38536 47.5505ZM5.51433 52.0279C5.66592 52.5589 6.21933 52.8666 6.7504 52.715C7.28148 52.5634 7.58911 52.01 7.43752 51.4789L5.51433 52.0279ZM8.61761 55.3709C8.44873 54.845 7.88556 54.5557 7.35973 54.7245C6.83389 54.8934 6.54453 55.4566 6.7134 55.9824L8.61761 55.3709ZM8.04111 59.8955C8.22709 60.4155 8.79943 60.6863 9.31946 60.5003C9.83948 60.3143 10.1103 59.742 9.92429 59.222L8.04111 59.8955ZM11.3563 63.0284C11.1534 62.5147 10.5725 62.2628 10.0588 62.4657C9.54517 62.6686 9.29325 63.2495 9.49614 63.7631L11.3563 63.0284ZM11.077 67.5813C11.2966 68.0881 11.8854 68.3209 12.3922 68.1013C12.8989 67.8817 13.1317 67.2928 12.9121 66.7861L11.077 67.5813ZM14.5899 70.4904C14.3538 69.9911 13.7577 69.7777 13.2584 70.0138C12.7591 70.2499 12.5457 70.846 12.7818 71.3453L14.5899 70.4904ZM14.609 75.0517C14.8612 75.543 15.464 75.7368 15.9553 75.4845C16.4466 75.2322 16.6404 74.6294 16.3881 74.1381L14.609 75.0517ZM18.3049 77.7253C18.0367 77.2425 17.4279 77.0686 16.9451 77.3368C16.4624 77.605 16.2884 78.2138 16.5567 78.6966L18.3049 77.7253ZM18.6222 82.2751C18.9061 82.7488 19.5203 82.9028 19.994 82.6189C20.4677 82.335 20.6217 81.7208 20.3378 81.2471L18.6222 82.2751ZM22.485 84.7009C22.1858 84.2367 21.5669 84.1029 21.1027 84.4022C20.6385 84.7014 20.5048 85.3203 20.8041 85.7845L22.485 84.7009ZM23.0999 89.2211C23.4142 89.6752 24.0371 89.7886 24.4913 89.4743C24.9454 89.16 25.0588 88.5371 24.7445 88.083L23.0999 89.2211ZM27.1127 91.3883C26.7838 90.9447 26.1575 90.8517 25.7138 91.1807C25.2702 91.5096 25.1772 92.1359 25.5062 92.5796L27.1127 91.3883ZM28.0223 95.8593C28.3656 96.2919 28.9946 96.3644 29.4272 96.0211C29.8598 95.6778 29.9323 95.0488 29.589 94.6161L28.0223 95.8593ZM32.1677 97.7591C31.8104 97.3379 31.1794 97.2861 30.7582 97.6433C30.337 98.0006 30.2852 98.6316 30.6424 99.0528L32.1677 97.7591ZM33.3666 102.16C33.7374 102.569 34.3698 102.6 34.7791 102.229C35.1883 101.859 35.2195 101.226 34.8486 100.817L33.3666 102.16ZM37.6279 103.785C37.2438 103.388 36.6107 103.378 36.2138 103.762C35.8169 104.146 35.8065 104.779 36.1905 105.176L37.6279 103.785ZM39.1113 108.097C39.5082 108.481 40.1412 108.471 40.5254 108.074C40.9095 107.677 40.8992 107.044 40.5024 106.66L39.1113 108.097ZM43.4701 109.44C43.0609 109.069 42.4285 109.1 42.0576 109.51C41.6867 109.919 41.7177 110.551 42.1269 110.922L43.4701 109.44ZM45.233 113.646C45.6541 114.004 46.2851 113.952 46.6425 113.531C46.9998 113.11 46.9481 112.479 46.527 112.121L45.233 113.646ZM49.6698 114.701C49.2372 114.358 48.6082 114.43 48.2648 114.863C47.9215 115.295 47.9938 115.924 48.4264 116.267L49.6698 114.701ZM51.7042 118.783C52.1478 119.112 52.7741 119.019 53.1032 118.575C53.4322 118.132 53.3393 117.506 52.8957 117.177L51.7042 118.783ZM56.2008 119.545C55.7466 119.231 55.1237 119.344 54.8094 119.798C54.4951 120.252 54.6084 120.875 55.0625 121.19L56.2008 119.545ZM58.4976 123.485C58.9617 123.784 59.5806 123.651 59.8799 123.187C60.1792 122.722 60.0456 122.103 59.5814 121.804L58.4976 123.485ZM63.0344 123.952C62.5607 123.668 61.9465 123.821 61.6625 124.295C61.3786 124.769 61.5324 125.383 62.0061 125.667L63.0344 123.952ZM65.584 127.733C66.0668 128.001 66.6756 127.827 66.9439 127.345C67.2122 126.862 67.0384 126.253 66.5557 125.985L65.584 127.733ZM70.1416 127.902C69.6504 127.649 69.0475 127.843 68.7952 128.334C68.5428 128.826 68.7365 129.428 69.2277 129.681L70.1416 127.902ZM72.933 131.508C73.4323 131.744 74.0284 131.531 74.2646 131.032C74.5008 130.533 74.2875 129.936 73.7882 129.7L72.933 131.508ZM77.4918 131.379C76.9851 131.159 76.3963 131.391 76.1766 131.898C75.9569 132.405 76.1896 132.994 76.6963 133.213L77.4918 131.379ZM80.5135 134.795C81.0271 134.998 81.6081 134.746 81.8111 134.232C82.014 133.719 81.7622 133.138 81.2486 132.935L80.5135 134.795ZM85.0538 134.367C84.5338 134.181 83.9614 134.452 83.7753 134.972C83.5893 135.492 83.86 136.064 84.38 136.25L85.0538 134.367ZM88.2923 137.578C88.8181 137.747 89.3814 137.458 89.5503 136.932C89.7192 136.406 89.4299 135.843 88.9041 135.674L88.2923 137.578ZM92.7955 136.854C92.2644 136.703 91.711 137.01 91.5594 137.541C91.4077 138.072 91.7153 138.626 92.2464 138.778L92.7955 136.854ZM96.2368 139.847C96.7725 139.981 97.3156 139.655 97.4498 139.119C97.5839 138.584 97.2584 138.041 96.7226 137.906L96.2368 139.847ZM100.683 138.829C100.143 138.713 99.6107 139.056 99.4941 139.596C99.3776 140.136 99.7207 140.668 100.261 140.784L100.683 138.829ZM104.313 141.59C104.857 141.689 105.377 141.329 105.476 140.785C105.575 140.242 105.215 139.721 104.671 139.622L104.313 141.59ZM108.682 140.284C108.136 140.203 107.628 140.581 107.547 141.127C107.466 141.673 107.843 142.182 108.389 142.263L108.682 140.284ZM112.487 142.802C113.036 142.865 113.532 142.471 113.595 141.923C113.658 141.374 113.264 140.878 112.716 140.815L112.487 142.802ZM116.762 141.213C116.211 141.168 115.729 141.578 115.683 142.128C115.638 142.679 116.048 143.161 116.598 143.207L116.762 141.213ZM120.722 143.477C121.274 143.504 121.743 143.078 121.77 142.527C121.797 141.975 121.372 141.506 120.82 141.479L120.722 143.477ZM124.884 141.612C124.332 141.603 123.877 142.043 123.868 142.595C123.859 143.148 124.299 143.602 124.852 143.611L124.884 141.612ZM128.983 143.611C129.535 143.602 129.975 143.147 129.966 142.595C129.957 142.042 129.502 141.602 128.95 141.611L128.983 143.611ZM133.014 141.478C132.463 141.505 132.038 141.974 132.065 142.526C132.092 143.077 132.561 143.502 133.113 143.475L133.014 141.478ZM137.236 143.204C137.786 143.159 138.196 142.676 138.151 142.126C138.105 141.575 137.622 141.166 137.072 141.211L137.236 143.204ZM141.118 140.812C140.57 140.875 140.176 141.371 140.239 141.92C140.303 142.468 140.799 142.862 141.347 142.799L141.118 140.812ZM145.444 142.259C145.99 142.177 146.367 141.669 146.286 141.123C146.205 140.576 145.696 140.199 145.15 140.28L145.444 142.259ZM149.162 139.617C148.619 139.716 148.258 140.237 148.357 140.78C148.456 141.324 148.977 141.684 149.52 141.585L149.162 139.617ZM153.573 140.778C154.112 140.661 154.455 140.129 154.339 139.589C154.222 139.049 153.69 138.706 153.15 138.823L153.573 140.778ZM157.11 137.899C156.574 138.033 156.249 138.576 156.383 139.112C156.517 139.648 157.061 139.973 157.596 139.839L157.11 137.899ZM161.587 138.769C162.118 138.617 162.426 138.064 162.274 137.533C162.122 137.002 161.569 136.694 161.038 136.846L161.587 138.769ZM164.929 135.665C164.403 135.834 164.114 136.397 164.283 136.923C164.452 137.449 165.015 137.738 165.541 137.569L164.929 135.665ZM169.453 136.24C169.973 136.054 170.243 135.481 170.057 134.961C169.871 134.441 169.299 134.171 168.779 134.357L169.453 136.24ZM172.584 132.924C172.071 133.127 171.819 133.708 172.022 134.222C172.225 134.735 172.806 134.987 173.32 134.784L172.584 132.924ZM177.137 133.202C177.644 132.982 177.876 132.393 177.656 131.887C177.437 131.38 176.848 131.147 176.341 131.367L177.137 133.202ZM180.044 129.688C179.545 129.925 179.332 130.521 179.568 131.02C179.804 131.519 180.401 131.733 180.9 131.496L180.044 129.688ZM184.605 129.668C185.096 129.416 185.29 128.813 185.038 128.322C184.785 127.83 184.182 127.637 183.691 127.889L184.605 129.668ZM187.277 125.972C186.794 126.24 186.621 126.849 186.889 127.332C187.157 127.814 187.766 127.988 188.249 127.72L187.277 125.972ZM191.826 125.653C192.3 125.369 192.454 124.755 192.17 124.281C191.886 123.808 191.271 123.654 190.798 123.938L191.826 125.653ZM194.251 121.79C193.786 122.089 193.653 122.708 193.952 123.172C194.252 123.636 194.871 123.77 195.335 123.471L194.251 121.79ZM198.77 121.174C199.224 120.86 199.337 120.237 199.023 119.783C198.709 119.329 198.086 119.215 197.632 119.53L198.77 121.174ZM200.936 117.161C200.492 117.49 200.399 118.116 200.729 118.56C201.058 119.003 201.684 119.096 202.127 118.767L200.936 117.161ZM1.74391 0.869472C1.65389 1.55318 1.56955 2.23704 1.49085 2.92101L3.47774 3.14962C3.55519 2.47648 3.63821 1.80342 3.7268 1.13053L1.74391 0.869472ZM1.08572 7.03262C0.972903 8.40761 0.882765 9.78246 0.815169 11.1567L2.81275 11.2549C2.87928 9.90248 2.96799 8.5494 3.07903 7.19618L1.08572 7.03262ZM0.679704 15.2868C0.65706 16.6654 0.657023 18.0429 0.679453 19.4186L2.67919 19.386C2.65711 18.0321 2.65715 16.6764 2.67943 15.3196L0.679704 15.2868ZM0.814443 23.549C0.88202 24.926 0.972091 26.3007 1.08451 27.6725L3.07783 27.5092C2.96719 26.1591 2.87854 24.8062 2.81204 23.451L0.814443 23.549ZM1.48932 31.7847C1.64678 33.1539 1.82655 34.5199 2.02851 35.8818L4.00688 35.5885C3.80812 34.2481 3.63119 32.9038 3.47623 31.5562L1.48932 31.7847ZM2.7014 39.959C2.94797 41.3146 3.21663 42.6657 3.50725 44.0118L5.46221 43.5897C5.17619 42.2649 4.91178 40.9352 4.66912 39.6011L2.7014 39.959ZM4.44525 48.0363C4.77983 49.3726 5.13624 50.7033 5.51433 52.0279L7.43752 51.4789C7.06541 50.1753 6.71464 48.8656 6.38536 47.5505L4.44525 48.0363ZM6.7134 55.9824C7.1345 57.2936 7.57712 58.5981 8.04111 59.8955L9.92429 59.222C9.46765 57.9452 9.03204 56.6613 8.61761 55.3709L6.7134 55.9824ZM9.49614 63.7631C10.002 65.0438 10.529 66.3167 11.077 67.5813L12.9121 66.7861C12.3728 65.5415 11.8541 64.2887 11.3563 63.0284L9.49614 63.7631ZM12.7818 71.3453C13.3701 72.5897 13.9792 73.8253 14.609 75.0517L16.3881 74.1381C15.7684 72.9312 15.1689 71.7151 14.5899 70.4904L12.7818 71.3453ZM16.5567 78.6966C17.2249 79.8994 17.9135 81.0924 18.6222 82.2751L20.3378 81.2471C19.6402 80.0831 18.9626 78.909 18.3049 77.7253L16.5567 78.6966ZM20.8041 85.7845C21.5495 86.9409 22.3149 88.0866 23.0999 89.2211L24.7445 88.083C23.9719 86.9665 23.2187 85.8389 22.485 84.7009L20.8041 85.7845ZM25.5062 92.5796C25.9163 93.1326 26.3312 93.6827 26.7509 94.2299L28.3378 93.0125C27.9247 92.474 27.5163 91.9326 27.1127 91.3883L25.5062 92.5796ZM26.7509 94.2299C27.1706 94.7769 27.5944 95.3201 28.0223 95.8593L29.589 94.6161C29.1679 94.0854 28.7508 93.5509 28.3378 93.0125L26.7509 94.2299ZM30.6424 99.0528C31.5347 100.105 32.4429 101.141 33.3666 102.16L34.8486 100.817C33.9396 99.8137 33.0458 98.7944 32.1677 97.7591L30.6424 99.0528ZM36.1905 105.176C37.1492 106.167 38.1229 107.14 39.1113 108.097L40.5024 106.66C39.5296 105.719 38.5713 104.76 37.6279 103.785L36.1905 105.176ZM42.1269 110.922C43.1481 111.848 44.1836 112.756 45.233 113.646L46.527 112.121C45.4943 111.245 44.4751 110.351 43.4701 109.44L42.1269 110.922ZM48.4264 116.267C49.5058 117.124 50.5985 117.963 51.7042 118.783L52.8957 117.177C51.8075 116.369 50.7321 115.544 49.6698 114.701L48.4264 116.267ZM55.0625 121.19C56.1952 121.974 57.3404 122.739 58.4976 123.485L59.5814 121.804C58.4426 121.07 57.3155 120.317 56.2008 119.545L55.0625 121.19ZM62.0061 125.667C63.1874 126.375 64.3802 127.064 65.584 127.733L66.5557 125.985C65.3709 125.326 64.197 124.648 63.0344 123.952L62.0061 125.667ZM69.2277 129.681C70.4525 130.31 71.6877 130.919 72.933 131.508L73.7882 129.7C72.5627 129.121 71.347 128.521 70.1416 127.902L69.2277 129.681ZM76.6963 133.213C77.9593 133.761 79.2319 134.288 80.5135 134.795L81.2486 132.935C79.9873 132.436 78.7349 131.917 77.4918 131.379L76.6963 133.213ZM84.38 136.25C85.6757 136.714 86.98 137.157 88.2923 137.578L88.9041 135.674C87.6126 135.259 86.329 134.823 85.0538 134.367L84.38 136.25ZM92.2464 138.778C93.5692 139.155 94.8995 139.512 96.2368 139.847L96.7226 137.906C95.4065 137.577 94.0973 137.226 92.7955 136.854L92.2464 138.778ZM100.261 140.784C101.605 141.075 102.956 141.343 104.313 141.59L104.671 139.622C103.336 139.38 102.006 139.115 100.683 138.829L100.261 140.784ZM108.389 142.263C109.07 142.364 109.752 142.459 110.436 142.549L110.697 140.566C110.024 140.478 109.353 140.384 108.682 140.284L108.389 142.263ZM110.436 142.549C111.12 142.639 111.803 142.723 112.487 142.802L112.716 140.815C112.043 140.738 111.37 140.655 110.697 140.566L110.436 142.549ZM116.598 143.207C117.973 143.319 119.348 143.409 120.722 143.477L120.82 141.479C119.468 141.413 118.115 141.324 116.762 141.213L116.598 143.207ZM124.852 143.611C126.23 143.634 127.607 143.634 128.983 143.611L128.95 141.611C127.596 141.634 126.241 141.634 124.884 141.612L124.852 143.611ZM133.113 143.475C134.49 143.407 135.864 143.317 137.236 143.204L137.072 141.211C135.722 141.322 134.369 141.411 133.014 141.478L133.113 143.475ZM141.347 142.799C142.716 142.641 144.082 142.461 145.444 142.259L145.15 140.28C143.81 140.479 142.466 140.657 141.118 140.812L141.347 142.799ZM149.52 141.585C150.876 141.338 152.227 141.069 153.573 140.778L153.15 138.823C151.825 139.109 150.496 139.374 149.162 139.617L149.52 141.585ZM157.596 139.839C158.932 139.504 160.263 139.147 161.587 138.769L161.038 136.846C159.734 137.218 158.425 137.569 157.11 137.899L157.596 139.839ZM165.541 137.569C166.852 137.147 168.156 136.704 169.453 136.24L168.779 134.357C167.502 134.814 166.219 135.25 164.929 135.665L165.541 137.569ZM173.32 134.784C174.6 134.278 175.872 133.75 177.137 133.202L176.341 131.367C175.097 131.907 173.844 132.426 172.584 132.924L173.32 134.784ZM180.9 131.496C182.144 130.908 183.379 130.298 184.605 129.668L183.691 127.889C182.484 128.509 181.269 129.109 180.044 129.688L180.9 131.496ZM188.249 127.72C189.451 127.051 190.644 126.362 191.826 125.653L190.798 123.938C189.634 124.636 188.46 125.314 187.277 125.972L188.249 127.72ZM195.335 123.471C196.491 122.725 197.636 121.959 198.77 121.174L197.632 119.53C196.515 120.303 195.388 121.056 194.251 121.79L195.335 123.471ZM202.127 118.767C202.68 118.357 203.23 117.942 203.777 117.522L202.559 115.935C202.021 116.349 201.48 116.757 200.936 117.161L202.127 118.767Z" fill="#EE4A65"/>
</svg>
