<svg width="78" height="32" viewBox="0 0 78 32" fill="none" xmlns="http://www.w3.org/2000/svg">
<g clip-path="url(#clip0_241_299)">
<path d="M4.6218 27.1459C4.6218 27.7864 4.39543 28.3201 3.94268 28.7471C3.48993 29.1992 2.95544 29.4253 2.3392 29.4253H2.2826C1.66636 29.4253 1.13187 29.1992 0.679122 28.7471C0.226374 28.3201 0 27.7864 0 27.1459V16.7848C0 14.2982 0.886631 12.1632 2.65989 10.3799C4.43316 8.60906 6.57113 7.72367 9.07382 7.72367C12.067 7.72367 14.3244 8.71581 15.8462 10.7001C17.3553 8.71581 19.6065 7.72367 22.5997 7.72367C25.1024 7.72367 27.2403 8.60906 29.0136 10.3799C30.7869 12.1632 31.6735 14.2982 31.6735 16.7848V27.1459C31.6735 27.7738 31.4534 28.3076 31.0132 28.7471C30.5605 29.1992 30.0197 29.4253 29.3909 29.4253H29.3532C28.7118 29.4253 28.1773 29.1992 27.7497 28.7471C27.2969 28.3201 27.0705 27.7864 27.0705 27.1459V16.7848C27.0705 15.5541 26.6367 14.5054 25.7689 13.6389C24.9011 12.7723 23.8447 12.339 22.5997 12.339C21.3672 12.339 20.3171 12.7723 19.4493 13.6389C18.5815 14.5054 18.1476 15.5541 18.1476 16.7848V27.1459C18.1476 27.7864 17.9213 28.3201 17.4685 28.7471C17.0409 29.1992 16.5064 29.4253 15.865 29.4253H15.8273C15.1985 29.4253 14.6577 29.1992 14.205 28.7471C13.7522 28.3201 13.5258 27.7864 13.5258 27.1459V16.7848C13.5258 15.5541 13.092 14.5054 12.2242 13.6389C11.3564 12.7723 10.3063 12.339 9.07382 12.339C7.84134 12.339 6.79122 12.7723 5.92345 13.6389C5.05568 14.5054 4.6218 15.5541 4.6218 16.7848V27.1459ZM38.4836 7.72367C39.125 7.72367 39.6595 7.94973 40.0871 8.40184C40.5398 8.85396 40.7662 9.39399 40.7662 10.0219V27.1459C40.7662 27.7864 40.5398 28.3201 40.0871 28.7471C39.6595 29.1992 39.125 29.4253 38.4836 29.4253H38.4458C37.817 29.4253 37.2762 29.1992 36.8235 28.7471C36.3707 28.3201 36.1444 27.7864 36.1444 27.1459V10.0219C36.1444 9.39399 36.3707 8.85396 36.8235 8.40184C37.2762 7.94973 37.817 7.72367 38.4458 7.72367H38.4836ZM38.4647 5.2747C37.7353 5.2747 37.1128 5.01724 36.5971 4.50233C36.0815 3.98742 35.8237 3.36576 35.8237 2.63735C35.8237 1.9215 36.0815 1.30612 36.5971 0.791205C37.1128 0.276294 37.7353 0.0188382 38.4647 0.0188382C39.1816 0.0188382 39.7978 0.276294 40.3134 0.791205C40.8416 1.29356 41.1057 1.90894 41.1057 2.63735C41.1057 3.37832 40.8416 3.99998 40.3134 4.50233C39.7978 5.01724 39.1816 5.2747 38.4647 5.2747ZM54.6504 0C55.2793 0 55.82 0.219779 56.2728 0.659337C56.713 1.11145 56.933 1.65148 56.933 2.27942V2.3171C56.933 2.94504 56.713 3.48507 56.2728 3.93719C55.82 4.37674 55.2793 4.59652 54.6504 4.59652H53.5752C52.5439 4.59652 51.6699 4.95445 50.953 5.6703C50.2487 6.38615 49.8903 7.07689 49.8777 7.74251H54.6504C55.2793 7.74251 55.82 7.96856 56.2728 8.42068C56.713 8.86024 56.933 9.39399 56.933 10.0219V10.0596C56.933 10.6875 56.713 11.2276 56.2728 11.6797C55.82 12.1318 55.2793 12.3579 54.6504 12.3579H49.8777V27.1459C49.8777 27.7864 49.6513 28.3201 49.1986 28.7471C48.7459 29.1992 48.2114 29.4253 47.5951 29.4253H47.5385C46.9223 29.4253 46.3878 29.1992 45.935 28.7471C45.4823 28.3201 45.2559 27.7864 45.2559 27.1459V8.28881C45.2811 5.99055 46.0923 4.03766 47.6894 2.43013C49.3118 0.810043 51.2737 0 53.5752 0H54.6504ZM64.1959 20.3264C64.1959 21.5698 64.6298 22.631 65.4975 23.5101C66.3779 24.3766 67.4469 24.8099 68.7045 24.8099C69.9495 24.8099 71.0122 24.3766 71.8926 23.5101C72.7604 22.631 73.1942 21.5698 73.1942 20.3264V10.0219C73.1942 9.39399 73.4206 8.85396 73.8734 8.40184C74.3261 7.94973 74.8669 7.72367 75.4957 7.72367H75.5334C76.1748 7.72367 76.7093 7.94973 77.1369 8.40184C77.5897 8.85396 77.816 9.39399 77.816 10.0219V20.3264C77.816 22.8256 76.9231 24.9669 75.1373 26.7503C73.3514 28.5336 71.2072 29.4253 68.7045 29.4253C66.1892 29.4253 64.0387 28.5336 62.2528 26.7503C60.467 24.9669 59.5741 22.8256 59.5741 20.3264V10.0219C59.5741 9.39399 59.8004 8.85396 60.2532 8.40184C60.7059 7.94973 61.2404 7.72367 61.8567 7.72367H61.9133C62.5295 7.72367 63.064 7.94973 63.5168 8.40184C63.9695 8.85396 64.1959 9.39399 64.1959 10.0219V20.3264Z" fill="white"/>
<path opacity="0.340611" d="M4.6218 29.7206C4.6218 30.3611 4.39543 30.8948 3.94268 31.3218C3.48993 31.7739 2.95544 32 2.3392 32H2.2826C1.66636 32 1.13187 31.7739 0.679122 31.3218C0.226374 30.8948 0 30.3611 0 29.7206V19.3596C0 16.8729 0.886631 14.7379 2.65989 12.9546C4.43316 11.1838 6.57113 10.2984 9.07382 10.2984C12.067 10.2984 14.3244 11.2905 15.8462 13.2748C17.3553 11.2905 19.6065 10.2984 22.5997 10.2984C25.1024 10.2984 27.2403 11.1838 29.0136 12.9546C30.7869 14.7379 31.6735 16.8729 31.6735 19.3596V29.7206C31.6735 30.3485 31.4534 30.8823 31.0132 31.3218C30.5605 31.7739 30.0197 32 29.3909 32H29.3532C28.7118 32 28.1773 31.7739 27.7497 31.3218C27.2969 30.8948 27.0705 30.3611 27.0705 29.7206V19.3596C27.0705 18.1288 26.6367 17.0801 25.7689 16.2136C24.9011 15.347 23.8447 14.9137 22.5997 14.9137C21.3672 14.9137 20.3171 15.347 19.4493 16.2136C18.5815 17.0801 18.1476 18.1288 18.1476 19.3596V29.7206C18.1476 30.3611 17.9213 30.8948 17.4685 31.3218C17.0409 31.7739 16.5064 32 15.865 32H15.8273C15.1985 32 14.6577 31.7739 14.205 31.3218C13.7522 30.8948 13.5258 30.3611 13.5258 29.7206V19.3596C13.5258 18.1288 13.092 17.0801 12.2242 16.2136C11.3564 15.347 10.3063 14.9137 9.07382 14.9137C7.84134 14.9137 6.79122 15.347 5.92345 16.2136C5.05568 17.0801 4.6218 18.1288 4.6218 19.3596V29.7206ZM38.4836 10.2984C39.125 10.2984 39.6595 10.5244 40.0871 10.9766C40.5398 11.4287 40.7662 11.9687 40.7662 12.5966V29.7206C40.7662 30.3611 40.5398 30.8948 40.0871 31.3218C39.6595 31.7739 39.125 32 38.4836 32H38.4458C37.817 32 37.2762 31.7739 36.8235 31.3218C36.3707 30.8948 36.1444 30.3611 36.1444 29.7206V12.5966C36.1444 11.9687 36.3707 11.4287 36.8235 10.9766C37.2762 10.5244 37.817 10.2984 38.4458 10.2984H38.4836ZM38.4647 7.84941C37.7353 7.84941 37.1128 7.59195 36.5971 7.07704C36.0815 6.56213 35.8237 5.94047 35.8237 5.21206C35.8237 4.4962 36.0815 3.88082 36.5971 3.36591C37.1128 2.851 37.7353 2.59355 38.4647 2.59355C39.1816 2.59355 39.7978 2.851 40.3134 3.36591C40.8416 3.86826 41.1057 4.48365 41.1057 5.21206C41.1057 5.95303 40.8416 6.57469 40.3134 7.07704C39.7978 7.59195 39.1816 7.84941 38.4647 7.84941ZM54.6504 2.57471C55.2793 2.57471 55.82 2.79449 56.2728 3.23404C56.713 3.68616 56.933 4.22619 56.933 4.85413V4.89181C56.933 5.51975 56.713 6.05978 56.2728 6.51189C55.82 6.95145 55.2793 7.17123 54.6504 7.17123H53.5752C52.5439 7.17123 51.6699 7.52916 50.953 8.24501C50.2487 8.96086 49.8903 9.6516 49.8777 10.3172H54.6504C55.2793 10.3172 55.82 10.5433 56.2728 10.9954C56.713 11.4349 56.933 11.9687 56.933 12.5966V12.6343C56.933 13.2623 56.713 13.8023 56.2728 14.2544C55.82 14.7065 55.2793 14.9326 54.6504 14.9326H49.8777V29.7206C49.8777 30.3611 49.6513 30.8948 49.1986 31.3218C48.7459 31.7739 48.2114 32 47.5951 32H47.5385C46.9223 32 46.3878 31.7739 45.935 31.3218C45.4823 30.8948 45.2559 30.3611 45.2559 29.7206V10.8635C45.2811 8.56526 46.0923 6.61236 47.6894 5.00484C49.3118 3.38475 51.2737 2.57471 53.5752 2.57471H54.6504ZM64.1959 22.9011C64.1959 24.1445 64.6298 25.2057 65.4975 26.0848C66.3779 26.9514 67.4469 27.3846 68.7045 27.3846C69.9495 27.3846 71.0122 26.9514 71.8926 26.0848C72.7604 25.2057 73.1942 24.1445 73.1942 22.9011V12.5966C73.1942 11.9687 73.4206 11.4287 73.8734 10.9766C74.3261 10.5244 74.8669 10.2984 75.4957 10.2984H75.5334C76.1748 10.2984 76.7093 10.5244 77.1369 10.9766C77.5897 11.4287 77.816 11.9687 77.816 12.5966V22.9011C77.816 25.4003 76.9231 27.5416 75.1373 29.325C73.3514 31.1083 71.2072 32 68.7045 32C66.1892 32 64.0387 31.1083 62.2528 29.325C60.467 27.5416 59.5741 25.4003 59.5741 22.9011V12.5966C59.5741 11.9687 59.8004 11.4287 60.2532 10.9766C60.7059 10.5244 61.2404 10.2984 61.8567 10.2984H61.9133C62.5295 10.2984 63.064 10.5244 63.5168 10.9766C63.9695 11.4287 64.1959 11.9687 64.1959 12.5966V22.9011Z" fill="white" fill-opacity="0.2"/>
</g>
<defs>
<clipPath id="clip0_241_299">
<rect width="78" height="32" fill="white"/>
</clipPath>
</defs>
</svg>
