<svg width="164" height="194" viewBox="0 0 164 194" fill="none" xmlns="http://www.w3.org/2000/svg">
<path opacity="0.16" fill-rule="evenodd" clip-rule="evenodd" d="M-17.5068 11.1342C-6.16187 -0.0310895 13.4988 -1.2168 36.6879 6.71909C46.1038 9.94143 56.0162 14.6445 66.0489 20.7051C51.9567 29.1807 37.6725 40.2168 24.182 53.4937C10.6915 66.7706 -0.571318 80.8769 -9.27082 94.8321C-15.1705 84.704 -19.7148 74.7177 -22.7864 65.2516C-30.3512 41.9388 -28.8518 22.2995 -17.5068 11.1342ZM-10.2284 96.3846C-31.1504 60.8386 -35.6696 26.7493 -18.6367 9.98615C-1.60384 -6.77702 32.409 -1.71426 67.6165 19.7723C103.162 -1.14906 137.251 -5.66804 154.014 11.3647C170.777 28.3975 165.714 62.41 144.228 97.6173C165.149 133.163 169.668 167.251 152.635 184.014C135.603 200.777 101.591 195.714 66.3838 174.229C30.8381 195.15 -3.25081 199.669 -20.0138 182.637C-36.7768 165.604 -31.7144 131.592 -10.2284 96.3846ZM64.8313 173.271C54.7034 179.171 44.7175 183.715 35.2516 186.786C11.9388 194.351 -7.70045 192.852 -18.8658 181.507C-30.0311 170.162 -31.2168 150.501 -23.2809 127.312C-20.0587 117.896 -15.3559 107.984 -9.29571 97.9522C-0.82016 112.044 10.2158 126.328 23.4923 139.818C36.7694 153.309 50.8758 164.572 64.8313 173.271ZM66.3988 172.348C52.3325 163.665 38.0685 152.332 24.6403 138.688C11.2128 125.044 0.109497 110.602 -8.3476 96.3996C0.335211 82.3336 11.6679 68.0698 25.3119 54.6418C38.9559 41.2139 53.3987 30.1104 67.6014 21.6532C81.6671 30.3359 95.9305 41.6683 109.358 55.3119C122.786 68.9562 133.89 83.3993 142.347 97.6023C133.664 111.668 122.332 125.932 108.688 139.359C95.0442 152.787 80.6014 163.891 66.3988 172.348ZM67.9513 173.296C77.9834 179.356 87.8952 184.059 97.3105 187.281C120.5 195.217 140.16 194.031 151.505 182.866C162.85 171.7 164.35 152.061 156.785 128.748C153.713 119.283 149.169 109.297 143.27 99.1698C134.571 113.125 123.308 127.231 109.818 140.508C96.3276 153.784 82.0435 164.82 67.9513 173.296ZM143.295 96.0498C149.356 86.0173 154.059 76.105 157.281 66.6893C165.217 43.5002 164.031 23.8396 152.866 12.4946C141.7 1.14961 122.061 -0.349748 98.7484 7.215C89.2826 10.2866 79.2967 14.8306 69.1689 20.73C83.1238 29.4294 97.2296 40.6919 110.506 54.182C123.783 67.6728 134.82 81.9572 143.295 96.0498ZM67.0008 49.5224L67.4629 66.2573C67.9231 82.9253 81.3269 96.3291 97.9949 96.7893L114.73 97.2514L97.9949 97.7135C81.3269 98.1737 67.9231 111.577 67.4629 128.246L67.0008 144.98L66.5387 128.246C66.0785 111.577 52.6747 98.1737 36.0067 97.7135L19.2718 97.2514L36.0067 96.7893C52.6747 96.3291 66.0785 82.9253 66.5387 66.2573L67.0008 49.5224Z" fill="#F94962"/>
</svg>
