<svg width="1440" height="115" viewBox="0 0 1440 115" fill="none" xmlns="http://www.w3.org/2000/svg">
<path d="M827.041 7.53396C794.206 4.63628 752.219 7.99758 717.35 13.677C683.063 19.3565 614.343 40.9152 571.338 55.0558C461.212 92.3779 377.091 106.634 291.518 112.662C257.231 115.096 220.764 116.718 141.293 109.764C61.8219 102.81 -13 80.0917 -13 80.0917V0H1440V35.1198C1440 35.1198 1335.39 72.9055 1209.87 70.4715C1152.92 69.6601 1075.04 62.7057 1015.19 44.5083C984.385 35.1198 939.346 23.4132 899.393 16.4588C859.875 9.15665 842.005 8.69303 827.041 7.53396Z" fill="#ffffff"/>
</svg>
