<svg width="64" height="63" viewBox="0 0 64 63" fill="none" xmlns="http://www.w3.org/2000/svg">
<path d="M1.0842 52.957C0.993757 52.6961 1.13196 52.4113 1.39287 52.3209L5.64469 50.8471C5.90561 50.7566 6.19043 50.8948 6.28087 51.1558C6.37131 51.4167 6.23311 51.7015 5.9722 51.7919L2.1928 53.102L3.50282 56.8814C3.59326 57.1423 3.45506 57.4271 3.19415 57.5175C2.93324 57.608 2.64841 57.4698 2.55798 57.2089L1.0842 52.957ZM33.7822 54.6976L33.946 55.17L33.7822 54.6976ZM57.9102 33.2536L57.4603 33.0355L57.9102 33.2536ZM59.3342 1.18685C59.2438 0.92595 59.3819 0.641099 59.6428 0.550615C59.9037 0.46013 60.1886 0.598277 60.279 0.859173L59.3342 1.18685ZM60.9168 2.85477C60.9944 3.11979 60.8425 3.39753 60.5774 3.47512C60.3124 3.5527 60.0347 3.40076 59.9571 3.13574L60.9168 2.85477ZM60.9125 7.11329C60.8612 6.84195 61.0397 6.58044 61.311 6.5292C61.5824 6.47796 61.8439 6.65639 61.8951 6.92774L60.9125 7.11329ZM62.4694 11.077C62.4938 11.352 62.2906 11.5948 62.0155 11.6192C61.7405 11.6436 61.4977 11.4404 61.4733 11.1653L62.4694 11.077ZM61.6344 15.2528C61.637 14.9767 61.8631 14.755 62.1392 14.7577C62.4153 14.7604 62.637 14.9864 62.6343 15.2625L61.6344 15.2528ZM62.3884 19.4441C62.3586 19.7186 62.112 19.9171 61.8375 19.8874C61.5629 19.8576 61.3644 19.611 61.3942 19.3365L62.3884 19.4441ZM60.755 23.3769C60.8115 23.1066 61.0764 22.9332 61.3467 22.9897C61.617 23.0462 61.7903 23.3111 61.7339 23.5814L60.755 23.3769ZM60.6769 27.6347C60.5942 27.8981 60.3136 28.0447 60.0501 27.962C59.7867 27.8793 59.6401 27.5986 59.7228 27.3352L60.6769 27.6347ZM58.3075 31.1732C58.4156 30.9191 58.7093 30.8008 58.9634 30.9089C59.2175 31.0171 59.3358 31.3107 59.2276 31.5648L58.3075 31.1732ZM57.4003 35.3336C57.2678 35.5759 56.964 35.6649 56.7217 35.5324C56.4794 35.3998 56.3904 35.096 56.523 34.8537L57.4003 35.3336ZM54.3866 38.3413C54.5422 38.1132 54.8533 38.0545 55.0814 38.2101C55.3095 38.3657 55.3683 38.6768 55.2126 38.9049L54.3866 38.3413ZM52.6853 42.2445C52.508 42.4562 52.1927 42.4842 51.9809 42.3069C51.7692 42.1297 51.7412 41.8143 51.9185 41.6026L52.6853 42.2445ZM49.1425 44.6062C49.3396 44.4128 49.6562 44.4159 49.8496 44.613C50.0429 44.8102 50.0398 45.1268 49.8427 45.3201L49.1425 44.6062ZM46.7123 48.1023C46.4971 48.2754 46.1824 48.2413 46.0093 48.0262C45.8362 47.811 45.8703 47.4963 46.0855 47.3232L46.7123 48.1023ZM42.7769 49.7274C43.0079 49.5763 43.3178 49.6411 43.469 49.8721C43.6202 50.1032 43.5554 50.4131 43.3243 50.5643L42.7769 49.7274ZM39.7112 52.6822C39.4664 52.81 39.1643 52.7151 39.0366 52.4703C38.9088 52.2255 39.0036 51.9235 39.2484 51.7957L39.7112 52.6822ZM35.5342 53.5078C35.7903 53.4047 36.0816 53.5287 36.1847 53.7849C36.2879 54.041 36.1639 54.3323 35.9077 54.4355L35.5342 53.5078ZM31.9506 55.8075C31.6856 55.8851 31.4079 55.7331 31.3303 55.4681C31.2528 55.203 31.4047 54.9253 31.6698 54.8478L31.9506 55.8075ZM27.6926 55.8024C27.964 55.7512 28.2254 55.9297 28.2766 56.2011C28.3278 56.4724 28.1493 56.7339 27.878 56.7851L27.6926 55.8024ZM23.7291 57.3585C23.4541 57.3828 23.2114 57.1796 23.187 56.9045C23.1627 56.6294 23.366 56.3867 23.641 56.3624L23.7291 57.3585ZM19.554 56.5224C19.8302 56.5251 20.0518 56.7512 20.049 57.0273C20.0463 57.3035 19.8202 57.5251 19.5441 57.5223L19.554 56.5224ZM15.3631 57.2752C15.0886 57.2454 14.8902 56.9987 14.92 56.7241C14.9498 56.4496 15.1965 56.2512 15.471 56.281L15.3631 57.2752ZM11.4313 55.6407C11.7016 55.6973 11.8748 55.9622 11.8183 56.2325C11.7617 56.5028 11.4968 56.676 11.2265 56.6195L11.4313 55.6407ZM7.17403 55.5614C6.91059 55.4786 6.76415 55.1979 6.84694 54.9345C6.92974 54.6711 7.21041 54.5246 7.47385 54.6074L7.17403 55.5614ZM3.63676 53.1911C3.89081 53.2993 4.00904 53.593 3.90081 53.847C3.79259 54.1011 3.49892 54.2193 3.24486 54.1111L3.63676 53.1911ZM60.279 0.859173C60.5084 1.52061 60.721 2.18602 60.9168 2.85477L59.9571 3.13574C59.7659 2.48265 59.5583 1.83282 59.3342 1.18685L60.279 0.859173ZM61.8951 6.92774C62.155 8.30383 62.3463 9.68859 62.4694 11.077L61.4733 11.1653C61.3531 9.80945 61.1662 8.45713 60.9125 7.11329L61.8951 6.92774ZM62.6343 15.2625C62.6208 16.6595 62.5387 18.0551 62.3884 19.4441L61.3942 19.3365C61.541 17.98 61.6211 16.6171 61.6344 15.2528L62.6343 15.2625ZM61.7339 23.5814C61.4488 24.9458 61.0964 26.2986 60.6769 27.6347L59.7228 27.3352C60.1325 26.0304 60.4766 24.7093 60.755 23.3769L61.7339 23.5814ZM59.2276 31.5648C58.9547 32.206 58.6655 32.8418 58.3601 33.4718L57.4603 33.0355C57.7586 32.4203 58.041 31.7993 58.3075 31.1732L59.2276 31.5648ZM58.3601 33.4718C58.0547 34.1016 57.7346 34.7224 57.4003 35.3336L56.523 34.8537C56.8495 34.2568 57.162 33.6506 57.4603 33.0355L58.3601 33.4718ZM55.2126 38.9049C54.4235 40.0616 53.5798 41.1759 52.6853 42.2445L51.9185 41.6026C52.792 40.559 53.616 39.4708 54.3866 38.3413L55.2126 38.9049ZM49.8427 45.3201C48.8454 46.2982 47.8006 47.2267 46.7123 48.1023L46.0855 47.3232C47.1483 46.4681 48.1686 45.5613 49.1425 44.6062L49.8427 45.3201ZM43.3243 50.5643C42.1581 51.3272 40.9524 52.0343 39.7112 52.6822L39.2484 51.7957C40.4606 51.163 41.638 50.4725 42.7769 49.7274L43.3243 50.5643ZM35.9077 54.4355C35.2614 54.6957 34.6074 54.9407 33.946 55.17L33.6184 54.2252C34.2643 54.0012 34.903 53.762 35.5342 53.5078L35.9077 54.4355ZM33.946 55.17C33.2847 55.3993 32.6193 55.6118 31.9506 55.8075L31.6698 54.8478C32.3228 54.6567 32.9725 54.4491 33.6184 54.2252L33.946 55.17ZM27.878 56.7851C26.502 57.0447 25.1174 57.2357 23.7291 57.3585L23.641 56.3624C24.9968 56.2425 26.3489 56.0559 27.6926 55.8024L27.878 56.7851ZM19.5441 57.5223C18.1472 57.5084 16.7519 57.4259 15.3631 57.2752L15.471 56.281C16.8272 56.4282 18.1899 56.5088 19.554 56.5224L19.5441 57.5223ZM11.2265 56.6195C9.86236 56.334 8.50986 55.9812 7.17403 55.5614L7.47385 54.6074C8.77836 55.0174 10.0992 55.3619 11.4313 55.6407L11.2265 56.6195ZM3.24486 54.1111C2.60385 53.838 1.96815 53.5487 1.33836 53.2431L1.77488 52.3434C2.38994 52.6419 3.01077 52.9244 3.63676 53.1911L3.24486 54.1111ZM0.611776 53.1208C0.430898 52.599 0.707292 52.0293 1.22912 51.8484L9.73276 48.9009C10.2546 48.72 10.8242 48.9964 11.0051 49.5182C11.186 50.0401 10.9096 50.6097 10.3878 50.7906L2.82898 53.4106L5.44902 60.9694C5.62989 61.4913 5.3535 62.0609 4.83168 62.2418C4.30985 62.4227 3.7402 62.1463 3.55932 61.6244L0.611776 53.1208ZM33.7822 54.6976L34.1098 55.6424L33.7822 54.6976ZM57.9102 33.2536L57.0104 32.8174L57.9102 33.2536ZM58.8618 1.35068C58.6809 0.82889 58.9572 0.259189 59.479 0.0782193C60.0008 -0.10275 60.5705 0.173543 60.7514 0.695336L58.8618 1.35068ZM61.3967 2.71429C61.5518 3.24432 61.248 3.7998 60.7179 3.95497C60.1879 4.11015 59.6324 3.80627 59.4772 3.27623L61.3967 2.71429ZM60.4212 7.20607C60.3187 6.66338 60.6755 6.14036 61.2182 6.03788C61.7609 5.9354 62.2839 6.29227 62.3864 6.83496L60.4212 7.20607ZM62.9675 11.0328C63.0163 11.5829 62.6098 12.0684 62.0597 12.1172C61.5096 12.166 61.0241 11.7596 60.9753 11.2095L62.9675 11.0328ZM61.1344 15.248C61.1397 14.6957 61.5918 14.2524 62.144 14.2577C62.6963 14.2631 63.1396 14.7151 63.1343 15.2674L61.1344 15.248ZM62.8855 19.4979C62.826 20.0469 62.3327 20.4439 61.7836 20.3844C61.2346 20.325 60.8376 19.8317 60.8971 19.2826L62.8855 19.4979ZM60.2656 23.2746C60.3785 22.734 60.9083 22.3873 61.449 22.5003C61.9896 22.6132 62.3362 23.143 62.2233 23.6837L60.2656 23.2746ZM61.154 27.7844C60.9886 28.3114 60.4273 28.6044 59.9004 28.439C59.3734 28.2736 59.0804 27.7123 59.2458 27.1854L61.154 27.7844ZM57.8474 30.9773C58.0637 30.4692 58.651 30.2326 59.1592 30.4488C59.6674 30.6651 59.904 31.2524 59.6877 31.7606L57.8474 30.9773ZM57.839 35.5736C57.5739 36.0581 56.9663 36.236 56.4818 35.971C55.9972 35.706 55.8193 35.0984 56.0843 34.6138L57.839 35.5736ZM53.9735 38.0596C54.2848 37.6033 54.907 37.4858 55.3632 37.7971C55.8194 38.1083 55.9369 38.7305 55.6257 39.1867L53.9735 38.0596ZM53.0687 42.5654C52.7142 42.9889 52.0835 43.0448 51.66 42.6903C51.2365 42.3358 51.1806 41.7052 51.5351 41.2817L53.0687 42.5654ZM48.7924 44.2492C49.1867 43.8625 49.8198 43.8686 50.2065 44.2629C50.5932 44.6572 50.5871 45.2904 50.1928 45.6771L48.7924 44.2492ZM47.0257 48.4919C46.5954 48.8381 45.9659 48.7699 45.6197 48.3396C45.2735 47.9093 45.3417 47.2798 45.772 46.9336L47.0257 48.4919ZM42.5031 49.309C42.9653 49.0067 43.5851 49.1363 43.8874 49.5984C44.1898 50.0606 44.0602 50.6804 43.598 50.9827L42.5031 49.309ZM39.9425 53.1254C39.4529 53.381 38.8489 53.1913 38.5933 52.7017C38.3378 52.212 38.5275 51.608 39.0171 51.3524L39.9425 53.1254ZM35.3474 53.044C35.8597 52.8377 36.4423 53.0858 36.6486 53.5981C36.8549 54.1104 36.6068 54.693 36.0945 54.8993L35.3474 53.044ZM32.0911 56.2874C31.561 56.4425 31.0056 56.1385 30.8504 55.6085C30.6953 55.0784 30.9993 54.523 31.5293 54.3679L32.0911 56.2874ZM27.5999 55.3111C28.1426 55.2087 28.6656 55.5657 28.768 56.1084C28.8704 56.6511 28.5134 57.174 27.9707 57.2764L27.5999 55.3111ZM23.7732 57.8566C23.223 57.9052 22.7376 57.4987 22.689 56.9486C22.6403 56.3984 23.0468 55.913 23.597 55.8643L23.7732 57.8566ZM19.559 56.0224C20.1113 56.0279 20.5545 56.4801 20.549 57.0323C20.5435 57.5846 20.0913 58.0278 19.5391 58.0223L19.559 56.0224ZM15.3091 57.7723C14.7601 57.7127 14.3633 57.2193 14.4229 56.6702C14.4825 56.1211 14.9759 55.7243 15.525 55.7839L15.3091 57.7723ZM11.5337 55.1513C12.0743 55.2644 12.4208 55.7943 12.3077 56.3349C12.1946 56.8755 11.6646 57.222 11.1241 57.1089L11.5337 55.1513ZM7.02413 56.0384C6.49725 55.8728 6.20436 55.3115 6.36995 54.7846C6.53553 54.2577 7.09688 53.9648 7.62376 54.1304L7.02413 56.0384ZM3.83271 52.7311C4.34081 52.9475 4.57725 53.5349 4.36082 54.043C4.14438 54.5511 3.55702 54.7875 3.04891 54.5711L3.83271 52.7311ZM60.7514 0.695336C60.9835 1.36451 61.1986 2.0377 61.3967 2.71429L59.4772 3.27623C59.2883 2.63097 59.0832 1.98892 58.8618 1.35068L60.7514 0.695336ZM62.3864 6.83496C62.6493 8.22717 62.8429 9.62816 62.9675 11.0328L60.9753 11.2095C60.8565 9.86988 60.6719 8.53379 60.4212 7.20607L62.3864 6.83496ZM63.1343 15.2674C63.1206 16.6807 63.0375 18.0926 62.8855 19.4979L60.8971 19.2826C61.0421 17.9425 61.1213 16.5959 61.1344 15.248L63.1343 15.2674ZM62.2233 23.6837C61.9349 25.0641 61.5783 26.4327 61.154 27.7844L59.2458 27.1854C59.6505 25.8963 59.9905 24.5911 60.2656 23.2746L62.2233 23.6837ZM59.6877 31.7606C59.4116 32.4093 59.119 33.0526 58.81 33.6899L57.0104 32.8174C57.3051 32.2095 57.5841 31.596 57.8474 30.9773L59.6877 31.7606ZM58.81 33.6899C58.501 34.3271 58.1772 34.9551 57.839 35.5736L56.0843 34.6138C56.4069 34.024 56.7157 33.4251 57.0104 32.8174L58.81 33.6899ZM55.6257 39.1867C54.8273 40.3569 53.9737 41.4843 53.0687 42.5654L51.5351 41.2817C52.3981 40.2506 53.2122 39.1755 53.9735 38.0596L55.6257 39.1867ZM50.1928 45.6771C49.1838 46.6666 48.1268 47.606 47.0257 48.4919L45.772 46.9336C46.8221 46.0888 47.8301 45.1929 48.7924 44.2492L50.1928 45.6771ZM43.598 50.9827C42.4181 51.7546 41.1983 52.47 39.9425 53.1254L39.0171 51.3524C40.2147 50.7273 41.3779 50.0451 42.5031 49.309L43.598 50.9827ZM36.0945 54.8993C35.4406 55.1626 34.7789 55.4104 34.1098 55.6424L33.4546 53.7528C34.0928 53.5315 34.7238 53.2951 35.3474 53.044L36.0945 54.8993ZM34.1098 55.6424C33.4407 55.8744 32.7676 56.0894 32.0911 56.2874L31.5293 54.3679C32.1745 54.1791 32.8165 53.974 33.4546 53.7528L34.1098 55.6424ZM27.9707 57.2764C26.5786 57.5391 25.1777 57.7323 23.7732 57.8566L23.597 55.8643C24.9364 55.7459 26.2724 55.5615 27.5999 55.3111L27.9707 57.2764ZM19.5391 58.0223C18.1259 58.0082 16.7142 57.9248 15.3091 57.7723L15.525 55.7839C16.8649 55.9294 18.2113 56.009 19.559 56.0224L19.5391 58.0223ZM11.1241 57.1089C9.74396 56.8201 8.37561 56.4632 7.02413 56.0384L7.62376 54.1304C8.91261 54.5355 10.2176 54.8759 11.5337 55.1513L11.1241 57.1089ZM3.04891 54.5711C2.4004 54.2948 1.75725 54.0021 1.12009 53.693L1.99315 51.8936C2.60084 52.1884 3.21422 52.4676 3.83271 52.7311L3.04891 54.5711Z" fill="#EE4A65"/>
</svg>
