<svg width="205" height="144" viewBox="0 0 205 144" fill="none" xmlns="http://www.w3.org/2000/svg">
<path d="M203.664 26.9125C203.7 27.1863 203.507 27.4374 203.234 27.4734L198.772 28.06C198.498 28.096 198.247 27.9032 198.211 27.6294C198.175 27.3556 198.368 27.1045 198.642 27.0685L202.607 26.5471L202.086 22.5813C202.05 22.3075 202.243 22.0563 202.517 22.0203C202.79 21.9843 203.042 22.1771 203.077 22.4509L203.664 26.9125ZM110.566 2.14882L110.501 1.65309L110.566 2.14882ZM27.5444 50.0852L27.1477 49.7809L27.5444 50.0852ZM3.23107 142.641C3.26712 142.915 3.0744 143.166 2.80062 143.202C2.52684 143.238 2.27567 143.045 2.23963 142.772L3.23107 142.641ZM1.98757 140.728C1.95601 140.454 2.15281 140.206 2.42714 140.174C2.70147 140.143 2.94945 140.34 2.98102 140.614L1.98757 140.728ZM2.5807 136.551C2.60328 136.826 2.39848 137.068 2.12326 137.09C1.84805 137.113 1.60663 136.908 1.58405 136.633L2.5807 136.551ZM1.31457 132.525C1.301 132.249 1.51359 132.015 1.7894 132.001C2.06521 131.988 2.29979 132.2 2.31336 132.476L1.31457 132.525ZM2.1795 128.395C2.18404 128.671 1.96389 128.899 1.68778 128.903C1.41168 128.908 1.18417 128.688 1.17964 128.411L2.1795 128.395ZM1.17939 124.296C1.18389 124.02 1.41137 123.8 1.68747 123.804C1.96358 123.809 2.18376 124.036 2.17925 124.312L1.17939 124.296ZM2.31264 120.231C2.29911 120.507 2.06454 120.719 1.78873 120.706C1.51292 120.692 1.30031 120.458 1.31384 120.182L2.31264 120.231ZM1.58284 116.075C1.6054 115.799 1.84679 115.595 2.12201 115.617C2.39723 115.64 2.60205 115.881 2.5795 116.156L1.58284 116.075ZM2.9795 112.093C2.94796 112.367 2.69999 112.564 2.42566 112.533C2.15132 112.501 1.9545 112.253 1.98605 111.979L2.9795 112.093ZM2.5231 107.898C2.56361 107.625 2.81788 107.436 3.09103 107.477C3.36419 107.517 3.55279 107.771 3.51229 108.045L2.5231 107.898ZM4.17719 104.016C4.12777 104.288 3.86747 104.468 3.59578 104.418C3.3241 104.369 3.14391 104.109 3.19333 103.837L4.17719 104.016ZM3.99599 99.8001C4.05426 99.5302 4.32032 99.3586 4.59024 99.4169C4.86017 99.4752 5.03174 99.7412 4.97347 100.011L3.99599 99.8001ZM5.90033 96.0345C5.83326 96.3023 5.56173 96.4651 5.29386 96.398C5.02599 96.331 4.8632 96.0594 4.93027 95.7916L5.90033 96.0345ZM5.99513 91.8158C6.07092 91.5502 6.34763 91.3964 6.61316 91.4722C6.8787 91.548 7.03252 91.8247 6.95672 92.0903L5.99513 91.8158ZM8.14156 88.1827C8.05712 88.4456 7.77553 88.5903 7.51262 88.5058C7.2497 88.4214 7.10502 88.1398 7.18945 87.8769L8.14156 88.1827ZM8.5119 83.9793C8.6049 83.7193 8.89106 83.5839 9.15108 83.6769C9.41109 83.7699 9.54649 84.0561 9.4535 84.3161L8.5119 83.9793ZM10.8913 80.4943C10.7898 80.7512 10.4994 80.8771 10.2425 80.7757C9.9857 80.6742 9.85973 80.3838 9.96118 80.127L10.8913 80.4943ZM11.5358 76.3239C11.6456 76.0705 11.94 75.9541 12.1934 76.0639C12.4468 76.1737 12.5631 76.4681 12.4533 76.7215L11.5358 76.3239ZM14.1379 73.0023C14.0198 73.2519 13.7218 73.3586 13.4721 73.2406C13.2225 73.1226 13.1158 72.8245 13.2338 72.5749L14.1379 73.0023ZM15.0538 68.8831C15.1799 68.6375 15.4813 68.5406 15.7269 68.6667C15.9726 68.7929 16.0695 69.0943 15.9433 69.3399L15.0538 68.8831ZM17.8679 65.7383C17.7338 65.9797 17.4294 66.0666 17.188 65.9325C16.9466 65.7984 16.8596 65.494 16.9937 65.2526L17.8679 65.7383ZM19.0511 61.6883C19.193 61.4515 19.5001 61.3745 19.737 61.5164C19.9739 61.6584 20.0508 61.9655 19.9089 62.2023L19.0511 61.6883ZM22.0648 58.7347C21.9152 58.9668 21.6057 59.0336 21.3736 58.884C21.1415 58.7344 21.0747 58.4249 21.2243 58.1928L22.0648 58.7347ZM23.5111 54.7699C23.6682 54.5428 23.9797 54.4861 24.2068 54.6433C24.4338 54.8004 24.4905 55.1119 24.3334 55.3389L23.5111 54.7699ZM26.7111 52.0203C26.5466 52.2421 26.2335 52.2886 26.0116 52.1241C25.7898 51.9596 25.7433 51.6465 25.9078 51.4247L26.7111 52.0203ZM28.414 48.1579C28.5856 47.9416 28.9001 47.9054 29.1164 48.077C29.3327 48.2487 29.369 48.5632 29.1973 48.7795L28.414 48.1579ZM31.7864 45.6239C31.6077 45.8345 31.2922 45.8604 31.0816 45.6818C30.871 45.5032 30.8451 45.1877 31.0237 44.9771L31.7864 45.6239ZM33.7371 41.8823C33.9225 41.6776 34.2387 41.662 34.4433 41.8475C34.648 42.0329 34.6635 42.3491 34.4781 42.5537L33.7371 41.8823ZM37.2685 39.5737C37.0765 39.7721 36.76 39.7774 36.5615 39.5853C36.3631 39.3933 36.3578 39.0768 36.5499 38.8783L37.2685 39.5737ZM39.4591 35.9685C39.6575 35.7764 39.9741 35.7815 40.1661 35.98C40.3582 36.1784 40.353 36.4949 40.1546 36.687L39.4591 35.9685ZM43.1343 33.8957C42.9297 34.0812 42.6135 34.0657 42.428 33.8611C42.2426 33.6565 42.2581 33.3403 42.4627 33.1548L43.1343 33.8957ZM45.5565 30.4412C45.767 30.2626 46.0826 30.2884 46.2612 30.499C46.4399 30.7095 46.414 31.025 46.2035 31.2037L45.5565 30.4412ZM49.3589 28.6138C49.1426 28.7855 48.8281 28.7493 48.6565 28.533C48.4848 28.3168 48.5209 28.0022 48.7372 27.8306L49.3589 28.6138ZM52.0021 25.3251C52.2239 25.1606 52.5371 25.207 52.7016 25.4288C52.8661 25.6506 52.8196 25.9638 52.5978 26.1283L52.0021 25.3251ZM55.9162 23.7502C55.6891 23.9074 55.3777 23.8507 55.2205 23.6236C55.0633 23.3966 55.12 23.0851 55.3471 22.928L55.9162 23.7502ZM58.7686 20.6416C59.0006 20.492 59.3101 20.5588 59.4597 20.7909C59.6094 21.0229 59.5425 21.3324 59.3105 21.482L58.7686 20.6416ZM62.7773 19.326C62.5405 19.468 62.2334 19.3911 62.0914 19.1542C61.9494 18.9174 62.0263 18.6103 62.2632 18.4683L62.7773 19.326ZM65.827 16.4106C66.0683 16.2764 66.3727 16.3633 66.5069 16.6047C66.641 16.8461 66.5541 17.1505 66.3127 17.2846L65.827 16.4106ZM69.9131 15.36C69.6675 15.4861 69.3661 15.3893 69.2399 15.1437C69.1137 14.8981 69.2106 14.5967 69.4562 14.4705L69.9131 15.36ZM73.1468 12.6502C73.3965 12.5322 73.6945 12.6388 73.8126 12.8884C73.9307 13.1381 73.8241 13.4361 73.5744 13.5542L73.1468 12.6502ZM77.2929 11.8692C77.0396 11.979 76.7452 11.8627 76.6353 11.6093C76.5255 11.356 76.6418 11.0615 76.8952 10.9517L77.2929 11.8692ZM80.6973 9.37665C80.9541 9.27516 81.2446 9.40107 81.3461 9.65788C81.4475 9.9147 81.3216 10.2052 81.0648 10.3067L80.6973 9.37665ZM84.8853 8.86863C84.6253 8.96166 84.3391 8.82631 84.2461 8.56631C84.1531 8.30631 84.2884 8.02012 84.5484 7.92709L84.8853 8.86863ZM88.4453 6.60428C88.7082 6.51981 88.9898 6.66446 89.0743 6.92737C89.1587 7.19027 89.0141 7.47188 88.7512 7.55635L88.4453 6.60428ZM92.6582 6.37126C92.3927 6.44708 92.116 6.29328 92.0402 6.02775C91.9643 5.76222 92.1181 5.4855 92.3837 5.40969L92.6582 6.37126ZM96.3583 4.34492C96.6261 4.27784 96.8977 4.44061 96.9647 4.70848C97.0318 4.97635 96.869 5.24789 96.6012 5.31497L96.3583 4.34492ZM100.577 4.38822C100.307 4.44649 100.041 4.27492 99.9829 4.00499C99.9246 3.73507 100.096 3.46902 100.366 3.41074L100.577 4.38822ZM104.403 2.60816C104.675 2.55875 104.935 2.73895 104.984 3.01063C105.034 3.28231 104.853 3.54261 104.582 3.59203L104.403 2.60816ZM108.609 2.9275C108.336 2.968 108.082 2.77939 108.041 2.50623C108.001 2.23307 108.189 1.97881 108.462 1.93832L108.609 2.9275ZM112.544 1.40124C112.819 1.3697 113.067 1.56653 113.098 1.84086C113.13 2.1152 112.933 2.36316 112.659 2.3947L112.544 1.40124ZM116.721 1.99484C116.446 2.01739 116.204 1.81256 116.182 1.53735C116.159 1.26213 116.364 1.02074 116.639 0.998187L116.721 1.99484ZM120.747 0.729242C121.022 0.71571 121.257 0.928332 121.27 1.20414C121.284 1.47996 121.071 1.71451 120.795 1.72804L120.747 0.729242ZM124.876 1.5948C124.6 1.59928 124.372 1.3791 124.368 1.103C124.363 0.826889 124.584 0.599417 124.86 0.594929L124.876 1.5948ZM128.975 0.595361C129.251 0.599913 129.471 0.827427 129.466 1.10353C129.462 1.37964 129.234 1.59977 128.958 1.59522L128.975 0.595361ZM133.039 1.72935C132.763 1.71576 132.551 1.48116 132.564 1.20535C132.578 0.929545 132.812 0.716973 133.088 0.730565L133.039 1.72935ZM137.195 1.00036C137.47 1.02298 137.675 1.26441 137.652 1.53963C137.63 1.81485 137.388 2.01963 137.113 1.99701L137.195 1.00036ZM141.176 2.39786C140.901 2.36625 140.705 2.11824 140.736 1.84392C140.768 1.56959 141.016 1.37282 141.29 1.40444L141.176 2.39786ZM145.37 1.9424C145.644 1.98296 145.832 2.23728 145.792 2.51042C145.751 2.78357 145.497 2.97211 145.224 2.93154L145.37 1.9424ZM149.252 3.59737C148.98 3.54789 148.8 3.28754 148.849 3.01586C148.899 2.7442 149.159 2.56408 149.431 2.61356L149.252 3.59737ZM153.467 3.4172C153.737 3.47554 153.908 3.74165 153.85 4.01155C153.792 4.28146 153.525 4.45297 153.256 4.39462L153.467 3.4172ZM157.232 5.32247C156.964 5.25532 156.801 4.98375 156.868 4.7159C156.935 4.44804 157.207 4.28533 157.475 4.35248L157.232 5.32247ZM161.45 5.41835C161.715 5.49422 161.869 5.77097 161.793 6.03649C161.717 6.302 161.44 6.45574 161.175 6.37986L161.45 5.41835ZM165.082 7.56571C164.819 7.48119 164.674 7.19956 164.759 6.93667C164.843 6.67378 165.125 6.52918 165.388 6.6137L165.082 7.56571ZM169.284 7.93717C169.544 8.03024 169.68 8.31645 169.587 8.57644C169.494 8.83642 169.207 8.97173 168.947 8.87866L169.284 7.93717ZM172.768 10.3174C172.511 10.2159 172.385 9.9254 172.487 9.6686C172.588 9.4118 172.879 9.28593 173.136 9.38745L172.768 10.3174ZM176.938 10.9631C177.191 11.0729 177.308 11.3674 177.198 11.6207C177.088 11.8741 176.793 11.9904 176.54 11.8805L176.938 10.9631ZM180.258 13.566C180.009 13.4478 179.902 13.1498 180.02 12.9002C180.138 12.6505 180.436 12.5439 180.686 12.662L180.258 13.566ZM184.377 14.4829C184.622 14.6091 184.719 14.9106 184.593 15.1562C184.467 15.4018 184.165 15.4986 183.92 15.3724L184.377 14.4829ZM187.52 17.2978C187.279 17.1636 187.192 16.8592 187.326 16.6178C187.46 16.3765 187.765 16.2896 188.006 16.4238L187.52 17.2978ZM191.569 18.482C191.806 18.624 191.883 18.9311 191.741 19.168C191.599 19.4048 191.292 19.4816 191.055 19.3396L191.569 18.482ZM194.522 21.4963C194.29 21.3467 194.223 21.0372 194.372 20.8051C194.522 20.5731 194.832 20.5063 195.064 20.656L194.522 21.4963ZM198.485 22.9435C198.712 23.1007 198.769 23.4122 198.612 23.6392C198.455 23.8663 198.143 23.9229 197.916 23.7657L198.485 22.9435ZM201.234 26.144C201.012 25.9795 200.966 25.6663 201.13 25.4445C201.295 25.2228 201.608 25.1764 201.83 25.3409L201.234 26.144ZM2.23963 142.772C2.14997 142.091 2.06596 141.41 1.98757 140.728L2.98102 140.614C3.05878 141.29 3.14213 141.966 3.23107 142.641L2.23963 142.772ZM1.58405 136.633C1.47167 135.263 1.38189 133.894 1.31457 132.525L2.31336 132.476C2.38015 133.834 2.46922 135.192 2.5807 136.551L1.58405 136.633ZM1.17964 128.411C1.15708 127.038 1.15705 125.666 1.17939 124.296L2.17925 124.312C2.15709 125.672 2.15713 127.033 2.1795 128.395L1.17964 128.411ZM1.31384 120.182C1.38115 118.81 1.47087 117.441 1.58284 116.075L2.5795 116.156C2.46841 117.512 2.37941 118.87 2.31264 120.231L1.31384 120.182ZM1.98605 111.979C2.14288 110.615 2.32195 109.255 2.5231 107.898L3.51229 108.045C3.31273 109.39 3.13509 110.74 2.9795 112.093L1.98605 111.979ZM3.19333 103.837C3.43892 102.487 3.70652 101.141 3.99599 99.8001L4.97347 100.011C4.6863 101.341 4.42083 102.676 4.17719 104.016L3.19333 103.837ZM4.93027 95.7916C5.26353 94.4606 5.61853 93.1351 5.99513 91.8158L6.95672 92.0903C6.58312 93.3991 6.23094 94.7141 5.90033 96.0345L4.93027 95.7916ZM7.18945 87.8769C7.60889 86.5709 8.04975 85.2715 8.5119 83.9793L9.4535 84.3161C8.99502 85.598 8.55766 86.8871 8.14156 88.1827L7.18945 87.8769ZM9.96118 80.127C10.465 78.8514 10.9899 77.5836 11.5358 76.3239L12.4533 76.7215C11.9118 77.9712 11.3911 79.2289 10.8913 80.4943L9.96118 80.127ZM13.2338 72.5749C13.8198 71.3354 14.4265 70.1046 15.0538 68.8831L15.9433 69.3399C15.3211 70.5517 14.7192 71.7727 14.1379 73.0023L13.2338 72.5749ZM16.9937 65.2526C17.6593 64.0546 18.3452 62.8664 19.0511 61.6883L19.9089 62.2023C19.2086 63.371 18.5282 64.5498 17.8679 65.7383L16.9937 65.2526ZM21.2243 58.1928C21.9668 57.041 22.7291 55.8999 23.5111 54.7699L24.3334 55.3389C23.5577 56.4599 22.8014 57.592 22.0648 58.7347L21.2243 58.1928ZM25.9078 51.4247C26.3163 50.8738 26.7296 50.3259 27.1477 49.7809L27.9411 50.3896C27.5263 50.9302 27.1163 51.4738 26.7111 52.0203L25.9078 51.4247ZM27.1477 49.7809C27.5657 49.236 27.9878 48.695 28.414 48.1579L29.1973 48.7795C28.7745 49.3123 28.3558 49.849 27.9411 50.3896L27.1477 49.7809ZM31.0237 44.9771C31.9125 43.9293 32.8171 42.8976 33.7371 41.8823L34.4781 42.5537C33.5654 43.561 32.668 44.5845 31.7864 45.6239L31.0237 44.9771ZM36.5499 38.8783C37.5047 37.8915 38.4746 36.9215 39.4591 35.9685L40.1546 36.687C39.1779 37.6324 38.2157 38.5947 37.2685 39.5737L36.5499 38.8783ZM42.4627 33.1548C43.4799 32.2327 44.5113 31.3281 45.5565 30.4412L46.2035 31.2037C45.1666 32.0835 44.1434 32.981 43.1343 33.8957L42.4627 33.1548ZM48.7372 27.8306C49.8123 26.9772 50.9008 26.142 52.0021 25.3251L52.5978 26.1283C51.5053 26.9387 50.4255 27.7673 49.3589 28.6138L48.7372 27.8306ZM55.3471 22.928C56.4753 22.147 57.616 21.3848 58.7686 20.6416L59.3105 21.482C58.167 22.2193 57.0355 22.9755 55.9162 23.7502L55.3471 22.928ZM62.2632 18.4683C63.4398 17.763 64.6279 17.077 65.827 16.4106L66.3127 17.2846C65.1232 17.9458 63.9446 18.6263 62.7773 19.326L62.2632 18.4683ZM69.4562 14.4705C70.6761 13.8438 71.9065 13.237 73.1468 12.6502L73.5744 13.5542C72.3439 14.1363 71.1233 14.7383 69.9131 15.36L69.4562 14.4705ZM76.8952 10.9517C78.1532 10.4062 79.4207 9.88114 80.6973 9.37665L81.0648 10.3067C79.7984 10.8071 78.541 11.3281 77.2929 11.8692L76.8952 10.9517ZM84.5484 7.92709C85.8391 7.46527 87.1382 7.02424 88.4453 6.60428L88.7512 7.55635C87.4545 7.97297 86.1657 8.41049 84.8853 8.86863L84.5484 7.92709ZM92.3837 5.40969C93.7012 5.03349 95.0263 4.67848 96.3583 4.34492L96.6012 5.31497C95.2798 5.64588 93.9653 5.99806 92.6582 6.37126L92.3837 5.40969ZM100.366 3.41074C101.705 3.1216 103.051 2.85398 104.403 2.60816L104.582 3.59203C103.241 3.83589 101.906 4.10137 100.577 4.38822L100.366 3.41074ZM108.462 1.93832C109.141 1.83776 109.82 1.74268 110.501 1.65309L110.632 2.64455C109.956 2.73343 109.282 2.82775 108.609 2.9275L108.462 1.93832ZM110.501 1.65309C111.182 1.5635 111.863 1.47955 112.544 1.40124L112.659 2.3947C111.983 2.47239 111.307 2.55567 110.632 2.64455L110.501 1.65309ZM116.639 0.998187C118.009 0.885978 119.378 0.79638 120.747 0.729242L120.795 1.72804C119.438 1.79464 118.079 1.88353 116.721 1.99484L116.639 0.998187ZM124.86 0.594929C126.233 0.572588 127.605 0.572783 128.975 0.595361L128.958 1.59522C127.599 1.57282 126.238 1.57264 124.876 1.5948L124.86 0.594929ZM133.088 0.730565C134.46 0.798132 135.829 0.888118 137.195 1.00036L137.113 1.99701C135.758 1.88565 134.399 1.79638 133.039 1.72935L133.088 0.730565ZM141.29 1.40444C142.654 1.56156 144.014 1.74093 145.37 1.9424L145.224 2.93154C143.878 2.73168 142.528 2.55373 141.176 2.39786L141.29 1.40444ZM149.431 2.61356C150.781 2.85947 152.126 3.12739 153.467 3.4172L153.256 4.39462C151.926 4.10712 150.591 3.84133 149.252 3.59737L149.431 2.61356ZM157.475 4.35248C158.805 4.68607 160.131 5.0414 161.45 5.41835L161.175 6.37986C159.866 6.00592 158.552 5.6534 157.232 5.32247L157.475 4.35248ZM165.388 6.6137C166.693 7.03346 167.992 7.47467 169.284 7.93717L168.947 8.87866C167.666 8.41984 166.377 7.98214 165.082 7.56571L165.388 6.6137ZM173.136 9.38745C174.411 9.89163 175.679 10.4169 176.938 10.9631L176.54 11.8805C175.291 11.3386 174.033 10.8176 172.768 10.3174L173.136 9.38745ZM180.686 12.662C181.925 13.2484 183.155 13.8554 184.377 14.4829L183.92 15.3724C182.708 14.7498 181.487 14.1476 180.258 13.566L180.686 12.662ZM188.006 16.4238C189.204 17.0897 190.392 17.7758 191.569 18.482L191.055 19.3396C189.887 18.639 188.708 17.9584 187.52 17.2978L188.006 16.4238ZM195.064 20.656C196.215 21.3988 197.356 22.1613 198.485 22.9435L197.916 23.7657C196.796 22.9897 195.664 22.2332 194.522 21.4963L195.064 20.656ZM201.83 25.3409C202.38 25.7495 202.928 26.1629 203.473 26.5811L202.864 27.3743C202.323 26.9594 201.78 26.5493 201.234 26.144L201.83 25.3409ZM204.16 26.8473C204.232 27.3949 203.846 27.8972 203.299 27.9691L194.375 29.1423C193.828 29.2143 193.326 28.8288 193.254 28.2812C193.182 27.7336 193.567 27.2314 194.115 27.1594L202.047 26.1166L201.004 18.1848C200.932 17.6373 201.317 17.135 201.865 17.063C202.412 16.991 202.915 17.3765 202.987 17.9241L204.16 26.8473ZM110.566 2.14882L110.436 1.15737L110.566 2.14882ZM27.5444 50.0852L26.7509 49.4766L27.5444 50.0852ZM3.7268 142.576C3.79888 143.123 3.41344 143.626 2.86588 143.698C2.31832 143.77 1.816 143.385 1.74391 142.837L3.7268 142.576ZM1.49085 140.785C1.42772 140.237 1.82132 139.741 2.36999 139.678C2.91865 139.615 3.41461 140.008 3.47774 140.557L1.49085 140.785ZM3.07903 136.51C3.12419 137.061 2.71459 137.544 2.16415 137.589C1.61372 137.634 1.13089 137.224 1.08572 136.674L3.07903 136.51ZM0.815169 132.55C0.788036 131.998 1.21321 131.529 1.76483 131.502C2.31645 131.475 2.78562 131.9 2.81275 132.452L0.815169 132.55ZM2.67943 128.387C2.6885 128.939 2.2482 129.394 1.69599 129.403C1.14378 129.412 0.688775 128.972 0.679704 128.42L2.67943 128.387ZM0.679453 124.288C0.688457 123.736 1.14341 123.295 1.69562 123.304C2.24783 123.313 2.68819 123.768 2.67919 124.32L0.679453 124.288ZM2.81204 120.255C2.78497 120.807 2.31584 121.232 1.76422 121.205C1.2126 121.178 0.787372 120.709 0.814443 120.157L2.81204 120.255ZM1.08451 116.034C1.12962 115.483 1.61241 115.074 2.16285 115.119C2.71329 115.164 3.12294 115.647 3.07783 116.197L1.08451 116.034ZM3.47623 112.15C3.41314 112.699 2.91721 113.093 2.36854 113.029C1.81987 112.966 1.42623 112.47 1.48932 111.922L3.47623 112.15ZM2.02851 107.825C2.10952 107.278 2.61806 106.901 3.16437 106.982C3.71068 107.063 4.08789 107.572 4.00688 108.118L2.02851 107.825ZM4.66912 104.105C4.57028 104.649 4.04968 105.009 3.50631 104.91C2.96294 104.811 2.60257 104.291 2.7014 103.747L4.66912 104.105ZM3.50725 99.6946C3.6238 99.1548 4.15591 98.8116 4.69576 98.9282C5.23561 99.0447 5.57876 99.5768 5.46221 100.117L3.50725 99.6946ZM6.38536 96.1559C6.25121 96.6916 5.70816 97.0172 5.17242 96.8831C4.63667 96.7489 4.3111 96.2059 4.44525 95.6701L6.38536 96.1559ZM5.51433 91.6785C5.66592 91.1475 6.21933 90.8398 6.7504 90.9914C7.28148 91.143 7.58911 91.6964 7.43752 92.2275L5.51433 91.6785ZM8.61761 88.3355C8.44873 88.8614 7.88556 89.1508 7.35973 88.9819C6.83389 88.813 6.54453 88.2498 6.7134 87.724L8.61761 88.3355ZM8.04111 83.8109C8.22709 83.2909 8.79943 83.0201 9.31946 83.2061C9.83948 83.3921 10.1103 83.9644 9.92429 84.4844L8.04111 83.8109ZM11.3563 80.678C11.1534 81.1917 10.5725 81.4436 10.0588 81.2407C9.54517 81.0378 9.29325 80.4569 9.49614 79.9433L11.3563 80.678ZM11.077 76.1251C11.2966 75.6183 11.8854 75.3856 12.3922 75.6052C12.8989 75.8248 13.1317 76.4136 12.9121 76.9203L11.077 76.1251ZM14.5899 73.216C14.3538 73.7153 13.7577 73.9287 13.2584 73.6926C12.7591 73.4566 12.5457 72.8604 12.7818 72.3612L14.5899 73.216ZM14.609 68.6547C14.8612 68.1634 15.464 67.9697 15.9553 68.2219C16.4466 68.4742 16.6404 69.077 16.3881 69.5683L14.609 68.6547ZM18.3049 65.9811C18.0367 66.4639 17.4279 66.6378 16.9451 66.3696C16.4624 66.1014 16.2884 65.4926 16.5567 65.0098L18.3049 65.9811ZM18.6222 61.4313C18.9061 60.9576 19.5203 60.8037 19.994 61.0876C20.4677 61.3714 20.6217 61.9856 20.3378 62.4594L18.6222 61.4313ZM22.485 59.0056C22.1858 59.4698 21.5669 59.6035 21.1027 59.3042C20.6385 59.005 20.5048 58.3861 20.8041 57.9219L22.485 59.0056ZM23.0999 54.4854C23.4142 54.0312 24.0371 53.9178 24.4913 54.2321C24.9454 54.5464 25.0588 55.1693 24.7445 55.6234L23.0999 54.4854ZM27.1127 52.3181C26.7838 52.7617 26.1575 52.8547 25.7138 52.5258C25.2702 52.1968 25.1772 51.5705 25.5062 51.1269L27.1127 52.3181ZM28.0223 47.8471C28.3656 47.4145 28.9946 47.3421 29.4272 47.6853C29.8598 48.0286 29.9323 48.6576 29.589 49.0903L28.0223 47.8471ZM32.1677 45.9473C31.8104 46.3685 31.1794 46.4204 30.7582 46.0631C30.337 45.7059 30.2852 45.0748 30.6424 44.6536L32.1677 45.9473ZM33.3666 41.5465C33.7374 41.1373 34.3698 41.1061 34.7791 41.477C35.1883 41.8478 35.2195 42.4802 34.8486 42.8894L33.3666 41.5465ZM37.6279 39.9214C37.2438 40.3183 36.6107 40.3287 36.2138 39.9447C35.8169 39.5606 35.8065 38.9276 36.1905 38.5306L37.6279 39.9214ZM39.1113 35.6092C39.5082 35.2251 40.1412 35.2354 40.5254 35.6322C40.9095 36.029 40.8992 36.6621 40.5024 37.0462L39.1113 35.6092ZM43.4701 34.2662C43.0609 34.6371 42.4285 34.6061 42.0576 34.1969C41.6867 33.7877 41.7177 33.1553 42.1269 32.7844L43.4701 34.2662ZM45.233 30.06C45.6541 29.7026 46.2851 29.7543 46.6425 30.1755C46.9998 30.5966 46.9481 31.2276 46.527 31.5849L45.233 30.06ZM49.6698 29.0055C49.2372 29.3488 48.6082 29.2765 48.2648 28.8439C47.9215 28.4113 47.9938 27.7823 48.4264 27.4389L49.6698 29.0055ZM51.7042 24.9235C52.1478 24.5945 52.7741 24.6874 53.1032 25.131C53.4322 25.5745 53.3393 26.2009 52.8957 26.5299L51.7042 24.9235ZM56.2008 24.1613C55.7466 24.4756 55.1237 24.3623 54.8094 23.9082C54.4951 23.4541 54.6084 22.8312 55.0625 22.5168L56.2008 24.1613ZM58.4976 20.2214C58.9617 19.9221 59.5806 20.0557 59.8799 20.5199C60.1792 20.9841 60.0456 21.6029 59.5814 21.9023L58.4976 20.2214ZM63.0344 19.7549C62.5607 20.0388 61.9465 19.885 61.6625 19.4113C61.3786 18.9376 61.5324 18.3234 62.0061 18.0395L63.0344 19.7549ZM65.584 15.9735C66.0668 15.7052 66.6756 15.8791 66.9439 16.3618C67.2122 16.8445 67.0384 17.4534 66.5557 17.7217L65.584 15.9735ZM70.1416 15.8047C69.6504 16.0571 69.0475 15.8634 68.7952 15.3722C68.5428 14.8809 68.7365 14.2781 69.2277 14.0257L70.1416 15.8047ZM72.933 12.1983C73.4323 11.9621 74.0284 12.1754 74.2646 12.6746C74.5008 13.1739 74.2875 13.77 73.7882 14.0062L72.933 12.1983ZM77.4918 12.3279C76.9851 12.5476 76.3963 12.3149 76.1766 11.8082C75.9569 11.3015 76.1896 10.7126 76.6963 10.493L77.4918 12.3279ZM80.5135 8.91165C81.0271 8.70866 81.6081 8.96049 81.8111 9.47411C82.014 9.98774 81.7622 10.5687 81.2486 10.7717L80.5135 8.91165ZM85.0538 9.3394C84.5338 9.52547 83.9614 9.25476 83.7753 8.73476C83.5893 8.21477 83.86 7.64239 84.38 7.45632L85.0538 9.3394ZM88.2923 6.12824C88.8181 5.95931 89.3814 6.24861 89.5503 6.77442C89.7192 7.30023 89.4299 7.86344 88.9041 8.03238L88.2923 6.12824ZM92.7955 6.85205C92.2644 7.00368 91.711 6.69609 91.5594 6.16503C91.4077 5.63396 91.7153 5.08054 92.2464 4.9289L92.7955 6.85205ZM96.2368 3.8599C96.7725 3.72574 97.3156 4.05128 97.4498 4.58703C97.5839 5.12277 97.2584 5.66583 96.7226 5.79999L96.2368 3.8599ZM100.683 4.87696C100.143 4.9935 99.6107 4.65035 99.4941 4.11051C99.3776 3.57066 99.7207 3.03855 100.261 2.922L100.683 4.87696ZM104.313 2.11623C104.857 2.01741 105.377 2.3778 105.476 2.92117C105.575 3.46455 105.215 3.98514 104.671 4.08395L104.313 2.11623ZM108.682 3.4221C108.136 3.50309 107.628 3.12586 107.547 2.57956C107.466 2.03324 107.843 1.5247 108.389 1.44372L108.682 3.4221ZM112.487 0.90451C113.036 0.841436 113.532 1.23508 113.595 1.78375C113.658 2.33242 113.264 2.82834 112.716 2.89143L112.487 0.90451ZM116.762 2.49317C116.211 2.53827 115.729 2.12862 115.683 1.57818C115.638 1.02773 116.048 0.544954 116.598 0.499854L116.762 2.49317ZM120.722 0.229846C121.274 0.202782 121.743 0.628022 121.77 1.17965C121.797 1.73127 121.372 2.20038 120.82 2.22744L120.722 0.229846ZM124.884 2.09473C124.332 2.10372 123.877 1.66334 123.868 1.11113C123.859 0.558918 124.299 0.10398 124.852 0.0949973L124.884 2.09473ZM128.983 0.0954268C129.535 0.104531 129.975 0.559563 129.966 1.11177C129.957 1.66398 129.502 2.10426 128.95 2.09516L128.983 0.0954268ZM133.014 2.22875C132.463 2.20157 132.038 1.73236 132.065 1.18075C132.092 0.629132 132.561 0.203988 133.113 0.231172L133.014 2.22875ZM137.236 0.502052C137.786 0.547271 138.196 1.03015 138.151 1.58058C138.105 2.13101 137.622 2.54056 137.072 2.49533L137.236 0.502052ZM141.118 2.89458C140.57 2.83135 140.176 2.33534 140.239 1.78668C140.303 1.23803 140.799 0.844501 141.347 0.907725L141.118 2.89458ZM145.444 1.44782C145.99 1.52896 146.367 2.03759 146.286 2.58389C146.205 3.13018 145.696 3.50725 145.15 3.42612L145.444 1.44782ZM149.162 4.08928C148.619 3.9903 148.258 3.4696 148.357 2.92626C148.456 2.38291 148.977 2.02268 149.52 2.12166L149.162 4.08928ZM153.573 2.92848C154.112 3.04518 154.455 3.57739 154.339 4.11721C154.222 4.65702 153.69 5.00002 153.15 4.88333L153.573 2.92848ZM157.11 5.80746C156.574 5.67317 156.249 5.13002 156.383 4.59432C156.517 4.05861 157.061 3.7332 157.596 3.86749L157.11 5.80746ZM161.587 4.93759C162.118 5.08934 162.426 5.64284 162.274 6.17387C162.122 6.7049 161.569 7.01236 161.038 6.86062L161.587 4.93759ZM164.929 8.04171C164.403 7.87268 164.114 7.30942 164.283 6.78364C164.452 6.25785 165.015 5.96866 165.541 6.1377L164.929 8.04171ZM169.453 7.46642C169.973 7.65256 170.243 8.22499 170.057 8.74496C169.871 9.26493 169.299 9.53554 168.779 9.3494L169.453 7.46642ZM172.584 10.7824C172.071 10.5793 171.819 9.99837 172.022 9.48477C172.225 8.97117 172.806 8.71942 173.32 8.92248L172.584 10.7824ZM177.137 10.5044C177.644 10.7241 177.876 11.313 177.656 11.8197C177.437 12.3264 176.848 12.559 176.341 12.3392L177.137 10.5044ZM180.044 14.0179C179.545 13.7817 179.332 13.1855 179.568 12.6863C179.804 12.1871 180.401 11.9739 180.9 12.2101L180.044 14.0179ZM184.605 14.0382C185.096 14.2906 185.29 14.8935 185.038 15.3847C184.785 15.8759 184.182 16.0695 183.691 15.8171L184.605 14.0382ZM187.277 17.7348C186.794 17.4664 186.621 16.8575 186.889 16.3749C187.157 15.8922 187.766 15.7184 188.249 15.9868L187.277 17.7348ZM191.826 18.0532C192.3 18.3372 192.454 18.9515 192.17 19.4251C191.886 19.8988 191.271 20.0525 190.798 19.7684L191.826 18.0532ZM194.251 21.9165C193.786 21.6171 193.653 20.9982 193.952 20.5341C194.252 20.07 194.871 19.9365 195.335 20.2359L194.251 21.9165ZM198.77 22.5324C199.224 22.8468 199.337 23.4698 199.023 23.9239C198.709 24.3779 198.086 24.4911 197.632 24.1767L198.77 22.5324ZM200.936 26.5456C200.492 26.2165 200.399 25.5901 200.729 25.1466C201.058 24.7031 201.684 24.6103 202.127 24.9394L200.936 26.5456ZM1.74391 142.837C1.65389 142.153 1.56955 141.469 1.49085 140.785L3.47774 140.557C3.55519 141.23 3.63821 141.903 3.7268 142.576L1.74391 142.837ZM1.08572 136.674C0.972903 135.299 0.882765 133.924 0.815169 132.55L2.81275 132.452C2.87928 133.804 2.96799 135.157 3.07903 136.51L1.08572 136.674ZM0.679704 128.42C0.65706 127.041 0.657023 125.664 0.679453 124.288L2.67919 124.32C2.65711 125.674 2.65715 127.03 2.67943 128.387L0.679704 128.42ZM0.814443 120.157C0.88202 118.78 0.972091 117.406 1.08451 116.034L3.07783 116.197C2.96719 117.547 2.87854 118.9 2.81204 120.255L0.814443 120.157ZM1.48932 111.922C1.64678 110.552 1.82655 109.187 2.02851 107.825L4.00688 108.118C3.80812 109.458 3.63119 110.803 3.47623 112.15L1.48932 111.922ZM2.7014 103.747C2.94797 102.392 3.21663 101.041 3.50725 99.6946L5.46221 100.117C5.17619 101.441 4.91178 102.771 4.66912 104.105L2.7014 103.747ZM4.44525 95.6701C4.77983 94.3339 5.13624 93.0032 5.51433 91.6785L7.43752 92.2275C7.06541 93.5311 6.71464 94.8408 6.38536 96.1559L4.44525 95.6701ZM6.7134 87.724C7.1345 86.4128 7.57712 85.1083 8.04111 83.8109L9.92429 84.4844C9.46765 85.7612 9.03204 87.0451 8.61761 88.3355L6.7134 87.724ZM9.49614 79.9433C10.002 78.6627 10.529 77.3898 11.077 76.1251L12.9121 76.9203C12.3728 78.165 11.8541 79.4177 11.3563 80.678L9.49614 79.9433ZM12.7818 72.3612C13.3701 71.1168 13.9792 69.8811 14.609 68.6547L16.3881 69.5683C15.7684 70.7752 15.1689 71.9913 14.5899 73.216L12.7818 72.3612ZM16.5567 65.0098C17.2249 63.807 17.9135 62.614 18.6222 61.4313L20.3378 62.4594C19.6402 63.6233 18.9626 64.7974 18.3049 65.9811L16.5567 65.0098ZM20.8041 57.9219C21.5495 56.7655 22.3149 55.6198 23.0999 54.4854L24.7445 55.6234C23.9719 56.7399 23.2187 57.8675 22.485 59.0056L20.8041 57.9219ZM25.5062 51.1269C25.9163 50.5738 26.3312 50.0237 26.7509 49.4766L28.3378 50.6939C27.9247 51.2324 27.5163 51.7738 27.1127 52.3181L25.5062 51.1269ZM26.7509 49.4766C27.1706 48.9295 27.5944 48.3864 28.0223 47.8471L29.589 49.0903C29.1679 49.621 28.7508 50.1555 28.3378 50.6939L26.7509 49.4766ZM30.6424 44.6536C31.5347 43.6017 32.4429 42.5659 33.3666 41.5465L34.8486 42.8894C33.9396 43.8927 33.0458 44.9121 32.1677 45.9473L30.6424 44.6536ZM36.1905 38.5306C37.1492 37.5399 38.1229 36.566 39.1113 35.6092L40.5024 37.0462C39.5296 37.9879 38.5713 38.9463 37.6279 39.9214L36.1905 38.5306ZM42.1269 32.7844C43.1481 31.8586 44.1836 30.9504 45.233 30.06L46.527 31.5849C45.4943 32.4613 44.4751 33.3551 43.4701 34.2662L42.1269 32.7844ZM48.4264 27.4389C49.5058 26.5822 50.5985 25.7436 51.7042 24.9235L52.8957 26.5299C51.8075 27.337 50.7321 28.1623 49.6698 29.0055L48.4264 27.4389ZM55.0625 22.5168C56.1952 21.7328 57.3404 20.9676 58.4976 20.2214L59.5814 21.9023C58.4426 22.6366 57.3155 23.3897 56.2008 24.1613L55.0625 22.5168ZM62.0061 18.0395C63.1874 17.3314 64.3802 16.6426 65.584 15.9735L66.5557 17.7217C65.3709 18.3802 64.197 19.058 63.0344 19.7549L62.0061 18.0395ZM69.2277 14.0257C70.4525 13.3966 71.6877 12.7873 72.933 12.1983L73.7882 14.0062C72.5627 14.5859 71.347 15.1855 70.1416 15.8047L69.2277 14.0257ZM76.6963 10.493C77.9593 9.94534 79.2319 9.41814 80.5135 8.91165L81.2486 10.7717C79.9873 11.2701 78.7349 11.789 77.4918 12.3279L76.6963 10.493ZM84.38 7.45632C85.6757 6.99267 86.98 6.54988 88.2923 6.12824L88.9041 8.03238C87.6126 8.44733 86.329 8.8831 85.0538 9.3394L84.38 7.45632ZM92.2464 4.9289C93.5692 4.55122 94.8995 4.19479 96.2368 3.8599L96.7226 5.79999C95.4065 6.12957 94.0973 6.48035 92.7955 6.85205L92.2464 4.9289ZM100.261 2.922C101.605 2.63171 102.956 2.36302 104.313 2.11623L104.671 4.08395C103.336 4.32684 102.006 4.59127 100.683 4.87696L100.261 2.922ZM108.389 1.44372C109.07 1.34277 109.752 1.24731 110.436 1.15737L110.697 3.14027C110.024 3.2288 109.353 3.32275 108.682 3.4221L108.389 1.44372ZM110.436 1.15737C111.12 1.06742 111.803 0.983143 112.487 0.90451L112.716 2.89143C112.043 2.9688 111.37 3.05175 110.697 3.14027L110.436 1.15737ZM116.598 0.499854C117.973 0.387202 119.348 0.297242 120.722 0.229846L120.82 2.22744C119.468 2.29378 118.115 2.3823 116.762 2.49317L116.598 0.499854ZM124.852 0.0949973C126.23 0.0725637 127.607 0.0727557 128.983 0.0954268L128.95 2.09516C127.596 2.07284 126.241 2.07266 124.884 2.09473L124.852 0.0949973ZM133.113 0.231172C134.49 0.299003 135.864 0.389349 137.236 0.502052L137.072 2.49533C135.722 2.38441 134.369 2.2955 133.014 2.22875L133.113 0.231172ZM141.347 0.907725C142.716 1.06547 144.082 1.24555 145.444 1.44782L145.15 3.42612C143.81 3.22706 142.466 3.04982 141.118 2.89458L141.347 0.907725ZM149.52 2.12166C150.876 2.36855 152.227 2.63754 153.573 2.92848L153.15 4.88333C151.825 4.59698 150.496 4.33225 149.162 4.08928L149.52 2.12166ZM157.596 3.86749C158.932 4.2024 160.263 4.55915 161.587 4.93759L161.038 6.86062C159.734 6.48817 158.425 6.13707 157.11 5.80746L157.596 3.86749ZM165.541 6.1377C166.852 6.55913 168.156 7.00209 169.453 7.46642L168.779 9.3494C167.502 8.89242 166.219 8.45648 164.929 8.04171L165.541 6.1377ZM173.32 8.92248C174.6 9.42865 175.872 9.95599 177.137 10.5044L176.341 12.3392C175.097 11.7995 173.844 11.2805 172.584 10.7824L173.32 8.92248ZM180.9 12.2101C182.144 12.7987 183.379 13.4082 184.605 14.0382L183.691 15.8171C182.484 15.197 181.269 14.5972 180.044 14.0179L180.9 12.2101ZM188.249 15.9868C189.451 16.6553 190.644 17.3442 191.826 18.0532L190.798 19.7684C189.634 19.0706 188.46 18.3927 187.277 17.7348L188.249 15.9868ZM195.335 20.2359C196.491 20.9816 197.636 21.7471 198.77 22.5324L197.632 24.1767C196.515 23.4039 195.388 22.6504 194.251 21.9165L195.335 20.2359ZM202.127 24.9394C202.68 25.3495 203.23 25.7646 203.777 26.1844L202.559 27.7709C202.021 27.3577 201.48 26.9492 200.936 26.5456L202.127 24.9394Z" fill="#EE4A65"/>
</svg>
