<svg width="65" height="30" viewBox="0 0 65 30" fill="none" xmlns="http://www.w3.org/2000/svg">
<path d="M32.4122 0L32.4209 0.321694C32.6371 8.33004 39.0731 14.7739 47.0811 15C39.0731 15.2261 32.6371 21.67 32.4209 29.6783L32.4122 30L32.4035 29.6783C32.1873 21.67 25.7514 15.2261 17.7433 15C25.7514 14.7739 32.1873 8.33004 32.4035 0.321694L32.4122 0Z" fill="white"/>
<path d="M64.5 15.0001C64.5 16.2825 63.7233 17.5832 62.1359 18.8383C60.5539 20.089 58.2339 21.2373 55.3224 22.2109C49.5047 24.1564 41.4357 25.3684 32.5 25.3684C23.5643 25.3684 15.4953 24.1564 9.6776 22.2109C6.76615 21.2373 4.44608 20.089 2.86411 18.8383C1.27669 17.5832 0.5 16.2825 0.5 15.0001C0.5 13.7177 1.27669 12.417 2.86411 11.1619C4.44608 9.91115 6.76615 8.76288 9.6776 7.78926C15.4953 5.84377 23.5643 4.63184 32.5 4.63184C41.4357 4.63184 49.5047 5.84377 55.3224 7.78926C58.2339 8.76288 60.5539 9.91115 62.1359 11.1619C63.7233 12.417 64.5 13.7177 64.5 15.0001Z" stroke="white"/>
</svg>
