<svg width="335" height="335" viewBox="0 0 335 335" fill="none" xmlns="http://www.w3.org/2000/svg">
<path d="M335 256.208H0V256.376H335V256.208Z" fill="#EBEBEB"/>
<path d="M301.433 266.988H279.242V267.156H301.433V266.988Z" fill="#EBEBEB"/>
<path d="M221.917 268.811H216.095V268.978H221.917V268.811Z" fill="#EBEBEB"/>
<path d="M278.572 260.771H265.715V260.938H278.572V260.771Z" fill="#EBEBEB"/>
<path d="M64.0857 261.896H35.1484V262.064H64.0857V261.896Z" fill="#EBEBEB"/>
<path d="M74.296 261.896H70.0549V262.064H74.296V261.896Z" fill="#EBEBEB"/>
<path d="M150.851 264.724H88.085V264.891H150.851V264.724Z" fill="#EBEBEB"/>
<path d="M158.789 226.326H29.4186C28.4051 226.324 27.4338 225.92 26.7178 225.203C26.0018 224.486 25.5996 223.514 25.5996 222.5V40.6422C25.6084 39.6345 26.0145 38.671 26.7295 37.961C27.4446 37.2509 28.4109 36.8517 29.4186 36.85H158.789C159.804 36.85 160.777 37.253 161.494 37.9705C162.212 38.688 162.615 39.661 162.615 40.6757V222.5C162.615 223.515 162.212 224.488 161.494 225.205C160.777 225.923 159.804 226.326 158.789 226.326ZM29.4186 36.984C28.4496 36.9858 27.5208 37.3719 26.8362 38.0578C26.1516 38.7437 25.7671 39.6731 25.7671 40.6422V222.5C25.7671 223.469 26.1516 224.399 26.8362 225.085C27.5208 225.771 28.4496 226.157 29.4186 226.158H158.789C159.759 226.157 160.688 225.771 161.374 225.085C162.059 224.399 162.445 223.47 162.447 222.5V40.6422C162.445 39.6725 162.059 38.7431 161.374 38.0574C160.688 37.3717 159.759 36.9857 158.789 36.984H29.4186Z" fill="#EBEBEB"/>
<path d="M303.717 226.326H174.34C173.326 226.324 172.354 225.921 171.637 225.204C170.92 224.486 170.516 223.514 170.515 222.5V40.6422C170.525 39.6339 170.933 38.6704 171.649 37.9606C172.365 37.2507 173.332 36.8517 174.34 36.85H303.717C304.724 36.8535 305.689 37.2535 306.402 37.9633C307.116 38.6732 307.521 39.6357 307.53 40.6422V222.5C307.53 223.513 307.128 224.484 306.414 225.201C305.699 225.918 304.73 226.322 303.717 226.326ZM174.34 36.984C173.371 36.9857 172.441 37.3717 171.756 38.0574C171.07 38.7431 170.684 39.6725 170.682 40.6422V222.5C170.684 223.47 171.07 224.399 171.756 225.085C172.441 225.771 173.371 226.157 174.34 226.158H303.717C304.687 226.157 305.616 225.771 306.302 225.085C306.988 224.399 307.374 223.47 307.376 222.5V40.6422C307.374 39.6725 306.988 38.7431 306.302 38.0574C305.616 37.3717 304.687 36.9857 303.717 36.984H174.34Z" fill="#EBEBEB"/>
<path d="M237.134 65.754C237.135 65.3212 237.05 64.8926 236.884 64.4929C236.718 64.0933 236.474 63.7305 236.167 63.4258C235.86 63.121 235.495 62.8803 235.094 62.7175C234.693 62.5548 234.263 62.4732 233.831 62.4777C233.511 62.4776 233.193 62.5227 232.886 62.6117C232.934 62.2789 232.959 61.943 232.96 61.6067C232.96 59.7722 232.233 58.0124 230.938 56.7127C229.643 55.413 227.887 54.6793 226.052 54.6722C225.623 54.6726 225.195 54.7107 224.772 54.7861C224.088 53.6622 223.057 52.7913 221.835 52.3048C220.613 51.8182 219.265 51.7424 217.996 52.0889C216.727 52.4353 215.605 53.1851 214.799 54.2252C213.993 55.2653 213.548 56.5392 213.53 57.8547H213.429C211.98 57.9049 210.607 58.5159 209.599 59.559C208.591 60.602 208.028 61.9956 208.028 63.4458C208.028 64.8961 208.591 66.2896 209.599 67.3327C210.607 68.3758 211.98 68.9868 213.429 69.037H233.945C234.799 69.0126 235.61 68.6559 236.206 68.0429C236.801 67.4298 237.134 66.6087 237.134 65.754Z" fill="#F0F0F0"/>
<path d="M225.087 70.6516V64.2665H219.881V70.6516H215.64L222.487 76.4404L229.335 70.6516H225.087Z" fill="#E0E0E0"/>
<path d="M134.455 75.4152C134.455 73.5701 133.723 71.8005 132.419 70.4952C131.115 69.1899 129.346 68.4557 127.501 68.4539C126.82 68.4549 126.143 68.5541 125.491 68.7487C125.599 68.0414 125.652 67.3269 125.651 66.6114C125.651 62.7021 124.098 58.9529 121.334 56.1886C118.57 53.4243 114.821 51.8714 110.911 51.8714C110.001 51.8712 109.092 51.9564 108.198 52.126C106.746 49.7384 104.557 47.8879 101.961 46.8538C99.3647 45.8197 96.5028 45.6581 93.8069 46.3933C91.111 47.1286 88.7274 48.7208 87.0159 50.9297C85.3043 53.1386 84.3578 55.8443 84.319 58.6384H84.1046C82.5222 58.6008 80.9483 58.88 79.4754 59.4596C78.0025 60.0391 76.6603 60.9074 75.5278 62.0133C74.3954 63.1191 73.4955 64.4403 72.8811 65.899C72.2667 67.3577 71.9502 68.9246 71.9502 70.5074C71.9502 72.0903 72.2667 73.6571 72.8811 75.1159C73.4955 76.5746 74.3954 77.8957 75.5278 79.0016C76.6603 80.1075 78.0025 80.9757 79.4754 81.5553C80.9483 82.1349 82.5222 82.4141 84.1046 82.3765H127.688C129.501 82.3276 131.223 81.5724 132.487 80.272C133.751 78.9716 134.458 77.2288 134.455 75.4152Z" fill="#F0F0F0"/>
<path d="M97.8201 75.9514V89.5189H108.882V75.9514H117.893L103.348 63.6636L88.8086 75.9514H97.8201Z" fill="#E0E0E0"/>
<path d="M140.009 109.297V91.0533H195.873V109.117" stroke="#E6E6E6" stroke-width="0.67" stroke-miterlimit="10"/>
<path d="M168.766 73.861V109.25" stroke="#E6E6E6" stroke-width="0.67" stroke-miterlimit="10"/>
<path d="M178.274 66.913H159.273C158.833 66.913 158.476 67.2699 158.476 67.7103V79.0132C158.476 79.4535 158.833 79.8105 159.273 79.8105H178.274C178.714 79.8105 179.071 79.4535 179.071 79.0132V67.7103C179.071 67.2699 178.714 66.913 178.274 66.913Z" fill="#F0F0F0"/>
<path d="M178.072 68.4274H159.466C159.311 68.4274 159.185 68.5534 159.185 68.7088V79.0134C159.185 79.1688 159.311 79.2948 159.466 79.2948H178.072C178.227 79.2948 178.353 79.1688 178.353 79.0134V68.7088C178.353 68.5534 178.227 68.4274 178.072 68.4274Z" fill="#E0E0E0"/>
<path d="M149.511 107.642H130.509C130.069 107.642 129.712 107.999 129.712 108.44V119.742C129.712 120.183 130.069 120.54 130.509 120.54H149.511C149.951 120.54 150.308 120.183 150.308 119.742V108.44C150.308 107.999 149.951 107.642 149.511 107.642Z" fill="#F0F0F0"/>
<path d="M149.309 109.157H130.703C130.548 109.157 130.422 109.283 130.422 109.438V119.743C130.422 119.898 130.548 120.024 130.703 120.024H149.309C149.465 120.024 149.591 119.898 149.591 119.743V109.438C149.591 109.283 149.465 109.157 149.309 109.157Z" fill="#E0E0E0"/>
<path d="M178.274 107.642H159.273C158.833 107.642 158.476 107.999 158.476 108.44V119.742C158.476 120.183 158.833 120.54 159.273 120.54H178.274C178.714 120.54 179.071 120.183 179.071 119.742V108.44C179.071 107.999 178.714 107.642 178.274 107.642Z" fill="#F0F0F0"/>
<path d="M178.072 109.157H159.466C159.311 109.157 159.185 109.283 159.185 109.438V119.743C159.185 119.898 159.311 120.024 159.466 120.024H178.072C178.227 120.024 178.353 119.898 178.353 119.743V109.438C178.353 109.283 178.227 109.157 178.072 109.157Z" fill="#E0E0E0"/>
<path d="M205.422 107.642H186.42C185.98 107.642 185.623 107.999 185.623 108.44V119.742C185.623 120.183 185.98 120.54 186.42 120.54H205.422C205.862 120.54 206.219 120.183 206.219 119.742V108.44C206.219 107.999 205.862 107.642 205.422 107.642Z" fill="#F0F0F0"/>
<path d="M205.221 109.157H186.615C186.46 109.157 186.334 109.283 186.334 109.438V119.743C186.334 119.898 186.46 120.024 186.615 120.024H205.221C205.377 120.024 205.503 119.898 205.503 119.743V109.438C205.503 109.283 205.377 109.157 205.221 109.157Z" fill="#E0E0E0"/>
<path d="M168.381 85.5261L163.236 90.6712C163.024 90.8831 163.024 91.2267 163.236 91.4387L168.381 96.5837C168.593 96.7957 168.937 96.7957 169.149 96.5837L174.294 91.4387C174.506 91.2267 174.506 90.8831 174.294 90.6712L169.149 85.5261C168.937 85.3142 168.593 85.3142 168.381 85.5261Z" fill="#E0E0E0"/>
<path opacity="0.8" d="M59.6898 82.1757H46.2831C45.9612 82.1757 45.7002 82.4366 45.7002 82.7586V90.3229C45.7002 90.6448 45.9612 90.9058 46.2831 90.9058H59.6898C60.0117 90.9058 60.2727 90.6448 60.2727 90.3229V82.7586C60.2727 82.4366 60.0117 82.1757 59.6898 82.1757Z" fill="#E0E0E0"/>
<path d="M49.4583 100.956H38.8388C38.5168 100.956 38.2559 101.217 38.2559 101.539V107.039C38.2559 107.361 38.5168 107.622 38.8388 107.622H49.4583C49.7802 107.622 50.0412 107.361 50.0412 107.039V101.539C50.0412 101.217 49.7802 100.956 49.4583 100.956Z" fill="#E0E0E0"/>
<path d="M67.342 100.956H56.7226C56.4006 100.956 56.1396 101.217 56.1396 101.539V107.039C56.1396 107.361 56.4006 107.622 56.7226 107.622H67.342C67.664 107.622 67.9249 107.361 67.9249 107.039V101.539C67.9249 101.217 67.664 100.956 67.342 100.956Z" fill="#E0E0E0"/>
<path d="M56.3473 115.066H51.329C51.0071 115.066 50.7461 115.327 50.7461 115.649V120.178C50.7461 120.5 51.0071 120.761 51.329 120.761H56.3473C56.6692 120.761 56.9302 120.5 56.9302 120.178V115.649C56.9302 115.327 56.6692 115.066 56.3473 115.066Z" fill="#E0E0E0"/>
<path d="M64.1989 115.066H59.1806C58.8586 115.066 58.5977 115.327 58.5977 115.649V120.178C58.5977 120.5 58.8586 120.761 59.1806 120.761H64.1989C64.5208 120.761 64.7818 120.5 64.7818 120.178V115.649C64.7818 115.327 64.5208 115.066 64.1989 115.066Z" fill="#E0E0E0"/>
<path d="M72.0582 115.066H67.0399C66.718 115.066 66.457 115.327 66.457 115.649V120.178C66.457 120.5 66.718 120.761 67.0399 120.761H72.0582C72.3802 120.761 72.6411 120.5 72.6411 120.178V115.649C72.6411 115.327 72.3802 115.066 72.0582 115.066Z" fill="#E0E0E0"/>
<path d="M38.1705 115.066H33.1522C32.8303 115.066 32.5693 115.327 32.5693 115.649V120.178C32.5693 120.5 32.8303 120.761 33.1522 120.761H38.1705C38.4925 120.761 38.7534 120.5 38.7534 120.178V115.649C38.7534 115.327 38.4925 115.066 38.1705 115.066Z" fill="#E0E0E0"/>
<path d="M46.6928 115.066H41.6745C41.3525 115.066 41.0916 115.327 41.0916 115.649V120.178C41.0916 120.5 41.3525 120.761 41.6745 120.761H46.6928C47.0147 120.761 47.2757 120.5 47.2757 120.178V115.649C47.2757 115.327 47.0147 115.066 46.6928 115.066Z" fill="#E0E0E0"/>
<path d="M61.3585 100.956H62.0285V96.2656H53.3185V90.9056H52.6485V96.2656H43.9385V100.956H44.6085V96.9356H61.3585V100.956Z" fill="#E0E0E0"/>
<path d="M43.9385 111.676H35.2285V115.026H35.8985V112.346H43.9385V115.026H44.6085V107.656H43.9385V111.676Z" fill="#E0E0E0"/>
<path d="M62.0286 112.346V107.656H61.3586V112.346H53.3186V115.026H53.9886V113.016H61.3586V115.026H62.0286V113.016H69.3986V115.026H70.0686V112.346H62.0286Z" fill="#E0E0E0"/>
<path d="M255.27 84.2728V89.1102L257.749 89.3447C258.081 90.9303 258.708 92.4393 259.598 93.7935L258.003 95.7164L261.407 99.12L263.33 97.5254C264.682 98.4174 266.192 99.0449 267.778 99.3746L268 101.84H272.81L273.045 99.3612C274.631 99.0315 276.141 98.404 277.493 97.512L279.416 99.1066L282.82 95.703L281.232 93.8002C282.121 92.446 282.749 90.937 283.081 89.3514L285.56 89.1169V84.3063L283.081 84.0718C282.75 82.4879 282.122 80.9808 281.232 79.6297L282.827 77.7068L279.423 74.3032L277.5 75.8911C276.146 75.0017 274.637 74.3744 273.051 74.0419L272.817 71.5629H268L267.765 74.0419C266.179 74.3744 264.67 75.0017 263.316 75.8911L261.393 74.3032L257.99 77.7068L259.584 79.6297C258.694 80.9808 258.067 82.4879 257.735 84.0718L255.27 84.2728ZM270.418 80.1657C271.708 80.1657 272.969 80.5482 274.041 81.2648C275.113 81.9814 275.949 83 276.442 84.1916C276.935 85.3832 277.064 86.6943 276.812 87.959C276.559 89.2238 275.938 90.3854 275.026 91.2968C274.113 92.2083 272.951 92.8286 271.686 93.0794C270.421 93.3302 269.11 93.2001 267.919 92.7057C266.728 92.2113 265.71 91.3747 264.995 90.3017C264.279 89.2288 263.898 87.9677 263.899 86.6781C263.901 84.9514 264.588 83.296 265.809 82.0751C267.029 80.8541 268.685 80.1674 270.412 80.1657H270.418Z" fill="#F5F5F5"/>
<path d="M258.372 119.394C259.615 119.133 260.797 118.64 261.856 117.94L263.364 119.193L266.044 116.513L264.797 115.006C265.494 113.945 265.984 112.763 266.245 111.522L268.188 111.334V107.562L266.245 107.381C265.986 106.139 265.495 104.957 264.797 103.897L266.044 102.39L263.364 99.7096L261.856 100.956C260.796 100.259 259.614 99.7675 258.372 99.5086L258.191 97.5656H254.419L254.238 99.5086C252.996 99.7675 251.814 100.259 250.754 100.956L249.24 99.7364L246.56 102.416L247.806 103.924C247.109 104.984 246.618 106.166 246.359 107.408L244.416 107.589V111.361L246.359 111.549C246.619 112.79 247.11 113.972 247.806 115.033L246.56 116.527L249.24 119.207L250.748 117.954C251.807 118.653 252.989 119.146 254.232 119.408L254.412 121.344H258.185L258.372 119.394ZM251.196 109.465C251.195 108.453 251.494 107.464 252.055 106.623C252.616 105.781 253.414 105.125 254.348 104.737C255.282 104.349 256.31 104.247 257.302 104.443C258.294 104.64 259.205 105.126 259.921 105.841C260.637 106.556 261.124 107.466 261.322 108.458C261.52 109.45 261.419 110.478 261.032 111.413C260.645 112.347 259.99 113.146 259.149 113.708C258.309 114.27 257.32 114.57 256.309 114.57C254.954 114.57 253.655 114.033 252.696 113.075C251.738 112.118 251.198 110.819 251.196 109.465Z" fill="#F5F5F5"/>
<path d="M249.957 98.9792L251.223 100.024L253.467 97.7866L252.415 96.5203C253.003 95.63 253.417 94.6366 253.635 93.5924L255.263 93.4383V90.2759L253.635 90.1218C253.417 89.0777 253.003 88.0842 252.415 87.1939L253.467 85.9276L251.25 83.6898L249.983 84.735C249.095 84.1488 248.104 83.7352 247.062 83.5156L246.908 81.8875H243.739L243.585 83.5156C242.541 83.7338 241.547 84.1475 240.657 84.735L239.391 83.6898L237.153 85.9276L238.198 87.1939C237.613 88.0846 237.201 89.0781 236.985 90.1218L235.351 90.2759V93.4383L236.985 93.5924C237.201 94.6361 237.613 95.6296 238.198 96.5203L237.126 97.8201L239.364 100.058L240.63 99.0127C241.519 99.6008 242.513 100.012 243.558 100.225L243.712 101.86H246.881L247.035 100.225C248.08 100.001 249.072 99.5779 249.957 98.9792ZM241.005 91.8571C241.005 91.009 241.257 90.18 241.728 89.4748C242.199 88.7697 242.869 88.2201 243.652 87.8955C244.436 87.571 245.298 87.486 246.13 87.6515C246.962 87.817 247.726 88.2254 248.325 88.825C248.925 89.4247 249.334 90.1888 249.499 91.0206C249.664 91.8524 249.58 92.7145 249.255 93.4981C248.93 94.2816 248.381 94.9513 247.676 95.4225C246.971 95.8936 246.141 96.1451 245.293 96.1451C244.156 96.1451 243.065 95.6933 242.261 94.8892C241.457 94.085 241.005 92.9944 241.005 91.8571Z" fill="#F5F5F5"/>
<path d="M294.392 217.1H249.401V246.359H294.392V217.1Z" fill="#F5F5F5"/>
<path d="M292.737 222.588H251.043V244.899H292.737V222.588Z" fill="#E0E0E0"/>
<path d="M285.286 225.924H254.439V226.882H285.286V225.924Z" fill="#F5F5F5"/>
<path d="M269.24 228.859H254.439V229.817H269.24V228.859Z" fill="#F5F5F5"/>
<path d="M273.079 231.8H254.439V232.758H273.079V231.8Z" fill="#F5F5F5"/>
<path d="M261.005 234.741H254.439V235.699H261.005V234.741Z" fill="#F5F5F5"/>
<path d="M258.694 237.683H254.439V238.641H258.694V237.683Z" fill="#F5F5F5"/>
<path d="M64.0455 216.934L32.0332 217.08L32.1228 236.824L64.1351 236.679L64.0455 216.934Z" fill="#EBEBEB"/>
<path d="M44.3141 231.86C44.1722 231.861 44.0337 231.816 43.9188 231.733L38.0831 227.465C37.9986 227.403 37.9298 227.323 37.8821 227.23C37.8344 227.137 37.8092 227.034 37.8084 226.929C37.8073 226.824 37.8311 226.72 37.8776 226.626C37.9242 226.531 37.9923 226.449 38.0764 226.386L43.8786 222.065C44.0216 221.959 44.2008 221.915 44.3767 221.941C44.5526 221.967 44.7109 222.062 44.8166 222.206C44.9223 222.349 44.9669 222.528 44.9405 222.704C44.9141 222.88 44.8189 223.038 44.6759 223.144L39.604 226.922L44.7094 230.648C44.8242 230.731 44.9097 230.848 44.9536 230.983C44.9975 231.118 44.9974 231.263 44.9535 231.398C44.9095 231.533 44.824 231.65 44.7091 231.733C44.5942 231.816 44.4559 231.861 44.3141 231.86Z" fill="#FAFAFA"/>
<path d="M51.8989 231.82C51.7938 231.821 51.6899 231.797 51.5956 231.751C51.5013 231.704 51.4193 231.636 51.3562 231.552C51.3038 231.481 51.2658 231.401 51.2445 231.315C51.2232 231.23 51.219 231.141 51.2321 231.054C51.2451 230.967 51.2752 230.883 51.3207 230.808C51.3662 230.732 51.426 230.666 51.4969 230.614L56.5688 226.835L51.4634 223.11C51.3204 223.004 51.2252 222.846 51.1988 222.67C51.1724 222.494 51.217 222.315 51.3227 222.172C51.4285 222.029 51.5867 221.934 51.7626 221.907C51.9385 221.881 52.1177 221.926 52.2607 222.031L58.0964 226.293C58.1818 226.355 58.2512 226.437 58.2989 226.531C58.3467 226.625 58.3714 226.73 58.3711 226.835C58.3711 226.939 58.3469 227.042 58.3004 227.135C58.2539 227.228 58.1864 227.309 58.1031 227.371L52.3009 231.693C52.1841 231.777 52.0432 231.822 51.8989 231.82Z" fill="#FAFAFA"/>
<path d="M46.5789 231.854C46.5035 231.853 46.4287 231.839 46.3578 231.814C46.1912 231.754 46.0547 231.632 45.9782 231.472C45.9016 231.313 45.8912 231.13 45.9491 230.963L48.9574 222.36C48.9864 222.277 49.0316 222.2 49.0902 222.134C49.1489 222.069 49.2199 222.015 49.2992 221.977C49.3785 221.939 49.4646 221.916 49.5525 221.911C49.6405 221.906 49.7285 221.919 49.8117 221.948C49.8948 221.977 49.9714 222.022 50.0371 222.081C50.1028 222.139 50.1563 222.21 50.1946 222.29C50.2329 222.369 50.2551 222.455 50.2601 222.543C50.2651 222.631 50.2527 222.719 50.2237 222.802L47.2154 231.405C47.1693 231.537 47.0832 231.651 46.9691 231.731C46.855 231.812 46.7185 231.855 46.5789 231.854Z" fill="#FAFAFA"/>
<path d="M167.499 286.465C239.244 286.465 297.405 283.07 297.405 278.881C297.405 274.692 239.244 271.297 167.499 271.297C95.7536 271.297 37.5925 274.692 37.5925 278.881C37.5925 283.07 95.7536 286.465 167.499 286.465Z" fill="#F5F5F5"/>
<path d="M224.035 278.881H228.96L235.66 241.87H230.735L224.035 278.881Z" fill="#F94962"/>
<path opacity="0.2" d="M224.035 278.881H228.96L235.66 241.87H230.735L224.035 278.881Z" fill="white"/>
<path opacity="0.2" d="M224.035 278.881H227.62L234.32 241.87H230.735L224.035 278.881Z" fill="white"/>
<path d="M210.173 252.878H229.864C230.007 252.879 230.148 252.851 230.28 252.797C230.412 252.743 230.532 252.663 230.633 252.562C230.734 252.461 230.814 252.341 230.868 252.209C230.923 252.077 230.95 251.935 230.949 251.792C230.95 251.65 230.923 251.508 230.868 251.376C230.814 251.244 230.734 251.124 230.633 251.023C230.532 250.922 230.412 250.842 230.28 250.788C230.148 250.734 230.007 250.706 229.864 250.707H210.173C210.03 250.706 209.888 250.734 209.756 250.788C209.624 250.842 209.504 250.922 209.403 251.023C209.302 251.124 209.222 251.244 209.168 251.376C209.114 251.508 209.086 251.65 209.087 251.792C209.086 251.935 209.114 252.077 209.168 252.209C209.222 252.341 209.302 252.461 209.403 252.562C209.504 252.663 209.624 252.743 209.756 252.797C209.888 252.851 210.03 252.879 210.173 252.878Z" fill="#F94962"/>
<path d="M207.982 265.273H227.68C227.969 265.271 228.245 265.155 228.448 264.951C228.651 264.746 228.766 264.469 228.766 264.181C228.764 263.894 228.649 263.618 228.446 263.415C228.243 263.212 227.967 263.097 227.68 263.095H207.982C207.695 263.097 207.42 263.212 207.217 263.415C207.013 263.618 206.898 263.894 206.897 264.181C206.897 264.469 207.011 264.746 207.214 264.951C207.418 265.155 207.694 265.271 207.982 265.273Z" fill="#F94962"/>
<path d="M203.935 278.881H208.86L215.56 241.87H210.635L203.935 278.881Z" fill="#F94962"/>
<path opacity="0.2" d="M203.935 278.881H208.86L215.56 241.87H210.635L203.935 278.881Z" fill="white"/>
<path opacity="0.2" d="M203.935 278.881H207.52L214.22 241.87H210.635L203.935 278.881Z" fill="white"/>
<path d="M249.73 278.881H244.806L238.106 241.87H243.03L249.73 278.881Z" fill="#F94962"/>
<path opacity="0.4" d="M249.73 278.881H244.806L238.106 241.87H243.03L249.73 278.881Z" fill="white"/>
<path opacity="0.2" d="M248.39 278.881H244.806L238.106 241.87H241.69L248.39 278.881Z" fill="white"/>
<path d="M241.08 252.878H221.382C221.094 252.878 220.818 252.764 220.614 252.56C220.411 252.356 220.296 252.08 220.296 251.792C220.296 251.505 220.411 251.229 220.614 251.025C220.818 250.821 221.094 250.707 221.382 250.707H241.08C241.368 250.707 241.644 250.821 241.847 251.025C242.051 251.229 242.165 251.505 242.165 251.792C242.165 252.08 242.051 252.356 241.847 252.56C241.644 252.764 241.368 252.878 241.08 252.878Z" fill="#F94962"/>
<path d="M243.264 265.273H223.573C223.43 265.273 223.288 265.245 223.156 265.19C223.024 265.135 222.904 265.054 222.803 264.953C222.702 264.851 222.622 264.731 222.568 264.598C222.514 264.466 222.486 264.324 222.487 264.181C222.487 263.893 222.602 263.617 222.805 263.413C223.009 263.21 223.285 263.096 223.573 263.096H243.264C243.552 263.096 243.828 263.21 244.032 263.413C244.235 263.617 244.349 263.893 244.349 264.181C244.35 264.324 244.323 264.466 244.269 264.598C244.215 264.731 244.135 264.851 244.034 264.953C243.933 265.054 243.813 265.135 243.681 265.19C243.549 265.245 243.407 265.273 243.264 265.273Z" fill="#F94962"/>
<path opacity="0.2" d="M241.08 252.878H221.382C221.094 252.878 220.818 252.764 220.614 252.56C220.411 252.356 220.296 252.08 220.296 251.792C220.296 251.505 220.411 251.229 220.614 251.025C220.818 250.821 221.094 250.707 221.382 250.707H241.08C241.368 250.707 241.644 250.821 241.847 251.025C242.051 251.229 242.165 251.505 242.165 251.792C242.165 252.08 242.051 252.356 241.847 252.56C241.644 252.764 241.368 252.878 241.08 252.878Z" fill="white"/>
<path opacity="0.2" d="M243.264 265.273H223.573C223.43 265.273 223.288 265.245 223.156 265.19C223.024 265.135 222.904 265.054 222.803 264.953C222.702 264.851 222.622 264.731 222.568 264.598C222.514 264.466 222.486 264.324 222.487 264.181C222.487 263.893 222.602 263.617 222.805 263.413C223.009 263.21 223.285 263.096 223.573 263.096H243.264C243.552 263.096 243.828 263.21 244.032 263.413C244.235 263.617 244.349 263.893 244.349 264.181C244.35 264.324 244.323 264.466 244.269 264.598C244.215 264.731 244.135 264.851 244.034 264.953C243.933 265.054 243.813 265.135 243.681 265.19C243.549 265.245 243.407 265.273 243.264 265.273Z" fill="white"/>
<path d="M229.631 278.881H224.706L218.006 241.87H222.931L229.631 278.881Z" fill="#F94962"/>
<path opacity="0.4" d="M229.631 278.881H224.706L218.006 241.87H222.931L229.631 278.881Z" fill="white"/>
<path opacity="0.2" d="M228.291 278.881H224.706L218.006 241.87H221.591L228.291 278.881Z" fill="white"/>
<path d="M244.946 240.101H209.376C208.935 240.101 208.578 240.458 208.578 240.898V242.835C208.578 243.275 208.935 243.632 209.376 243.632H244.946C245.386 243.632 245.743 243.275 245.743 242.835V240.898C245.743 240.458 245.386 240.101 244.946 240.101Z" fill="#F94962"/>
<path opacity="0.2" d="M222.896 240.101H209.376C208.935 240.101 208.578 240.458 208.578 240.898V242.835C208.578 243.275 208.935 243.632 209.376 243.632H222.896C223.337 243.632 223.694 243.275 223.694 242.835V240.898C223.694 240.458 223.337 240.101 222.896 240.101Z" fill="white"/>
<path d="M130.215 249.14H85.2244V278.399H130.215V249.14Z" fill="#2848BD"/>
<path opacity="0.6" d="M130.215 249.14H85.2244V278.399H130.215V249.14Z" fill="white"/>
<path d="M128.573 254.627H86.8718V276.938H128.573V254.627Z" fill="#2848BD"/>
<path d="M121.116 257.957H90.2693V258.915H121.116V257.957Z" fill="white"/>
<path d="M105.07 260.898H90.2693V261.856H105.07V260.898Z" fill="white"/>
<path d="M108.909 263.84H90.2693V264.798H108.909V263.84Z" fill="white"/>
<path d="M96.8353 266.774H90.2693V267.732H96.8353V266.774Z" fill="white"/>
<path d="M94.5238 269.715H90.2693V270.673H94.5238V269.715Z" fill="white"/>
<path d="M185.811 278.881H149.189L155.386 230.192H179.613L185.811 278.881Z" fill="#2848BD"/>
<path opacity="0.6" d="M185.811 278.881H149.189L153.43 245.569L155.393 230.192H179.607L182.501 252.878L185.811 278.881Z" fill="white"/>
<path opacity="0.1" d="M182.502 252.878L153.431 245.569L155.394 230.192H179.608L182.502 252.878Z" fill="black"/>
<path d="M253.843 110.135H81.1568C80.5764 110.135 80.0017 110.249 79.4655 110.471C78.9294 110.694 78.4424 111.02 78.0323 111.43C77.6222 111.841 77.2971 112.329 77.0756 112.865C76.8541 113.401 76.7406 113.976 76.7415 114.557V231.458C76.7415 232.629 77.2066 233.752 78.0347 234.58C78.8627 235.408 79.9857 235.874 81.1568 235.874H253.843C255.014 235.874 256.137 235.408 256.965 234.58C257.793 233.752 258.258 232.629 258.258 231.458V114.57C258.26 113.989 258.148 113.412 257.928 112.874C257.707 112.336 257.382 111.847 256.972 111.435C256.561 111.023 256.074 110.696 255.537 110.473C255 110.25 254.424 110.135 253.843 110.135Z" fill="#2848BD"/>
<path opacity="0.7" d="M253.843 110.135H81.1568C80.5764 110.135 80.0017 110.249 79.4655 110.471C78.9294 110.694 78.4424 111.02 78.0323 111.43C77.6222 111.841 77.2971 112.329 77.0756 112.865C76.8541 113.401 76.7406 113.976 76.7415 114.557V231.458C76.7415 232.629 77.2066 233.752 78.0347 234.58C78.8627 235.408 79.9857 235.874 81.1568 235.874H253.843C255.014 235.874 256.137 235.408 256.965 234.58C257.793 233.752 258.258 232.629 258.258 231.458V114.57C258.26 113.989 258.148 113.412 257.928 112.874C257.707 112.336 257.382 111.847 256.972 111.435C256.561 111.023 256.074 110.696 255.537 110.473C255 110.25 254.424 110.135 253.843 110.135Z" fill="white"/>
<path d="M252.449 114.463H82.5569V227.19H252.449V114.463Z" fill="#2848BD"/>
<path d="M198.253 275.222H136.74C136.355 275.222 136.043 275.534 136.043 275.919V278.124C136.043 278.508 136.355 278.82 136.74 278.82H198.253C198.638 278.82 198.95 278.508 198.95 278.124V275.919C198.95 275.534 198.638 275.222 198.253 275.222Z" fill="#2848BD"/>
<path opacity="0.7" d="M198.253 275.222H136.74C136.355 275.222 136.043 275.534 136.043 275.919V278.124C136.043 278.508 136.355 278.82 136.74 278.82H198.253C198.638 278.82 198.95 278.508 198.95 278.124V275.919C198.95 275.534 198.638 275.222 198.253 275.222Z" fill="white"/>
<path opacity="0.2" d="M252.449 114.57H82.5569V131.373H252.449V114.57Z" fill="black"/>
<path opacity="0.4" d="M155.359 131.575H82.5569V227.19H155.359V131.575Z" fill="white"/>
<path d="M226.299 155.963V157.638H224.624" stroke="white" stroke-width="0.67" stroke-miterlimit="10"/>
<path d="M221.087 157.638H166.214" stroke="white" stroke-width="0.67" stroke-miterlimit="10" stroke-dasharray="3.54 3.54"/>
<path d="M164.445 157.638H162.77V155.963" stroke="white" stroke-width="0.67" stroke-miterlimit="10"/>
<path d="M162.77 152.928V124.097" stroke="white" stroke-width="0.67" stroke-miterlimit="10" stroke-dasharray="3.03 3.03"/>
<path d="M162.77 122.583V120.908H164.445" stroke="white" stroke-width="0.67" stroke-miterlimit="10"/>
<path d="M167.982 120.908H222.855" stroke="white" stroke-width="0.67" stroke-miterlimit="10" stroke-dasharray="3.54 3.54"/>
<path d="M224.624 120.908H226.299V122.583" stroke="white" stroke-width="0.67" stroke-miterlimit="10"/>
<path d="M226.299 125.618V154.448" stroke="white" stroke-width="0.67" stroke-miterlimit="10" stroke-dasharray="3.03 3.03"/>
<path d="M227.364 119.843H225.24V121.967H227.364V119.843Z" fill="#2848BD" stroke="white" stroke-width="0.67" stroke-miterlimit="10"/>
<path d="M227.364 156.579H225.24V158.703H227.364V156.579Z" fill="#2848BD" stroke="white" stroke-width="0.67" stroke-miterlimit="10"/>
<path d="M163.828 119.843H161.704V121.967H163.828V119.843Z" fill="#2848BD" stroke="white" stroke-width="0.67" stroke-miterlimit="10"/>
<path d="M163.828 156.579H161.704V158.703H163.828V156.579Z" fill="#2848BD" stroke="white" stroke-width="0.67" stroke-miterlimit="10"/>
<path d="M195.6 119.843H193.476V121.967H195.6V119.843Z" fill="#2848BD" stroke="white" stroke-width="0.67" stroke-miterlimit="10"/>
<path d="M195.6 156.579H193.476V158.703H195.6V156.579Z" fill="#2848BD" stroke="white" stroke-width="0.67" stroke-miterlimit="10"/>
<path d="M227.364 138.208H225.24V140.332H227.364V138.208Z" fill="#2848BD" stroke="white" stroke-width="0.67" stroke-miterlimit="10"/>
<path d="M163.828 138.208H161.704V140.332H163.828V138.208Z" fill="#2848BD" stroke="white" stroke-width="0.67" stroke-miterlimit="10"/>
<path opacity="0.7" d="M220.53 133.243H204.979C204.28 133.243 203.713 133.81 203.713 134.509V138.67C203.713 139.369 204.28 139.936 204.979 139.936H220.53C221.229 139.936 221.796 139.369 221.796 138.67V134.509C221.796 133.81 221.229 133.243 220.53 133.243Z" fill="white"/>
<path opacity="0.7" d="M193.731 133.243H178.18C177.481 133.243 176.914 133.81 176.914 134.509V138.67C176.914 139.369 177.481 139.936 178.18 139.936H193.731C194.43 139.936 194.997 139.369 194.997 138.67V134.509C194.997 133.81 194.43 133.243 193.731 133.243Z" fill="white"/>
<path opacity="0.7" d="M159.232 214.708H143.682C142.982 214.708 142.415 215.275 142.415 215.974V220.135C142.415 220.834 142.982 221.401 143.682 221.401H159.232C159.932 221.401 160.499 220.834 160.499 220.135V215.974C160.499 215.275 159.932 214.708 159.232 214.708Z" fill="white"/>
<path d="M241.234 120.546H246.888" stroke="white" stroke-width="1.005" stroke-linecap="round" stroke-linejoin="round"/>
<path d="M241.234 123.227H246.888" stroke="white" stroke-width="1.005" stroke-linecap="round" stroke-linejoin="round"/>
<path d="M241.234 125.906H246.888" stroke="white" stroke-width="1.005" stroke-linecap="round" stroke-linejoin="round"/>
<path opacity="0.5" d="M151.058 146.395H94.0745V203.378H151.058V146.395Z" fill="white"/>
<path d="M117.927 151.051V200.209" stroke="#2848BD" stroke-width="0.67" stroke-miterlimit="10"/>
<path d="M142.501 200.209C135.982 200.209 129.729 197.619 125.119 193.009C120.509 188.399 117.919 182.147 117.919 175.627V175.627C117.919 169.109 120.508 162.858 125.117 158.249C129.726 153.641 135.977 151.051 142.495 151.051V151.051" stroke="#2848BD" stroke-width="0.67" stroke-miterlimit="10"/>
<path d="M143.568 149.993H141.444V152.117H143.568V149.993Z" fill="white" stroke="#2848BD" stroke-width="0.67" stroke-miterlimit="10"/>
<path d="M143.568 199.144H141.444V201.268H143.568V199.144Z" fill="white" stroke="#2848BD" stroke-width="0.67" stroke-miterlimit="10"/>
<path d="M118.991 174.568H116.867V176.692H118.991V174.568Z" fill="white" stroke="#2848BD" stroke-width="0.67" stroke-miterlimit="10"/>
<path d="M118.476 151.052C118.476 151.16 118.444 151.266 118.383 151.357C118.323 151.447 118.237 151.518 118.137 151.559C118.036 151.601 117.926 151.612 117.819 151.59C117.713 151.569 117.615 151.517 117.538 151.44C117.461 151.363 117.409 151.265 117.388 151.159C117.366 151.052 117.377 150.942 117.419 150.841C117.46 150.741 117.531 150.655 117.621 150.595C117.711 150.534 117.818 150.502 117.926 150.502C118.072 150.504 118.21 150.562 118.313 150.665C118.416 150.768 118.474 150.906 118.476 151.052Z" fill="white" stroke="#2848BD" stroke-width="0.67" stroke-miterlimit="10"/>
<path d="M118.476 200.209C118.476 200.318 118.444 200.424 118.384 200.514C118.324 200.604 118.238 200.674 118.138 200.716C118.038 200.758 117.928 200.769 117.822 200.749C117.715 200.728 117.617 200.676 117.54 200.6C117.463 200.524 117.41 200.427 117.388 200.321C117.366 200.214 117.376 200.104 117.417 200.004C117.457 199.903 117.527 199.817 117.616 199.756C117.706 199.695 117.811 199.661 117.92 199.66C117.992 199.659 118.065 199.673 118.132 199.7C118.199 199.727 118.261 199.767 118.312 199.818C118.364 199.87 118.405 199.93 118.433 199.998C118.461 200.065 118.476 200.137 118.476 200.209Z" fill="white" stroke="#2848BD" stroke-width="0.67" stroke-miterlimit="10"/>
<path opacity="0.7" d="M212.343 215.519H195.091C193.768 215.519 192.501 214.994 191.566 214.059C190.631 213.124 190.106 211.856 190.106 210.534C190.106 209.212 190.631 207.944 191.566 207.009C192.501 206.074 193.768 205.549 195.091 205.549H212.343C213.665 205.549 214.933 206.074 215.868 207.009C216.803 207.944 217.328 209.212 217.328 210.534C217.328 211.856 216.803 213.124 215.868 214.059C214.933 214.994 213.665 215.519 212.343 215.519Z" fill="white"/>
<path opacity="0.7" d="M227.498 173.007H174.2C173.91 173.007 173.632 172.892 173.428 172.688C173.223 172.483 173.108 172.205 173.108 171.915C173.113 171.63 173.231 171.358 173.435 171.158C173.639 170.959 173.914 170.848 174.2 170.85H227.492C227.635 170.849 227.777 170.877 227.909 170.931C228.041 170.985 228.162 171.065 228.263 171.166C228.365 171.266 228.445 171.386 228.5 171.519C228.555 171.651 228.584 171.792 228.584 171.935C228.578 172.22 228.462 172.492 228.259 172.692C228.056 172.893 227.783 173.006 227.498 173.007Z" fill="white"/>
<path opacity="0.7" d="M227.498 180.96H174.2C174.057 180.961 173.915 180.934 173.782 180.879C173.65 180.825 173.529 180.745 173.428 180.645C173.326 180.544 173.246 180.424 173.191 180.292C173.136 180.16 173.108 180.018 173.108 179.875C173.108 179.585 173.223 179.307 173.428 179.103C173.632 178.898 173.91 178.783 174.2 178.783H227.492C227.781 178.783 228.059 178.898 228.264 179.103C228.469 179.307 228.584 179.585 228.584 179.875C228.584 180.163 228.469 180.439 228.266 180.642C228.062 180.846 227.786 180.96 227.498 180.96Z" fill="white"/>
<path opacity="0.7" d="M227.498 188.94H194.299C194.011 188.94 193.734 188.826 193.53 188.622C193.325 188.419 193.209 188.143 193.207 187.854C193.207 187.565 193.322 187.287 193.527 187.082C193.732 186.877 194.01 186.762 194.299 186.762H227.491C227.781 186.762 228.059 186.877 228.263 187.082C228.468 187.287 228.583 187.565 228.583 187.854C228.582 188.142 228.467 188.417 228.263 188.62C228.06 188.823 227.785 188.938 227.498 188.94Z" fill="white"/>
<path opacity="0.4" d="M91.6907 119.226H87.9253V122.992H91.6907V119.226Z" fill="black"/>
<path opacity="0.4" d="M98.0401 119.226H96.2043C95.6715 119.226 95.2395 119.658 95.2395 120.191V122.027C95.2395 122.56 95.6715 122.992 96.2043 122.992H98.0401C98.573 122.992 99.0049 122.56 99.0049 122.027V120.191C99.0049 119.658 98.573 119.226 98.0401 119.226Z" fill="black"/>
<path opacity="0.4" d="M104.606 119.226H104.285C103.334 119.226 102.563 119.997 102.563 120.948V121.27C102.563 122.221 103.334 122.992 104.285 122.992H104.606C105.557 122.992 106.328 122.221 106.328 121.27V120.948C106.328 119.997 105.557 119.226 104.606 119.226Z" fill="black"/>
<path opacity="0.9" d="M99.4611 212.055V210.588L98.7107 210.521C98.6035 210.044 98.413 209.591 98.1479 209.181L98.6303 208.598L97.5918 207.559L97.0089 208.042C96.5989 207.776 96.1452 207.586 95.6689 207.479L95.6019 206.728H94.1346L94.0609 207.479C93.5847 207.586 93.1311 207.777 92.7209 208.042L92.138 207.559L91.0995 208.598L91.5819 209.181C91.3114 209.588 91.1204 210.042 91.0191 210.521L90.262 210.588V212.055L91.0191 212.129C91.1209 212.607 91.3118 213.061 91.5819 213.469L91.0995 214.058L92.138 215.09L92.7209 214.608C93.1282 214.878 93.5828 215.069 94.0609 215.17L94.1346 215.928H95.6019L95.6689 215.17C96.147 215.069 96.6017 214.878 97.0089 214.608L97.5918 215.09L98.6303 214.058L98.1479 213.469C98.4153 213.06 98.606 212.606 98.7107 212.129L99.4611 212.055ZM94.8448 213.308C94.4472 213.308 94.0586 213.19 93.7281 212.969C93.3975 212.748 93.1399 212.434 92.9878 212.067C92.8356 211.7 92.7958 211.296 92.8734 210.906C92.9509 210.516 93.1424 210.158 93.4235 209.877C93.7046 209.595 94.0627 209.404 94.4526 209.326C94.8425 209.249 95.2467 209.289 95.614 209.441C95.9812 209.593 96.2952 209.851 96.516 210.181C96.7369 210.512 96.8548 210.9 96.8548 211.298C96.8548 211.831 96.643 212.342 96.266 212.719C95.8891 213.096 95.3778 213.308 94.8448 213.308Z" fill="white"/>
<path opacity="0.6" d="M105.41 216.195V215.07L104.821 215.01C104.741 214.632 104.591 214.273 104.379 213.951L104.754 213.489L103.943 212.678L103.487 213.06C103.163 212.848 102.802 212.698 102.422 212.618L102.369 212.021H101.216L101.163 212.618C100.783 212.698 100.422 212.848 100.097 213.06L99.6416 212.678L98.8242 213.489L99.2061 213.951C98.9939 214.273 98.8439 214.632 98.7639 215.01L98.1743 215.07V216.216L98.7639 216.276C98.8439 216.653 98.9939 217.012 99.2061 217.334L98.8242 217.797L99.6416 218.607L100.097 218.226C100.422 218.438 100.783 218.588 101.163 218.668L101.216 219.257H102.369L102.422 218.668C102.802 218.588 103.163 218.438 103.487 218.226L103.943 218.607L104.754 217.797L104.379 217.334C104.591 217.012 104.741 216.653 104.821 216.276L105.41 216.195ZM101.792 217.18C101.483 217.182 101.181 217.091 100.923 216.921C100.666 216.75 100.464 216.506 100.345 216.221C100.226 215.936 100.194 215.622 100.254 215.319C100.313 215.016 100.461 214.737 100.679 214.518C100.897 214.299 101.176 214.149 101.479 214.089C101.782 214.028 102.096 214.058 102.381 214.176C102.667 214.294 102.911 214.494 103.083 214.751C103.255 215.008 103.347 215.31 103.347 215.619C103.348 215.824 103.308 216.027 103.23 216.216C103.153 216.406 103.038 216.578 102.894 216.723C102.749 216.868 102.578 216.983 102.389 217.061C102.2 217.14 101.997 217.18 101.792 217.18Z" fill="white"/>
<path opacity="0.4" d="M99.4624 219.458V218.494L98.9666 218.447C98.9001 218.129 98.7752 217.827 98.5981 217.556L98.9197 217.174L98.2497 216.504L97.8611 216.819C97.5895 216.642 97.2873 216.517 96.97 216.45L96.9231 215.954H95.9449L95.898 216.45C95.5807 216.517 95.2785 216.642 95.0069 216.819L94.6183 216.504L93.9483 217.174L94.2699 217.556C94.0929 217.827 93.9679 218.129 93.9014 218.447L93.3989 218.494V219.458L93.9014 219.505C93.9667 219.825 94.0917 220.13 94.2699 220.403L93.9483 220.785L94.6183 221.455L95.0069 221.133C95.2767 221.315 95.5794 221.443 95.898 221.509L95.9449 222.004H96.9097L96.9566 221.509C97.2753 221.443 97.5779 221.315 97.8477 221.133L98.2363 221.455L98.9063 220.785L98.5847 220.403C98.763 220.13 98.888 219.825 98.9532 219.505L99.4624 219.458ZM96.4273 220.283C96.1705 220.276 95.9212 220.194 95.7108 220.046C95.5004 219.899 95.3382 219.692 95.2444 219.453C95.1507 219.214 95.1295 218.952 95.1837 218.701C95.2378 218.45 95.3648 218.22 95.5488 218.041C95.7327 217.862 95.9655 217.74 96.218 217.693C96.4705 217.645 96.7315 217.673 96.9682 217.773C97.205 217.872 97.4071 218.04 97.5493 218.254C97.6914 218.468 97.7672 218.719 97.7673 218.976C97.7674 219.15 97.7325 219.323 97.6648 219.484C97.597 219.645 97.4978 219.79 97.3729 219.912C97.248 220.034 97.1 220.129 96.9376 220.193C96.7752 220.257 96.6017 220.287 96.4273 220.283Z" fill="white"/>
<path d="M225.91 120.526L228.75 128.124L233.501 123.367L225.91 120.526Z" fill="#2848BD"/>
<path d="M230.486 124.04L229.424 125.101L231.779 127.455L232.84 126.394L230.486 124.04Z" fill="#2848BD"/>
<path opacity="0.4" d="M233.501 123.367L225.91 120.526L228.75 128.124L230.6 126.275L231.772 127.454L232.831 126.396L231.658 125.216L233.501 123.367Z" fill="white"/>
<path d="M109.519 147.681L116.667 150.361L112.922 146.616C112.784 146.696 112.623 146.728 112.464 146.707C112.305 146.687 112.158 146.614 112.044 146.502C111.906 146.363 111.828 146.175 111.828 145.979C111.828 145.783 111.906 145.595 112.044 145.457C112.183 145.318 112.371 145.24 112.567 145.24C112.763 145.24 112.951 145.318 113.09 145.457C113.202 145.571 113.274 145.718 113.295 145.876C113.315 146.035 113.283 146.196 113.204 146.335L116.949 150.08L114.269 142.931L111.897 143.454L111.81 142.603L111.361 142.154L108.735 144.78L109.184 145.229L110.041 145.316L109.519 147.681Z" fill="#F94962"/>
<path opacity="0.2" d="M109.519 147.681L116.667 150.361L112.922 146.616C112.784 146.696 112.623 146.728 112.464 146.707C112.305 146.687 112.158 146.614 112.044 146.502C111.906 146.363 111.828 146.175 111.828 145.979C111.828 145.783 111.906 145.595 112.044 145.457C112.183 145.318 112.371 145.24 112.567 145.24C112.763 145.24 112.951 145.318 113.09 145.457C113.202 145.571 113.274 145.718 113.295 145.876C113.315 146.035 113.283 146.196 113.204 146.335L116.949 150.08L114.269 142.931L111.897 143.454L111.81 142.603L111.361 142.154L108.735 144.78L109.184 145.229L110.041 145.316L109.519 147.681Z" fill="white"/>
<g opacity="0.1">
<path d="M107.4 114.463L82.2217 208.544V114.463H107.4Z" fill="white"/>
<path d="M135.816 114.463L105.646 227.19H84.8623L115.026 114.463H135.816Z" fill="white"/>
<path d="M166.031 114.463L135.861 227.19H126.461L156.631 114.463H166.031Z" fill="white"/>
<path d="M193.857 114.463L163.687 227.19H160.323L190.493 114.463H193.857Z" fill="white"/>
</g>
<path d="M296.074 139.36C298.453 142.1 310.553 165.41 308.215 170.85C305.876 176.291 286.486 170.019 286.486 170.019L287.646 162.334C287.646 162.334 295.176 162.602 295.9 161.886C296.624 161.169 285.709 150.274 285.709 150.274L296.074 139.36Z" fill="#F94962"/>
<path opacity="0.2" d="M306.8 172.264L306.412 172.438H306.358C306.238 172.489 306.115 172.531 305.99 172.565C305.445 172.74 304.884 172.857 304.315 172.914L303.825 172.961C303.584 172.961 303.343 172.994 303.095 173.001H302.425C295.926 173.001 286.472 169.952 286.472 169.952L287.631 162.267C287.631 162.267 296.114 162.984 296.837 162.267C296.971 161.986 296.033 161.035 294.646 159.822C292.516 157.202 288.248 152.841 286.486 151.058L291.39 145.819L295.122 145.417C295.122 145.417 303.383 158.79 306.8 172.264Z" fill="black"/>
<path d="M271.626 138.57C270.286 139.541 269.616 140.921 270.152 141.652L305.555 190.461C306.084 191.191 307.605 190.99 308.945 190.019C310.285 189.047 310.955 187.661 310.419 186.937L275.016 138.121C274.487 137.397 272.973 137.591 271.626 138.57Z" fill="#F94962"/>
<path opacity="0.7" d="M275.016 138.121L310.419 186.93C310.948 187.654 310.285 189.034 308.945 190.012C307.605 190.99 306.084 191.178 305.561 190.454L270.159 141.638C270.023 141.384 269.964 141.096 269.986 140.809C270.009 140.522 270.113 140.247 270.286 140.017C270.467 139.694 270.692 139.399 270.956 139.139C271.161 138.927 271.385 138.734 271.626 138.563C272.973 137.598 274.487 137.397 275.016 138.121Z" fill="white"/>
<path opacity="0.3" d="M310.418 186.93C310.947 187.654 310.284 189.034 308.944 190.012C307.604 190.99 306.083 191.178 305.561 190.454C305.266 190.052 305.996 189.443 306.425 188.565L270.285 140.03C270.466 139.707 270.692 139.412 270.955 139.152L306.365 187.969C306.573 187.757 306.797 187.562 307.035 187.386C308.375 186.407 309.889 186.206 310.418 186.93Z" fill="black"/>
<path d="M267.244 137.216C266.112 138.422 265.723 139.896 266.38 140.519L310.399 181.731C311.069 182.347 312.509 181.865 313.642 180.652C314.774 179.44 315.163 177.972 314.506 177.342L270.487 136.131C269.83 135.521 268.377 136.01 267.244 137.216Z" fill="#2848BD"/>
<path opacity="0.7" d="M270.486 136.137L314.505 177.349C315.175 177.959 314.773 179.44 313.641 180.652C312.509 181.865 311.055 182.341 310.398 181.731L266.379 140.519C266.2 140.293 266.087 140.021 266.055 139.735C266.023 139.448 266.073 139.158 266.198 138.898C266.319 138.547 266.485 138.213 266.694 137.906C266.86 137.669 267.043 137.445 267.243 137.236C268.376 136.01 269.83 135.521 270.486 136.137Z" fill="white"/>
<path opacity="0.3" d="M314.506 177.349C315.176 177.959 314.774 179.44 313.642 180.652C312.51 181.865 311.056 182.341 310.399 181.731C310.037 181.389 310.64 180.659 310.895 179.721L266.199 138.911C266.319 138.56 266.486 138.227 266.695 137.92L310.721 179.138C310.883 178.9 311.064 178.676 311.263 178.468C312.396 177.215 313.85 176.733 314.506 177.349Z" fill="black"/>
<path d="M277.823 268.737L274.473 268.791C271.062 252.771 268.65 232.946 267.15 217.991C266.915 215.646 266.701 213.429 266.48 211.358C266.393 210.373 266.305 209.429 266.225 208.517C265.823 204.022 265.555 200.477 265.381 198.253C265.26 196.645 265.2 195.761 265.2 195.761H277.381L277.267 198.849L276.865 209.04L276.824 210.206L276.57 216.939L276.148 228.403C280.308 244.55 277.823 268.737 277.823 268.737Z" fill="#EBB376"/>
<path d="M305.025 267.88L301.721 268.503C295.109 251.974 288.898 230.809 284.858 216.022C284.234 213.73 283.658 211.586 283.142 209.643C283.142 209.543 283.095 209.449 283.069 209.355C282.05 205.496 281.266 202.421 280.777 200.471L280.194 198.106L292.12 196.042L292.79 201.067L293.789 208.437L293.983 209.884L294.653 214.916L296.469 228.41C303.356 243.619 305.025 267.88 305.025 267.88Z" fill="#EBB376"/>
<path opacity="0.2" d="M293.823 208.45L283.143 209.643C283.143 209.543 283.097 209.449 283.07 209.355C282.051 205.496 281.267 202.42 280.778 200.471L292.838 201.067L293.823 208.45Z" fill="black"/>
<path opacity="0.2" d="M277.239 198.849L276.864 209.04L276.824 210.206L266.506 211.352C266.419 210.367 266.332 209.422 266.251 208.511C265.849 204.015 265.581 200.471 265.407 198.246L277.239 198.849Z" fill="black"/>
<path d="M267.912 279.873C268.537 279.366 269.247 278.975 270.009 278.72C270.009 278.72 272.294 276.456 273.4 269.635L276.388 268.851C276.896 268.73 277.429 268.767 277.915 268.957C278.401 269.148 278.817 269.482 279.108 269.916C279.19 270.038 279.254 270.171 279.296 270.312C279.45 271.043 279.557 271.784 279.617 272.529C279.784 275.023 279.8 277.524 279.664 280.02H279.121L278.907 275.33C278.827 273.729 277.601 275.605 277.252 277.34C276.904 279.075 276.16 280.884 272.663 280.971C268.576 281.032 266.881 280.871 267.912 279.873Z" fill="#F94962"/>
<path d="M279.217 270.01C279.411 268.415 279.472 265.642 279.472 265.642L272.825 266.379C272.825 266.379 273.629 269.534 272.966 271.906C276.316 270.988 279.217 270.01 279.217 270.01Z" fill="#F94962"/>
<path d="M294.954 279.872C295.579 279.368 296.289 278.98 297.051 278.727C297.051 278.727 299.336 276.462 300.435 269.642L303.43 268.858C303.938 268.737 304.47 268.774 304.957 268.964C305.443 269.155 305.859 269.489 306.15 269.923C306.232 270.044 306.296 270.178 306.337 270.318C306.492 271.05 306.599 271.791 306.659 272.536C306.825 275.03 306.839 277.531 306.699 280.027H306.19L305.976 275.337C305.895 273.735 304.669 275.611 304.321 277.347C303.972 279.082 303.229 280.891 299.725 280.978C295.617 281.032 293.922 280.871 294.954 279.872Z" fill="#F94962"/>
<path d="M306.251 270.01C306.452 268.416 306.513 265.642 306.513 265.642L299.866 266.379C299.866 266.379 300.67 269.534 300.007 271.906C303.357 270.988 306.251 270.01 306.251 270.01Z" fill="#F94962"/>
<path d="M294.975 205.161L282.332 206.776L281.843 206.836L279.243 197.309L278.573 207.519L265.026 206.809C258.996 171.386 269.307 163.018 269.307 163.018L287.685 166.716C296.006 180.867 294.03 197.309 294.03 197.309L294.975 205.161Z" fill="#2848BD"/>
<path d="M277.568 118.885C277.568 120.279 276.951 121.404 276.228 121.404C275.504 121.404 274.848 120.279 274.848 118.885C274.848 117.491 275.464 116.366 276.228 116.366C276.992 116.366 277.568 117.491 277.568 118.885Z" stroke="#F94962" stroke-width="0.335" stroke-linecap="round" stroke-linejoin="round"/>
<path d="M286.648 127.3C286.599 127.346 286.545 127.387 286.487 127.421C285.723 128.004 284.85 128.429 283.921 128.674C281.207 129.303 279.351 128.928 278.139 127.702C276.444 125.86 276.022 122.597 276.263 118.657C276.305 117.089 276.594 115.538 277.12 114.061C277.12 114.061 277.12 114.001 277.12 113.987C277.12 113.974 277.161 113.873 277.187 113.82C277.519 112.986 278.055 112.25 278.746 111.677C279.437 111.105 280.26 110.715 281.14 110.543C281.904 110.373 282.683 110.285 283.465 110.282C291.15 110.222 292.53 122.938 286.648 127.3Z" fill="#EBB376"/>
<path opacity="0.2" d="M286.486 127.441C285.715 127.99 284.843 128.379 283.92 128.586C281.206 129.216 279.35 128.754 278.138 127.508C279.762 127.909 281.472 127.768 283.009 127.106C283.576 126.896 284.183 126.818 284.786 126.876C285.388 126.934 285.969 127.127 286.486 127.441Z" fill="black"/>
<path d="M287.264 134.375C287.739 136.56 284.905 137.451 284.905 137.451C280.276 135.441 279.418 133.009 279.418 133.009C283.284 130.999 282.165 125.297 282.165 125.297L282.949 125.685L288.463 126.764C288.463 126.764 286.935 129.699 286.734 130.369C285.689 133.886 287.264 134.375 287.264 134.375Z" fill="#EBB376"/>
<path d="M277.113 114.027C277.113 114.027 276.691 119.387 281.803 121.726C281.803 121.726 283.994 127.32 287.217 127.394C291.618 127.501 295.491 121.25 293.97 114.878C291.98 106.611 279.458 105.941 277.113 114.027Z" fill="#F94962"/>
<path d="M279.203 120.178C279.203 119.34 279.873 117.927 281.213 118.121C282.553 118.315 283.317 121.652 279.993 122.396C279.491 122.503 279.203 121.94 279.203 120.178Z" fill="#EBB376"/>
<path d="M286.486 108.306C286.486 108.306 281.354 107.006 278.513 109.076C275.196 111.488 273.937 113.981 277.843 117.853C277.843 117.853 286.466 115.059 289.333 115.649C291.009 115.987 292.654 116.464 294.251 117.076C294.874 111.381 289.353 107.14 286.486 108.306Z" fill="#020652"/>
<path d="M279.203 118.885C279.203 118.885 280.543 125.089 278.439 130.382C278.439 130.382 290.633 134.61 294.875 132.312C299.116 130.014 295.23 122.302 295.049 117.853C294.868 113.405 292.938 106.832 286.486 108.306C280.034 109.78 279.203 118.885 279.203 118.885Z" fill="#02219A"/>
<path d="M274.814 118.49H279.967" stroke="#F94962" stroke-width="0.335" stroke-linecap="round" stroke-linejoin="round"/>
<path opacity="0.2" d="M282.332 206.776L281.843 206.836L279.243 197.308C279.243 197.308 284.817 187.788 283.075 182.83C283.323 183.178 289.326 192.082 282.332 206.776Z" fill="black"/>
<path d="M271.894 133.893C271.894 133.893 278.024 131.709 287.264 134.375C296.503 137.042 296.851 140.975 296.851 140.975C296.851 140.975 290.996 154.248 290.071 169.276L265.991 168.378C265.991 168.378 263.117 147.166 271.894 133.893Z" fill="#F94962"/>
<path opacity="0.2" d="M271.559 151.159C271.559 151.159 270.56 157.269 265.529 161.034C265.481 157.429 265.705 153.826 266.199 150.254L271.559 151.159Z" fill="black"/>
<path d="M244.953 133.471L241.918 128.968C241.918 128.968 241.455 127.012 240.866 126.57C240.276 126.128 234.447 123.642 233.744 123.655C233.04 123.669 233.074 128.198 233.744 128.968C234.414 129.739 238.125 131.387 239.104 131.555C240.082 131.722 239.599 131.555 239.599 131.555L242.279 136.915L244.953 133.471Z" fill="#EBB376"/>
<path d="M271.893 133.893C265.391 136.616 259.118 139.856 253.133 143.581L243.331 130.181C243.331 130.181 240.691 130.999 239.713 135.595C239.713 135.595 244.745 154.764 251.284 156.666C257.823 158.569 271.572 151.125 271.572 151.125C271.572 151.125 275.551 141.169 271.893 133.893Z" fill="#F94962"/>
<path opacity="0.1" d="M271.893 133.893C265.391 136.616 259.118 139.856 253.133 143.581L243.331 130.181C243.331 130.181 240.691 130.999 239.713 135.595C239.713 135.595 244.745 154.764 251.284 156.666C257.823 158.569 271.572 151.125 271.572 151.125C271.572 151.125 275.551 141.169 271.893 133.893Z" fill="white"/>
<path d="M278.091 133.049C278.091 133.049 280.228 148.352 287.002 148.968C293.775 149.584 296.81 138.248 295.665 136.908C294.519 135.568 285.789 132.948 278.091 133.049Z" fill="#F94962"/>
<path opacity="0.2" d="M278.091 133.049C278.091 133.049 280.228 148.352 287.002 148.968C293.775 149.584 296.81 138.248 295.665 136.908C294.519 135.568 285.789 132.948 278.091 133.049Z" fill="white"/>
<path d="M37.0918 273.809H42.0565L42.4652 262.312H37.5005L37.0918 273.809Z" fill="#B97964"/>
<path d="M42.7402 273.233H36.7102C36.6109 273.231 36.5141 273.264 36.4369 273.327C36.3597 273.389 36.307 273.477 36.2881 273.575L35.3099 277.99C35.2893 278.084 35.2875 278.181 35.3046 278.276C35.3218 278.371 35.3576 278.462 35.4099 278.543C35.4622 278.624 35.53 278.693 35.6095 278.748C35.6889 278.803 35.7784 278.841 35.8727 278.861H36.0335C37.9832 278.827 39.3835 278.707 41.8491 278.707C43.3633 278.707 47.8791 278.868 49.9963 278.868C52.1135 278.868 52.348 276.811 51.4971 276.623C47.6714 275.786 44.7971 274.613 43.571 273.534C43.3422 273.332 43.0453 273.225 42.7402 273.233Z" fill="#F94962"/>
<path d="M43.0821 273.923C43.0594 273.917 43.039 273.904 43.0235 273.886C43.008 273.868 42.9981 273.846 42.995 273.822C42.9908 273.8 42.9937 273.777 43.0034 273.757C43.013 273.736 43.0288 273.719 43.0486 273.709C43.2295 273.595 44.8309 272.61 45.3802 272.891C45.4423 272.92 45.4945 272.967 45.5302 273.025C45.566 273.083 45.5837 273.151 45.5812 273.219C45.5996 273.337 45.5862 273.457 45.5427 273.568C45.4991 273.679 45.4269 273.776 45.3334 273.849C45.056 274.043 44.7191 274.133 44.3819 274.104C43.9435 274.09 43.5077 274.03 43.0821 273.923ZM43.4238 273.755C44.0032 273.952 44.6354 273.921 45.1926 273.668C45.2507 273.616 45.295 273.55 45.3218 273.476C45.3487 273.403 45.3572 273.324 45.3467 273.246C45.3467 273.152 45.3065 273.106 45.273 273.106C45.2255 273.081 45.1723 273.07 45.1189 273.072C44.5158 273.191 43.9405 273.422 43.4238 273.755Z" fill="#2848BD"/>
<path d="M43.0489 273.943C43.0314 273.931 43.0173 273.915 43.0079 273.897C42.9985 273.878 42.9941 273.857 42.9953 273.836C42.9953 273.769 43.1226 272.342 43.6653 271.873C43.7318 271.813 43.8108 271.769 43.8966 271.743C43.9824 271.718 44.0727 271.712 44.1611 271.725C44.2502 271.726 44.3364 271.757 44.4057 271.813C44.475 271.869 44.5234 271.947 44.543 272.034C44.6435 272.556 43.6519 273.648 43.136 273.93H43.0824L43.0489 273.943ZM43.8462 272.02C43.4985 272.467 43.2952 273.009 43.2633 273.575C43.7725 273.186 44.4023 272.362 44.342 272.04C44.342 272.04 44.342 271.92 44.1678 271.92H44.1142C44.0155 271.919 43.9199 271.954 43.8462 272.02Z" fill="#2848BD"/>
<path opacity="0.2" d="M37.5005 262.319H42.4652L42.2508 268.248H37.2861L37.5005 262.319Z" fill="black"/>
<path d="M62.6377 274.178L67.7632 274.72L68.7213 263.679L63.6025 263.136L62.6377 274.178Z" fill="#B97964"/>
<path d="M68.2999 273.072H62.3101C62.2115 273.073 62.116 273.107 62.0393 273.169C61.9626 273.231 61.9093 273.317 61.888 273.414L60.9098 277.836C60.8858 277.929 60.8804 278.025 60.8941 278.12C60.9078 278.215 60.9402 278.306 60.9894 278.389C61.0387 278.471 61.1038 278.543 61.181 278.6C61.2582 278.657 61.3459 278.697 61.4391 278.72H61.5999C63.5496 278.687 64.9499 278.566 67.4222 278.566C68.9297 278.566 73.4522 278.72 75.5627 278.72C77.6732 278.72 77.9144 276.663 77.0635 276.476C73.2378 275.645 70.3635 274.466 69.1374 273.387C68.9072 273.181 68.6085 273.069 68.2999 273.072Z" fill="#F94962"/>
<path d="M68.642 273.762C68.6193 273.756 68.5989 273.743 68.5834 273.725C68.5679 273.707 68.558 273.685 68.5549 273.662C68.55 273.639 68.5534 273.615 68.5644 273.594C68.5754 273.573 68.5934 273.557 68.6152 273.548C68.7894 273.434 70.3907 272.449 70.9401 272.737C71.0022 272.764 71.0546 272.809 71.0905 272.867C71.1264 272.924 71.144 272.991 71.1411 273.059C71.1574 273.177 71.1439 273.297 71.1017 273.408C71.0596 273.519 70.9902 273.618 70.8999 273.695C70.6176 273.883 70.28 273.971 69.9418 273.943C69.5033 273.929 69.0676 273.869 68.642 273.762ZM68.9837 273.601C69.5639 273.796 70.1962 273.762 70.7525 273.508C70.811 273.455 70.8557 273.39 70.8826 273.316C70.9094 273.242 70.9177 273.163 70.9066 273.086C70.9066 272.992 70.8664 272.952 70.8329 272.952C70.7887 272.925 70.737 272.913 70.6855 272.918C70.0881 273.035 69.5192 273.267 69.0105 273.601H68.9837Z" fill="#2848BD"/>
<path d="M68.616 273.789C68.5977 273.778 68.5826 273.762 68.572 273.743C68.5615 273.724 68.5558 273.703 68.5557 273.682C68.5557 273.608 68.683 272.188 69.2592 271.719C69.3274 271.661 69.4064 271.618 69.4915 271.592C69.5767 271.565 69.6662 271.556 69.755 271.565C69.8444 271.564 69.9312 271.595 70.0007 271.651C70.0703 271.707 70.1184 271.785 70.1369 271.873C70.2374 272.402 69.2458 273.494 68.7299 273.769H68.6763L68.616 273.789ZM69.4066 271.859C69.059 272.304 68.8556 272.844 68.8237 273.407C69.3329 273.025 69.9627 272.194 69.9024 271.873C69.9024 271.873 69.9024 271.752 69.7282 271.752H69.6813C69.58 271.755 69.4829 271.793 69.4066 271.859Z" fill="#2848BD"/>
<path opacity="0.2" d="M63.6041 263.136L68.7229 263.679L68.2204 269.374L63.1016 268.831L63.6041 263.136Z" fill="black"/>
<path d="M39.5305 161.504H65.8816C68.3807 175.178 76.2197 223.559 70.5716 266.694L61.6539 265.588C61.6539 265.588 62.478 208.363 54.6122 187.198C53.7077 198.521 52.6022 210.568 51.6977 216.98C49.4063 232.758 44.5019 267.23 44.5019 267.23H35.4502C35.4502 267.23 37.3061 234.225 38.1637 218.722C39.1017 201.871 39.5305 164.961 39.5305 161.504Z" fill="#F94962"/>
<path d="M71.616 268.744L60.5811 267.102L60.9228 264.047L72.3999 265.555L71.616 268.744Z" fill="#2848BD"/>
<path d="M45.6216 267.29H34.915V264.094L46.0236 263.886L45.6216 267.29Z" fill="#2848BD"/>
<path opacity="0.2" d="M54.6387 187.178C55.9317 190.887 56.9155 194.697 57.58 198.568C58.317 188.518 55.369 177.798 55.369 177.798L54.6387 187.178Z" fill="black"/>
<path d="M38.7993 166.086L38.1963 169.269C38.1963 169.269 56.628 171.654 68.0917 171.587L67.6897 169.403L38.7993 166.086Z" fill="#2848BD"/>
<path d="M76.2051 138.53C76.2051 138.53 82.5768 158.63 86.9251 159.97C91.2734 161.31 102.335 144.7 102.335 144.7C102.335 144.7 112.271 144.606 112.713 143.93C113.156 143.253 110.134 136.252 109.41 136.245C108.687 136.238 100.03 139.494 99.702 140.044C99.3737 140.593 89.4376 150.094 88.982 149.812C88.5264 149.531 84.7476 137.585 84.7476 137.585L76.2051 138.53Z" fill="#B97964"/>
<path d="M103.649 143.615C103.729 143.599 103.807 143.579 103.884 143.555L103.77 143.481C103.734 143.529 103.693 143.573 103.649 143.615Z" fill="#B97964"/>
<path d="M72.5889 136.211L73.3661 137.638L76.9908 144.338L77.7479 145.725L87.9252 142.188C87.9252 142.188 83.6908 126.389 82.2235 124.768L72.5889 136.211Z" fill="#2848BD"/>
<path opacity="0.4" d="M72.5889 136.211L73.3661 137.638L76.9908 144.338L77.7479 145.725L87.9252 142.188C87.9252 142.188 83.6908 126.389 82.2235 124.768L72.5889 136.211Z" fill="white"/>
<path opacity="0.2" d="M73.3662 137.638L76.9909 144.338C79.2354 139.936 78.5855 133.906 78.5855 133.906L73.3662 137.638Z" fill="black"/>
<path d="M82.2228 124.774C80.3054 122.56 77.9576 120.759 75.3223 119.481C72.687 118.202 69.8192 117.473 66.8932 117.337C56.9236 116.868 53.788 117.86 50.1432 121.116C44.8167 125.873 38.1904 166.83 38.1904 166.83C47.9116 169.537 58.0102 170.634 68.0858 170.08C68.0858 170.08 68.2064 158.69 71.8043 151.045C75.8564 142.529 79.3369 133.753 82.2228 124.774Z" fill="#2848BD"/>
<path opacity="0.4" d="M38.1904 166.83C47.9116 169.537 58.0098 170.637 68.0858 170.086C68.0858 170.086 68.0858 168.679 68.2801 166.529C68.3605 165.51 68.4811 164.318 68.6486 163.031C68.8161 161.745 69.0573 160.277 69.3186 158.817C69.4794 158.033 69.667 157.242 69.868 156.458C70.3353 154.597 70.9723 152.783 71.7708 151.038C72.213 150.1 72.6418 149.169 73.0572 148.258C73.7741 146.663 74.4575 145.115 75.0672 143.635C76.4072 140.519 77.5462 137.672 78.4976 135.179C79.1676 133.39 79.7706 131.789 80.2597 130.416C80.8024 128.881 81.2312 127.622 81.5461 126.684C81.9548 125.444 82.1558 124.767 82.1558 124.767C81.8229 124.351 81.4649 123.955 81.0838 123.582C77.3446 119.896 72.401 117.683 67.1612 117.351H66.8262C59.2284 116.995 55.6037 117.485 52.6959 119.18C51.7583 119.741 50.8805 120.396 50.0762 121.136C49.3199 121.956 48.7244 122.91 48.3208 123.95C47.0825 126.83 46.0656 129.8 45.279 132.834L44.8368 134.462C44.1668 136.948 43.537 139.595 42.934 142.275C42.7598 143.038 42.5923 143.802 42.4248 144.559C42.1769 145.725 41.929 146.884 41.6945 148.03C41.0915 150.918 40.5488 153.718 40.0731 156.237C39.4031 159.855 38.8604 162.884 38.5388 164.766C38.3177 166.093 38.1904 166.83 38.1904 166.83ZM67.4694 117.719C68.1416 117.736 68.8125 117.788 69.4794 117.873C72.1594 118.235 76.2799 120.386 76.1794 121.404C76.0789 122.422 74.5111 125.022 70.5045 124.392C69.1085 124.135 67.7837 123.582 66.6185 122.771C64.4075 121.31 62.7995 119.334 62.6387 118.691C62.4377 117.92 65.0373 117.659 67.4761 117.732L67.4694 117.719Z" fill="white"/>
<path d="M58.8806 131.374C58.8806 131.374 53.601 144.151 52.5156 154.77L66.7933 156.593C66.7933 156.593 73.1985 139.327 74.5251 133.926C74.5251 133.913 63.1217 132.774 58.8806 131.374Z" fill="#2848BD"/>
<path opacity="0.4" d="M71.7383 134.416L73.7215 134.61L72.2676 135.736L71.7383 134.416Z" fill="white"/>
<path d="M63.9668 118.724C65.0455 121.806 69.0588 123.213 71.1626 123.414C71.9373 123.536 72.7308 123.401 73.4208 123.028C74.1108 122.655 74.6592 122.066 74.9816 121.351C74.9816 121.351 72.5763 120.151 72.8175 118.805C72.9879 117.981 73.3254 117.201 73.8091 116.513C74.0596 116.12 74.3325 115.742 74.6265 115.381L70.774 107.12C69.9164 110.698 67.2833 117.572 63.9668 118.724Z" fill="#B97964"/>
<path opacity="0.2" d="M70.6183 110.932C68.7825 114.952 71.3754 117.719 72.8159 118.778C72.9863 117.954 73.3238 117.174 73.8075 116.486L70.6183 110.932Z" fill="black"/>
<path d="M83.5357 100.205C83.5357 100.205 84.7685 107.013 81.2175 109.739C77.6665 112.466 77.3047 99.7498 77.3047 99.7498L83.5357 100.205Z" fill="#B97964"/>
<path opacity="0.4" d="M83.5357 100.205C83.5357 100.205 84.7685 107.013 81.2175 109.739C77.6665 112.466 77.3047 99.7498 77.3047 99.7498L83.5357 100.205Z" fill="black"/>
<path d="M70.8403 115.468C71.6321 116.572 72.7642 117.385 74.0629 117.783C75.3616 118.182 76.7551 118.143 78.0294 117.672C79.6939 117.088 81.0721 115.89 81.8819 114.322C81.9958 114.115 82.0963 113.887 82.1968 113.652C83.8584 109.425 84.2068 99.1067 79.7312 99.4886C76.0328 99.8035 72.4148 98.6645 70.5254 101.86C69.9858 102.77 69.669 103.794 69.6008 104.849C69.1988 109.78 68.7298 112.641 70.8403 115.468Z" fill="#B97964"/>
<path d="M76.7893 107.287C76.7089 107.676 76.8965 108.031 77.1578 108.071C77.4191 108.111 77.6737 107.81 77.734 107.401C77.7943 106.992 77.6201 106.657 77.3655 106.624C77.1109 106.59 76.8496 106.885 76.7893 107.287Z" fill="#F94962"/>
<path d="M81.2713 107.924C81.1909 108.312 81.3852 108.667 81.6398 108.708C81.8944 108.748 82.1557 108.446 82.2093 108.038C82.2629 107.629 82.1021 107.294 81.8408 107.254C81.5795 107.214 81.3249 107.549 81.2713 107.924Z" fill="#F94962"/>
<path d="M79.8171 107.917C80.119 109.196 80.5946 110.426 81.2308 111.575C80.9307 111.731 80.6001 111.82 80.2622 111.835C79.9243 111.85 79.5872 111.791 79.2744 111.663L79.8171 107.917Z" fill="#A24E3F"/>
<path d="M75.6111 105.639C75.6519 105.651 75.6954 105.652 75.7367 105.641C75.778 105.631 75.8157 105.609 75.8456 105.579C76.0507 105.367 76.3021 105.206 76.58 105.109C76.8579 105.011 77.1546 104.979 77.4469 105.016C77.5081 105.028 77.5716 105.016 77.624 104.982C77.6765 104.948 77.7139 104.896 77.7283 104.835C77.7351 104.805 77.7358 104.774 77.7303 104.744C77.7249 104.714 77.7133 104.685 77.6964 104.659C77.6795 104.633 77.6576 104.611 77.632 104.594C77.6064 104.577 77.5776 104.566 77.5474 104.56C77.1833 104.507 76.8117 104.54 76.4626 104.656C76.1135 104.772 75.7966 104.969 75.5374 105.23C75.494 105.275 75.4697 105.335 75.4697 105.398C75.4697 105.46 75.494 105.52 75.5374 105.565C75.5586 105.593 75.5834 105.618 75.6111 105.639Z" fill="#F94962"/>
<path d="M83.4159 106.651C83.459 106.667 83.5068 106.667 83.5499 106.651C83.5797 106.643 83.6076 106.63 83.6318 106.611C83.656 106.592 83.676 106.568 83.6905 106.541C83.705 106.514 83.7137 106.484 83.716 106.453C83.7184 106.423 83.7143 106.392 83.704 106.363C83.5978 106.005 83.4072 105.679 83.1483 105.411C82.8895 105.143 82.5699 104.941 82.2166 104.822C82.1871 104.813 82.1561 104.81 82.1254 104.813C82.0947 104.816 82.065 104.825 82.0381 104.84C82.0111 104.855 81.9875 104.876 81.9687 104.9C81.9499 104.925 81.9362 104.953 81.9285 104.983C81.9119 105.042 81.9195 105.106 81.9497 105.16C81.9798 105.214 82.0299 105.253 82.0893 105.271C82.3665 105.373 82.6161 105.538 82.8185 105.753C83.0208 105.968 83.1703 106.227 83.2551 106.51C83.2684 106.545 83.2899 106.576 83.318 106.601C83.346 106.625 83.3796 106.642 83.4159 106.651Z" fill="#F94962"/>
<path d="M76.167 111.837C76.167 111.837 76.9911 113.605 78.6728 113.538" stroke="#F94962" stroke-width="0.335" stroke-linecap="round" stroke-linejoin="round"/>
<path d="M74.0289 99.3142L74.0959 101.498C73.7139 101.637 73.3987 101.915 73.2135 102.277C73.0282 102.639 72.9869 103.057 73.0976 103.448C73.6202 105.324 72.3271 108.044 70.833 109.036C70.833 109.036 70.833 108.245 70.163 108.366C69.493 108.487 69.2853 112.6 70.3908 114.671C70.3908 114.671 68.0257 112.493 67.3222 108.091C66.6522 104.024 66.7795 101.445 67.3222 99.4951L74.0289 99.3142Z" fill="#B97964"/>
<path opacity="0.4" d="M74.0289 99.3142L74.0959 101.498C73.7139 101.637 73.3987 101.915 73.2135 102.277C73.0282 102.639 72.9869 103.057 73.0976 103.448C73.6202 105.324 72.3271 108.044 70.833 109.036C70.833 109.036 70.833 108.245 70.163 108.366C69.493 108.487 69.2853 112.6 70.3908 114.671C70.3908 114.671 68.0257 112.493 67.3222 108.091C66.6522 104.024 66.7795 101.445 67.3222 99.4951L74.0289 99.3142Z" fill="black"/>
<path d="M66.9482 101.934C69.3392 102.168 71.7522 102.021 74.0971 101.499C80.844 100.159 83.7183 102.638 83.7183 102.638C84.1852 102.218 84.5529 101.699 84.7951 101.12C85.0372 100.541 85.1477 99.9147 85.1186 99.2875C84.9243 97.3445 82.2242 97.0162 82.2242 97.0162C82.2242 97.0162 81.4135 94.8253 79.6246 94.162C77.8357 93.4987 76.0401 95.1603 76.0401 95.1603C76.0401 95.1603 73.809 93.0029 71.2094 93.6193C70.3343 93.7989 69.5473 94.2735 68.9802 94.9638C68.4131 95.6541 68.1002 96.5182 68.0939 97.4115C68.0939 97.4115 65.0454 97.7197 65.1124 99.2875C65.1794 100.855 66.9482 101.934 66.9482 101.934Z" fill="#0454E0"/>
<path d="M77.311 110.142C78.521 110.142 79.5019 109.011 79.5019 107.616C79.5019 106.221 78.521 105.09 77.311 105.09C76.101 105.09 75.1201 106.221 75.1201 107.616C75.1201 109.011 76.101 110.142 77.311 110.142Z" stroke="#F94962" stroke-width="0.335" stroke-linecap="round" stroke-linejoin="round"/>
<path d="M85.0098 107.991C84.9495 108.41 84.7699 108.803 84.4924 109.124C84.2149 109.444 83.8512 109.678 83.4447 109.797C83.0381 109.917 82.6058 109.917 82.1992 109.797C81.7926 109.678 81.4288 109.445 81.1511 109.125C80.8735 108.804 80.6936 108.411 80.6331 107.992C80.5725 107.573 80.6337 107.145 80.8094 106.759C80.9851 106.373 81.268 106.046 81.6242 105.817C81.9805 105.588 82.3952 105.465 82.8189 105.465C83.443 105.513 84.023 105.805 84.4331 106.278C84.8432 106.751 85.0504 107.366 85.0098 107.991Z" stroke="#F94962" stroke-width="0.335" stroke-linecap="round" stroke-linejoin="round"/>
<path d="M79.4971 107.917C79.4971 107.917 80.2073 107.475 80.6294 107.991" stroke="#F94962" stroke-width="0.335" stroke-linecap="round" stroke-linejoin="round"/>
<path d="M75.1205 107.616L71.2814 107.1C70.7782 107.035 70.2698 107.172 69.8677 107.482L69.7002 107.616" stroke="#F94962" stroke-width="0.335" stroke-linecap="round" stroke-linejoin="round"/>
<path d="M66.9062 108.54C67.2912 109.719 68.1271 110.697 69.2311 111.26C70.6984 111.991 71.7436 110.758 71.5962 109.21C71.4622 107.83 70.5443 105.753 68.9162 105.673C68.5687 105.661 68.2237 105.736 67.9126 105.891C67.6015 106.047 67.3341 106.277 67.1345 106.562C66.9349 106.847 66.8095 107.177 66.7696 107.522C66.7298 107.868 66.7767 108.217 66.9062 108.54Z" fill="#B97964"/>
<path opacity="0.2" d="M42.4248 144.58C48.7496 141.953 53.7478 131.106 53.7478 131.106L50.1566 128.935L45.279 132.855L44.8368 134.483C44.1668 136.968 43.537 139.615 42.934 142.295C42.7598 143.059 42.5923 143.822 42.4248 144.58Z" fill="black"/>
<path d="M77.2578 145.732L88.1654 141.725L88.4803 142.65L77.566 146.536L77.2578 145.732Z" fill="#2848BD"/>
<path d="M48.9975 173.303L17.3799 168.29L14.2877 187.791L45.9053 192.805L48.9975 173.303Z" fill="#2848BD"/>
<path d="M28.563 175.714L22.1377 179.044L27.2163 184.197" stroke="white" stroke-width="1.34" stroke-linecap="round" stroke-linejoin="round"/>
<path d="M34.7002 185.382L41.1188 182.052L36.0469 176.9" stroke="white" stroke-width="1.34" stroke-linecap="round" stroke-linejoin="round"/>
<path d="M29.4541 184.552L33.8091 176.545" stroke="white" stroke-width="1.34" stroke-linecap="round" stroke-linejoin="round"/>
<path d="M46.371 122.865C46.371 122.865 34.4517 134.824 32.8303 137.149C31.2089 139.474 28.1001 165.249 28.1001 165.249C28.1001 165.249 27.4301 165.477 27.3899 166.033C27.3497 166.589 27.2827 173.825 27.3899 174.16C27.4971 174.495 32.9777 177.878 33.7884 177.074C34.5991 176.27 35.7247 168.076 35.7247 168.076L32.8303 165.249C32.8303 165.249 36.1803 146.268 38.3042 143.193C40.4281 140.117 49.0845 133.538 49.0845 133.538L46.371 122.865Z" fill="#B97964"/>
<path d="M55.5303 118.048C57.2656 121.726 55.9457 129.471 52.7431 132.205C49.3545 135.015 45.7723 137.583 42.0231 139.89L36.1807 132.232C36.1807 132.232 42.3983 126.161 46.1637 122.664C48.7247 120.181 52.0013 118.566 55.5303 118.048Z" fill="#2848BD"/>
<path opacity="0.4" d="M55.5303 118.048C57.2656 121.726 55.9457 129.471 52.7431 132.205C49.3545 135.015 45.7723 137.583 42.0231 139.89L36.1807 132.232C36.1807 132.232 42.3983 126.161 46.1637 122.664C48.7247 120.181 52.0013 118.566 55.5303 118.048Z" fill="white"/>
<path d="M36.1806 131.742L35.457 132.727L41.5607 140.707L42.425 140.09L36.1806 131.742Z" fill="#2848BD"/>
</svg>
