<svg width="335" height="335" viewBox="0 0 335 335" fill="none" xmlns="http://www.w3.org/2000/svg">
<path d="M297.955 233.924H176.879C175.839 233.922 174.841 233.508 174.105 232.772C173.369 232.036 172.955 231.038 172.953 229.997V53.5998C172.957 52.5602 173.372 51.5643 174.107 50.8298C174.843 50.0954 175.84 49.6821 176.879 49.6803H297.955C298.995 49.6821 299.991 50.0954 300.727 50.8298C301.463 51.5643 301.878 52.5602 301.881 53.5998V229.997C301.879 231.038 301.465 232.036 300.729 232.772C299.993 233.508 298.996 233.922 297.955 233.924ZM176.879 49.8478C176.384 49.8443 175.893 49.9387 175.434 50.1255C174.976 50.3124 174.558 50.5881 174.207 50.9368C173.855 51.2855 173.575 51.7002 173.384 52.1572C173.193 52.6143 173.095 53.1045 173.094 53.5998V229.997C173.094 230.994 173.49 231.95 174.195 232.655C174.9 233.36 175.856 233.756 176.853 233.756H297.955C298.952 233.756 299.908 233.36 300.613 232.655C301.318 231.95 301.714 230.994 301.714 229.997V53.5998C301.714 52.6029 301.318 51.6469 300.613 50.942C299.908 50.2371 298.952 49.8411 297.955 49.8411L176.879 49.8478Z" fill="#F0F0F0"/>
<path d="M158.308 233.924H37.2055C36.1647 233.922 35.1671 233.508 34.4312 232.772C33.6953 232.036 33.2811 231.038 33.2793 229.998V53.5999C33.2811 52.5592 33.6953 51.5615 34.4312 50.8256C35.1671 50.0897 36.1647 49.6755 37.2055 49.6737H158.308C159.349 49.6755 160.346 50.0897 161.082 50.8256C161.818 51.5615 162.232 52.5592 162.234 53.5999V229.998C162.232 231.038 161.818 232.036 161.082 232.772C160.346 233.508 159.349 233.922 158.308 233.924ZM37.2055 49.8479C36.2098 49.8479 35.2548 50.243 34.5501 50.9464C33.8454 51.6499 33.4486 52.6042 33.4468 53.5999V229.998C33.4468 230.994 33.8428 231.95 34.5477 232.655C35.2526 233.36 36.2086 233.756 37.2055 233.756H158.308C159.305 233.756 160.261 233.36 160.966 232.655C161.671 231.95 162.067 230.994 162.067 229.998V53.5999C162.067 52.603 161.671 51.647 160.966 50.9421C160.261 50.2372 159.305 49.8412 158.308 49.8412L37.2055 49.8479Z" fill="#F0F0F0"/>
<path d="M335 274.841H0V275.008H335V274.841Z" fill="#F0F0F0"/>
<path d="M118.409 182.575L118.409 66.0282H39.5035L39.5035 182.575H118.409Z" fill="#F5F5F5"/>
<path d="M115.059 69.3715H42.8467V179.225H115.059V69.3715Z" fill="#FAFAFA"/>
<path d="M71.3741 179.211V119.869H68.9018L64.6674 112.533L60.8752 105.974V93.86H59.9774V105.974L56.1852 112.533L51.9508 119.869H49.4785V179.211H71.3741Z" fill="#F5F5F5"/>
<path d="M52.622 104.781H42.8467V179.205H52.622V104.781Z" fill="#F5F5F5"/>
<path d="M99.0054 157.872V103.89L77.5654 112.7V157.872H99.0054Z" fill="#F5F5F5"/>
<path d="M115.059 119.87H93.1699V179.205H115.059V119.87Z" fill="#F0F0F0"/>
<path d="M99.0395 123.501H95.6426V125.096H99.0395V123.501Z" fill="#F5F5F5"/>
<path d="M105.813 123.501H102.416V125.096H105.813V123.501Z" fill="#F5F5F5"/>
<path d="M112.594 123.501H109.197V125.096H112.594V123.501Z" fill="#F5F5F5"/>
<path d="M99.0395 127.441H95.6426V129.035H99.0395V127.441Z" fill="#F5F5F5"/>
<path d="M105.813 127.44H102.416V129.035H105.813V127.44Z" fill="#F5F5F5"/>
<path d="M112.594 127.44H109.197V129.035H112.594V127.44Z" fill="#F5F5F5"/>
<path d="M99.0395 131.387H95.6426V132.981H99.0395V131.387Z" fill="#F5F5F5"/>
<path d="M105.813 131.387H102.416V132.981H105.813V131.387Z" fill="#F5F5F5"/>
<path d="M112.594 131.387H109.197V132.981H112.594V131.387Z" fill="#F5F5F5"/>
<path d="M99.0395 135.326H95.6426V136.921H99.0395V135.326Z" fill="#F5F5F5"/>
<path d="M105.813 135.327H102.416V136.921H105.813V135.327Z" fill="#F5F5F5"/>
<path d="M112.594 135.327H109.197V136.921H112.594V135.327Z" fill="#F5F5F5"/>
<path d="M99.0395 139.273H95.6426V140.867H99.0395V139.273Z" fill="#F5F5F5"/>
<path d="M105.813 139.273H102.416V140.868H105.813V139.273Z" fill="#F5F5F5"/>
<path d="M112.594 139.273H109.197V140.868H112.594V139.273Z" fill="#F5F5F5"/>
<path d="M99.0395 143.212H95.6426V144.807H99.0395V143.212Z" fill="#F5F5F5"/>
<path d="M105.813 143.212H102.416V144.807H105.813V143.212Z" fill="#F5F5F5"/>
<path d="M112.594 143.212H109.197V144.807H112.594V143.212Z" fill="#F5F5F5"/>
<path d="M99.0395 147.158H95.6426V148.753H99.0395V147.158Z" fill="#F5F5F5"/>
<path d="M105.813 147.159H102.416V148.753H105.813V147.159Z" fill="#F5F5F5"/>
<path d="M112.594 147.159H109.197V148.753H112.594V147.159Z" fill="#F5F5F5"/>
<path d="M99.0395 151.098H95.6426V152.693H99.0395V151.098Z" fill="#F5F5F5"/>
<path d="M105.813 151.098H102.416V152.693H105.813V151.098Z" fill="#F5F5F5"/>
<path d="M112.594 151.098H109.197V152.693H112.594V151.098Z" fill="#F5F5F5"/>
<path d="M99.0395 155.045H95.6426V156.639H99.0395V155.045Z" fill="#F5F5F5"/>
<path d="M105.813 155.044H102.416V156.639H105.813V155.044Z" fill="#F5F5F5"/>
<path d="M112.594 155.044H109.197V156.639H112.594V155.044Z" fill="#F5F5F5"/>
<path d="M99.0395 158.984H95.6426V160.578H99.0395V158.984Z" fill="#F5F5F5"/>
<path d="M105.813 158.984H102.416V160.578H105.813V158.984Z" fill="#F5F5F5"/>
<path d="M112.594 158.984H109.197V160.578H112.594V158.984Z" fill="#F5F5F5"/>
<path d="M99.0395 162.924H95.6426V164.518H99.0395V162.924Z" fill="#F5F5F5"/>
<path d="M105.813 162.924H102.416V164.518H105.813V162.924Z" fill="#F5F5F5"/>
<path d="M112.594 162.924H109.197V164.518H112.594V162.924Z" fill="#F5F5F5"/>
<path d="M99.0395 166.87H95.6426V168.464H99.0395V166.87Z" fill="#F5F5F5"/>
<path d="M105.813 166.87H102.416V168.465H105.813V166.87Z" fill="#F5F5F5"/>
<path d="M112.594 166.87H109.197V168.465H112.594V166.87Z" fill="#F5F5F5"/>
<path d="M64.7356 119.87H42.8467V179.205H64.7356V119.87Z" fill="#F0F0F0"/>
<path d="M48.7153 123.501H45.3184V125.096H48.7153V123.501Z" fill="#F5F5F5"/>
<path d="M55.4887 123.501H52.0918V125.096H55.4887V123.501Z" fill="#F5F5F5"/>
<path d="M62.2697 123.501H58.8728V125.096H62.2697V123.501Z" fill="#F5F5F5"/>
<path d="M48.7153 127.441H45.3184V129.035H48.7153V127.441Z" fill="#F5F5F5"/>
<path d="M55.4887 127.44H52.0918V129.035H55.4887V127.44Z" fill="#F5F5F5"/>
<path d="M62.2697 127.441H58.8728V129.035H62.2697V127.441Z" fill="#F5F5F5"/>
<path d="M48.7153 131.387H45.3184V132.981H48.7153V131.387Z" fill="#F5F5F5"/>
<path d="M55.4887 131.387H52.0918V132.981H55.4887V131.387Z" fill="#F5F5F5"/>
<path d="M62.2697 131.387H58.8728V132.981H62.2697V131.387Z" fill="#F5F5F5"/>
<path d="M48.7153 135.326H45.3184V136.921H48.7153V135.326Z" fill="#F5F5F5"/>
<path d="M55.4887 135.327H52.0918V136.921H55.4887V135.327Z" fill="#F5F5F5"/>
<path d="M62.2697 135.326H58.8728V136.921H62.2697V135.326Z" fill="#F5F5F5"/>
<path d="M48.7153 139.273H45.3184V140.867H48.7153V139.273Z" fill="#F5F5F5"/>
<path d="M55.4887 139.273H52.0918V140.868H55.4887V139.273Z" fill="#F5F5F5"/>
<path d="M62.2697 139.273H58.8728V140.867H62.2697V139.273Z" fill="#F5F5F5"/>
<path d="M48.7153 143.212H45.3184V144.807H48.7153V143.212Z" fill="#F5F5F5"/>
<path d="M55.4887 143.212H52.0918V144.807H55.4887V143.212Z" fill="#F5F5F5"/>
<path d="M62.2697 143.212H58.8728V144.807H62.2697V143.212Z" fill="#F5F5F5"/>
<path d="M48.7153 147.158H45.3184V148.753H48.7153V147.158Z" fill="#F5F5F5"/>
<path d="M55.4887 147.159H52.0918V148.753H55.4887V147.159Z" fill="#F5F5F5"/>
<path d="M62.2697 147.158H58.8728V148.753H62.2697V147.158Z" fill="#F5F5F5"/>
<path d="M48.7153 151.098H45.3184V152.693H48.7153V151.098Z" fill="#F5F5F5"/>
<path d="M55.4887 151.098H52.0918V152.693H55.4887V151.098Z" fill="#F5F5F5"/>
<path d="M62.2697 151.098H58.8728V152.693H62.2697V151.098Z" fill="#F5F5F5"/>
<path d="M48.7153 155.045H45.3184V156.639H48.7153V155.045Z" fill="#F5F5F5"/>
<path d="M55.4887 155.044H52.0918V156.639H55.4887V155.044Z" fill="#F5F5F5"/>
<path d="M62.2697 155.045H58.8728V156.639H62.2697V155.045Z" fill="#F5F5F5"/>
<path d="M48.7153 158.984H45.3184V160.578H48.7153V158.984Z" fill="#F5F5F5"/>
<path d="M55.4887 158.984H52.0918V160.578H55.4887V158.984Z" fill="#F5F5F5"/>
<path d="M62.2697 158.984H58.8728V160.578H62.2697V158.984Z" fill="#F5F5F5"/>
<path d="M48.7153 162.924H45.3184V164.518H48.7153V162.924Z" fill="#F5F5F5"/>
<path d="M55.4887 162.924H52.0918V164.518H55.4887V162.924Z" fill="#F5F5F5"/>
<path d="M62.2697 162.924H58.8728V164.518H62.2697V162.924Z" fill="#F5F5F5"/>
<path d="M48.7153 166.87H45.3184V168.464H48.7153V166.87Z" fill="#F5F5F5"/>
<path d="M55.4887 166.87H52.0918V168.465H55.4887V166.87Z" fill="#F5F5F5"/>
<path d="M62.2697 166.87H58.8728V168.464H62.2697V166.87Z" fill="#F5F5F5"/>
<path d="M104.118 119.87H95.6426L99.877 112.533L104.118 105.19L108.352 112.533L112.587 119.87H104.118Z" fill="#F0F0F0"/>
<path d="M104.56 93.86H103.662V110.59H104.56V93.86Z" fill="#F0F0F0"/>
<path d="M91.354 123.501H67.8906V179.211H91.354V123.501Z" fill="#F0F0F0"/>
<path d="M78.4637 121.598H69.613V129.156H78.4637V121.598Z" fill="#F0F0F0"/>
<path d="M72.7822 121.035H70.4104V127.823H72.7822V121.035Z" fill="#F0F0F0"/>
<path d="M77.7204 121.035H75.3486V127.822H77.7204V121.035Z" fill="#F0F0F0"/>
<path d="M89.8542 121.625H84.5813V126.898H89.8542V121.625Z" fill="#F0F0F0"/>
<path d="M74.7319 128.238H71.335V129.832H74.7319V128.238Z" fill="#F5F5F5"/>
<path d="M81.5063 128.238H78.1094V129.832H81.5063V128.238Z" fill="#F5F5F5"/>
<path d="M88.2858 128.238H84.8889V129.832H88.2858V128.238Z" fill="#F5F5F5"/>
<path d="M74.7319 132.184H71.335V133.779H74.7319V132.184Z" fill="#F5F5F5"/>
<path d="M81.5063 132.184H78.1094V133.779H81.5063V132.184Z" fill="#F5F5F5"/>
<path d="M88.2858 132.184H84.8889V133.779H88.2858V132.184Z" fill="#F5F5F5"/>
<path d="M74.7319 136.124H71.335V137.718H74.7319V136.124Z" fill="#F5F5F5"/>
<path d="M81.5063 136.124H78.1094V137.718H81.5063V136.124Z" fill="#F5F5F5"/>
<path d="M88.2858 136.124H84.8889V137.718H88.2858V136.124Z" fill="#F5F5F5"/>
<path d="M74.7319 140.07H71.335V141.664H74.7319V140.07Z" fill="#F5F5F5"/>
<path d="M81.5063 140.07H78.1094V141.664H81.5063V140.07Z" fill="#F5F5F5"/>
<path d="M88.2858 140.07H84.8889V141.664H88.2858V140.07Z" fill="#F5F5F5"/>
<path d="M74.7319 144.01H71.335V145.604H74.7319V144.01Z" fill="#F5F5F5"/>
<path d="M81.5063 144.01H78.1094V145.604H81.5063V144.01Z" fill="#F5F5F5"/>
<path d="M88.2858 144.01H84.8889V145.604H88.2858V144.01Z" fill="#F5F5F5"/>
<path d="M74.7319 147.956H71.335V149.551H74.7319V147.956Z" fill="#F5F5F5"/>
<path d="M81.5063 147.956H78.1094V149.551H81.5063V147.956Z" fill="#F5F5F5"/>
<path d="M88.2858 147.956H84.8889V149.55H88.2858V147.956Z" fill="#F5F5F5"/>
<path d="M74.7319 151.896H71.335V153.49H74.7319V151.896Z" fill="#F5F5F5"/>
<path d="M81.5063 151.896H78.1094V153.49H81.5063V151.896Z" fill="#F5F5F5"/>
<path d="M88.2858 151.896H84.8889V153.49H88.2858V151.896Z" fill="#F5F5F5"/>
<path d="M74.7319 155.835H71.335V157.43H74.7319V155.835Z" fill="#F5F5F5"/>
<path d="M81.5063 155.835H78.1094V157.43H81.5063V155.835Z" fill="#F5F5F5"/>
<path d="M88.2858 155.835H84.8889V157.43H88.2858V155.835Z" fill="#F5F5F5"/>
<path d="M74.7319 159.781H71.335V161.376H74.7319V159.781Z" fill="#F5F5F5"/>
<path d="M81.5063 159.781H78.1094V161.376H81.5063V159.781Z" fill="#F5F5F5"/>
<path d="M88.2858 159.781H84.8889V161.376H88.2858V159.781Z" fill="#F5F5F5"/>
<path d="M74.7319 163.721H71.335V165.316H74.7319V163.721Z" fill="#F5F5F5"/>
<path d="M81.5063 163.721H78.1094V165.316H81.5063V163.721Z" fill="#F5F5F5"/>
<path d="M88.2858 163.721H84.8889V165.316H88.2858V163.721Z" fill="#F5F5F5"/>
<path d="M74.7319 167.667H71.335V169.262H74.7319V167.667Z" fill="#F5F5F5"/>
<path d="M81.5063 167.667H78.1094V169.262H81.5063V167.667Z" fill="#F5F5F5"/>
<path d="M88.2858 167.667H84.8889V169.262H88.2858V167.667Z" fill="#F5F5F5"/>
<path d="M74.7319 171.607H71.335V173.202H74.7319V171.607Z" fill="#F5F5F5"/>
<path d="M81.5063 171.607H78.1094V173.202H81.5063V171.607Z" fill="#F5F5F5"/>
<path d="M88.2858 171.607H84.8889V173.202H88.2858V171.607Z" fill="#F5F5F5"/>
<path opacity="0.2" d="M110.262 69.3715L42.8467 136.787V117.424L90.9058 69.3715H110.262Z" fill="white"/>
<path opacity="0.2" d="M115.059 93.7799V107.595L43.4363 179.225H42.8467V165.993L115.059 93.7799Z" fill="white"/>
<path d="M295.001 183.399V66.8523H216.095V183.399H295.001Z" fill="#F5F5F5"/>
<path d="M291.651 70.1957H219.438V180.049H291.651V70.1957Z" fill="#FAFAFA"/>
<path d="M247.967 180.035V120.7H245.494L241.26 113.357L237.475 106.798V94.6842H236.57V106.798L232.785 113.357L228.543 120.7H226.078V180.035H247.967Z" fill="#F5F5F5"/>
<path d="M229.214 105.612H219.438V180.036H229.214V105.612Z" fill="#F5F5F5"/>
<path d="M275.597 158.696V104.714L254.157 113.524V158.696H275.597Z" fill="#F5F5F5"/>
<path d="M291.652 120.7H269.763V180.035H291.652V120.7Z" fill="#F0F0F0"/>
<path d="M275.631 124.325H272.234V125.919H275.631V124.325Z" fill="#F5F5F5"/>
<path d="M282.405 124.325H279.008V125.919H282.405V124.325Z" fill="#F5F5F5"/>
<path d="M289.186 124.325H285.789V125.919H289.186V124.325Z" fill="#F5F5F5"/>
<path d="M275.631 128.271H272.234V129.866H275.631V128.271Z" fill="#F5F5F5"/>
<path d="M282.405 128.271H279.008V129.866H282.405V128.271Z" fill="#F5F5F5"/>
<path d="M289.186 128.271H285.789V129.866H289.186V128.271Z" fill="#F5F5F5"/>
<path d="M275.631 132.211H272.234V133.806H275.631V132.211Z" fill="#F5F5F5"/>
<path d="M282.405 132.211H279.008V133.806H282.405V132.211Z" fill="#F5F5F5"/>
<path d="M289.186 132.211H285.789V133.806H289.186V132.211Z" fill="#F5F5F5"/>
<path d="M275.631 136.157H272.234V137.752H275.631V136.157Z" fill="#F5F5F5"/>
<path d="M282.405 136.157H279.008V137.752H282.405V136.157Z" fill="#F5F5F5"/>
<path d="M289.186 136.157H285.789V137.752H289.186V136.157Z" fill="#F5F5F5"/>
<path d="M275.631 140.097H272.234V141.691H275.631V140.097Z" fill="#F5F5F5"/>
<path d="M282.405 140.097H279.008V141.691H282.405V140.097Z" fill="#F5F5F5"/>
<path d="M289.186 140.097H285.789V141.691H289.186V140.097Z" fill="#F5F5F5"/>
<path d="M275.631 144.043H272.234V145.638H275.631V144.043Z" fill="#F5F5F5"/>
<path d="M282.405 144.043H279.008V145.638H282.405V144.043Z" fill="#F5F5F5"/>
<path d="M289.186 144.043H285.789V145.638H289.186V144.043Z" fill="#F5F5F5"/>
<path d="M275.631 147.983H272.234V149.578H275.631V147.983Z" fill="#F5F5F5"/>
<path d="M282.405 147.983H279.008V149.578H282.405V147.983Z" fill="#F5F5F5"/>
<path d="M289.186 147.983H285.789V149.578H289.186V147.983Z" fill="#F5F5F5"/>
<path d="M275.631 151.929H272.234V153.523H275.631V151.929Z" fill="#F5F5F5"/>
<path d="M282.405 151.929H279.008V153.523H282.405V151.929Z" fill="#F5F5F5"/>
<path d="M289.186 151.929H285.789V153.523H289.186V151.929Z" fill="#F5F5F5"/>
<path d="M275.631 155.869H272.234V157.463H275.631V155.869Z" fill="#F5F5F5"/>
<path d="M282.405 155.869H279.008V157.463H282.405V155.869Z" fill="#F5F5F5"/>
<path d="M289.186 155.869H285.789V157.463H289.186V155.869Z" fill="#F5F5F5"/>
<path d="M275.631 159.808H272.234V161.403H275.631V159.808Z" fill="#F5F5F5"/>
<path d="M282.405 159.808H279.008V161.403H282.405V159.808Z" fill="#F5F5F5"/>
<path d="M289.186 159.808H285.789V161.403H289.186V159.808Z" fill="#F5F5F5"/>
<path d="M275.631 163.754H272.234V165.349H275.631V163.754Z" fill="#F5F5F5"/>
<path d="M282.405 163.754H279.008V165.349H282.405V163.754Z" fill="#F5F5F5"/>
<path d="M289.186 163.754H285.789V165.349H289.186V163.754Z" fill="#F5F5F5"/>
<path d="M275.631 167.694H272.234V169.288H275.631V167.694Z" fill="#F5F5F5"/>
<path d="M282.405 167.694H279.008V169.288H282.405V167.694Z" fill="#F5F5F5"/>
<path d="M289.186 167.694H285.789V169.288H289.186V167.694Z" fill="#F5F5F5"/>
<path d="M241.327 120.7H219.438V180.035H241.327V120.7Z" fill="#F0F0F0"/>
<path d="M225.308 124.325H221.911V125.919H225.308V124.325Z" fill="#F5F5F5"/>
<path d="M232.088 124.325H228.691V125.92H232.088V124.325Z" fill="#F5F5F5"/>
<path d="M238.862 124.325H235.465V125.919H238.862V124.325Z" fill="#F5F5F5"/>
<path d="M225.308 128.271H221.911V129.866H225.308V128.271Z" fill="#F5F5F5"/>
<path d="M232.088 128.271H228.691V129.866H232.088V128.271Z" fill="#F5F5F5"/>
<path d="M238.862 128.271H235.465V129.866H238.862V128.271Z" fill="#F5F5F5"/>
<path d="M225.308 132.211H221.911V133.806H225.308V132.211Z" fill="#F5F5F5"/>
<path d="M232.088 132.211H228.691V133.806H232.088V132.211Z" fill="#F5F5F5"/>
<path d="M238.862 132.211H235.465V133.806H238.862V132.211Z" fill="#F5F5F5"/>
<path d="M225.308 136.157H221.911V137.752H225.308V136.157Z" fill="#F5F5F5"/>
<path d="M232.088 136.157H228.691V137.752H232.088V136.157Z" fill="#F5F5F5"/>
<path d="M238.862 136.157H235.465V137.752H238.862V136.157Z" fill="#F5F5F5"/>
<path d="M225.308 140.097H221.911V141.691H225.308V140.097Z" fill="#F5F5F5"/>
<path d="M232.088 140.097H228.691V141.691H232.088V140.097Z" fill="#F5F5F5"/>
<path d="M238.862 140.097H235.465V141.691H238.862V140.097Z" fill="#F5F5F5"/>
<path d="M225.308 144.043H221.911V145.638H225.308V144.043Z" fill="#F5F5F5"/>
<path d="M232.088 144.043H228.691V145.638H232.088V144.043Z" fill="#F5F5F5"/>
<path d="M238.862 144.043H235.465V145.638H238.862V144.043Z" fill="#F5F5F5"/>
<path d="M225.308 147.983H221.911V149.578H225.308V147.983Z" fill="#F5F5F5"/>
<path d="M232.088 147.983H228.691V149.577H232.088V147.983Z" fill="#F5F5F5"/>
<path d="M238.862 147.983H235.465V149.578H238.862V147.983Z" fill="#F5F5F5"/>
<path d="M225.308 151.929H221.911V153.523H225.308V151.929Z" fill="#F5F5F5"/>
<path d="M232.088 151.929H228.691V153.524H232.088V151.929Z" fill="#F5F5F5"/>
<path d="M238.862 151.929H235.465V153.523H238.862V151.929Z" fill="#F5F5F5"/>
<path d="M225.308 155.869H221.911V157.463H225.308V155.869Z" fill="#F5F5F5"/>
<path d="M232.088 155.869H228.691V157.463H232.088V155.869Z" fill="#F5F5F5"/>
<path d="M238.862 155.869H235.465V157.463H238.862V155.869Z" fill="#F5F5F5"/>
<path d="M225.308 159.808H221.911V161.403H225.308V159.808Z" fill="#F5F5F5"/>
<path d="M232.088 159.808H228.691V161.403H232.088V159.808Z" fill="#F5F5F5"/>
<path d="M238.862 159.808H235.465V161.403H238.862V159.808Z" fill="#F5F5F5"/>
<path d="M225.308 163.754H221.911V165.349H225.308V163.754Z" fill="#F5F5F5"/>
<path d="M232.088 163.754H228.691V165.349H232.088V163.754Z" fill="#F5F5F5"/>
<path d="M238.862 163.754H235.465V165.349H238.862V163.754Z" fill="#F5F5F5"/>
<path d="M225.308 167.694H221.911V169.288H225.308V167.694Z" fill="#F5F5F5"/>
<path d="M232.088 167.694H228.691V169.289H232.088V167.694Z" fill="#F5F5F5"/>
<path d="M238.862 167.694H235.465V169.288H238.862V167.694Z" fill="#F5F5F5"/>
<path d="M280.71 120.7H272.234L276.469 113.357L280.71 106.021L284.944 113.357L289.185 120.7H280.71Z" fill="#F0F0F0"/>
<path d="M281.159 94.6842H280.261V111.414H281.159V94.6842Z" fill="#F0F0F0"/>
<path d="M267.947 124.325H244.483V180.035H267.947V124.325Z" fill="#F0F0F0"/>
<path d="M255.063 122.422H246.212V129.98H255.063V122.422Z" fill="#F0F0F0"/>
<path d="M249.374 121.866H247.002V128.653H249.374V121.866Z" fill="#F0F0F0"/>
<path d="M254.318 121.866H251.946V128.653H254.318V121.866Z" fill="#F0F0F0"/>
<path d="M266.453 122.449H261.18V127.722H266.453V122.449Z" fill="#F0F0F0"/>
<path d="M251.324 129.069H247.927V130.663H251.324V129.069Z" fill="#F5F5F5"/>
<path d="M258.104 129.068H254.707V130.663H258.104V129.068Z" fill="#F5F5F5"/>
<path d="M264.878 129.069H261.481V130.663H264.878V129.069Z" fill="#F5F5F5"/>
<path d="M251.324 133.008H247.927V134.603H251.324V133.008Z" fill="#F5F5F5"/>
<path d="M258.104 133.008H254.707V134.603H258.104V133.008Z" fill="#F5F5F5"/>
<path d="M264.878 133.008H261.481V134.603H264.878V133.008Z" fill="#F5F5F5"/>
<path d="M251.324 136.955H247.927V138.549H251.324V136.955Z" fill="#F5F5F5"/>
<path d="M258.104 136.955H254.707V138.549H258.104V136.955Z" fill="#F5F5F5"/>
<path d="M264.878 136.955H261.481V138.549H264.878V136.955Z" fill="#F5F5F5"/>
<path d="M251.324 140.894H247.927V142.489H251.324V140.894Z" fill="#F5F5F5"/>
<path d="M258.104 140.894H254.707V142.489H258.104V140.894Z" fill="#F5F5F5"/>
<path d="M264.878 140.894H261.481V142.489H264.878V140.894Z" fill="#F5F5F5"/>
<path d="M251.324 144.84H247.927V146.435H251.324V144.84Z" fill="#F5F5F5"/>
<path d="M258.104 144.84H254.707V146.435H258.104V144.84Z" fill="#F5F5F5"/>
<path d="M264.878 144.84H261.481V146.435H264.878V144.84Z" fill="#F5F5F5"/>
<path d="M251.324 148.78H247.927V150.375H251.324V148.78Z" fill="#F5F5F5"/>
<path d="M258.104 148.78H254.707V150.374H258.104V148.78Z" fill="#F5F5F5"/>
<path d="M264.878 148.78H261.481V150.375H264.878V148.78Z" fill="#F5F5F5"/>
<path d="M251.324 152.72H247.927V154.314H251.324V152.72Z" fill="#F5F5F5"/>
<path d="M258.104 152.72H254.707V154.314H258.104V152.72Z" fill="#F5F5F5"/>
<path d="M264.878 152.72H261.481V154.314H264.878V152.72Z" fill="#F5F5F5"/>
<path d="M251.324 156.666H247.927V158.26H251.324V156.666Z" fill="#F5F5F5"/>
<path d="M258.104 156.666H254.707V158.261H258.104V156.666Z" fill="#F5F5F5"/>
<path d="M264.878 156.666H261.481V158.26H264.878V156.666Z" fill="#F5F5F5"/>
<path d="M251.324 160.605H247.927V162.2H251.324V160.605Z" fill="#F5F5F5"/>
<path d="M258.104 160.605H254.707V162.2H258.104V160.605Z" fill="#F5F5F5"/>
<path d="M264.878 160.605H261.481V162.2H264.878V160.605Z" fill="#F5F5F5"/>
<path d="M251.324 164.552H247.927V166.146H251.324V164.552Z" fill="#F5F5F5"/>
<path d="M258.104 164.552H254.707V166.146H258.104V164.552Z" fill="#F5F5F5"/>
<path d="M264.878 164.552H261.481V166.146H264.878V164.552Z" fill="#F5F5F5"/>
<path d="M251.324 168.491H247.927V170.086H251.324V168.491Z" fill="#F5F5F5"/>
<path d="M258.104 168.492H254.707V170.086H258.104V168.492Z" fill="#F5F5F5"/>
<path d="M264.878 168.491H261.481V170.086H264.878V168.491Z" fill="#F5F5F5"/>
<path d="M251.324 172.438H247.927V174.032H251.324V172.438Z" fill="#F5F5F5"/>
<path d="M258.104 172.438H254.707V174.032H258.104V172.438Z" fill="#F5F5F5"/>
<path d="M264.878 172.438H261.481V174.032H264.878V172.438Z" fill="#F5F5F5"/>
<path opacity="0.2" d="M286.854 70.1957L219.438 137.611V118.255L267.498 70.1957H286.854Z" fill="white"/>
<path opacity="0.2" d="M291.658 94.6039V108.419L220.028 180.049H219.438V166.823L291.658 94.6039Z" fill="white"/>
<path d="M186.508 202.34H70.4639C70.4639 203.283 70.8387 204.188 71.5059 204.856C72.1731 205.523 73.078 205.898 74.0216 205.898H182.95C183.894 205.898 184.799 205.523 185.466 204.856C186.133 204.188 186.508 203.283 186.508 202.34Z" fill="#F0F0F0"/>
<path d="M163.715 235.98H94.3027V239.27H163.715V235.98Z" fill="#F0F0F0"/>
<path d="M161.255 274.927L170.715 205.891H167.392L157.932 274.927H161.255Z" fill="#F0F0F0"/>
<path d="M169.034 274.927L159.42 205.891H162.743L172.358 274.927H169.034Z" fill="#F0F0F0"/>
<path d="M88.9961 274.927L98.8585 205.891H95.5352L85.6729 274.927H88.9961Z" fill="#F0F0F0"/>
<path d="M96.7748 274.927L87.3145 205.891H90.6376L100.098 274.927H96.7748Z" fill="#F0F0F0"/>
<path d="M190.401 196.625H66.5713V202.353H190.401V196.625Z" fill="#F5F5F5"/>
<path d="M111.22 196.645H164.954L165.537 195.305C165.905 194.481 164.947 193.65 163.621 193.65H114.041C113.666 193.618 113.29 193.688 112.952 193.853C112.615 194.018 112.329 194.272 112.124 194.588L111.22 196.645Z" fill="#E0E0E0"/>
<path d="M179.668 159.239L172.787 188.33C172.702 188.709 172.49 189.049 172.187 189.292C171.884 189.535 171.507 189.669 171.118 189.67H128.741C128.482 189.669 128.226 189.609 127.993 189.496C127.761 189.382 127.556 189.217 127.396 189.014C127.236 188.81 127.123 188.573 127.067 188.32C127.011 188.067 127.013 187.805 127.073 187.553L133.947 158.461C134.034 158.082 134.247 157.743 134.551 157.5C134.855 157.257 135.233 157.123 135.622 157.121H177.993C178.253 157.12 178.51 157.178 178.744 157.291C178.978 157.404 179.184 157.568 179.345 157.772C179.507 157.976 179.62 158.214 179.675 158.468C179.731 158.722 179.729 158.986 179.668 159.239Z" fill="#F0F0F0"/>
<path d="M159.078 174.528C158.963 175.429 158.528 176.26 157.854 176.868C157.179 177.477 156.308 177.823 155.4 177.844C154.977 177.854 154.558 177.772 154.17 177.604C153.783 177.436 153.436 177.185 153.155 176.87C152.874 176.554 152.665 176.181 152.543 175.777C152.42 175.373 152.387 174.946 152.445 174.528C152.554 173.62 152.987 172.782 153.663 172.167C154.34 171.551 155.216 171.2 156.13 171.178C156.555 171.168 156.977 171.252 157.367 171.423C157.756 171.593 158.103 171.847 158.384 172.166C158.665 172.486 158.873 172.862 158.993 173.27C159.112 173.678 159.142 174.108 159.078 174.528Z" fill="#E0E0E0"/>
<path d="M137.303 157.128L129.98 189.657H128.741C128.482 189.656 128.226 189.596 127.993 189.482C127.761 189.369 127.556 189.204 127.396 189.001C127.236 188.797 127.123 188.56 127.067 188.307C127.011 188.054 127.013 187.792 127.073 187.54L133.947 158.448C134.034 158.069 134.247 157.73 134.551 157.487C134.855 157.244 135.233 157.11 135.622 157.108L137.303 157.128Z" fill="#E0E0E0"/>
<path d="M149.578 189.657L148.131 196.564H152.379L153.819 189.657H149.578Z" fill="#E0E0E0"/>
<path d="M141.933 195.399L142.804 194.172C142.958 193.963 143.16 193.793 143.393 193.676C143.626 193.56 143.883 193.5 144.144 193.502H155.788C156.089 193.502 156.385 193.584 156.642 193.74C156.9 193.896 157.11 194.12 157.249 194.387L157.838 195.506C157.901 195.624 157.933 195.756 157.93 195.889C157.928 196.023 157.891 196.153 157.824 196.269C157.757 196.384 157.662 196.48 157.547 196.549C157.432 196.617 157.302 196.654 157.168 196.658H142.576C142.428 196.662 142.282 196.624 142.155 196.548C142.028 196.473 141.925 196.363 141.857 196.231C141.79 196.099 141.761 195.951 141.775 195.804C141.788 195.657 141.843 195.516 141.933 195.399Z" fill="#E0E0E0"/>
<path d="M264.341 259.598C264.341 259.598 258.687 260.851 259.531 256.918C260.375 252.985 260.308 251.518 258.01 249.729C255.712 247.94 253.4 247.049 255.156 244.208C256.911 241.367 253.581 239.163 251.853 237.635C250.124 236.108 252.074 234.955 252.523 232.068C252.972 229.18 249.843 229.609 249.628 225.97C249.414 222.332 253.085 218.078 249.903 213.073C249.903 213.073 254.171 215.284 255.578 219.177C256.985 223.069 255.846 226.064 258.365 227.545C260.884 229.026 262.465 231.565 261.615 234.205C260.764 236.845 261.97 238.225 264.04 240.134C266.11 242.044 265.554 242.814 265.3 245.146C265.045 247.478 265.561 246.935 267.926 250.131C270.291 253.327 270.358 258.553 264.341 259.598Z" fill="#F0F0F0"/>
<path d="M265.146 259.424V259.363L253.829 225.026C253.818 224.991 253.813 224.954 253.816 224.917C253.819 224.88 253.829 224.844 253.846 224.811C253.863 224.778 253.886 224.749 253.914 224.725C253.942 224.701 253.975 224.682 254.01 224.671C254.08 224.651 254.155 224.659 254.22 224.693C254.285 224.726 254.334 224.783 254.359 224.852L265.675 259.196C265.678 259.223 265.678 259.25 265.675 259.276L265.146 259.424Z" fill="#E0E0E0"/>
<path d="M274.546 259.531C274.546 259.531 280.167 260.777 279.337 256.851C278.506 252.925 278.559 251.491 280.844 249.695C283.129 247.9 285.434 247.015 283.685 244.208C281.936 241.401 285.253 239.19 286.968 237.669C288.683 236.148 286.747 234.989 286.298 232.128C285.849 229.267 288.938 229.683 289.179 226.098C289.42 222.514 285.749 218.252 288.904 213.268C288.904 213.268 284.663 215.472 283.263 219.338C281.863 223.204 282.995 226.192 280.489 227.666C277.983 229.14 276.409 231.686 277.26 234.285C278.111 236.885 276.905 238.305 274.848 240.181C272.791 242.057 273.34 242.861 273.595 245.173C273.849 247.484 273.333 246.948 270.982 250.131C268.63 253.313 268.563 258.486 274.546 259.531Z" fill="#F0F0F0"/>
<path d="M273.226 259.203C273.223 259.174 273.223 259.145 273.226 259.116L284.482 224.946C284.507 224.877 284.556 224.82 284.621 224.787C284.685 224.753 284.76 224.745 284.83 224.765C284.865 224.775 284.898 224.793 284.926 224.817C284.953 224.84 284.976 224.869 284.993 224.902C285.009 224.934 285.018 224.97 285.02 225.006C285.023 225.043 285.017 225.079 285.005 225.113L273.755 259.283C273.747 259.305 273.736 259.325 273.722 259.344L273.226 259.203Z" fill="#E0E0E0"/>
<path d="M268.302 258.814C268.302 258.814 261.83 258.278 264.041 254.332C266.252 250.386 266.667 248.804 264.798 246.124C262.929 243.444 260.778 241.723 263.578 239.264C266.379 236.805 263.578 233.334 262.238 231.13C260.898 228.926 263.364 228.329 264.811 225.388C266.258 222.447 262.801 221.877 263.739 217.897C264.677 213.918 270.057 210.594 268.315 204.176C268.315 204.176 272.154 207.961 272.335 212.591C272.516 217.221 270.325 220.068 272.543 222.487C274.761 224.906 275.598 228.168 273.809 230.694C272.021 233.22 272.858 235.116 274.439 237.85C276.02 240.584 275.176 241.2 274.124 243.639C273.072 246.078 273.809 245.649 275.283 249.85C276.757 254.051 275.096 259.692 268.302 258.814Z" fill="#F5F5F5"/>
<path d="M269.22 258.895C269.217 258.87 269.217 258.845 269.22 258.821L268.503 218.279C268.503 218.196 268.535 218.116 268.592 218.056C268.65 217.996 268.728 217.961 268.811 217.958C268.852 217.958 268.893 217.966 268.932 217.981C268.97 217.997 269.005 218.021 269.034 218.05C269.063 218.079 269.086 218.114 269.102 218.152C269.118 218.19 269.126 218.231 269.126 218.272L269.843 258.807C269.847 258.839 269.847 258.87 269.843 258.901L269.22 258.895Z" fill="#E0E0E0"/>
<path d="M285.923 255.685H254.273C254.062 255.685 253.855 255.735 253.669 255.833C253.483 255.93 253.323 256.071 253.203 256.243C253.083 256.416 253.007 256.615 252.981 256.823C252.955 257.032 252.98 257.244 253.053 257.44L253.522 258.687L253.817 259.471L254.668 261.728L254.963 262.519L255.834 264.831L256.128 265.621L259.612 274.867H280.583L284.061 265.621L284.362 264.831L285.233 262.519L285.528 261.728L286.379 259.471L286.674 258.687L287.143 257.44C287.216 257.244 287.241 257.032 287.215 256.823C287.189 256.615 287.113 256.416 286.993 256.243C286.873 256.071 286.713 255.93 286.527 255.833C286.341 255.735 286.133 255.685 285.923 255.685Z" fill="#E6E6E6"/>
<path d="M164.808 294.572C236.712 294.572 295.002 292.751 295.002 290.505C295.002 288.259 236.712 286.438 164.808 286.438C92.9033 286.438 34.6133 288.259 34.6133 290.505C34.6133 292.751 92.9033 294.572 164.808 294.572Z" fill="#F0F0F0"/>
<path d="M77.3592 265.642L71.8518 290.398H57.0582L51.5508 265.642H77.3592Z" fill="#2848BD"/>
<path opacity="0.5" d="M77.3592 265.642L71.8518 290.398H57.0582L51.5508 265.642H77.3592Z" fill="white"/>
<path d="M78.4704 265.642H50.25V268.67H78.4704V265.642Z" fill="#2848BD"/>
<path opacity="0.7" d="M78.4704 265.642H50.25V268.67H78.4704V265.642Z" fill="white"/>
<path d="M64.6149 265.642H65.2849C65.6199 245.314 60.012 230.728 59.9249 230.567C59.8378 230.406 59.2549 230.634 59.3152 230.802C59.3755 230.969 64.9901 245.441 64.6149 265.642Z" fill="#2848BD"/>
<path d="M63.3086 245.133C63.3086 245.133 61.0708 238.292 73.4122 235.914C73.4122 235.914 73.1844 247.9 63.3086 245.133Z" fill="#2848BD"/>
<path d="M64.6146 256.442C64.6146 256.442 62.3701 249.602 74.7182 247.23C74.7182 247.23 74.4904 259.21 64.6146 256.442Z" fill="#2848BD"/>
<path d="M64.1792 249.649C64.1792 249.649 63.4556 242.487 51.208 245.314C51.208 245.314 56.2799 256.181 64.1792 249.649Z" fill="#2848BD"/>
<path d="M64.9165 259.96C64.9165 259.96 64.1929 252.798 51.9453 255.625C51.9453 255.619 57.0105 266.486 64.9165 259.96Z" fill="#2848BD"/>
<path d="M61.928 238.56C61.928 238.56 54.7456 239.056 55.4692 226.5C55.4692 226.507 67.0334 229.663 61.928 238.56Z" fill="#2848BD"/>
<path d="M233.461 203.961C233.819 204.441 234.238 204.871 234.707 205.241L233.669 207.7L236.349 208.839L237.347 206.474C237.978 206.613 238.626 206.655 239.27 206.601L240.396 209.382L243.116 208.276L242.071 205.717C242.79 205.293 243.424 204.739 243.94 204.082L246.406 205.12L247.545 202.44L245.22 201.429C245.383 200.68 245.41 199.909 245.3 199.151L247.605 198.213L246.499 195.533L244.275 196.437C243.791 195.696 243.159 195.062 242.419 194.575L243.411 192.216L240.731 191.077L239.692 193.543C239.099 193.459 238.497 193.459 237.903 193.543L236.838 190.917L234.125 192.022L235.156 194.568C234.419 195.058 233.786 195.688 233.294 196.424L230.935 195.432L229.796 198.112L232.262 199.151C232.162 199.861 232.18 200.583 232.316 201.288L229.77 202.327L230.875 205.04L233.461 203.961ZM236.282 198.99C236.489 198.503 236.836 198.089 237.279 197.799C237.722 197.509 238.24 197.356 238.769 197.361C239.299 197.365 239.815 197.526 240.252 197.823C240.69 198.12 241.03 198.541 241.23 199.031C241.429 199.521 241.479 200.059 241.373 200.578C241.267 201.096 241.01 201.571 240.634 201.944C240.258 202.317 239.781 202.57 239.261 202.671C238.742 202.772 238.204 202.718 237.716 202.514C237.389 202.378 237.093 202.179 236.844 201.927C236.595 201.676 236.398 201.378 236.265 201.051C236.132 200.723 236.065 200.372 236.067 200.019C236.07 199.665 236.143 199.315 236.282 198.99Z" fill="#2848BD"/>
<g opacity="0.5">
<path d="M233.461 203.961C233.819 204.441 234.238 204.871 234.707 205.241L233.669 207.7L236.349 208.839L237.347 206.474C237.978 206.613 238.626 206.655 239.27 206.601L240.396 209.382L243.116 208.276L242.071 205.717C242.79 205.293 243.424 204.739 243.94 204.082L246.406 205.12L247.545 202.44L245.22 201.429C245.383 200.68 245.41 199.909 245.3 199.151L247.605 198.213L246.499 195.533L244.275 196.437C243.791 195.696 243.159 195.062 242.419 194.575L243.411 192.216L240.731 191.077L239.692 193.543C239.099 193.459 238.497 193.459 237.903 193.543L236.838 190.917L234.125 192.022L235.156 194.568C234.419 195.058 233.786 195.688 233.294 196.424L230.935 195.432L229.796 198.112L232.262 199.151C232.162 199.861 232.18 200.583 232.316 201.288L229.77 202.327L230.875 205.04L233.461 203.961ZM236.282 198.99C236.489 198.503 236.836 198.089 237.279 197.799C237.722 197.509 238.24 197.356 238.769 197.361C239.299 197.365 239.815 197.526 240.252 197.823C240.69 198.12 241.03 198.541 241.23 199.031C241.429 199.521 241.479 200.059 241.373 200.578C241.267 201.096 241.01 201.571 240.634 201.944C240.258 202.317 239.781 202.57 239.261 202.671C238.742 202.772 238.204 202.718 237.716 202.514C237.389 202.378 237.093 202.179 236.844 201.927C236.595 201.676 236.398 201.378 236.265 201.051C236.132 200.723 236.065 200.372 236.067 200.019C236.07 199.665 236.143 199.315 236.282 198.99Z" fill="white"/>
</g>
<path d="M79.381 99.2336C79.7368 99.7144 80.156 100.145 80.6272 100.513L79.5887 102.979L82.2687 104.118L83.267 101.759C83.898 101.898 84.5462 101.941 85.1899 101.887L86.3155 104.661L89.0357 103.555L87.9905 100.996C88.7117 100.574 89.3461 100.02 89.8598 99.3609L92.3254 100.406L93.4644 97.7261L91.1194 96.7077C91.2796 95.9567 91.3068 95.1834 91.1998 94.423L93.5046 93.4917L92.3991 90.7715L90.1747 91.676C89.6852 90.9386 89.0544 90.3056 88.3188 89.8134L89.3104 87.455L86.6304 86.316L85.5919 88.7816C84.9983 88.7016 84.3966 88.7016 83.803 88.7816L82.7377 86.1619L80.0577 87.2607L81.0694 89.7799C80.3323 90.2725 79.6994 90.9054 79.2068 91.6425L76.8484 90.6442L75.7094 93.3242L78.175 94.3627C78.0754 95.0732 78.0935 95.7953 78.2286 96.5L75.6826 97.5318L76.7881 100.252L79.381 99.2336ZM82.2017 94.2689C82.4082 93.7812 82.7545 93.3657 83.197 93.0747C83.6394 92.7838 84.1581 92.6304 84.6877 92.6339C85.2172 92.6375 85.7338 92.7979 86.1723 93.0948C86.6107 93.3917 86.9514 93.8119 87.1513 94.3023C87.3512 94.7927 87.4013 95.3313 87.2954 95.8501C87.1894 96.3689 86.9322 96.8448 86.556 97.2175C86.1799 97.5902 85.7017 97.8432 85.182 97.9445C84.6622 98.0457 84.1241 97.9907 83.6355 97.7864C83.3099 97.6502 83.0144 97.451 82.766 97.2003C82.5175 96.9496 82.3211 96.6523 82.1878 96.3255C82.0546 95.9987 81.9873 95.6487 81.9896 95.2958C81.992 94.9429 82.0641 94.5939 82.2017 94.2689Z" fill="#2848BD"/>
<g opacity="0.5">
<path d="M79.381 99.2336C79.7368 99.7144 80.156 100.145 80.6272 100.513L79.5887 102.979L82.2687 104.118L83.267 101.759C83.898 101.898 84.5462 101.941 85.1899 101.887L86.3155 104.661L89.0357 103.555L87.9905 100.996C88.7117 100.574 89.3461 100.02 89.8598 99.3609L92.3254 100.406L93.4644 97.7261L91.1194 96.7077C91.2796 95.9567 91.3068 95.1834 91.1998 94.423L93.5046 93.4917L92.3991 90.7715L90.1747 91.676C89.6852 90.9386 89.0544 90.3056 88.3188 89.8134L89.3104 87.455L86.6304 86.316L85.5919 88.7816C84.9983 88.7016 84.3966 88.7016 83.803 88.7816L82.7377 86.1619L80.0577 87.2607L81.0694 89.7799C80.3323 90.2725 79.6994 90.9054 79.2068 91.6425L76.8484 90.6442L75.7094 93.3242L78.175 94.3627C78.0754 95.0732 78.0935 95.7953 78.2286 96.5L75.6826 97.5318L76.7881 100.252L79.381 99.2336ZM82.2017 94.2689C82.4082 93.7812 82.7545 93.3657 83.197 93.0747C83.6394 92.7838 84.1581 92.6304 84.6877 92.6339C85.2172 92.6375 85.7338 92.7979 86.1723 93.0948C86.6107 93.3917 86.9514 93.8119 87.1513 94.3023C87.3512 94.7927 87.4013 95.3313 87.2954 95.8501C87.1894 96.3689 86.9322 96.8448 86.556 97.2175C86.1799 97.5902 85.7017 97.8432 85.182 97.9445C84.6622 98.0457 84.1241 97.9907 83.6355 97.7864C83.3099 97.6502 83.0144 97.451 82.766 97.2003C82.5175 96.9496 82.3211 96.6523 82.1878 96.3255C82.0546 95.9987 81.9873 95.6487 81.9896 95.2958C81.992 94.9429 82.0641 94.5939 82.2017 94.2689Z" fill="white"/>
</g>
<path d="M173.128 95.5285V118.456H104.346V49.6804H110.55C110.55 49.6804 114.778 50.8864 116.178 54.2431C117.438 57.2313 115.555 60.8359 115.126 61.6131L115.053 61.7404C114.135 63.3283 113.652 65.1296 113.652 66.9633C113.652 68.797 114.134 70.5984 115.051 72.1865C115.968 73.7746 117.287 75.0934 118.875 76.0103C120.462 76.9272 122.264 77.4099 124.098 77.4099C125.931 77.4099 127.733 76.9272 129.321 76.0103C130.909 75.0934 132.227 73.7746 133.144 72.1865C134.061 70.5984 134.543 68.797 134.543 66.9633C134.543 65.1296 134.06 63.3283 133.143 61.7404C133.111 61.7053 133.086 61.6643 133.069 61.6198C132.633 60.856 130.751 57.2514 132.004 54.2498C133.417 50.8998 137.638 49.6871 137.638 49.6871H173.148V68.4739C173.148 68.4739 171.936 72.7016 168.586 74.1086C165.597 75.3682 161.993 73.4788 161.216 73.0567L161.088 72.983C159.499 72.0535 157.69 71.5676 155.849 71.576C154.245 71.5748 152.663 71.9429 151.224 72.6517C149.786 73.3606 148.53 74.3911 147.553 75.6636C146.577 76.936 145.907 78.4161 145.595 79.9892C145.283 81.5622 145.338 83.186 145.754 84.7347C146.171 86.2834 146.938 87.7153 147.998 88.9195C149.057 90.1238 150.379 91.068 151.862 91.6789C153.344 92.2899 154.948 92.5512 156.548 92.4427C158.148 92.3341 159.702 91.8586 161.088 91.0529L161.209 90.9792C161.973 90.5504 165.577 88.661 168.579 89.9206C171.915 91.3008 173.128 95.5285 173.128 95.5285Z" fill="#2848BD"/>
<g opacity="0.7">
<path d="M173.128 95.5285V118.456H104.346V49.6804H110.55C110.55 49.6804 114.778 50.8864 116.178 54.2431C117.438 57.2313 115.555 60.8359 115.126 61.6131L115.053 61.7404C114.135 63.3283 113.652 65.1296 113.652 66.9633C113.652 68.797 114.134 70.5984 115.051 72.1865C115.968 73.7746 117.287 75.0934 118.875 76.0103C120.462 76.9272 122.264 77.4099 124.098 77.4099C125.931 77.4099 127.733 76.9272 129.321 76.0103C130.909 75.0934 132.227 73.7746 133.144 72.1865C134.061 70.5984 134.543 68.797 134.543 66.9633C134.543 65.1296 134.06 63.3283 133.143 61.7404C133.111 61.7053 133.086 61.6643 133.069 61.6198C132.633 60.856 130.751 57.2514 132.004 54.2498C133.417 50.8998 137.638 49.6871 137.638 49.6871H173.148V68.4739C173.148 68.4739 171.936 72.7016 168.586 74.1086C165.597 75.3682 161.993 73.4788 161.216 73.0567L161.088 72.983C159.499 72.0535 157.69 71.5676 155.849 71.576C154.245 71.5748 152.663 71.9429 151.224 72.6517C149.786 73.3606 148.53 74.3911 147.553 75.6636C146.577 76.936 145.907 78.4161 145.595 79.9892C145.283 81.5622 145.338 83.186 145.754 84.7347C146.171 86.2834 146.938 87.7153 147.998 88.9195C149.057 90.1238 150.379 91.068 151.862 91.6789C153.344 92.2899 154.948 92.5512 156.548 92.4427C158.148 92.3341 159.702 91.8586 161.088 91.0529L161.209 90.9792C161.973 90.5504 165.577 88.661 168.579 89.9206C171.915 91.3008 173.128 95.5285 173.128 95.5285Z" fill="white"/>
</g>
<path d="M241.87 49.6804V118.389H232.677C232.007 118.161 228.43 116.881 227.163 113.866C225.897 110.851 227.786 107.28 228.215 106.496L228.296 106.369C229.222 104.781 229.708 102.975 229.703 101.136C229.7 99.5369 229.329 97.9594 228.619 96.526C227.909 95.0925 226.879 93.8415 225.609 92.8697C224.338 91.8978 222.862 91.2311 221.292 90.9211C219.723 90.6111 218.104 90.6661 216.559 91.0819C215.014 91.4977 213.586 92.2631 212.385 93.319C211.183 94.3748 210.24 95.6929 209.629 97.1712C209.019 98.6495 208.756 100.248 208.862 101.845C208.967 103.441 209.439 104.991 210.239 106.376L210.319 106.503C210.748 107.26 212.624 110.865 211.371 113.873C210.118 116.881 206.554 118.168 205.857 118.396H173.128V95.4883C173.128 95.4883 171.922 91.2606 168.572 89.8536C165.59 88.6074 161.986 90.4834 161.202 90.9122L161.081 90.9859C159.696 91.8027 158.141 92.2884 156.538 92.4053C154.934 92.5222 153.325 92.2671 151.836 91.6598C150.347 91.0525 149.019 90.1095 147.955 88.9044C146.89 87.6992 146.119 86.2645 145.7 84.7121C145.281 83.1597 145.227 81.5315 145.541 79.9546C145.855 78.3777 146.53 76.8948 147.511 75.6213C148.493 74.3479 149.756 73.3184 151.201 72.6132C152.646 71.9081 154.234 71.5462 155.842 71.5559C157.68 71.5507 159.487 72.0364 161.074 72.9629C161.111 72.9945 161.152 73.0215 161.195 73.0433C161.959 73.4721 165.563 75.3548 168.565 74.0952C171.915 72.6949 173.121 68.4672 173.121 68.4672V49.7072L241.87 49.6804Z" fill="#2848BD"/>
<path opacity="0.5" d="M241.87 49.6804V118.389H232.677C232.007 118.161 228.43 116.881 227.163 113.866C225.897 110.851 227.786 107.28 228.215 106.496L228.296 106.369C229.222 104.781 229.708 102.975 229.703 101.136C229.7 99.5369 229.329 97.9594 228.619 96.526C227.909 95.0925 226.879 93.8415 225.609 92.8697C224.338 91.8978 222.862 91.2311 221.292 90.9211C219.723 90.6111 218.104 90.6661 216.559 91.0819C215.014 91.4977 213.586 92.2631 212.385 93.319C211.183 94.3748 210.24 95.6929 209.629 97.1712C209.019 98.6495 208.756 100.248 208.862 101.845C208.967 103.441 209.439 104.991 210.239 106.376L210.319 106.503C210.748 107.26 212.624 110.865 211.371 113.873C210.118 116.881 206.554 118.168 205.857 118.396H173.128V95.4883C173.128 95.4883 171.922 91.2606 168.572 89.8536C165.59 88.6074 161.986 90.4834 161.202 90.9122L161.081 90.9859C159.696 91.8027 158.141 92.2884 156.538 92.4053C154.934 92.5222 153.325 92.2671 151.836 91.6598C150.347 91.0525 149.019 90.1095 147.955 88.9044C146.89 87.6992 146.119 86.2645 145.7 84.7121C145.281 83.1597 145.227 81.5315 145.541 79.9546C145.855 78.3777 146.53 76.8948 147.511 75.6213C148.493 74.3479 149.756 73.3184 151.201 72.6132C152.646 71.9081 154.234 71.5462 155.842 71.5559C157.68 71.5507 159.487 72.0364 161.074 72.9629C161.111 72.9945 161.152 73.0215 161.195 73.0433C161.959 73.4721 165.563 75.3548 168.565 74.0952C171.915 72.6949 173.121 68.4672 173.121 68.4672V49.7072L241.87 49.6804Z" fill="white"/>
<path d="M194.165 125.819L189.047 138.067C188.189 140.077 187.311 142.087 186.427 144.097C185.985 145.082 185.522 146.053 185.087 146.984C184.651 147.916 184.156 148.84 183.707 149.591C183.589 149.805 183.457 150.011 183.311 150.207L182.641 150.522L181.911 150.85L180.424 151.52L174.273 154.1C170.153 155.848 166.025 157.651 161.938 159.547L163.386 164.049C167.841 163.198 172.236 162.207 176.625 161.088C178.816 160.512 181.007 159.942 183.204 159.279L184.873 158.776L185.723 158.508L186.621 158.193L186.963 158.073L187.117 158.006L187.733 157.738L188.055 157.591L188.43 157.356L188.752 157.135C189.04 156.914 189.313 156.675 189.569 156.418C189.837 156.143 190.058 155.895 190.239 155.661C190.601 155.225 190.869 154.85 191.137 154.475C191.586 153.805 191.981 153.189 192.35 152.572C192.624 152.123 192.879 151.688 193.127 151.232C193.71 150.18 194.259 149.142 194.789 148.11C195.861 146.04 196.832 143.969 197.783 141.892C199.673 137.732 201.435 133.578 203.036 129.29L194.165 125.819ZM183.579 150.08H183.546H183.579L183.633 150.046L183.579 150.08Z" fill="#F94962"/>
<path d="M163.064 160.043C162.339 159.292 161.374 158.818 160.337 158.703C158.843 158.703 157.657 158.247 156.545 158.294C155.433 158.341 156.612 159.279 157.342 159.634C158.072 159.989 158.896 160.425 158.535 160.927C158.173 161.43 153.295 163.607 152.873 164.378C152.451 165.148 153.349 165.048 153.349 165.048C153.349 165.048 152.257 165.55 152.277 166.133C152.297 166.716 153.074 166.616 153.074 166.616C153.074 166.616 152.351 166.977 152.665 167.453C152.98 167.929 157.175 166.783 157.396 166.837C157.396 166.837 154.91 166.977 154.796 167.708C154.682 168.438 156.297 168.197 157.583 168.029C158.914 167.879 160.15 167.27 161.081 166.307C161.972 165.329 163.988 164.157 163.761 162.642C163.628 161.752 163.394 160.88 163.064 160.043Z" fill="#CE7A63"/>
<g opacity="0.2">
<path d="M153.282 166.636C154.528 166.073 155.788 165.552 157.061 165.075C157.195 165.405 157.354 165.726 157.536 166.033C157.63 166.187 157.824 165.986 157.737 165.838C157.18 164.876 156.839 163.804 156.739 162.696C156.739 162.508 156.478 162.575 156.498 162.756C156.523 163.038 156.565 163.318 156.625 163.594C156.614 163.589 156.601 163.586 156.588 163.586C156.576 163.586 156.563 163.589 156.551 163.594C155.517 163.892 154.523 164.315 153.59 164.853C153.449 164.934 153.543 165.195 153.697 165.108C154.609 164.584 155.581 164.172 156.592 163.882C156.608 163.875 156.623 163.865 156.636 163.853C156.649 163.84 156.659 163.825 156.665 163.808C156.745 164.154 156.845 164.494 156.967 164.827C155.694 165.273 154.432 165.794 153.181 166.388C153.027 166.448 153.128 166.703 153.282 166.636Z" fill="black"/>
</g>
<g opacity="0.2">
<path d="M158.059 163.748C158.452 163.141 159.037 162.683 159.721 162.447C160.405 162.212 161.148 162.212 161.831 162.448C161.985 162.508 162.079 162.234 161.925 162.173C161.187 161.92 160.385 161.922 159.648 162.178C158.911 162.435 158.281 162.931 157.858 163.587C157.837 163.614 157.827 163.648 157.831 163.682C157.835 163.715 157.852 163.747 157.878 163.768C157.905 163.789 157.939 163.799 157.973 163.795C158.007 163.791 158.038 163.774 158.059 163.748Z" fill="black"/>
</g>
<path opacity="0.2" d="M205.69 127.3C205.69 127.39 205.663 127.478 205.613 127.553C205.563 127.628 205.492 127.686 205.408 127.721C205.325 127.755 205.233 127.764 205.145 127.747C205.057 127.729 204.975 127.686 204.912 127.622C204.848 127.558 204.805 127.477 204.787 127.389C204.769 127.3 204.779 127.209 204.813 127.125C204.847 127.042 204.906 126.971 204.981 126.921C205.056 126.871 205.144 126.844 205.234 126.844C205.355 126.844 205.471 126.892 205.556 126.978C205.642 127.063 205.69 127.179 205.69 127.3Z" fill="black"/>
<path opacity="0.2" d="M205.689 130.322C205.688 130.411 205.66 130.499 205.609 130.573C205.559 130.647 205.487 130.704 205.404 130.738C205.32 130.771 205.229 130.779 205.141 130.761C205.053 130.743 204.972 130.699 204.909 130.635C204.846 130.571 204.804 130.49 204.787 130.401C204.77 130.313 204.779 130.222 204.814 130.139C204.848 130.056 204.907 129.985 204.981 129.936C205.056 129.886 205.144 129.859 205.234 129.859C205.294 129.859 205.354 129.871 205.41 129.895C205.465 129.918 205.516 129.952 205.558 129.995C205.601 130.038 205.634 130.089 205.657 130.145C205.679 130.201 205.69 130.261 205.689 130.322Z" fill="black"/>
<path opacity="0.2" d="M205.69 133.33C205.69 133.42 205.663 133.508 205.613 133.583C205.563 133.658 205.492 133.716 205.408 133.751C205.325 133.785 205.233 133.794 205.145 133.777C205.057 133.759 204.975 133.716 204.912 133.652C204.848 133.588 204.805 133.507 204.787 133.419C204.769 133.33 204.779 133.239 204.813 133.156C204.847 133.072 204.906 133.001 204.981 132.951C205.056 132.901 205.144 132.874 205.234 132.874C205.355 132.874 205.471 132.922 205.556 133.008C205.642 133.093 205.69 133.209 205.69 133.33Z" fill="black"/>
<path d="M194.5 279.296L192.792 286.338H189.086L188.919 279.296H194.5Z" fill="#FF8B7B"/>
<path d="M178.326 291.309C178.527 289.018 179.532 288.334 180.778 288.254C182.025 288.173 186.688 286.626 186.688 286.626C186.688 286.626 187.653 285.172 188.503 284.877C189.354 284.582 190.178 285.447 190.178 285.447L192.503 285.165C192.503 285.165 193.173 284.12 193.683 285.031C194.42 286.458 194.353 290.391 194.265 291.309H178.326Z" fill="#263238"/>
<path d="M178.629 290.713H181.516L194.159 290.646C194.32 290.646 194.287 290.405 194.126 290.405H193.268C193.272 290.394 193.272 290.382 193.268 290.371C193.091 290.098 192.972 289.792 192.919 289.471C192.867 289.149 192.881 288.821 192.963 288.506C193.044 288.191 193.19 287.896 193.391 287.64C193.593 287.385 193.845 287.174 194.132 287.021C194.266 286.947 194.132 286.733 193.978 286.807C193.675 286.973 193.409 287.2 193.195 287.472C192.982 287.745 192.826 288.058 192.737 288.392C192.648 288.727 192.628 289.076 192.678 289.418C192.728 289.76 192.847 290.089 193.027 290.384H191.245L178.609 290.452C178.434 290.472 178.468 290.719 178.629 290.713Z" fill="#2848BD"/>
<path d="M209.83 187.117C208.738 196.563 207.096 205.936 204.913 215.19C204.135 218.621 203.242 222.279 202.233 226.165C204.959 248.69 194.286 281.232 194.286 281.232L188.571 281.105C188.571 281.105 187.854 244.737 188.524 225.696C189.63 194.501 193.429 164.786 193.429 164.786L209 164.726C209 164.726 211.72 169.416 209.83 187.117Z" fill="#2848BD"/>
<path opacity="0.2" d="M209.829 187.118C208.737 196.563 207.095 205.936 204.912 215.191C201.635 202.715 207.592 176.089 207.592 176.089L209.829 187.118Z" fill="black"/>
<path d="M187.934 282.452L187.753 280H195.378L194.949 282.452H187.934Z" fill="#263238"/>
<path d="M218.205 279.296L216.497 286.338H212.792L212.624 279.296H218.205Z" fill="#FF8B7B"/>
<path d="M202.031 291.309C202.232 289.018 203.237 288.334 204.484 288.254C205.73 288.173 210.38 286.626 210.38 286.626C210.38 286.626 211.344 285.172 212.195 284.877C213.046 284.582 213.87 285.447 213.87 285.447L216.195 285.165C216.195 285.165 216.865 284.12 217.374 285.031C218.118 286.458 218.044 290.391 217.957 291.309H202.031Z" fill="#263238"/>
<path d="M202.34 290.713H205.228L217.871 290.646C218.031 290.646 217.998 290.405 217.837 290.405H216.986V290.371C216.807 290.099 216.687 289.793 216.634 289.472C216.58 289.151 216.594 288.822 216.675 288.507C216.756 288.191 216.901 287.896 217.103 287.64C217.304 287.385 217.556 287.174 217.844 287.021C217.978 286.947 217.844 286.733 217.696 286.807C217.393 286.973 217.126 287.199 216.912 287.471C216.698 287.743 216.541 288.056 216.452 288.391C216.362 288.725 216.341 289.074 216.391 289.417C216.44 289.76 216.558 290.089 216.738 290.384H214.936L202.3 290.452C202.139 290.472 202.173 290.719 202.34 290.713Z" fill="#2848BD"/>
<path d="M204.47 165.993C204.47 165.993 207.378 209.047 208.329 226.165C209.421 245.716 211.867 279.042 212.195 281.226H218.104C217.434 281.896 225.689 251.974 222.359 227.626C225.481 204.337 229.28 187.279 224.369 165.316L204.47 165.993Z" fill="#2848BD"/>
<path d="M211.498 282.452L211.317 280H218.949L218.513 282.452H211.498Z" fill="#263238"/>
<path d="M226.158 167.031C213.743 171.131 192.873 169.785 192.873 166.937C192.873 158.931 195.707 149.919 194.95 144.7C189.074 140.593 193.663 136.881 193.154 130.797C192.978 128.552 193.649 126.321 195.033 124.545C196.418 122.768 198.417 121.574 200.638 121.196C201.696 121.015 202.795 120.834 203.881 120.694L204.551 120.613C207.442 120.281 210.351 120.145 213.261 120.205C214.326 120.205 215.425 120.205 216.57 120.238C217.716 120.272 218.835 120.305 219.92 120.385C220.853 120.454 221.761 120.717 222.586 121.158C223.411 121.598 224.134 122.207 224.71 122.944C225.286 123.681 225.7 124.531 225.928 125.438C226.155 126.345 226.19 127.29 226.031 128.211C225.076 133.555 224.472 138.955 224.222 144.378C224.168 145.497 224.135 146.576 224.121 147.634C224.046 151.346 224.214 155.059 224.624 158.75C224.624 158.823 224.624 158.89 224.624 158.957C224.798 160.425 225.019 161.778 225.294 163.017C225.368 163.406 225.455 163.775 225.542 164.143C225.656 164.914 225.957 166.26 226.158 167.031Z" fill="#F94962"/>
<path opacity="0.2" d="M218.292 129.98L224.489 139.313C224.583 138.194 224.697 137.048 224.831 135.889L218.292 129.98Z" fill="black"/>
<path d="M203.874 130.858C203.874 130.963 203.832 131.063 203.758 131.137C203.684 131.211 203.583 131.253 203.478 131.253C203.373 131.253 203.273 131.211 203.199 131.137C203.125 131.063 203.083 130.963 203.083 130.858C203.083 130.753 203.125 130.652 203.199 130.578C203.273 130.504 203.373 130.462 203.478 130.462C203.583 130.462 203.684 130.504 203.758 130.578C203.832 130.652 203.874 130.753 203.874 130.858Z" fill="#DF4461"/>
<path d="M203.632 134.435C203.633 134.488 203.624 134.54 203.604 134.589C203.585 134.637 203.556 134.682 203.519 134.719C203.482 134.757 203.438 134.786 203.39 134.807C203.341 134.827 203.289 134.837 203.237 134.837C203.13 134.837 203.028 134.795 202.953 134.72C202.877 134.644 202.835 134.542 202.835 134.435C202.835 134.383 202.845 134.331 202.866 134.283C202.886 134.234 202.916 134.19 202.953 134.153C202.991 134.117 203.035 134.088 203.084 134.068C203.132 134.049 203.184 134.039 203.237 134.04C203.289 134.039 203.341 134.049 203.389 134.068C203.438 134.088 203.482 134.117 203.519 134.154C203.555 134.191 203.584 134.235 203.604 134.283C203.624 134.331 203.633 134.383 203.632 134.435Z" fill="#DF4461"/>
<path d="M203.237 138.476C203.455 138.476 203.632 138.299 203.632 138.08C203.632 137.862 203.455 137.685 203.237 137.685C203.019 137.685 202.842 137.862 202.842 138.08C202.842 138.299 203.019 138.476 203.237 138.476Z" fill="#DF4461"/>
<path d="M213.213 120.205C210.278 125.37 203.357 128.466 203.357 128.466C202.426 126.148 202.687 122.436 203.88 120.694L204.55 120.613C207.425 120.284 210.319 120.147 213.213 120.205Z" fill="#FF8B7B"/>
<path d="M209.039 99.9305C209.039 99.9305 214.339 104.996 211.9 110.738C210.835 113.365 208.773 115.463 206.165 116.573L209.039 99.9305Z" fill="#263238"/>
<path d="M200.55 98.664C200.55 98.664 195.344 97.793 194.232 103.528C193.12 109.263 193.395 111.354 194.902 112.781C196.912 114.657 200.068 112.613 200.068 112.613L200.55 98.664Z" fill="#263238"/>
<path d="M203.8 122.235C203.772 122.316 203.736 122.394 203.693 122.469C202.688 124.044 203.78 125.491 205.495 125.364C205.662 125.351 205.827 125.329 205.991 125.297C206.612 125.17 207.179 124.854 207.612 124.392C208.935 122.972 210.366 121.657 211.894 120.459C209.301 119.072 208.356 114.148 208.122 111.079L204.102 116.191L203.351 117.303C203.719 117.925 204.011 118.589 204.222 119.28C204.398 119.769 204.452 120.295 204.378 120.81C204.305 121.325 204.106 121.814 203.8 122.235Z" fill="#FF8B7B"/>
<path d="M211.498 120.198C212.91 119.849 214.387 119.849 215.799 120.198L211.9 126.898C209.843 125.404 207.491 127.347 203.357 128.459C206.778 126.505 209.595 123.647 211.498 120.198Z" fill="#2848BD"/>
<path d="M211.498 120.198C212.91 119.849 214.387 119.849 215.799 120.198L211.9 126.898C209.843 125.404 207.491 127.347 203.357 128.459C206.778 126.505 209.595 123.647 211.498 120.198Z" fill="#DF4461"/>
<path d="M204.403 120.506C204.403 120.506 202.018 120.07 200.638 121.176C200.138 122.904 199.766 124.666 199.526 126.449C199.526 126.449 201.817 125.303 203.358 128.459C203.358 128.466 202.574 123.461 204.403 120.506Z" fill="#2848BD"/>
<path d="M204.403 120.506C204.403 120.506 202.018 120.07 200.638 121.176C200.138 122.904 199.766 124.666 199.526 126.449C199.526 126.449 201.817 125.303 203.358 128.459C203.358 128.466 202.574 123.461 204.403 120.506Z" fill="#DF4461"/>
<g opacity="0.2">
<path d="M204.228 119.26C204.017 118.569 203.725 117.905 203.357 117.283L204.108 116.171L206.64 116.225C206.196 117.476 205.347 118.544 204.228 119.26Z" fill="black"/>
</g>
<path d="M208.859 105.585C209.261 110.637 209.529 112.768 207.418 115.689C204.229 120.084 198.038 119.447 196.176 114.61C194.487 110.255 194.112 102.718 198.641 100.051C203.171 97.3844 208.457 100.527 208.859 105.585Z" fill="#FF8B7B"/>
<path d="M207.745 108.888C210.285 108.218 209.286 105.599 209.286 105.599L205.554 106.175C205.554 106.175 205.213 109.558 207.745 108.888Z" fill="#263238"/>
<path d="M196.979 100.5C196.979 100.5 197.562 103.287 200.999 103.434C204.437 103.582 204.128 108.654 207.967 107.85C211.807 107.046 210.648 101.15 209.026 99.9035C207.405 98.6573 200.812 95.9103 196.979 100.5Z" fill="#263238"/>
<path d="M205.02 97.9472C205.02 97.9472 207.512 90.5772 213.301 93.4917C219.09 96.4062 214.011 103.991 210.34 103.006C206.668 102.021 205.02 97.9472 205.02 97.9472Z" fill="#263238"/>
<path d="M198.278 113.371C199.355 112.754 200.362 112.021 201.28 111.186C201.28 111.186 201.642 113.103 200.355 113.813C200.017 114.015 199.615 114.081 199.23 113.999C198.845 113.917 198.505 113.693 198.278 113.371Z" fill="white"/>
<path d="M200.543 107.87C200.597 108.279 200.43 108.64 200.162 108.674C199.894 108.707 199.632 108.413 199.579 108.004C199.525 107.595 199.686 107.233 199.954 107.2C200.222 107.166 200.483 107.461 200.543 107.87Z" fill="#263238"/>
<path d="M196.397 108.54C196.45 108.949 196.283 109.304 196.015 109.344C195.747 109.384 195.486 109.083 195.432 108.674C195.378 108.265 195.539 107.903 195.807 107.863C196.075 107.823 196.336 108.131 196.397 108.533" fill="#263238"/>
<path d="M195.928 107.87L194.909 107.729C194.909 107.729 195.519 108.399 195.928 107.87Z" fill="#263238"/>
<path d="M197.918 108.426C197.918 108.426 197.369 109.605 196.739 110.65C196.69 110.729 196.659 110.818 196.648 110.91C196.638 111.003 196.649 111.096 196.68 111.184C196.711 111.271 196.761 111.351 196.827 111.416C196.893 111.482 196.973 111.531 197.061 111.561C197.496 111.697 197.946 111.783 198.401 111.816L197.918 108.426Z" fill="#FF5652"/>
<path d="M211.13 108.801C211.004 109.245 210.785 109.657 210.488 110.011C210.192 110.364 209.823 110.65 209.408 110.851C208.336 111.314 207.612 110.181 207.746 108.888C207.874 107.736 208.577 106.094 209.756 106.208C210.936 106.322 211.519 107.662 211.157 108.828" fill="#FF8B7B"/>
<path d="M201.67 106.202C201.602 106.201 201.537 106.175 201.489 106.128C201.29 105.896 201.038 105.714 200.755 105.597C200.472 105.481 200.166 105.433 199.861 105.458C199.829 105.464 199.797 105.463 199.766 105.456C199.735 105.45 199.706 105.437 199.68 105.419C199.653 105.401 199.631 105.378 199.614 105.351C199.597 105.325 199.585 105.295 199.579 105.264C199.573 105.232 199.574 105.2 199.581 105.169C199.587 105.138 199.6 105.109 199.618 105.083C199.636 105.057 199.659 105.034 199.686 105.017C199.712 105 199.742 104.988 199.773 104.982C200.156 104.937 200.543 104.984 200.903 105.12C201.263 105.255 201.586 105.474 201.844 105.759C201.867 105.781 201.886 105.808 201.898 105.837C201.911 105.867 201.918 105.898 201.918 105.93C201.918 105.962 201.911 105.994 201.898 106.023C201.886 106.053 201.867 106.079 201.844 106.101C201.823 106.123 201.798 106.14 201.77 106.151C201.743 106.163 201.713 106.168 201.683 106.168" fill="#263238"/>
<path d="M194.493 106.939C194.444 106.943 194.395 106.932 194.352 106.908C194.309 106.883 194.275 106.846 194.254 106.802C194.233 106.757 194.226 106.707 194.234 106.659C194.242 106.61 194.265 106.565 194.299 106.53C194.534 106.223 194.839 105.978 195.189 105.815C195.539 105.651 195.923 105.575 196.309 105.592C196.373 105.598 196.432 105.63 196.473 105.679C196.514 105.729 196.533 105.793 196.527 105.857C196.521 105.921 196.489 105.979 196.44 106.02C196.39 106.061 196.326 106.081 196.262 106.074C195.959 106.067 195.658 106.132 195.384 106.264C195.11 106.395 194.872 106.59 194.688 106.831C194.646 106.883 194.586 106.917 194.52 106.925" fill="#263238"/>
<path d="M200.074 107.2L199.056 107.052C199.056 107.052 199.665 107.722 200.074 107.2Z" fill="#263238"/>
<path d="M231.076 151.842C228.992 155.192 226.674 158.542 224.376 161.845L227.887 165.007C231.026 162.209 233.976 159.206 236.717 156.016C238.177 154.355 239.52 152.596 240.737 150.75C241.052 150.254 241.361 149.745 241.662 149.169C241.998 148.538 242.282 147.882 242.513 147.206C242.664 146.769 242.778 146.321 242.855 145.866C242.972 145.178 242.972 144.476 242.855 143.789C242.749 143.179 242.566 142.584 242.312 142.02C242.15 141.641 241.967 141.272 241.763 140.914C241.139 139.836 240.434 138.808 239.652 137.839C238.949 136.934 238.245 136.097 237.535 135.28C236.094 133.672 234.654 132.124 233.153 130.643C230.178 127.675 227.123 124.888 223.88 122.215L217.689 129.471L226.607 137.511C228.068 138.851 229.535 140.191 230.902 141.531C231.572 142.201 232.242 142.871 232.912 143.541C233.462 144.122 233.981 144.733 234.466 145.37C234.426 145.484 234.386 145.611 234.339 145.732C234.198 146.087 234.031 146.475 233.857 146.871C233.017 148.575 232.089 150.234 231.076 151.842Z" fill="#F94962"/>
<path d="M224.638 160.364C224.638 160.364 220.678 161.838 220.068 162.609C219.459 163.379 223.345 167.761 224.852 168.371C226.36 168.98 225.589 167.165 225.589 167.165C225.589 167.165 227.539 167.62 228.443 166.14C229.348 164.659 228.282 160.612 224.638 160.364Z" fill="#FF8B7B"/>
<path d="M129.51 275.993V286.351L133.691 286.68L135.741 276.985L129.51 275.993Z" fill="#FFC3BD"/>
<path d="M132.479 285.708C132.479 285.708 133.819 283.182 134.569 283.45C135.32 283.718 135.662 286.8 135.662 286.8C135.662 286.8 139.883 288.207 141.055 288.281C142.228 288.354 143.192 289.024 143.34 291.323H128.941C128.941 291.323 129.042 286.13 129.069 285.239C129.096 284.348 130.362 285.46 130.362 285.46L132.479 285.708Z" fill="#263238"/>
<path d="M129.102 287.202C129.359 287.344 129.584 287.537 129.763 287.769C129.943 288.001 130.074 288.267 130.147 288.551C130.221 288.835 130.235 289.131 130.19 289.421C130.145 289.711 130.042 289.989 129.886 290.237C129.877 290.249 129.871 290.263 129.867 290.277C129.864 290.291 129.864 290.306 129.866 290.321C129.869 290.335 129.875 290.349 129.883 290.361C129.891 290.374 129.902 290.384 129.915 290.392C129.927 290.4 129.941 290.405 129.956 290.407C129.97 290.409 129.985 290.408 129.999 290.405C130.014 290.401 130.027 290.394 130.039 290.385C130.05 290.376 130.06 290.364 130.067 290.351C130.242 290.08 130.36 289.775 130.413 289.457C130.466 289.138 130.454 288.812 130.377 288.498C130.3 288.185 130.159 287.89 129.964 287.633C129.769 287.375 129.524 287.16 129.242 287.001C129.122 286.927 128.981 287.128 129.102 287.202Z" fill="white"/>
<path d="M129.082 290.485L140.378 290.606H142.998C143.145 290.606 143.178 290.378 142.998 290.378L131.701 290.257H129.075C128.928 290.257 128.901 290.485 129.075 290.485H129.082Z" fill="white"/>
<path d="M135.038 287.691C135.149 287.524 135.291 287.382 135.458 287.272C135.625 287.162 135.813 287.087 136.01 287.052C136.207 287.017 136.409 287.022 136.603 287.068C136.798 287.113 136.981 287.197 137.142 287.316C137.249 287.41 137.39 287.209 137.283 287.122C136.539 286.512 135.528 286.773 134.858 287.577C134.757 287.698 134.938 287.812 135.038 287.691Z" fill="white"/>
<path d="M136.23 288.1C136.34 287.933 136.483 287.79 136.65 287.68C136.817 287.57 137.004 287.496 137.201 287.461C137.398 287.425 137.6 287.431 137.795 287.476C137.989 287.521 138.173 287.606 138.334 287.724C138.441 287.812 138.582 287.617 138.474 287.53C137.731 286.92 136.719 287.182 136.049 287.986C135.948 288.1 136.129 288.22 136.23 288.1Z" fill="white"/>
<path d="M137.463 288.442C137.573 288.274 137.715 288.131 137.882 288.02C138.049 287.91 138.237 287.835 138.434 287.799C138.631 287.764 138.833 287.77 139.028 287.816C139.223 287.862 139.406 287.947 139.567 288.066C139.674 288.153 139.815 287.959 139.708 287.872C138.964 287.262 137.952 287.524 137.282 288.321C137.182 288.442 137.363 288.555 137.463 288.442Z" fill="white"/>
<path d="M126.998 173.322C127.119 175.171 126.864 180.846 127.112 183.895C127.588 189.704 128.217 197.235 128.72 204.779C129.303 213.489 129.718 222.259 129.511 228.329C128.975 243.92 129.095 279.249 129.095 279.249H135.855C135.855 279.249 143.795 244.141 145.282 228.329C146.522 215.231 145.865 181.483 145.658 173.322H126.998Z" fill="#0168FF"/>
<path opacity="0.2" d="M126.998 173.322C127.119 175.171 126.864 180.846 127.112 183.895C127.588 189.704 128.217 197.235 128.72 204.779C129.303 213.489 129.718 222.259 129.511 228.329C128.975 243.92 129.095 279.249 129.095 279.249H135.855C135.855 279.249 143.795 244.141 145.282 228.329C146.522 215.231 145.865 181.483 145.658 173.322H126.998Z" fill="white"/>
<path opacity="0.2" d="M127.111 183.895C127.587 189.704 128.217 197.235 128.719 204.779C132.069 194.93 128.954 180.042 128.954 180.042L127.111 183.895Z" fill="black"/>
<path d="M128.506 279.484H136.438L137.021 276.951L128.298 276.844L128.506 279.484Z" fill="#2848BD"/>
<path d="M94.9445 274.057L93.3633 284.294L97.4436 285.266L100.948 275.993L94.9445 274.057Z" fill="#FFC3BD"/>
<path d="M96.3922 284.113C96.3922 284.113 98.0806 281.822 98.8042 282.204C99.5278 282.586 99.3737 285.668 99.3737 285.668C99.3737 285.668 103.327 287.678 104.479 287.959C105.632 288.241 106.489 289.018 106.275 291.309L92.0439 289.112C92.0439 289.112 92.935 283.993 93.0958 283.115C93.2566 282.237 94.3353 283.537 94.3353 283.537L96.3922 284.113Z" fill="#263238"/>
<path d="M92.8274 285.078C93.0596 285.257 93.2527 285.482 93.3948 285.738C93.537 285.995 93.6252 286.277 93.6541 286.569C93.683 286.861 93.6519 287.156 93.5627 287.435C93.4735 287.714 93.3282 287.972 93.1356 288.194C93.0418 288.314 93.2026 288.455 93.2964 288.334C93.511 288.093 93.674 287.811 93.7755 287.505C93.8769 287.199 93.9147 286.875 93.8865 286.554C93.8582 286.233 93.7646 285.921 93.6113 285.637C93.4579 285.353 93.2482 285.104 92.9949 284.904C92.8877 284.81 92.7202 284.984 92.8274 285.078Z" fill="white"/>
<path d="M92.3056 288.321L103.448 290.157L106.041 290.585C106.188 290.585 106.248 290.391 106.108 290.364L94.9588 288.522L92.3659 288.093C92.2252 288.093 92.1582 288.294 92.3056 288.321Z" fill="white"/>
<path d="M98.6234 286.465C98.7573 286.317 98.9199 286.198 99.1013 286.115C99.2828 286.033 99.4792 285.988 99.6786 285.983C99.878 285.979 100.076 286.015 100.261 286.09C100.446 286.165 100.614 286.276 100.754 286.418C100.848 286.519 101.015 286.344 100.921 286.244C100.285 285.534 99.2465 285.634 98.4559 286.324C98.342 286.425 98.5028 286.566 98.6234 286.465Z" fill="white"/>
<path d="M99.7416 287.014C99.8755 286.866 100.038 286.747 100.22 286.664C100.402 286.581 100.599 286.537 100.798 286.533C100.998 286.529 101.196 286.566 101.381 286.642C101.566 286.718 101.733 286.831 101.872 286.974C101.966 287.075 102.134 286.901 102.046 286.8C101.376 286.083 100.365 286.19 99.5808 286.874C99.4602 286.981 99.6277 287.122 99.7416 287.014Z" fill="white"/>
<path d="M100.909 287.577C101.042 287.428 101.204 287.309 101.386 287.225C101.567 287.142 101.764 287.096 101.964 287.092C102.163 287.088 102.362 287.124 102.547 287.2C102.732 287.275 102.899 287.387 103.039 287.53C103.133 287.631 103.3 287.456 103.207 287.356C102.537 286.639 101.525 286.746 100.741 287.436C100.627 287.537 100.788 287.678 100.909 287.577Z" fill="white"/>
<path d="M118.757 229.696C114.576 245.005 100.533 278.117 100.533 278.117L93.833 276.958C93.833 276.958 100.774 242.506 103.97 227.244C106.858 213.468 110 181.838 111.052 172.417L133.417 174.427C132.224 182.467 122.194 216.993 118.724 229.689L118.757 229.696Z" fill="#0168FF"/>
<path opacity="0.2" d="M118.757 229.696C114.576 245.005 100.533 278.117 100.533 278.117L93.833 276.958C93.833 276.958 100.774 242.506 103.97 227.244C106.858 213.468 110 181.838 111.052 172.417L133.417 174.427C132.224 182.467 122.194 216.993 118.724 229.689L118.757 229.696Z" fill="white"/>
<path d="M93.2502 277.092L101.062 278.452L102.074 276.06L93.3642 274.472L93.2502 277.092Z" fill="#2848BD"/>
<path d="M149.041 127.186C148.666 130.422 148.049 137.236 147.446 144.948C147.225 147.855 146.998 150.904 146.776 153.919C146.535 157.41 146.334 160.76 146.18 163.808C146.12 165.041 146.066 166.227 146.019 167.346C145.805 172.9 145.805 176.954 146.113 178.173C128.807 185.181 110.007 176.123 110.007 176.123C111.119 167.064 112.238 156.766 112.238 156.766C112.767 152.907 113.276 149.008 113.732 145.33C113.766 145.035 113.806 144.733 113.839 144.445C114.06 142.636 114.261 140.894 114.449 139.246L114.516 138.636C114.878 135.387 115.186 132.512 115.32 130.214C115.628 125.879 118.255 121.853 122.174 121.129C123.36 120.908 124.64 120.714 125.966 120.566C126.281 120.519 126.636 120.493 126.924 120.459C130.668 120.046 134.436 119.891 138.2 119.997H138.743H139.031C139.185 119.997 139.346 119.997 139.5 119.997C140.996 120.057 142.488 120.196 143.969 120.412C144.748 120.522 145.497 120.785 146.174 121.185C146.85 121.586 147.441 122.116 147.913 122.745C148.384 123.375 148.726 124.091 148.92 124.853C149.113 125.615 149.155 126.408 149.041 127.186Z" fill="#2848BD"/>
<path opacity="0.3" d="M137.35 129.444C137.354 129.554 137.325 129.663 137.267 129.757C137.209 129.85 137.124 129.925 137.024 129.97C136.924 130.016 136.812 130.03 136.703 130.012C136.594 129.994 136.494 129.944 136.413 129.869C136.333 129.793 136.277 129.695 136.252 129.588C136.228 129.481 136.236 129.368 136.275 129.265C136.314 129.162 136.383 129.073 136.473 129.01C136.563 128.946 136.67 128.911 136.781 128.908C136.927 128.904 137.069 128.959 137.176 129.059C137.282 129.159 137.345 129.298 137.35 129.444Z" fill="white"/>
<path opacity="0.3" d="M137.437 132.874C137.441 132.984 137.412 133.093 137.354 133.187C137.296 133.281 137.211 133.355 137.111 133.4C137.011 133.446 136.899 133.461 136.79 133.443C136.681 133.424 136.58 133.374 136.5 133.299C136.42 133.223 136.364 133.126 136.339 133.018C136.315 132.911 136.322 132.798 136.362 132.695C136.401 132.592 136.47 132.503 136.56 132.44C136.65 132.376 136.757 132.341 136.868 132.338C137.014 132.334 137.156 132.389 137.262 132.489C137.369 132.589 137.432 132.728 137.437 132.874Z" fill="white"/>
<path opacity="0.3" d="M137.55 136.305C137.554 136.415 137.525 136.524 137.467 136.617C137.409 136.711 137.325 136.786 137.224 136.831C137.124 136.877 137.012 136.891 136.903 136.873C136.795 136.855 136.694 136.805 136.613 136.73C136.533 136.654 136.477 136.556 136.453 136.449C136.428 136.341 136.436 136.229 136.475 136.126C136.515 136.023 136.584 135.934 136.674 135.871C136.764 135.807 136.871 135.771 136.981 135.769C137.127 135.765 137.269 135.819 137.376 135.92C137.482 136.02 137.545 136.158 137.55 136.305Z" fill="white"/>
<path opacity="0.2" d="M126.998 136.552C126.998 136.552 127.668 151.48 128.82 152.632C129.973 153.785 144.002 159.426 144.002 159.426C135.962 158.495 128.787 157.229 125.242 154.522C123.949 150.904 125.805 143.306 126.998 136.552Z" fill="black"/>
<path opacity="0.2" d="M146.201 163.808C146.14 165.041 146.087 166.227 146.04 167.346C141.089 167.024 122.704 166.77 117.652 159.507C114.697 155.252 116.144 137.906 116.144 137.906C117.957 143.883 121.269 149.297 125.767 153.631C130.265 157.964 135.798 161.074 141.839 162.663L146.201 163.808Z" fill="black"/>
<path d="M173.576 143.989C171.418 143.862 169.261 143.742 167.177 143.547C166.152 143.447 165.114 143.34 164.236 143.206L163.827 143.132C163.774 143.067 163.716 143.006 163.653 142.951C163.204 142.522 162.514 141.805 161.891 141.075C161.268 140.345 160.598 139.534 159.948 138.723C158.641 137.109 157.348 135.413 156.055 133.712C153.482 130.301 150.889 126.797 148.276 123.42L139.566 129.705C142.126 133.417 144.826 136.908 147.727 140.358C149.174 142.08 150.668 143.768 152.25 145.457C153.054 146.294 153.871 147.118 154.755 147.963C155.714 148.898 156.74 149.762 157.824 150.549C158.146 150.777 158.494 151.024 158.996 151.292L159.392 151.507L159.888 151.728C160.048 151.795 160.316 151.889 160.558 151.956L160.792 152.016L160.993 152.063C161.777 152.233 162.576 152.332 163.378 152.358C164.678 152.425 165.837 152.358 167.003 152.358C169.308 152.257 171.539 152.09 173.763 151.862C176.488 151.585 179.197 151.254 181.89 150.87L182.621 150.542L183.291 150.227C183.432 150.029 183.561 149.823 183.679 149.611C184.128 148.86 184.604 147.942 185.059 147.004C185.421 146.267 185.79 145.504 186.138 144.726C181.951 144.412 177.73 144.224 173.576 143.989ZM163.365 142.998H163.405C163.492 143.019 163.577 143.046 163.66 143.078H163.733C163.607 143.068 163.484 143.041 163.365 142.998Z" fill="#2848BD"/>
<path opacity="0.2" d="M149.423 142.315L147.909 131.829L147.601 140.197L149.423 142.315Z" fill="black"/>
<path d="M139.105 96.7546C137.855 96.385 136.542 96.2758 135.248 96.4337C133.954 96.5916 132.706 97.0132 131.581 97.6725C130.107 98.5636 128.861 99.8567 129.008 101.693C129.454 105.483 130.112 109.245 130.978 112.962L144.9 105.592C144.9 105.592 145.724 101.974 143.902 99.8098C142.662 98.3151 140.984 97.2466 139.105 96.7546Z" fill="#263238"/>
<path d="M133.732 96.7412C132.861 96.7358 131.998 96.9117 131.199 97.2578C130.4 97.6038 129.681 98.1124 129.089 98.7512C127.568 100.527 129.444 105.083 129.444 105.083L133.732 96.7412Z" fill="#263238"/>
<path d="M132.317 97.277C132.317 97.277 132.853 95.4077 138.535 95.4077C144.217 95.4077 147.68 95.3407 146.964 98.617C146.019 102.959 139.071 101.371 139.071 101.371L132.317 97.277Z" fill="#263238"/>
<path d="M137.571 117.826V117.873L136.814 120.278C136.742 120.766 136.713 121.259 136.727 121.752C136.742 122.15 136.784 122.546 136.854 122.938C137.357 123.695 137.524 125.37 135.635 125.29C133.229 125.196 128.935 121.705 128.841 120.64C130.1 117.411 131.239 113.397 131.206 110.255L133.806 113.344L137.571 117.826Z" fill="#FFC3BD"/>
<g opacity="0.2">
<path d="M137.551 117.879L136.794 120.285C135.327 119.534 133.819 117.98 133.538 116.365C133.337 115.206 133.906 114.147 134.375 114.107L137.551 117.879Z" fill="black"/>
</g>
<path d="M143.861 113.063C143.694 113.585 143.513 114.094 143.319 114.604C141.597 119.072 135.949 119.233 132.646 115.729C132.344 115.408 132.066 115.065 131.815 114.704C129.738 111.696 130.394 109.478 130.957 104.413C131.075 103.233 131.492 102.103 132.17 101.131C132.847 100.158 133.763 99.3751 134.828 98.856C135.894 98.3369 137.075 98.0991 138.258 98.1652C139.442 98.2314 140.589 98.5992 141.59 99.2337C145.717 101.84 145.53 107.83 143.861 113.063Z" fill="#FFC3BD"/>
<path d="M137.644 110.805C138.71 111.417 139.808 111.971 140.934 112.466C140.791 112.677 140.607 112.857 140.392 112.993C140.176 113.13 139.935 113.22 139.683 113.258C139.432 113.297 139.174 113.282 138.928 113.216C138.682 113.15 138.453 113.034 138.254 112.875C137.957 112.63 137.74 112.302 137.631 111.933C137.522 111.564 137.527 111.171 137.644 110.805Z" fill="white"/>
<path d="M141.985 98.7243C139.633 96.989 134.783 96.4396 132.712 98.7243C130.642 101.009 130.87 104.848 130.87 104.848C130.867 105.265 131.022 105.667 131.305 105.974C131.363 106.03 131.417 106.09 131.466 106.155L133.972 106.409C134.106 105.371 134.401 103.481 135.091 103.341C136.391 103.073 135.406 101.686 135.64 100.862C136.384 98.1816 143.68 99.5216 144.719 103.495C144.418 101.625 143.446 99.9291 141.985 98.7243Z" fill="#263238"/>
<path d="M128.211 107.367C128.356 108.64 128.999 109.803 130 110.603C131.34 111.655 132.68 110.603 132.827 109.015C132.981 107.575 132.472 105.297 130.871 104.868C130.517 104.778 130.147 104.778 129.793 104.869C129.44 104.959 129.115 105.137 128.848 105.386C128.581 105.635 128.381 105.946 128.266 106.293C128.151 106.639 128.125 107.008 128.191 107.367" fill="#FFC3BD"/>
<path d="M138.469 107.019C138.402 107.408 138.556 107.763 138.81 107.803C139.065 107.843 139.326 107.568 139.393 107.18C139.46 106.791 139.306 106.436 139.052 106.396C138.797 106.356 138.536 106.63 138.469 107.019Z" fill="#263238"/>
<path d="M142.589 107.722C142.522 108.111 142.67 108.466 142.924 108.506C143.179 108.546 143.44 108.272 143.507 107.883C143.574 107.495 143.427 107.139 143.172 107.099C142.918 107.059 142.656 107.334 142.589 107.722Z" fill="#263238"/>
<path d="M144.264 106.449C144.227 106.443 144.193 106.428 144.165 106.404C144.137 106.381 144.115 106.35 144.103 106.315C144.068 106.173 144.004 106.04 143.914 105.924C143.823 105.809 143.71 105.714 143.58 105.645C143.312 105.548 143.018 105.548 142.749 105.645C142.699 105.663 142.645 105.662 142.596 105.64C142.547 105.619 142.509 105.58 142.488 105.532C142.478 105.507 142.473 105.481 142.474 105.454C142.474 105.428 142.48 105.402 142.491 105.377C142.501 105.353 142.516 105.331 142.536 105.313C142.555 105.294 142.577 105.28 142.602 105.27C142.97 105.126 143.379 105.126 143.748 105.27C143.925 105.357 144.082 105.48 144.209 105.631C144.335 105.783 144.429 105.958 144.485 106.148C144.494 106.173 144.499 106.2 144.498 106.227C144.497 106.253 144.491 106.28 144.479 106.304C144.468 106.328 144.452 106.35 144.432 106.368C144.413 106.386 144.389 106.4 144.364 106.409C144.334 106.43 144.3 106.443 144.264 106.449Z" fill="#263238"/>
<path d="M137.53 105.284C137.497 105.277 137.465 105.264 137.437 105.244C137.414 105.227 137.394 105.206 137.379 105.182C137.364 105.158 137.355 105.131 137.35 105.103C137.346 105.075 137.347 105.046 137.354 105.018C137.361 104.991 137.373 104.965 137.39 104.942C137.643 104.593 138.019 104.354 138.442 104.272C138.655 104.246 138.871 104.265 139.076 104.327C139.282 104.389 139.472 104.494 139.634 104.634C139.661 104.65 139.684 104.672 139.701 104.697C139.719 104.723 139.731 104.752 139.737 104.782C139.742 104.813 139.742 104.844 139.734 104.874C139.727 104.905 139.714 104.933 139.695 104.958C139.676 104.982 139.652 105.003 139.624 105.017C139.597 105.032 139.567 105.041 139.536 105.043C139.505 105.046 139.474 105.041 139.445 105.031C139.415 105.02 139.389 105.004 139.366 104.982C139.25 104.881 139.115 104.805 138.969 104.757C138.823 104.71 138.668 104.693 138.515 104.708C138.211 104.772 137.939 104.94 137.745 105.183C137.723 105.219 137.691 105.248 137.653 105.266C137.615 105.284 137.572 105.29 137.53 105.284Z" fill="#263238"/>
<path d="M141.148 106.952C141.333 107.979 141.646 108.978 142.08 109.927C142.703 111.133 140.532 110.805 140.532 110.805L141.148 106.952Z" fill="#ED847E"/>
<path d="M151.976 161.403L151.487 166.207C146.502 166.244 141.521 165.933 136.58 165.275C134.033 164.951 131.507 164.477 129.015 163.855C127.681 163.532 126.37 163.122 125.089 162.629C124.376 162.356 123.678 162.045 122.999 161.698C122.193 161.293 121.429 160.808 120.721 160.25C120.513 160.076 120.319 159.922 120.104 159.714L119.783 159.413L119.461 159.058C119.237 158.799 119.027 158.529 118.831 158.247C118.609 157.914 118.412 157.565 118.242 157.202C118.047 156.791 117.892 156.363 117.779 155.922L117.625 155.313C117.525 154.917 117.471 154.582 117.391 154.214C117.123 152.8 116.949 151.534 116.801 150.194C116.513 147.634 116.366 145.135 116.259 142.65L116.151 138.931V135.239C116.151 132.76 116.225 130.328 116.399 127.829L127.119 128.218C127.119 132.948 127.005 137.765 126.958 142.482C126.958 144.84 126.958 147.172 126.958 149.463C126.958 150.589 127.032 151.715 127.133 152.693C127.133 152.901 127.133 153.135 127.193 153.323C127.683 153.688 128.203 154.01 128.747 154.287C129.685 154.77 130.646 155.204 131.628 155.587C133.692 156.405 135.903 157.115 138.147 157.785C142.657 159.132 147.353 160.284 151.976 161.403Z" fill="#2848BD"/>
<path d="M151.259 161.51C151.259 161.51 156.244 160.203 157.289 160.418C158.468 160.659 157.926 166.87 156.398 167.721C154.87 168.572 151.078 165.818 151.078 165.818C150.207 163.795 150.482 162.14 151.259 161.51Z" fill="#FFC3BD"/>
<path d="M151.259 161.51C151.904 160.823 152.678 160.27 153.537 159.882C154.656 159.487 155.754 158.904 156.264 159.105C156.773 159.306 155.031 160.646 155.031 160.646L151.259 161.51Z" fill="#FFC3BD"/>
<path d="M157.295 160.418C157.295 160.418 160.357 161.282 161.315 162.549C162.273 163.815 159.547 163.044 159.547 163.044C159.547 163.044 162.736 164.21 161.423 166.649C160.753 167.842 157.094 168.076 155.393 167.862C155.439 167.862 155.439 162.669 157.295 160.418Z" fill="#FFC3BD"/>
<path d="M129.557 118.637C128.833 118.682 128.13 118.902 127.51 119.279C126.891 119.656 126.372 120.179 125.999 120.801L132.605 128.573C132.605 128.573 132.558 125.766 136.183 125.223C136.183 125.29 131.319 121.719 129.557 118.637Z" fill="#2848BD"/>
<path opacity="0.3" d="M129.557 118.637C128.833 118.682 128.13 118.902 127.51 119.279C126.891 119.656 126.372 120.179 125.999 120.801L132.605 128.573C132.605 128.573 132.558 125.766 136.183 125.223C136.183 125.29 131.319 121.719 129.557 118.637Z" fill="white"/>
<path d="M136.183 125.29C136.183 125.29 136.605 120.928 136.894 119.997L137.269 118.804C137.269 118.804 139.868 118.844 140.759 120.144L140.411 126.791C139.179 125.887 137.709 125.365 136.183 125.29Z" fill="#2848BD"/>
<path opacity="0.3" d="M136.183 125.29C136.183 125.29 136.605 120.928 136.894 119.997L137.269 118.804C137.269 118.804 139.868 118.844 140.759 120.144L140.411 126.791C139.179 125.887 137.709 125.365 136.183 125.29Z" fill="white"/>
</svg>
