<svg width="335" height="335" viewBox="0 0 335 335" fill="none" xmlns="http://www.w3.org/2000/svg">
<g clip-path="url(#clip0_241_1052)">
<path d="M301.433 266.989H279.242V267.156H301.433V266.989Z" fill="#EBEBEB"/>
<path d="M221.918 268.811H216.096V268.978H221.918V268.811Z" fill="#EBEBEB"/>
<path d="M278.572 260.771H265.715V260.938H278.572V260.771Z" fill="#EBEBEB"/>
<path d="M64.0857 261.897H35.1484V262.064H64.0857V261.897Z" fill="#EBEBEB"/>
<path d="M74.2958 261.896H70.0547V262.064H74.2958V261.896Z" fill="#EBEBEB"/>
<path d="M150.852 264.724H88.0859V264.891H150.852V264.724Z" fill="#EBEBEB"/>
<path d="M158.791 226.326H29.4273C28.4126 226.326 27.4395 225.923 26.7221 225.206C26.0046 224.488 25.6016 223.515 25.6016 222.5V40.6423C25.6104 39.6335 26.0174 38.669 26.7339 37.9588C27.4504 37.2485 28.4184 36.8501 29.4273 36.8501H158.791C159.805 36.8501 160.779 37.2532 161.496 37.9706C162.213 38.6881 162.617 39.6612 162.617 40.6758V222.5C162.617 223.515 162.213 224.488 161.496 225.206C160.779 225.923 159.805 226.326 158.791 226.326ZM29.4273 36.9841C28.4576 36.9859 27.5281 37.3719 26.8425 38.0575C26.1568 38.7432 25.7708 39.6726 25.7691 40.6423V222.5C25.7708 223.47 26.1568 224.4 26.8425 225.085C27.5281 225.771 28.4576 226.157 29.4273 226.159H158.791C159.761 226.157 160.69 225.771 161.376 225.085C162.061 224.4 162.447 223.47 162.449 222.5V40.6423C162.447 39.6726 162.061 38.7432 161.376 38.0575C160.69 37.3719 159.761 36.9859 158.791 36.9841H29.4273Z" fill="#EBEBEB"/>
<path d="M303.717 226.326H174.34C173.326 226.324 172.354 225.921 171.637 225.204C170.92 224.487 170.516 223.514 170.515 222.5V40.6423C170.525 39.634 170.933 38.6705 171.649 37.9607C172.365 37.2508 173.332 36.8518 174.34 36.8501H303.717C304.724 36.8536 305.689 37.2536 306.402 37.9635C307.116 38.6733 307.521 39.6358 307.53 40.6423V222.5C307.53 223.513 307.128 224.484 306.414 225.201C305.699 225.918 304.73 226.323 303.717 226.326ZM174.34 36.9841C173.371 36.9859 172.441 37.3719 171.756 38.0575C171.07 38.7432 170.684 39.6726 170.682 40.6423V222.5C170.684 223.47 171.07 224.4 171.756 225.085C172.441 225.771 173.371 226.157 174.34 226.159H303.717C304.687 226.157 305.616 225.771 306.302 225.085C306.988 224.4 307.374 223.47 307.376 222.5V40.6423C307.374 39.6726 306.988 38.7432 306.302 38.0575C305.616 37.3719 304.687 36.9859 303.717 36.9841H174.34Z" fill="#EBEBEB"/>
<path d="M335 256.208H0V256.376H335V256.208Z" fill="#EBEBEB"/>
<path d="M118.316 140.466H133.384L121.257 71.6833H106.189L118.316 140.466Z" fill="#FAFAFA"/>
<path d="M109.546 140.466H113.606L101.479 71.6833H97.4189L109.546 140.466Z" fill="#FAFAFA"/>
<path d="M65.4532 141.658H69.6273L57.1653 70.973H52.9912L65.4532 141.658Z" fill="#FAFAFA"/>
<path d="M73.7741 141.658H81.6399L69.1779 70.973H61.3054L73.7741 141.658Z" fill="#FAFAFA"/>
<path d="M94.8445 70.6182H144.083V141.638H94.8445V70.6182ZM140.19 74.5109H98.7372V137.772H140.19V74.5109Z" fill="#E6E6E6"/>
<path d="M43.6572 68.6682H146.06V143.614H43.6572V68.6682ZM142.147 72.5676H47.57V139.715H142.141L142.147 72.5676Z" fill="#F5F5F5"/>
<path d="M254.251 92.9694V65.0237H217.944V92.9694H254.251Z" fill="#F5F5F5"/>
<path d="M251.457 90.8182V67.1672H220.731V90.8182H251.457Z" fill="#EBEBEB"/>
<path d="M249.536 89.338V68.6484H222.656V89.338H249.536Z" fill="#FAFAFA"/>
<path d="M240.979 82.2826C244.054 82.2826 246.547 79.7899 246.547 76.7149C246.547 73.64 244.054 71.1472 240.979 71.1472C237.904 71.1472 235.411 73.64 235.411 76.7149C235.411 79.7899 237.904 82.2826 240.979 82.2826Z" fill="#F0F0F0"/>
<path d="M232.658 85.7265C235.732 85.7265 238.225 83.2337 238.225 80.1588C238.225 77.0838 235.732 74.5911 232.658 74.5911C229.583 74.5911 227.09 77.0838 227.09 80.1588C227.09 83.2337 229.583 85.7265 232.658 85.7265Z" fill="#F5F5F5"/>
<path d="M274.895 73.8542H258.266V95.455H274.895V73.8542Z" fill="#E0E0E0"/>
<path d="M273.608 75.5156H259.538V93.7932H273.608V75.5156Z" fill="#F0F0F0"/>
<path d="M271.115 78.752H262.03V90.5574H271.115V78.752Z" fill="#FAFAFA"/>
<path d="M205.28 91.4082C209.662 91.4082 213.213 86.2067 213.213 79.7904C213.213 73.3741 209.662 68.1726 205.28 68.1726C200.899 68.1726 197.348 73.3741 197.348 79.7904C197.348 86.2067 200.899 91.4082 205.28 91.4082Z" fill="#F5F5F5"/>
<path d="M205.281 88.1855C208.445 88.1855 211.01 84.4268 211.01 79.7904C211.01 75.1539 208.445 71.3953 205.281 71.3953C202.117 71.3953 199.553 75.1539 199.553 79.7904C199.553 84.4268 202.117 88.1855 205.281 88.1855Z" fill="#EBEBEB"/>
<path d="M205.281 85.7264C207.52 85.7264 209.335 83.0687 209.335 79.7902C209.335 76.5117 207.52 73.854 205.281 73.854C203.043 73.854 201.228 76.5117 201.228 79.7902C201.228 83.0687 203.043 85.7264 205.281 85.7264Z" fill="#FAFAFA"/>
<path d="M164.271 283.886C236.016 283.886 294.177 280.49 294.177 276.301C294.177 272.113 236.016 268.717 164.271 268.717C92.5253 268.717 34.3643 272.113 34.3643 276.301C34.3643 280.49 92.5253 283.886 164.271 283.886Z" fill="#F5F5F5"/>
<path d="M266.735 275.872H162.369L161.083 272.355H266.735V275.872Z" fill="#263238"/>
<path opacity="0.2" d="M266.735 275.872H162.369L161.083 272.355H266.735V275.872Z" fill="white"/>
<path d="M288.55 275.872H266.735V272.355H289.83L288.55 275.872Z" fill="#263238"/>
<path d="M295.865 224.818H275.658V272.643H295.865V224.818Z" fill="#2848BD"/>
<path opacity="0.5" d="M295.865 224.818H275.658V272.643H295.865V224.818Z" fill="white"/>
<path d="M277.026 224.818H156.191V272.643H277.026V224.818Z" fill="#2848BD"/>
<path opacity="0.7" d="M277.026 224.818H156.191V272.643H277.026V224.818Z" fill="white"/>
<path opacity="0.8" d="M194.299 228.678L194.152 229.75C194.071 230.306 193.334 230.728 192.45 230.728H182.306C181.422 230.728 180.685 230.306 180.611 229.75L180.457 228.678H160.538V241.287H214.212V228.678H194.299Z" fill="white"/>
<path opacity="0.8" d="M194.299 242.66L194.152 243.739C194.071 244.288 193.334 244.717 192.45 244.717H182.306C181.422 244.717 180.685 244.288 180.611 243.739L180.457 242.66H160.538V255.27H214.212V242.66H194.299Z" fill="white"/>
<path opacity="0.8" d="M194.299 256.65L194.152 257.722C194.071 258.278 193.334 258.707 192.45 258.707H182.306C181.422 258.707 180.685 258.278 180.611 257.722L180.457 256.65H160.538V269.259H214.212V256.65H194.299Z" fill="white"/>
<path opacity="0.8" d="M251.988 228.678L251.841 229.75C251.76 230.306 251.023 230.728 250.139 230.728H240.009C239.124 230.728 238.387 230.306 238.313 229.75L238.159 228.678H218.24V241.287H271.914V228.678H251.988Z" fill="white"/>
<path opacity="0.8" d="M251.988 242.661L251.841 243.739C251.76 244.289 251.023 244.717 250.139 244.717H240.009C239.124 244.717 238.387 244.289 238.313 243.739L238.159 242.661H218.24V255.27H271.914V242.661H251.988Z" fill="white"/>
<path opacity="0.8" d="M251.988 256.65L251.841 257.722C251.76 258.278 251.023 258.707 250.139 258.707H240.009C239.124 258.707 238.387 258.278 238.313 257.722L238.159 256.65H218.24V269.259H271.914V256.65H251.988Z" fill="white"/>
<path d="M284.53 217.877H182.69C182.026 217.888 181.368 217.757 180.758 217.494C180.148 217.231 179.602 216.841 179.154 216.351C178.706 215.861 178.368 215.281 178.161 214.65C177.954 214.019 177.883 213.352 177.953 212.691L184.318 140.03C184.46 138.624 185.113 137.319 186.153 136.363C187.192 135.406 188.547 134.863 189.959 134.837H291.799C292.464 134.827 293.123 134.958 293.733 135.221C294.343 135.485 294.89 135.875 295.338 136.366C295.786 136.857 296.125 137.438 296.331 138.069C296.538 138.701 296.608 139.369 296.536 140.03L290.178 212.698C290.033 214.103 289.377 215.405 288.337 216.359C287.296 217.314 285.942 217.854 284.53 217.877Z" fill="#263238"/>
<path opacity="0.4" d="M284.53 217.877H182.69C182.026 217.888 181.368 217.757 180.758 217.494C180.148 217.231 179.602 216.841 179.154 216.351C178.706 215.861 178.368 215.281 178.161 214.65C177.954 214.019 177.883 213.352 177.953 212.691L184.318 140.03C184.46 138.624 185.113 137.319 186.153 136.363C187.192 135.406 188.547 134.863 189.959 134.837H291.799C292.464 134.827 293.123 134.958 293.733 135.221C294.343 135.485 294.89 135.875 295.338 136.366C295.786 136.857 296.125 137.438 296.331 138.069C296.538 138.701 296.608 139.369 296.536 140.03L290.178 212.698C290.033 214.103 289.377 215.405 288.337 216.359C287.296 217.314 285.942 217.854 284.53 217.877Z" fill="white"/>
<path d="M282.679 217.877H180.839C180.176 217.888 179.517 217.757 178.907 217.494C178.298 217.231 177.751 216.841 177.303 216.351C176.856 215.861 176.517 215.281 176.31 214.65C176.103 214.019 176.032 213.352 176.103 212.691L182.468 140.03C182.61 138.624 183.263 137.319 184.302 136.363C185.342 135.406 186.696 134.863 188.109 134.837H289.949C290.613 134.827 291.273 134.958 291.883 135.221C292.493 135.485 293.04 135.875 293.488 136.366C293.936 136.857 294.274 137.438 294.481 138.069C294.687 138.701 294.757 139.369 294.686 140.03L288.328 212.698C288.182 214.103 287.527 215.405 286.486 216.359C285.445 217.314 284.091 217.854 282.679 217.877Z" fill="#263238"/>
<path opacity="0.7" d="M282.679 217.877H180.839C180.176 217.888 179.517 217.757 178.907 217.494C178.298 217.231 177.751 216.841 177.303 216.351C176.856 215.861 176.517 215.281 176.31 214.65C176.103 214.019 176.032 213.352 176.103 212.691L182.468 140.03C182.61 138.624 183.263 137.319 184.302 136.363C185.342 135.406 186.696 134.863 188.109 134.837H289.949C290.613 134.827 291.273 134.958 291.883 135.221C292.493 135.485 293.04 135.875 293.488 136.366C293.936 136.857 294.274 137.438 294.481 138.069C294.687 138.701 294.757 139.369 294.686 140.03L288.328 212.698C288.182 214.103 287.527 215.405 286.486 216.359C285.445 217.314 284.091 217.854 282.679 217.877Z" fill="white"/>
<path d="M284.222 212.685H180.218L186.569 140.023H290.573L284.222 212.685Z" fill="#2848BD"/>
<path opacity="0.5" d="M284.222 212.685H180.218L186.569 140.023H290.573L284.222 212.685Z" fill="white"/>
<path d="M169.69 216.49H290.29V217.797C290.29 219.661 289.55 221.448 288.232 222.766C286.914 224.085 285.126 224.825 283.262 224.825H176.719C174.855 224.825 173.067 224.085 171.749 222.766C170.431 221.448 169.69 219.661 169.69 217.797V216.49Z" fill="#263238"/>
<path opacity="0.2" d="M169.69 216.49H290.29V217.797C290.29 219.661 289.55 221.448 288.232 222.766C286.914 224.085 285.126 224.825 283.262 224.825H176.719C174.855 224.825 173.067 224.085 171.749 222.766C170.431 221.448 169.69 219.661 169.69 217.797V216.49Z" fill="white"/>
<path d="M161.276 216.49H281.876V217.797C281.876 218.72 281.695 219.634 281.341 220.486C280.988 221.339 280.47 222.114 279.818 222.766C279.165 223.419 278.39 223.937 277.538 224.29C276.685 224.643 275.771 224.825 274.848 224.825H168.311C166.447 224.825 164.66 224.085 163.342 222.766C162.024 221.448 161.283 219.661 161.283 217.797V216.49H161.276Z" fill="#263238"/>
<path opacity="0.5" d="M161.276 216.49H281.876V217.797C281.876 218.72 281.695 219.634 281.341 220.486C280.988 221.339 280.47 222.114 279.818 222.766C279.165 223.419 278.39 223.937 277.538 224.29C276.685 224.643 275.771 224.825 274.848 224.825H168.311C166.447 224.825 164.66 224.085 163.342 222.766C162.024 221.448 161.283 219.661 161.283 217.797V216.49H161.276Z" fill="white"/>
<path opacity="0.3" d="M210.782 216.49C211.207 217.228 211.82 217.841 212.557 218.267C213.295 218.692 214.131 218.916 214.983 218.916H228.202C229.054 218.916 229.89 218.691 230.628 218.266C231.365 217.84 231.977 217.228 232.403 216.49H210.782Z" fill="black"/>
<path d="M278.473 198.99H168.171C167.756 198.997 167.344 198.916 166.963 198.752C166.582 198.587 166.24 198.344 165.96 198.037C165.681 197.73 165.47 197.367 165.341 196.972C165.213 196.578 165.17 196.16 165.216 195.747L171.775 120.6C171.864 119.724 172.271 118.91 172.919 118.314C173.567 117.717 174.412 117.379 175.293 117.364H285.608C286.023 117.356 286.435 117.436 286.816 117.6C287.197 117.763 287.539 118.007 287.819 118.313C288.098 118.619 288.31 118.982 288.438 119.376C288.566 119.771 288.609 120.188 288.563 120.6L281.99 195.721C281.908 196.603 281.504 197.423 280.855 198.026C280.207 198.63 279.358 198.973 278.473 198.99Z" fill="#2848BD"/>
<path opacity="0.8" d="M278.473 198.99H168.171C167.756 198.997 167.344 198.916 166.963 198.752C166.582 198.587 166.24 198.344 165.96 198.037C165.681 197.73 165.47 197.367 165.341 196.972C165.213 196.578 165.17 196.16 165.216 195.747L171.775 120.6C171.864 119.724 172.271 118.91 172.919 118.314C173.567 117.717 174.412 117.379 175.293 117.364H285.608C286.023 117.356 286.435 117.436 286.816 117.6C287.197 117.763 287.539 118.007 287.819 118.313C288.098 118.619 288.31 118.982 288.438 119.376C288.566 119.771 288.609 120.188 288.563 120.6L281.99 195.721C281.908 196.603 281.504 197.423 280.855 198.026C280.207 198.63 279.358 198.973 278.473 198.99Z" fill="white"/>
<path d="M285.607 117.391H175.292C174.411 117.406 173.567 117.744 172.918 118.34C172.27 118.937 171.863 119.75 171.774 120.627L171.439 124.399H288.234L288.562 120.627C288.608 120.215 288.565 119.797 288.437 119.403C288.309 119.008 288.098 118.646 287.818 118.34C287.538 118.033 287.196 117.79 286.815 117.627C286.434 117.463 286.022 117.383 285.607 117.391Z" fill="#2848BD"/>
<path opacity="0.3" d="M285.607 117.391H175.292C174.411 117.406 173.567 117.744 172.918 118.34C172.27 118.937 171.863 119.75 171.774 120.627L171.439 124.399H288.234L288.562 120.627C288.608 120.215 288.565 119.797 288.437 119.403C288.309 119.008 288.098 118.646 287.818 118.34C287.538 118.033 287.196 117.79 286.815 117.627C286.434 117.463 286.022 117.383 285.607 117.391Z" fill="white"/>
<path d="M178.389 120.895C178.343 121.26 178.168 121.596 177.895 121.842C177.622 122.088 177.269 122.228 176.901 122.235C176.729 122.236 176.559 122.202 176.401 122.134C176.243 122.066 176.102 121.965 175.985 121.839C175.868 121.713 175.779 121.564 175.723 121.401C175.668 121.238 175.647 121.066 175.662 120.895C175.704 120.53 175.877 120.193 176.15 119.946C176.422 119.699 176.775 119.56 177.142 119.555C177.315 119.552 177.486 119.586 177.644 119.654C177.803 119.721 177.946 119.822 178.063 119.948C178.181 120.074 178.27 120.224 178.326 120.387C178.382 120.55 178.404 120.723 178.389 120.895Z" fill="#2848BD"/>
<path d="M183.125 120.895C183.081 121.259 182.907 121.596 182.635 121.842C182.363 122.088 182.011 122.228 181.644 122.235C181.472 122.237 181.301 122.204 181.142 122.136C180.983 122.068 180.841 121.968 180.723 121.842C180.606 121.715 180.516 121.566 180.46 121.403C180.404 121.24 180.383 121.067 180.398 120.895C180.442 120.53 180.615 120.194 180.888 119.948C181.16 119.701 181.512 119.562 181.879 119.555C182.051 119.551 182.223 119.584 182.382 119.652C182.541 119.719 182.684 119.819 182.802 119.946C182.92 120.072 183.009 120.222 183.065 120.386C183.121 120.549 183.141 120.723 183.125 120.895Z" fill="#2848BD"/>
<path d="M187.869 120.895C187.824 121.26 187.649 121.596 187.375 121.842C187.102 122.088 186.749 122.228 186.382 122.235C186.21 122.236 186.039 122.202 185.882 122.134C185.724 122.066 185.582 121.965 185.465 121.839C185.349 121.713 185.26 121.564 185.204 121.401C185.148 121.238 185.127 121.066 185.142 120.895C185.183 120.529 185.356 120.191 185.629 119.944C185.901 119.698 186.255 119.559 186.623 119.555C186.795 119.552 186.966 119.586 187.125 119.654C187.284 119.721 187.426 119.822 187.544 119.948C187.661 120.074 187.751 120.224 187.807 120.387C187.863 120.55 187.884 120.723 187.869 120.895Z" fill="#2848BD"/>
<path d="M218.843 132.486H216.833L216.364 133.417H215.332L217.657 129.056H218.655L220.223 133.417H219.164L218.843 132.486ZM218.588 131.716L218.046 130.047L217.208 131.716H218.588Z" fill="#263238"/>
<path d="M223.44 133.417L222.703 132.205H221.771L221.664 133.417H220.652L221.034 129.056H222.924C223.264 129.047 223.603 129.114 223.915 129.25C224.171 129.365 224.384 129.557 224.525 129.799C224.661 130.056 224.715 130.348 224.679 130.637C224.662 130.94 224.554 131.232 224.371 131.474C224.188 131.716 223.942 131.904 223.661 132.017L224.518 133.417H223.44ZM223.48 130.067C223.288 129.923 223.049 129.854 222.81 129.873H221.986L221.852 131.394H222.676C222.928 131.409 223.179 131.338 223.386 131.193C223.47 131.124 223.539 131.038 223.588 130.941C223.638 130.845 223.667 130.739 223.674 130.63C223.686 130.529 223.675 130.426 223.641 130.33C223.608 130.233 223.552 130.146 223.48 130.074V130.067Z" fill="#263238"/>
<path d="M226.393 129.88H224.993L225.067 129.056H228.872L228.799 129.88H227.398L227.09 133.417H226.079L226.393 129.88Z" fill="#263238"/>
<path d="M229.415 129.056H230.42L230.038 133.417H229.033L229.415 129.056Z" fill="#263238"/>
<path d="M231.975 133.203C231.641 133.018 231.37 132.738 231.197 132.399C231.021 132.037 230.949 131.633 230.99 131.233C231.023 130.817 231.166 130.416 231.405 130.074C231.638 129.732 231.953 129.455 232.323 129.27C232.704 129.075 233.128 128.976 233.556 128.982C233.903 128.976 234.247 129.042 234.567 129.176C234.851 129.304 235.098 129.502 235.284 129.752L234.614 130.349C234.492 130.187 234.332 130.056 234.15 129.968C233.967 129.879 233.766 129.835 233.562 129.839C233.303 129.836 233.047 129.898 232.819 130.02C232.598 130.133 232.412 130.304 232.283 130.516C232.141 130.73 232.057 130.977 232.042 131.233C232.012 131.48 232.051 131.731 232.155 131.957C232.249 132.165 232.406 132.339 232.604 132.452C232.82 132.576 233.066 132.638 233.315 132.633C233.531 132.632 233.745 132.586 233.942 132.497C234.139 132.408 234.316 132.279 234.46 132.117L235.05 132.714C234.825 132.966 234.546 133.163 234.232 133.29C233.899 133.427 233.541 133.495 233.181 133.491C232.76 133.505 232.343 133.405 231.975 133.203Z" fill="#263238"/>
<path d="M236.029 129.056H237.034L236.726 132.593H238.917L238.843 133.417H235.647L236.029 129.056Z" fill="#263238"/>
<path d="M242.863 132.607L242.789 133.417H239.439L239.821 129.056H243.118L243.044 129.866H240.752L240.665 130.811H242.675L242.608 131.595H240.598L240.511 132.607H242.863Z" fill="#263238"/>
<path d="M214.588 177.269H238.132C238.883 177.269 238.983 176.103 238.233 176.103H214.689C213.938 176.103 213.838 177.269 214.588 177.269Z" fill="#263238"/>
<path d="M214.167 182.086H234.267C235.017 182.086 235.124 180.92 234.367 180.92H214.267C213.51 180.92 213.41 182.086 214.16 182.086H214.167Z" fill="#263238"/>
<path d="M213.73 186.93H236.289C237.04 186.93 237.14 185.764 236.39 185.764H213.851C213.094 185.764 212.993 186.93 213.744 186.93H213.73Z" fill="#263238"/>
<path d="M213.322 191.72H234.4C235.151 191.72 235.258 190.548 234.501 190.548H213.429C212.672 190.548 212.572 191.72 213.322 191.72Z" fill="#263238"/>
<path d="M181.268 177.269H204.45C205.201 177.269 205.308 176.103 204.551 176.103H181.375C180.618 176.103 180.518 177.269 181.268 177.269Z" fill="#263238"/>
<path d="M180.846 182.086H204.028C204.786 182.086 204.886 180.92 204.136 180.92H180.954C180.197 180.92 180.096 182.086 180.846 182.086Z" fill="#263238"/>
<path d="M180.433 186.93H206.563C207.313 186.93 207.414 185.764 206.663 185.764H180.533C179.783 185.764 179.676 186.93 180.433 186.93Z" fill="#263238"/>
<path d="M180.009 191.721H201.248C202.005 191.721 202.106 190.548 201.355 190.548H180.109C179.359 190.548 179.252 191.721 180.009 191.721Z" fill="#263238"/>
<path d="M182.113 167.634H205.295C206.046 167.634 206.153 166.468 205.396 166.468H182.241C181.49 166.468 181.39 167.634 182.14 167.634H182.113Z" fill="#263238"/>
<path d="M181.691 172.451H206.843C207.593 172.451 207.701 171.286 206.95 171.286H181.798C181.041 171.286 180.941 172.451 181.691 172.451Z" fill="#263238"/>
<path d="M245.308 177.269H269.341C270.098 177.269 270.199 176.103 269.448 176.103H245.416C244.658 176.103 244.558 177.269 245.308 177.269Z" fill="#263238"/>
<path d="M244.885 182.086H266.459C267.21 182.086 267.31 180.92 266.56 180.92H244.993C244.236 180.92 244.135 182.086 244.885 182.086Z" fill="#263238"/>
<path d="M244.47 186.93H267.512C268.269 186.93 268.369 185.764 267.619 185.764H244.551C243.8 185.764 243.693 186.93 244.45 186.93H244.47Z" fill="#263238"/>
<path d="M244.049 191.721H266.105C266.862 191.721 266.963 190.548 266.212 190.548H244.149C243.399 190.548 243.292 191.721 244.049 191.721Z" fill="#263238"/>
<path d="M184.445 141.008H210.575C211.58 141.008 211.714 139.447 210.709 139.447H184.579C183.58 139.447 183.44 141.008 184.445 141.008Z" fill="#263238"/>
<path d="M184.023 145.826H207.701C208.706 145.826 208.847 144.265 207.842 144.265H184.157C183.159 144.265 183.018 145.826 184.023 145.826Z" fill="#263238"/>
<path d="M183.582 150.643H207.769C208.774 150.643 208.908 149.082 207.903 149.082H183.736C182.738 149.082 182.597 150.643 183.602 150.643H183.582Z" fill="#263238"/>
<path d="M183.179 155.44H203.407C204.412 155.44 204.546 153.879 203.541 153.879H183.32C182.315 153.879 182.174 155.44 183.179 155.44Z" fill="#263238"/>
<g opacity="0.2">
<path d="M184.445 141.008H210.575C211.58 141.008 211.714 139.447 210.709 139.447H184.579C183.58 139.447 183.44 141.008 184.445 141.008Z" fill="white"/>
<path d="M184.023 145.826H207.701C208.706 145.826 208.846 144.265 207.841 144.265H184.157C183.159 144.265 183.018 145.826 184.023 145.826Z" fill="white"/>
<path d="M183.582 150.643H207.769C208.774 150.643 208.908 149.082 207.903 149.082H183.736C182.738 149.082 182.597 150.643 183.602 150.643H183.582Z" fill="white"/>
<path d="M183.178 155.44H203.406C204.411 155.44 204.545 153.879 203.54 153.879H183.319C182.314 153.879 182.173 155.44 183.178 155.44Z" fill="white"/>
</g>
<g opacity="0.2">
<path d="M214.587 177.269H238.131C238.882 177.269 238.982 176.103 238.232 176.103H214.688C213.937 176.103 213.837 177.269 214.587 177.269Z" fill="white"/>
</g>
<g opacity="0.2">
<path d="M214.167 182.086H234.267C235.017 182.086 235.124 180.92 234.367 180.92H214.267C213.51 180.92 213.41 182.086 214.16 182.086H214.167Z" fill="white"/>
</g>
<g opacity="0.2">
<path d="M213.73 186.93H236.288C237.039 186.93 237.139 185.764 236.389 185.764H213.85C213.093 185.764 212.993 186.93 213.743 186.93H213.73Z" fill="white"/>
</g>
<g opacity="0.2">
<path d="M213.322 191.721H234.4C235.151 191.721 235.258 190.548 234.501 190.548H213.429C212.672 190.548 212.572 191.721 213.322 191.721Z" fill="white"/>
</g>
<g opacity="0.2">
<path d="M181.27 177.269H204.452C205.203 177.269 205.31 176.103 204.553 176.103H181.377C180.62 176.103 180.52 177.269 181.27 177.269Z" fill="white"/>
</g>
<g opacity="0.2">
<path d="M180.847 182.086H204.029C204.786 182.086 204.887 180.92 204.137 180.92H180.955C180.197 180.92 180.097 182.086 180.847 182.086Z" fill="white"/>
</g>
<g opacity="0.2">
<path d="M180.433 186.93H206.563C207.313 186.93 207.414 185.764 206.663 185.764H180.533C179.783 185.764 179.676 186.93 180.433 186.93Z" fill="white"/>
</g>
<g opacity="0.2">
<path d="M180.011 191.721H201.25C202.007 191.721 202.107 190.548 201.357 190.548H180.111C179.361 190.548 179.254 191.721 180.011 191.721Z" fill="white"/>
</g>
<g opacity="0.2">
<path d="M182.115 167.634H205.297C206.048 167.634 206.155 166.468 205.398 166.468H182.243C181.492 166.468 181.392 167.634 182.142 167.634H182.115Z" fill="white"/>
</g>
<g opacity="0.2">
<path d="M181.691 172.451H206.843C207.594 172.451 207.701 171.285 206.95 171.285H181.799C181.041 171.285 180.941 172.451 181.691 172.451Z" fill="white"/>
</g>
<g opacity="0.2">
<path d="M245.308 177.269H269.341C270.098 177.269 270.199 176.103 269.448 176.103H245.416C244.658 176.103 244.558 177.269 245.308 177.269Z" fill="white"/>
</g>
<g opacity="0.2">
<path d="M244.886 182.086H266.46C267.211 182.086 267.311 180.92 266.561 180.92H244.994C244.237 180.92 244.136 182.086 244.886 182.086Z" fill="white"/>
</g>
<g opacity="0.2">
<path d="M244.471 186.93H267.513C268.27 186.93 268.37 185.764 267.62 185.764H244.552C243.801 185.764 243.694 186.93 244.451 186.93H244.471Z" fill="white"/>
</g>
<g opacity="0.2">
<path d="M244.049 191.721H266.105C266.862 191.721 266.963 190.548 266.212 190.548H244.149C243.399 190.548 243.292 191.721 244.049 191.721Z" fill="white"/>
</g>
<path opacity="0.5" d="M214.542 171.868H269.817L272.765 138.147H217.497L214.542 171.868Z" fill="white"/>
<path d="M233.602 149.082L217.603 171.869H245.615L233.602 149.082Z" fill="#2848BD"/>
<path opacity="0.2" d="M233.602 149.082L217.603 171.869H245.615L233.602 149.082Z" fill="white"/>
<path d="M252.717 143.46L232.771 171.868H267.692L252.717 143.46Z" fill="#2848BD"/>
<path opacity="0.6" d="M252.717 143.46L232.771 171.868H267.692L252.717 143.46Z" fill="white"/>
<path d="M245.952 145.042C245.86 145.964 245.432 146.82 244.75 147.447C244.069 148.075 243.18 148.43 242.253 148.445C241.818 148.453 241.386 148.367 240.986 148.195C240.586 148.022 240.227 147.766 239.933 147.444C239.64 147.122 239.418 146.741 239.284 146.327C239.149 145.913 239.104 145.475 239.151 145.042C239.246 144.121 239.675 143.268 240.356 142.642C241.037 142.016 241.925 141.661 242.85 141.645C243.285 141.636 243.717 141.721 244.117 141.893C244.517 142.065 244.876 142.32 245.169 142.641C245.463 142.963 245.684 143.343 245.819 143.757C245.954 144.171 245.999 144.609 245.952 145.042Z" fill="#2848BD"/>
<path opacity="0.2" d="M245.952 145.042C245.86 145.964 245.432 146.82 244.75 147.447C244.069 148.075 243.18 148.43 242.253 148.445C241.818 148.453 241.386 148.367 240.986 148.195C240.586 148.022 240.227 147.766 239.933 147.444C239.64 147.122 239.418 146.741 239.284 146.327C239.149 145.913 239.104 145.475 239.151 145.042C239.246 144.121 239.675 143.268 240.356 142.642C241.037 142.016 241.925 141.661 242.85 141.645C243.285 141.636 243.717 141.721 244.117 141.893C244.517 142.065 244.876 142.32 245.169 142.641C245.463 142.963 245.684 143.343 245.819 143.757C245.954 144.171 245.999 144.609 245.952 145.042Z" fill="white"/>
<path d="M245.461 206.192H199.901C199.473 206.2 199.049 206.116 198.656 205.946C198.263 205.776 197.912 205.524 197.625 205.206C197.338 204.889 197.122 204.514 196.993 204.106C196.863 203.698 196.822 203.267 196.873 202.842L197.194 199.124C197.28 198.219 197.695 197.378 198.361 196.76C199.027 196.142 199.897 195.791 200.806 195.774H246.366C246.793 195.766 247.218 195.85 247.611 196.02C248.003 196.19 248.355 196.443 248.642 196.76C248.929 197.077 249.145 197.453 249.274 197.86C249.404 198.268 249.445 198.699 249.394 199.124L249.066 202.842C248.98 203.746 248.566 204.586 247.901 205.204C247.237 205.822 246.368 206.173 245.461 206.192Z" fill="#2848BD"/>
<g opacity="0.8">
<path d="M212.229 199.024C212.486 199.136 212.701 199.329 212.838 199.573C212.979 199.828 213.034 200.122 212.993 200.411C212.973 200.713 212.869 201.003 212.691 201.248C212.512 201.493 212.268 201.683 211.988 201.798C211.663 201.931 211.314 201.997 210.962 201.992H210.085L209.978 203.191H208.966L209.348 198.83H211.237C211.578 198.821 211.916 198.888 212.229 199.024ZM211.72 201C211.805 200.932 211.874 200.847 211.924 200.75C211.974 200.653 212.002 200.547 212.008 200.438C212.022 200.336 212.012 200.232 211.979 200.134C211.947 200.037 211.892 199.948 211.82 199.875C211.627 199.733 211.389 199.664 211.15 199.681H210.326L210.192 201.195H211.016C211.265 201.208 211.512 201.14 211.72 201Z" fill="white"/>
<path d="M213.971 202.749C213.804 202.546 213.683 202.309 213.616 202.054C213.549 201.8 213.538 201.534 213.582 201.275L213.797 198.83H214.802L214.594 201.235C214.527 202.019 214.815 202.408 215.465 202.408C215.602 202.415 215.738 202.394 215.866 202.345C215.995 202.297 216.111 202.222 216.209 202.126C216.418 201.876 216.534 201.561 216.537 201.235L216.751 198.83H217.75L217.535 201.275C217.508 201.834 217.269 202.361 216.865 202.749C216.45 203.108 215.912 203.293 215.364 203.265C215.109 203.282 214.853 203.245 214.612 203.156C214.372 203.067 214.154 202.929 213.971 202.749Z" fill="white"/>
<path d="M222.319 201.322C222.444 201.522 222.496 201.758 222.466 201.992C222.456 202.169 222.403 202.342 222.312 202.494C222.221 202.647 222.095 202.776 221.944 202.87C221.537 203.101 221.071 203.208 220.604 203.178H218.346L218.728 198.816H220.865C221.286 198.784 221.705 198.893 222.057 199.124C222.186 199.216 222.288 199.341 222.35 199.487C222.413 199.632 222.435 199.792 222.413 199.949C222.402 200.154 222.332 200.352 222.212 200.518C222.094 200.687 221.934 200.823 221.749 200.913C221.982 200.977 222.184 201.122 222.319 201.322ZM219.679 199.593L219.592 200.619H220.597C220.798 200.63 220.998 200.583 221.173 200.485C221.239 200.444 221.294 200.388 221.334 200.321C221.373 200.255 221.396 200.18 221.401 200.103C221.413 200.03 221.404 199.956 221.376 199.888C221.347 199.821 221.3 199.763 221.24 199.721C221.072 199.623 220.878 199.578 220.684 199.593H219.679ZM221.22 202.273C221.291 202.232 221.35 202.174 221.393 202.104C221.435 202.033 221.458 201.953 221.461 201.871C221.461 201.51 221.24 201.329 220.704 201.329H219.525L219.431 202.407H220.61C220.819 202.428 221.03 202.391 221.22 202.3V202.273Z" fill="white"/>
<path d="M223.511 198.83H224.523L224.215 202.367H226.399L226.325 203.192H223.109L223.511 198.83Z" fill="white"/>
<path d="M227.277 198.83H228.289L227.907 203.192H226.896L227.277 198.83Z" fill="white"/>
<path d="M229.381 203.124C229.111 203.057 228.858 202.934 228.638 202.763L229.046 202.006C229.24 202.148 229.455 202.259 229.683 202.334C229.93 202.414 230.187 202.455 230.447 202.454C230.678 202.475 230.909 202.431 231.117 202.327C231.182 202.297 231.239 202.25 231.281 202.191C231.323 202.133 231.35 202.064 231.358 201.992C231.363 201.944 231.356 201.895 231.339 201.849C231.322 201.804 231.294 201.763 231.257 201.731C231.168 201.656 231.066 201.599 230.956 201.563C230.791 201.51 230.623 201.465 230.453 201.429C230.186 201.365 229.922 201.287 229.663 201.195C229.46 201.116 229.281 200.984 229.147 200.813C229.013 200.617 228.954 200.379 228.979 200.143C229.006 199.899 229.098 199.668 229.247 199.473C229.422 199.252 229.653 199.082 229.917 198.984C230.246 198.856 230.597 198.795 230.949 198.803C231.22 198.803 231.49 198.836 231.753 198.903C231.991 198.962 232.217 199.059 232.423 199.192L232.041 199.955C231.687 199.736 231.279 199.617 230.862 199.614C230.642 199.601 230.422 199.647 230.226 199.748C230.16 199.784 230.104 199.837 230.064 199.9C230.023 199.963 229.998 200.035 229.991 200.109C229.982 200.18 229.997 200.251 230.033 200.312C230.07 200.373 230.126 200.419 230.192 200.444C230.407 200.54 230.632 200.612 230.862 200.659C231.132 200.724 231.398 200.802 231.659 200.893C231.859 200.972 232.034 201.101 232.169 201.269C232.309 201.462 232.369 201.702 232.336 201.939C232.316 202.184 232.223 202.417 232.068 202.609C231.893 202.829 231.661 202.998 231.398 203.098C231.069 203.225 230.719 203.287 230.366 203.279C230.032 203.275 229.7 203.224 229.381 203.124Z" fill="white"/>
<path d="M237.3 198.83L236.918 203.192H235.907L236.067 201.403H234.057L233.903 203.192H232.892L233.274 198.83H234.285L234.131 200.552H236.141L236.289 198.83H237.3Z" fill="white"/>
</g>
<path d="M55.5371 222.018H80.843L75.6036 186.347C74.2837 177.342 66.3308 170.18 57.7012 170.18H51.1419C42.5056 170.18 36.3215 177.362 37.2126 186.367L39.2226 206.467L55.5371 222.018Z" fill="#2848BD"/>
<path opacity="0.1" d="M55.5371 222.018H80.843L75.6036 186.347C74.2837 177.342 66.3308 170.18 57.7012 170.18H51.1419C42.5056 170.18 36.3215 177.362 37.2126 186.367L39.2226 206.467L55.5371 222.018Z" fill="white"/>
<path d="M88.2998 222.018H48.1936L44.6694 186.347C43.785 177.342 49.9624 170.18 58.6054 170.18H65.158C73.801 170.18 81.7472 177.362 83.0671 186.367L88.2998 222.018Z" fill="#2848BD"/>
<path opacity="0.3" d="M88.2998 222.018H48.1936L44.6694 186.347C43.785 177.342 49.9624 170.18 58.6054 170.18H65.158C73.801 170.18 81.7472 177.362 83.0671 186.367L88.2998 222.018Z" fill="white"/>
<path d="M81.9885 234.272C90.9799 234.212 99.9847 230.252 105.713 223.237C110.411 217.586 113.015 210.486 113.083 203.137C113.083 200.29 110.564 197.563 107.643 197.697H90.7521C89.3172 197.723 87.9484 198.304 86.9336 199.319C85.9189 200.333 85.3375 201.702 85.3117 203.137C85.3117 203.747 85.3117 204.357 85.2447 204.973C85.2447 205.315 85.0035 206.648 85.1241 206.058C84.9074 207.272 84.6165 208.471 84.2531 209.65C84.1124 210.078 83.9516 210.507 83.7908 210.929C83.8846 210.661 83.4357 211.706 83.3017 211.974C82.7408 213.06 82.1119 214.11 81.419 215.117C81.419 215.164 81.3185 215.264 81.2515 215.365C81.1845 215.465 81.017 215.666 80.9634 215.726C80.5949 216.162 80.2197 216.591 79.8244 217.006C79.4291 217.422 78.9199 217.924 78.4442 218.346L77.7742 218.909L77.2315 219.338C76.93 219.545 76.4007 219.914 76.2868 220.008C75.8044 220.323 75.3153 220.624 74.8128 220.906C74.3103 221.187 73.9485 221.361 73.513 221.576C72.6152 221.107 71.7107 220.671 70.833 220.122C70.3439 219.813 69.8883 219.452 69.4126 219.143C70.4243 219.813 69.1178 218.896 68.8364 218.648C67.8787 217.797 66.9831 216.879 66.1564 215.901L65.9353 215.619C66.0693 215.78 65.5266 215.07 65.4462 214.949C65.0777 214.42 64.7293 213.871 64.4077 213.308C64.0861 212.745 63.7377 212.175 63.4898 211.593C63.3625 211.331 63.2486 211.063 63.128 210.802C63.6908 211.974 63.128 210.681 63.0208 210.487C62.5691 209.241 62.213 207.962 61.9555 206.661C61.9019 206.367 61.8684 206.065 61.8014 205.777C62.0828 207.07 61.8014 205.676 61.8014 205.429C61.7344 204.671 61.7076 203.908 61.7009 203.144C61.7009 200.296 59.2152 197.569 56.2605 197.703H39.3296C37.8937 197.726 36.5229 198.306 35.5075 199.322C34.492 200.337 33.9116 201.708 33.8892 203.144C33.9535 209.56 35.9694 215.804 39.6688 221.046C43.3681 226.288 48.5757 230.279 54.5989 232.49C58.0587 233.772 61.7305 234.386 65.4194 234.299L81.9885 234.272Z" fill="#2848BD"/>
<path opacity="0.4" d="M81.9885 234.272C90.9799 234.212 99.9847 230.252 105.713 223.237C110.411 217.586 113.015 210.486 113.083 203.137C113.083 200.29 110.564 197.563 107.643 197.697H90.7521C89.3172 197.723 87.9484 198.304 86.9336 199.319C85.9189 200.333 85.3375 201.702 85.3117 203.137C85.3117 203.747 85.3117 204.357 85.2447 204.973C85.2447 205.315 85.0035 206.648 85.1241 206.058C84.9074 207.272 84.6165 208.471 84.2531 209.65C84.1124 210.078 83.9516 210.507 83.7908 210.929C83.8846 210.661 83.4357 211.706 83.3017 211.974C82.7408 213.06 82.1119 214.11 81.419 215.117C81.419 215.164 81.3185 215.264 81.2515 215.365C81.1845 215.465 81.017 215.666 80.9634 215.726C80.5949 216.162 80.2197 216.591 79.8244 217.006C79.4291 217.422 78.9199 217.924 78.4442 218.346L77.7742 218.909L77.2315 219.338C76.93 219.545 76.4007 219.914 76.2868 220.008C75.8044 220.323 75.3153 220.624 74.8128 220.906C74.3103 221.187 73.9485 221.361 73.513 221.576C72.6152 221.107 71.7107 220.671 70.833 220.122C70.3439 219.813 69.8883 219.452 69.4126 219.143C70.4243 219.813 69.1178 218.896 68.8364 218.648C67.8787 217.797 66.9831 216.879 66.1564 215.901L65.9353 215.619C66.0693 215.78 65.5266 215.07 65.4462 214.949C65.0777 214.42 64.7293 213.871 64.4077 213.308C64.0861 212.745 63.7377 212.175 63.4898 211.593C63.3625 211.331 63.2486 211.063 63.128 210.802C63.6908 211.974 63.128 210.681 63.0208 210.487C62.5691 209.241 62.213 207.962 61.9555 206.661C61.9019 206.367 61.8684 206.065 61.8014 205.777C62.0828 207.07 61.8014 205.676 61.8014 205.429C61.7344 204.671 61.7076 203.908 61.7009 203.144C61.7009 200.296 59.2152 197.569 56.2605 197.703H39.3296C37.8937 197.726 36.5229 198.306 35.5075 199.322C34.492 200.337 33.9116 201.708 33.8892 203.144C33.9535 209.56 35.9694 215.804 39.6688 221.046C43.3681 226.288 48.5757 230.279 54.5989 232.49C58.0587 233.772 61.7305 234.386 65.4194 234.299L81.9885 234.272Z" fill="white"/>
<path d="M102.229 203.124C102.229 203.734 102.229 204.343 102.169 204.96C102.169 205.342 101.867 206.97 102.102 205.757C101.875 207.069 101.564 208.365 101.17 209.636C100.989 210.192 100.788 210.735 100.574 211.278C101.009 210.166 100.386 211.64 100.226 211.948C99.6649 213.035 99.0337 214.085 98.3362 215.09C98.2424 215.231 97.7064 215.981 98.1285 215.412C98.5506 214.842 97.9944 215.566 97.8872 215.7C97.5121 216.135 97.1368 216.564 96.7415 216.98C96.3462 217.395 95.837 217.897 95.3613 218.32L94.6913 218.882C94.5774 218.983 93.6193 219.713 94.2357 219.264C94.7382 218.896 93.3848 219.84 93.2039 219.934C92.7215 220.249 92.2324 220.551 91.7299 220.832C91.2274 221.113 90.7048 221.368 90.1889 221.623C90.0348 221.703 89.1772 222.078 89.8405 221.79C90.5038 221.502 89.4184 221.951 89.2777 221.998C88.1713 222.401 87.0386 222.728 85.8875 222.976C85.519 223.05 83.8775 223.298 85.1237 223.15C84.3733 223.244 83.6162 223.304 82.8524 223.331C81.6316 223.366 80.4097 223.323 79.1942 223.204C78.9061 223.204 78.1892 222.983 79.2947 223.204C79.0066 223.144 78.7051 223.103 78.417 223.05C77.747 222.922 77.1172 222.768 76.474 222.587C75.8308 222.407 75.3484 222.252 74.799 222.058C74.5243 221.964 74.2563 221.844 73.9749 221.757C73.2245 221.522 74.7588 222.172 74.0754 221.79C72.9967 221.201 71.8845 220.705 70.846 220.041C70.3569 219.733 69.9013 219.371 69.4256 219.063C70.4373 219.733 69.1308 218.815 68.8494 218.567C67.8918 217.717 66.9962 216.799 66.1694 215.82L65.6267 215.15C66.4441 216.169 65.5664 215.023 65.4592 214.869C65.0907 214.34 64.7423 213.79 64.4207 213.228C64.0991 212.665 63.7507 212.095 63.5028 211.512C63.3755 211.251 63.2616 210.983 63.141 210.722C63.7038 211.894 63.141 210.601 63.0338 210.407C62.5822 209.161 62.2261 207.882 61.9685 206.581C61.9149 206.286 61.8814 205.985 61.8144 205.697C62.0958 206.99 61.8144 205.596 61.8144 205.348C61.7474 204.591 61.7206 203.827 61.7139 203.064C61.7139 200.216 59.2282 197.489 56.2735 197.623C54.8383 197.646 53.4682 198.226 52.4539 199.242C51.4395 200.258 50.8606 201.628 50.8398 203.064C50.884 209.49 52.8876 215.751 56.5833 221.009C60.279 226.267 65.4908 230.272 71.5227 232.49C83.3482 236.912 97.713 233.046 105.693 223.271C110.391 217.62 112.994 210.52 113.063 203.171C113.063 200.323 110.544 197.596 107.622 197.73C106.188 197.756 104.819 198.338 103.804 199.352C102.789 200.367 102.208 201.736 102.182 203.171L102.229 203.124Z" fill="#2848BD"/>
<g opacity="0.6">
<path d="M102.229 203.124C102.229 203.734 102.229 204.343 102.169 204.96C102.169 205.342 101.867 206.97 102.102 205.757C101.875 207.069 101.564 208.365 101.17 209.636C100.989 210.192 100.788 210.735 100.574 211.278C101.009 210.166 100.386 211.64 100.226 211.948C99.6649 213.035 99.0337 214.085 98.3362 215.09C98.2424 215.231 97.7064 215.981 98.1285 215.412C98.5506 214.842 97.9944 215.566 97.8872 215.7C97.5121 216.135 97.1368 216.564 96.7415 216.98C96.3462 217.395 95.837 217.897 95.3613 218.32L94.6913 218.882C94.5774 218.983 93.6193 219.713 94.2357 219.264C94.7382 218.896 93.3848 219.84 93.2039 219.934C92.7215 220.249 92.2324 220.551 91.7299 220.832C91.2274 221.113 90.7048 221.368 90.1889 221.623C90.0348 221.703 89.1772 222.078 89.8405 221.79C90.5038 221.502 89.4184 221.951 89.2777 221.998C88.1713 222.401 87.0386 222.728 85.8875 222.976C85.519 223.05 83.8775 223.298 85.1237 223.15C84.3733 223.244 83.6162 223.304 82.8524 223.331C81.6316 223.366 80.4097 223.323 79.1942 223.204C78.9061 223.204 78.1892 222.983 79.2947 223.204C79.0066 223.144 78.7051 223.103 78.417 223.05C77.747 222.922 77.1172 222.768 76.474 222.587C75.8308 222.407 75.3484 222.252 74.799 222.058C74.5243 221.964 74.2563 221.844 73.9749 221.757C73.2245 221.522 74.7588 222.172 74.0754 221.79C72.9967 221.201 71.8845 220.705 70.846 220.041C70.3569 219.733 69.9013 219.371 69.4256 219.063C70.4373 219.733 69.1308 218.815 68.8494 218.567C67.8918 217.717 66.9962 216.799 66.1694 215.82L65.6267 215.15C66.4441 216.169 65.5664 215.023 65.4592 214.869C65.0907 214.34 64.7423 213.79 64.4207 213.228C64.0991 212.665 63.7507 212.095 63.5028 211.512C63.3755 211.251 63.2616 210.983 63.141 210.722C63.7038 211.894 63.141 210.601 63.0338 210.407C62.5822 209.161 62.2261 207.882 61.9685 206.581C61.9149 206.286 61.8814 205.985 61.8144 205.697C62.0958 206.99 61.8144 205.596 61.8144 205.348C61.7474 204.591 61.7206 203.827 61.7139 203.064C61.7139 200.216 59.2282 197.489 56.2735 197.623C54.8383 197.646 53.4682 198.226 52.4539 199.242C51.4395 200.258 50.8606 201.628 50.8398 203.064C50.884 209.49 52.8876 215.751 56.5833 221.009C60.279 226.267 65.4908 230.272 71.5227 232.49C83.3482 236.912 97.713 233.046 105.693 223.271C110.391 217.62 112.994 210.52 113.063 203.171C113.063 200.323 110.544 197.596 107.622 197.73C106.188 197.756 104.819 198.338 103.804 199.352C102.789 200.367 102.208 201.736 102.182 203.171L102.229 203.124Z" fill="white"/>
</g>
<path d="M75.1146 268.449L74.4915 268.08V234.272C74.4897 233.884 74.3344 233.513 74.0594 233.239C73.7844 232.965 73.4122 232.812 73.0242 232.812H68.897C68.5096 232.812 68.1381 232.965 67.8642 233.239C67.5903 233.513 67.4364 233.885 67.4364 234.272V268.08L66.8066 268.449C62.7618 270.793 58.1687 272.025 53.4937 272.02C52.5318 272.02 51.6091 272.402 50.9283 273.081C50.2475 273.761 49.8641 274.683 49.8623 275.645H92.0723C92.0723 275.168 91.9783 274.696 91.7957 274.256C91.6132 273.816 91.3456 273.416 91.0083 273.079C90.671 272.743 90.2706 272.476 89.8301 272.294C89.3895 272.112 88.9175 272.019 88.4409 272.02C83.7614 272.027 79.1633 270.795 75.1146 268.449Z" fill="#2848BD"/>
<path opacity="0.2" d="M74.4909 237.89V234.272C74.4891 233.884 74.3337 233.513 74.0588 233.239C73.7838 232.965 73.4116 232.812 73.0236 232.812H68.8964C68.509 232.812 68.1375 232.965 67.8636 233.239C67.5897 233.513 67.4358 233.885 67.4358 234.272V237.89H74.4909Z" fill="black"/>
<path d="M78.3902 139.36C78.3902 139.36 70.5311 147.735 75.201 154.053L75.0871 151.909C75.0871 151.909 75.7571 155.755 85.8071 156.472C95.8571 157.189 93.2642 150.656 93.2642 150.656C93.2642 150.656 93.9342 152.572 95.435 152.787C95.435 152.787 93.5456 150.683 94.2491 146.71C94.9526 142.737 97.847 140.68 93.2642 137.33C93.2642 137.33 93.6394 133.712 85.5592 134.65C77.479 135.588 78.3902 139.36 78.3902 139.36Z" fill="#2E353A"/>
<path d="M98.1947 160.981C96.7676 160.807 95.8564 158.77 96.0507 157.202C96.245 155.634 97.6319 153.852 99.059 154.06C99.2045 154.073 99.3458 154.115 99.4739 154.186C99.6019 154.256 99.7139 154.352 99.8027 154.469C100.218 155.005 100.091 155.882 99.9367 157.001C99.9367 157.215 99.8764 157.443 99.8429 157.671C99.8094 157.899 99.7893 158.133 99.7692 158.341C99.6486 159.46 99.5481 160.351 99.0188 160.76C98.9045 160.852 98.7721 160.92 98.6302 160.958C98.4882 160.996 98.3399 161.004 98.1947 160.981ZM98.9384 155.025C98.3756 154.958 97.2031 155.855 97.0222 157.323C96.8413 158.79 97.7525 159.942 98.3153 160.003C98.389 160.003 98.4024 160.003 98.4158 160.003C98.6235 159.835 98.7173 158.951 98.7977 158.241C98.7977 158.019 98.8446 157.792 98.8781 157.571C98.9116 157.349 98.9384 157.102 98.9719 156.901C99.0657 156.197 99.193 155.313 99.0322 155.105C99.0255 155.051 99.0121 155.038 98.9384 155.025Z" fill="#2848BD"/>
<g opacity="0.5">
<path d="M98.1957 160.981C96.7686 160.806 95.8574 158.77 96.0517 157.202C96.246 155.634 97.6329 153.852 99.06 154.06C99.2055 154.072 99.3468 154.115 99.4749 154.186C99.6029 154.256 99.7149 154.352 99.8037 154.468C100.219 155.004 100.092 155.882 99.9377 157.001C99.9377 157.215 99.8774 157.443 99.8439 157.671C99.8104 157.899 99.7903 158.133 99.7702 158.341C99.6496 159.46 99.5491 160.351 99.0198 160.76C98.9055 160.852 98.7731 160.919 98.6311 160.957C98.4892 160.995 98.3408 161.003 98.1957 160.981ZM98.9394 155.024C98.3766 154.957 97.2041 155.855 97.0232 157.322C96.8423 158.79 97.7535 159.942 98.3163 160.002C98.39 160.002 98.4034 160.002 98.4168 160.002C98.6245 159.835 98.7183 158.951 98.7987 158.24C98.7987 158.019 98.8456 157.791 98.8791 157.57C98.9126 157.349 98.9394 157.101 98.9729 156.9C99.0667 156.197 99.194 155.312 99.0332 155.105C99.0265 155.051 99.0131 155.038 98.9394 155.024Z" fill="black"/>
</g>
<path d="M109.533 170.883C109.533 170.883 91.4029 156.331 89.8686 161.684C87.8251 168.84 108.542 174.944 108.542 174.944C108.542 174.944 110.444 175.272 109.533 170.883Z" fill="#F94962"/>
<path opacity="0.2" d="M107.516 173.403C109.318 174.408 109.057 172.324 108.32 169.932C107.141 169.021 105.211 167.58 103.033 166.086C103.516 168.023 104.796 171.895 107.516 173.403Z" fill="black"/>
<path opacity="0.2" d="M93.4857 162.013L92.4338 163.688V167.232C94.2683 168.723 96.2775 169.985 98.4169 170.991C94.6783 168.914 93.7269 162.428 93.7269 162.428L93.4857 162.013Z" fill="black"/>
<path d="M71.7779 159.869C71.5065 159.863 71.2369 159.913 70.9852 160.014C70.7336 160.116 70.5051 160.267 70.3135 160.459C70.1219 160.651 69.9713 160.88 69.8706 161.132C69.7699 161.384 69.7213 161.654 69.7277 161.925C69.8885 167.694 70.2436 183.741 69.4329 190.032C68.8098 194.91 65.0042 209.187 65.0042 209.187L91.9583 197.167C91.9583 197.167 91.5697 188.203 91.9583 185.248C92.3134 182.515 94.5713 177.349 94.7924 174.609C94.9733 172.344 93.9415 167.842 93.8745 165.57C93.8745 164.753 93.9415 163.044 94.0085 161.899C94.0175 161.749 93.9966 161.599 93.947 161.458C93.8974 161.317 93.8201 161.187 93.7197 161.076C93.6192 160.965 93.4976 160.875 93.362 160.811C93.2263 160.748 93.0794 160.712 92.9298 160.706L71.7779 159.869Z" fill="#F94962"/>
<path d="M132.031 248.67L133.866 256.59L130.021 257.474L127.716 250.104L132.031 248.67Z" fill="#B97964"/>
<path d="M135.059 256.563C135.037 256.563 135.015 256.557 134.996 256.545C134.977 256.533 134.962 256.516 134.952 256.496C134.941 256.478 134.935 256.457 134.935 256.436C134.935 256.414 134.941 256.394 134.952 256.375C135.012 256.322 136.346 255.102 137.123 255.136C137.266 255.143 137.402 255.203 137.505 255.303C137.567 255.358 137.611 255.43 137.631 255.511C137.65 255.591 137.643 255.676 137.612 255.752C137.485 256.027 136.942 256.255 136.399 256.382C135.959 256.481 135.51 256.541 135.059 256.563ZM135.361 256.349C136.198 256.262 137.304 256 137.444 255.679C137.444 255.638 137.478 255.565 137.371 255.458C137.342 255.424 137.306 255.398 137.265 255.381C137.224 255.363 137.18 255.355 137.136 255.357C137.068 255.344 136.997 255.344 136.929 255.357C136.34 255.582 135.801 255.919 135.341 256.349H135.361Z" fill="#2848BD"/>
<path d="M134.998 256.57C134.981 256.562 134.965 256.55 134.954 256.535C134.942 256.52 134.934 256.502 134.931 256.483C134.832 255.851 134.935 255.203 135.226 254.633C135.292 254.548 135.373 254.477 135.466 254.424C135.56 254.372 135.662 254.338 135.769 254.325C136.057 254.285 136.178 254.412 136.218 254.526C136.426 255.002 135.588 256.188 135.112 256.536H135.072C135.063 256.547 135.052 256.556 135.039 256.561C135.026 256.567 135.012 256.57 134.998 256.57ZM135.742 254.56C135.611 254.585 135.493 254.66 135.414 254.767C135.172 255.221 135.074 255.737 135.132 256.248C135.608 255.799 136.131 254.908 136.03 254.607C136.03 254.607 135.99 254.513 135.802 254.54H135.742V254.56Z" fill="#2848BD"/>
<path d="M134.47 256.047L129.68 257.139C129.593 257.159 129.515 257.207 129.459 257.277C129.403 257.346 129.372 257.432 129.371 257.521V261.615C129.371 261.793 129.442 261.963 129.568 262.089C129.693 262.214 129.864 262.285 130.041 262.285H130.182C131.897 261.863 133.411 261.421 135.542 260.945C138.081 260.369 137.505 260.818 140.493 260.181C142.296 259.799 142.162 257.682 141.378 257.756C137.793 258.104 137.19 257.139 135.562 256.195C135.228 256.016 134.84 255.964 134.47 256.047Z" fill="#263238"/>
<path opacity="0.1" d="M133.351 254.365L132.031 248.67L127.716 250.104L129.465 255.705L133.351 254.365Z" fill="black"/>
<path d="M65.3578 215.74C62.9793 210.025 64.6476 200.785 83.2669 197.301C98.5496 194.434 108.486 195.573 113.718 196.792C115.116 197.118 116.415 197.775 117.505 198.707C118.595 199.64 119.445 200.822 119.983 202.152C122.609 208.591 126.83 219.445 133.095 251.411L128.365 253.421C128.365 253.421 123.192 237.97 120.445 231.666C117.966 225.984 112.64 217.006 110.985 208.732C110.985 208.732 103.668 211.298 94.7909 215.525C83.6622 220.798 70.0746 227.09 65.3578 215.74Z" fill="#263238"/>
<path d="M127.421 252.188L128.574 254.982L133.867 253.012L133.317 250.104L127.421 252.188Z" fill="#263238"/>
<path opacity="0.2" d="M127.421 252.188L128.574 254.982L133.867 253.012L133.317 250.104L127.421 252.188Z" fill="white"/>
<path opacity="0.1" d="M110.839 208.765L110.987 208.712C111.904 212.758 113.272 216.689 115.067 220.43C116.065 216.102 117.258 209.978 116.373 208.792C114.966 206.916 110.839 208.792 110.839 208.792V208.765Z" fill="black"/>
<path d="M97.9077 263.183L96.7017 271.129H100.514L102.638 263.504L97.9077 263.183Z" fill="#B97964"/>
<path d="M101.499 271.289C101.477 271.286 101.456 271.277 101.44 271.263C101.423 271.249 101.411 271.23 101.405 271.209C101.402 271.187 101.405 271.164 101.414 271.144C101.424 271.124 101.439 271.107 101.458 271.095C101.525 271.055 103.066 270.117 103.823 270.298C103.965 270.33 104.088 270.417 104.165 270.539C104.214 270.606 104.24 270.687 104.24 270.77C104.24 270.853 104.214 270.934 104.165 271.001C103.784 271.295 103.304 271.432 102.825 271.383C102.381 271.389 101.937 271.358 101.499 271.289ZM101.84 271.142C102.678 271.222 103.81 271.182 104.011 270.887C104.011 270.847 104.065 270.78 104.011 270.653C103.989 270.614 103.959 270.581 103.921 270.556C103.884 270.531 103.841 270.516 103.797 270.512C103.73 270.502 103.662 270.502 103.596 270.512C102.975 270.606 102.379 270.82 101.84 271.142Z" fill="#2848BD"/>
<path d="M101.438 271.29C101.422 271.28 101.409 271.267 101.401 271.25C101.392 271.233 101.389 271.214 101.391 271.196C101.42 270.552 101.655 269.934 102.061 269.434C102.224 269.292 102.436 269.22 102.651 269.233C102.946 269.233 103.04 269.4 103.053 269.528C103.16 270.03 102.108 271.035 101.579 271.283C101.572 271.286 101.564 271.288 101.556 271.288C101.548 271.288 101.54 271.286 101.532 271.283L101.438 271.29ZM102.564 269.44C102.428 269.443 102.298 269.492 102.195 269.581C101.873 269.981 101.68 270.469 101.639 270.981C102.189 270.633 102.872 269.849 102.839 269.548C102.839 269.548 102.839 269.447 102.624 269.434L102.564 269.44Z" fill="#2848BD"/>
<path d="M101.023 270.68L96.1119 270.814C96.0221 270.817 95.936 270.85 95.8678 270.909C95.7996 270.967 95.7534 271.047 95.7367 271.135L94.9528 275.155C94.9228 275.326 94.9598 275.501 95.0559 275.644C95.152 275.788 95.2999 275.889 95.4687 275.926C95.5153 275.932 95.5627 275.932 95.6094 275.926C97.3782 275.845 98.9594 275.705 101.15 275.651C103.75 275.584 103.1 275.912 106.155 275.872C107.998 275.872 108.279 273.742 107.495 273.661C103.911 273.306 103.509 272.241 102.095 270.981C101.785 270.755 101.405 270.648 101.023 270.68Z" fill="#263238"/>
<path opacity="0.1" d="M101.104 269.012L102.639 263.504L97.9083 263.183L97.0239 269.012H101.104Z" fill="black"/>
<path d="M114.772 211.311C114.377 210.596 113.812 209.989 113.125 209.545C112.439 209.1 111.654 208.833 110.839 208.765C109.781 209.147 102.947 211.62 94.7592 215.506C89.2116 218.145 83.0476 221.033 77.6809 221.857L104.22 220.296C101.613 227.867 100.984 239.686 100.2 246.185C99.4358 252.49 97.1243 265.93 97.1243 265.93H102.21C102.21 265.93 117.017 215.452 114.772 211.311Z" fill="#263238"/>
<path opacity="0.4" d="M114.772 211.311C114.377 210.596 113.812 209.989 113.125 209.545C112.439 209.1 111.654 208.833 110.839 208.765C109.781 209.147 102.947 211.62 94.7592 215.506C89.2116 218.145 83.0476 221.033 77.6809 221.857L104.22 220.296C101.613 227.867 100.984 239.686 100.2 246.185C99.4358 252.49 97.1243 265.93 97.1243 265.93H102.21C102.21 265.93 117.017 215.452 114.772 211.311Z" fill="black"/>
<path d="M96.7079 265.119L96.3193 268.141L102.316 268.047L102.946 265.152L96.7079 265.119Z" fill="#263238"/>
<path opacity="0.2" d="M96.7079 265.119L96.3193 268.141L102.316 268.047L102.946 265.152L96.7079 265.119Z" fill="white"/>
<path d="M106.27 159.922L105.191 157.879L101.011 154.361C100.803 154.189 100.541 154.094 100.27 154.094C99.9999 154.094 99.738 154.189 99.53 154.361L97.4195 156.11C97.2577 156.243 97.1354 156.417 97.0657 156.614C96.996 156.811 96.9816 157.024 97.0242 157.229L97.4731 159.44C97.5262 159.677 97.6536 159.892 97.8367 160.052C98.0198 160.212 98.2491 160.31 98.4915 160.331C99.8315 160.431 102.337 160.512 102.934 159.775L103.557 161.604L106.27 159.922Z" fill="#B97964"/>
<path d="M94.1955 152.7H96.8755C97.2825 152.7 97.6727 152.861 97.9605 153.149C98.2482 153.437 98.4098 153.827 98.4098 154.234V159.594C98.4098 160.276 98.1388 160.931 97.6563 161.413C97.1738 161.896 96.5194 162.167 95.837 162.167H95.2273C94.545 162.167 93.8906 161.896 93.4081 161.413C92.9256 160.931 92.6545 160.276 92.6545 159.594V154.234C92.6545 154.032 92.6945 153.832 92.772 153.645C92.8495 153.459 92.9631 153.289 93.1063 153.147C93.2495 153.004 93.4194 152.891 93.6063 152.815C93.7933 152.738 93.9935 152.699 94.1955 152.7Z" fill="#2848BD"/>
<path opacity="0.4" d="M94.1955 152.7H96.8755C97.2825 152.7 97.6727 152.861 97.9605 153.149C98.2482 153.437 98.4098 153.827 98.4098 154.234V159.594C98.4098 160.276 98.1388 160.931 97.6563 161.413C97.1738 161.896 96.5194 162.167 95.837 162.167H95.2273C94.545 162.167 93.8906 161.896 93.4081 161.413C92.9256 160.931 92.6545 160.276 92.6545 159.594V154.234C92.6545 154.032 92.6945 153.832 92.772 153.645C92.8495 153.459 92.9631 153.289 93.1063 153.147C93.2495 153.004 93.4194 152.891 93.6063 152.815C93.7933 152.738 93.9935 152.699 94.1955 152.7Z" fill="black"/>
<path d="M81.0228 150.656C81.331 153.517 81.4382 158.696 79.3076 160.418C81.3771 162.338 83.688 163.98 86.1818 165.302C89.5318 162.991 88.0444 160.512 88.0444 160.512C85.3644 159.761 85.2572 157.162 85.9607 155.038L81.0228 150.656Z" fill="#B97964"/>
<path opacity="0.1" d="M85.961 155.038L82.611 152.05L81.8606 152.418C81.8606 152.418 82.7115 156.197 85.626 157.45C85.5883 156.632 85.7019 155.814 85.961 155.038Z" fill="black"/>
<path d="M79.4229 143.842C79.5636 148.566 79.5167 150.542 81.8148 153.061C85.272 156.813 91.034 155.614 92.3204 150.951C93.4661 146.757 93.0574 139.748 88.5081 137.718C87.5075 137.268 86.4086 137.081 85.3154 137.174C84.2222 137.268 83.1709 137.638 82.2611 138.252C81.3513 138.865 80.6131 139.7 80.1164 140.679C79.6198 141.657 79.381 142.746 79.4229 143.842Z" fill="#B97964"/>
<path d="M83.5895 135.393C82.4773 136.573 83.8776 139.568 88.1053 140.284C91.2878 140.834 94.4569 145.122 94.9795 141.397C95.4753 138.02 87.9445 134.596 83.5895 135.393Z" fill="#2E353A"/>
<path d="M85.6387 136.921C87.4276 139.092 85.2769 141.799 83.9168 142.951C82.5567 144.103 80.6405 144.961 81.4177 147.299C82.1949 149.638 81.7728 155.379 78.0074 153.483C74.242 151.587 75.9639 144.968 77.8332 142.167C79.7025 139.366 83.5014 134.341 85.6387 136.921Z" fill="#2E353A"/>
<path d="M89.6801 146.154C89.9923 147.042 90.4252 147.883 90.9665 148.653C90.7668 148.786 90.5405 148.874 90.3034 148.911C90.0662 148.948 89.8238 148.933 89.593 148.867L89.6801 146.154Z" fill="#A24E3F"/>
<path d="M84.8286 143.434C84.7972 143.427 84.7689 143.411 84.7482 143.387C84.7305 143.37 84.7165 143.349 84.7069 143.327C84.6973 143.305 84.6924 143.28 84.6924 143.256C84.6924 143.232 84.6973 143.207 84.7069 143.185C84.7165 143.162 84.7305 143.142 84.7482 143.125C84.9888 142.87 85.2871 142.676 85.6181 142.559C85.9492 142.443 86.3033 142.407 86.651 142.455C86.6986 142.467 86.74 142.496 86.7663 142.537C86.7926 142.579 86.8017 142.628 86.7917 142.676C86.7819 142.724 86.7541 142.766 86.7142 142.793C86.6742 142.821 86.6251 142.832 86.5773 142.824C86.2895 142.79 85.9979 142.826 85.7265 142.927C85.4551 143.028 85.2116 143.193 85.0162 143.407C84.9904 143.428 84.9593 143.442 84.9262 143.447C84.893 143.451 84.8593 143.447 84.8286 143.434Z" fill="#2E353A"/>
<path d="M92.9567 143.769C92.9278 143.757 92.9007 143.741 92.8763 143.722C92.6674 143.521 92.414 143.373 92.1369 143.289C91.8598 143.205 91.5667 143.188 91.2817 143.239C91.2584 143.246 91.2339 143.249 91.2097 143.246C91.1854 143.244 91.162 143.236 91.1407 143.224C91.1194 143.212 91.1008 143.196 91.0859 143.177C91.0709 143.158 91.0601 143.136 91.0539 143.112C91.0417 143.064 91.0489 143.013 91.074 142.971C91.0991 142.928 91.1401 142.897 91.1879 142.884C91.5337 142.817 91.8906 142.834 92.2287 142.933C92.5667 143.032 92.8761 143.21 93.1309 143.454C93.1486 143.471 93.1626 143.491 93.1722 143.513C93.1818 143.536 93.1867 143.56 93.1867 143.584C93.1867 143.609 93.1818 143.633 93.1722 143.655C93.1626 143.678 93.1486 143.698 93.1309 143.715C93.1078 143.743 93.0771 143.763 93.0427 143.774C93.0082 143.785 92.9714 143.785 92.9366 143.775L92.9567 143.769Z" fill="#2E353A"/>
<path d="M86.9922 145.437C86.9922 145.812 87.1731 146.107 87.4277 146.14C87.6823 146.174 87.89 145.852 87.8967 145.47C87.9034 145.088 87.7158 144.8 87.4679 144.76C87.22 144.72 87.0056 145.048 86.9922 145.437Z" fill="#2E353A"/>
<path d="M91.3284 145.578C91.3284 145.96 91.5093 146.248 91.7572 146.288C92.0051 146.328 92.2195 145.993 92.2329 145.618C92.2463 145.243 92.052 144.948 91.8041 144.948C91.5562 144.948 91.3418 145.189 91.3284 145.578Z" fill="#2E353A"/>
<path d="M91.6965 144.914L92.6278 144.68C92.6278 144.68 92.1253 145.39 91.6965 144.914Z" fill="#2E353A"/>
<path d="M87.3616 144.774L88.2862 144.539C88.2862 144.539 87.7703 145.243 87.3616 144.774Z" fill="#2E353A"/>
<path d="M77.9074 160.049C77.5905 159.84 77.2188 159.728 76.8388 159.728C76.4587 159.728 76.0871 159.84 75.7701 160.049C75.7701 160.049 74.7919 159.446 74.343 159.969C74.343 159.969 80.7281 172.156 79.8035 180.478C79.2604 184.989 78.9786 189.528 78.9593 194.072C78.9593 194.072 81.2641 193.007 82.4165 193.402C83.2078 193.623 84.0533 193.534 84.7816 193.154C84.7816 193.154 84.1786 183.935 84.2724 179.627C84.4935 169.731 78.9727 160.404 78.9727 160.404L77.9074 160.049Z" fill="#DF4460"/>
<path d="M87.5896 150.536C87.8638 150.775 88.1826 150.957 88.5276 151.072C88.8725 151.187 89.2369 151.232 89.5996 151.206C89.6235 151.203 89.6457 151.192 89.6627 151.175C89.6797 151.158 89.6905 151.136 89.6934 151.112C89.6943 151.1 89.6927 151.088 89.6888 151.077C89.6848 151.065 89.6785 151.055 89.6704 151.046C89.6622 151.037 89.6523 151.03 89.6412 151.025C89.6302 151.021 89.6183 151.018 89.6063 151.018C89.2081 151.044 88.8095 150.977 88.4412 150.824C88.0729 150.67 87.7448 150.434 87.4824 150.134C87.4655 150.12 87.4441 150.112 87.4221 150.112C87.4 150.112 87.3787 150.12 87.3618 150.134C87.3453 150.152 87.3362 150.176 87.3362 150.201C87.3362 150.225 87.3453 150.249 87.3618 150.268C87.4221 150.375 87.5025 150.455 87.5896 150.536Z" fill="#2E353A"/>
<path d="M103.02 160.411C103.02 160.411 105.7 177.222 109.525 174.729C112.842 172.579 107.703 162.113 106.175 159.051C106.139 158.98 106.085 158.92 106.018 158.876C105.952 158.832 105.875 158.806 105.795 158.801C105.716 158.795 105.636 158.811 105.564 158.845C105.492 158.88 105.43 158.932 105.385 158.998C105.104 159.378 104.75 159.699 104.344 159.942C103.938 160.184 103.488 160.344 103.02 160.411Z" fill="#F94962"/>
<path d="M80.1654 158.555C80.1654 158.555 83.6561 163.534 86.7917 162.575C89.1769 161.859 86.6175 159.741 86.6175 159.741C86.861 159.684 87.114 159.68 87.3592 159.73C87.6044 159.78 87.8359 159.882 88.0379 160.029C88.0379 160.029 88.5203 159.795 89.1769 160.606C89.1769 160.606 91.7095 166.381 87.7766 167.192C81.9208 168.398 77.9075 160.029 77.9075 160.029C77.9075 160.029 78.6378 159.132 79.3078 159.359C79.3078 159.406 79.013 158.643 80.1654 158.555Z" fill="#DF4460"/>
<path opacity="0.2" d="M92.4593 184.39L83.4478 183.968L71.2203 160.672C71.1716 160.697 71.1265 160.729 71.0863 160.766C70.3136 161.421 69.8318 162.356 69.7463 163.366C69.7463 163.942 69.7463 164.565 69.7865 165.248C70.2957 168.96 73.1365 175.231 80.1514 186.441C80.5413 187.065 81.0895 187.575 81.7402 187.918C82.391 188.262 83.1212 188.427 83.8565 188.397L92.4124 187.774C92.4124 186.715 92.4124 185.59 92.4593 184.39Z" fill="black"/>
<path opacity="0.2" d="M80.5208 161.048C80.5208 161.048 85.3649 165.128 87.529 164.244C88.9293 163.667 88.3731 161.852 88.3731 161.852C88.3731 161.852 90.2491 165.302 87.6093 165.771C84.6412 166.294 80.5208 161.048 80.5208 161.048Z" fill="black"/>
<path opacity="0.2" d="M78.2971 160.8L80.6421 164.103C80.0292 163.763 79.5004 163.289 79.0946 162.718C78.6888 162.146 78.4163 161.491 78.2971 160.8Z" fill="black"/>
<path d="M88.6404 160.539C89.0041 160.37 89.4026 160.289 89.8033 160.305C90.204 160.32 90.5954 160.43 90.9452 160.626C90.9452 160.626 91.8095 165.028 92.3857 167.909C92.9619 170.79 93.1964 174.421 92.6336 180.23C92.371 184.223 92.3576 188.228 92.5934 192.223C92.2393 192.01 91.834 191.898 91.4209 191.898C91.0079 191.898 90.6026 192.01 90.2484 192.223C89.9192 192.44 89.5176 192.518 89.131 192.44C88.7445 192.362 88.4044 192.135 88.1848 191.807C88.1848 191.807 88.5265 185.865 89.5248 180.19C90.3356 174.846 90.2927 169.407 89.3975 164.076L88.6404 160.539Z" fill="#DF4460"/>
<path opacity="0.2" d="M89.385 161.604C89.385 161.604 90.3029 162.73 89.8473 165.302C89.8473 165.302 91.5156 163.849 89.385 161.604Z" fill="black"/>
<path d="M78.4642 149.088C78.885 149.894 79.6075 150.501 80.4742 150.777C81.6333 151.125 82.2363 150.107 81.9348 148.988C81.6668 147.996 80.7355 146.609 79.563 146.743C79.358 146.769 79.1604 146.836 78.9816 146.94C78.8028 147.043 78.6465 147.182 78.5217 147.346C78.3969 147.511 78.3063 147.699 78.255 147.899C78.2037 148.099 78.1928 148.308 78.223 148.512C78.2607 148.719 78.343 148.916 78.4642 149.088Z" fill="#B97964"/>
<path d="M104.373 182.153H106.109L111.348 181.168C111.633 181.117 111.927 181.141 112.201 181.237C112.474 181.334 112.718 181.499 112.909 181.717L116.862 186.113L114.571 186.186L112.44 185.449C112.44 185.449 109.345 187.037 104.735 184.953L104.373 182.153Z" fill="#B97964"/>
<path d="M84.9302 180.645C84.9302 180.645 74.2705 157.195 70.6324 160.753C68.1132 163.219 68.9105 168.344 81.0308 185.416C81.4511 186.005 82.0191 186.473 82.6778 186.773C83.3364 187.073 84.0625 187.194 84.7828 187.124L105.198 185.784C104.938 184.418 104.938 183.016 105.198 181.65L84.9302 180.645Z" fill="#F94962"/>
<path d="M140.458 268.449L139.835 268.081V196.545C139.833 196.158 139.679 195.788 139.405 195.514C139.132 195.241 138.761 195.086 138.374 195.084H134.241C133.853 195.084 133.482 195.238 133.208 195.512C132.934 195.786 132.78 196.158 132.78 196.545V268.081L132.15 268.449C128.106 270.794 123.512 272.027 118.837 272.02C117.875 272.02 116.953 272.402 116.272 273.082C115.591 273.761 115.208 274.683 115.206 275.645H157.416C157.416 275.169 157.322 274.698 157.14 274.258C156.958 273.818 156.691 273.419 156.354 273.082C156.018 272.746 155.618 272.479 155.178 272.296C154.738 272.114 154.267 272.02 153.791 272.02C149.109 272.028 144.509 270.796 140.458 268.449Z" fill="#2848BD"/>
<path opacity="0.2" d="M139.835 200.163V196.545C139.833 196.158 139.679 195.788 139.405 195.514C139.132 195.241 138.761 195.086 138.375 195.084H134.241C133.853 195.084 133.482 195.238 133.208 195.512C132.934 195.786 132.78 196.158 132.78 196.545V200.163H139.835Z" fill="black"/>
<path d="M102.664 192.699H169.945V194.662C169.945 195.279 169.7 195.87 169.264 196.306C168.828 196.742 168.237 196.987 167.62 196.987H104.989C104.372 196.987 103.781 196.742 103.345 196.306C102.909 195.87 102.664 195.279 102.664 194.662V192.699Z" fill="#2848BD"/>
<path opacity="0.3" d="M102.664 192.699H169.945V194.662C169.945 195.279 169.7 195.87 169.264 196.306C168.828 196.742 168.237 196.987 167.62 196.987H104.989C104.372 196.987 103.781 196.742 103.345 196.306C102.909 195.87 102.664 195.279 102.664 194.662V192.699Z" fill="white"/>
<path d="M172.351 188.418H100.259C99.0749 188.418 98.115 189.378 98.115 190.562C98.115 191.746 99.0749 192.706 100.259 192.706H172.351C173.535 192.706 174.495 191.746 174.495 190.562C174.495 189.378 173.535 188.418 172.351 188.418Z" fill="#2848BD"/>
<path opacity="0.4" d="M172.351 188.418H100.259C99.0749 188.418 98.115 189.378 98.115 190.562C98.115 191.746 99.0749 192.706 100.259 192.706H172.351C173.535 192.706 174.495 191.746 174.495 190.562C174.495 189.378 173.535 188.418 172.351 188.418Z" fill="white"/>
<path opacity="0.2" d="M136.996 195.841V192.699H102.665V195.841C102.643 196.12 102.731 196.396 102.91 196.61C103.089 196.824 103.345 196.96 103.623 196.987H136.011C136.151 196.977 136.288 196.939 136.413 196.876C136.539 196.813 136.65 196.725 136.742 196.619C136.833 196.512 136.903 196.389 136.947 196.255C136.99 196.122 137.007 195.981 136.996 195.841Z" fill="black"/>
<path opacity="0.2" d="M141.544 191.178V189.945C141.574 189.575 141.458 189.207 141.22 188.921C140.982 188.636 140.641 188.455 140.271 188.418H99.4012C99.0301 188.453 98.6879 188.634 98.4485 188.919C98.2091 189.205 98.0917 189.574 98.1215 189.945V191.178C98.0917 191.549 98.2094 191.917 98.449 192.201C98.6885 192.486 99.0307 192.665 99.4012 192.699H140.271C140.641 192.663 140.981 192.484 141.219 192.199C141.457 191.915 141.574 191.548 141.544 191.178Z" fill="black"/>
<path d="M145.766 188.371H123.355C122.776 188.371 122.22 188.141 121.81 187.731C121.401 187.322 121.171 186.766 121.171 186.187H147.971C147.971 186.475 147.914 186.761 147.802 187.027C147.691 187.294 147.529 187.535 147.324 187.738C147.119 187.941 146.876 188.102 146.608 188.211C146.341 188.319 146.055 188.374 145.766 188.371Z" fill="#263238"/>
<path opacity="0.2" d="M145.766 188.371H123.355C122.776 188.371 122.22 188.141 121.81 187.731C121.401 187.322 121.171 186.766 121.171 186.187H147.971C147.971 186.475 147.914 186.761 147.802 187.027C147.691 187.294 147.529 187.535 147.324 187.738C147.119 187.941 146.876 188.102 146.608 188.211C146.341 188.319 146.055 188.374 145.766 188.371Z" fill="white"/>
<path d="M130.108 188.371H107.697C107.118 188.371 106.562 188.141 106.152 187.731C105.743 187.322 105.513 186.766 105.513 186.187H132.313C132.313 186.475 132.256 186.761 132.145 187.027C132.034 187.294 131.871 187.535 131.666 187.738C131.461 187.941 131.218 188.102 130.95 188.211C130.683 188.319 130.397 188.374 130.108 188.371Z" fill="#263238"/>
<path opacity="0.5" d="M130.108 188.371H107.697C107.118 188.371 106.562 188.141 106.152 187.731C105.743 187.322 105.513 186.766 105.513 186.187H132.313C132.313 186.475 132.256 186.761 132.145 187.027C132.034 187.294 131.871 187.535 131.666 187.738C131.461 187.941 131.218 188.102 130.95 188.211C130.683 188.319 130.397 188.374 130.108 188.371Z" fill="white"/>
<path d="M145.947 187.708H132.279C132.199 187.706 132.121 187.686 132.05 187.649C131.979 187.612 131.917 187.558 131.871 187.493C131.824 187.428 131.793 187.353 131.78 187.274C131.767 187.195 131.773 187.114 131.797 187.038L139.288 165.631C139.389 165.344 139.576 165.095 139.825 164.918C140.073 164.742 140.37 164.647 140.675 164.646H154.336C154.416 164.647 154.496 164.666 154.568 164.703C154.64 164.74 154.702 164.793 154.749 164.858C154.797 164.923 154.828 164.999 154.842 165.078C154.855 165.158 154.849 165.239 154.825 165.316L147.334 186.723C147.233 187.01 147.046 187.259 146.797 187.435C146.549 187.612 146.252 187.707 145.947 187.708Z" fill="#263238"/>
<path opacity="0.5" d="M145.947 187.708H132.279C132.199 187.706 132.121 187.686 132.05 187.649C131.979 187.612 131.917 187.558 131.871 187.493C131.824 187.428 131.793 187.353 131.78 187.274C131.767 187.195 131.773 187.114 131.797 187.038L139.288 165.631C139.389 165.344 139.576 165.095 139.825 164.918C140.073 164.742 140.37 164.647 140.675 164.646H154.336C154.416 164.647 154.496 164.666 154.568 164.703C154.64 164.74 154.702 164.793 154.749 164.858C154.797 164.923 154.828 164.999 154.842 165.078C154.855 165.158 154.849 165.239 154.825 165.316L147.334 186.723C147.233 187.01 147.046 187.259 146.797 187.435C146.549 187.612 146.252 187.707 145.947 187.708Z" fill="white"/>
<path d="M146.604 187.708H132.942C132.862 187.707 132.782 187.688 132.71 187.651C132.639 187.614 132.576 187.561 132.529 187.496C132.481 187.431 132.45 187.355 132.437 187.276C132.423 187.196 132.429 187.115 132.453 187.038L139.944 165.631C140.045 165.344 140.233 165.095 140.481 164.918C140.729 164.742 141.026 164.647 141.331 164.646H154.999C155.079 164.648 155.158 164.668 155.229 164.706C155.3 164.743 155.361 164.796 155.409 164.861C155.456 164.925 155.488 165 155.501 165.079C155.515 165.158 155.51 165.239 155.488 165.316L147.991 186.723C147.889 187.01 147.702 187.259 147.453 187.435C147.205 187.612 146.908 187.707 146.604 187.708Z" fill="#263238"/>
<path opacity="0.7" d="M146.604 187.708H132.942C132.862 187.707 132.782 187.688 132.71 187.651C132.639 187.614 132.576 187.561 132.529 187.496C132.481 187.431 132.45 187.355 132.437 187.276C132.423 187.196 132.429 187.115 132.453 187.038L139.944 165.631C140.045 165.344 140.233 165.095 140.481 164.918C140.729 164.742 141.026 164.647 141.331 164.646H154.999C155.079 164.648 155.158 164.668 155.229 164.706C155.3 164.743 155.361 164.796 155.409 164.861C155.456 164.925 155.488 165 155.501 165.079C155.515 165.158 155.51 165.239 155.488 165.316L147.991 186.723C147.889 187.01 147.702 187.259 147.453 187.435C147.205 187.612 146.908 187.707 146.604 187.708Z" fill="white"/>
<path d="M145.076 176.17C144.902 176.988 144.332 177.651 143.809 177.651C143.287 177.651 142.999 176.981 143.173 176.17C143.347 175.36 143.917 174.683 144.439 174.683C144.962 174.683 145.25 175.346 145.076 176.17Z" fill="white"/>
</g>
<defs>
<clipPath id="clip0_241_1052">
<rect width="335" height="335" fill="white"/>
</clipPath>
</defs>
</svg>
